<?xml version="1.0" encoding="utf-8" standalone="no"?>
<!DOCTYPE svg PUBLIC "-//W3C//DTD SVG 1.1//EN"
  "http://www.w3.org/Graphics/SVG/1.1/DTD/svg11.dtd">
<!-- Created with matplotlib (http://matplotlib.org/) -->
<svg height="432pt" version="1.1" viewBox="0 0 576 432" width="576pt" xmlns="http://www.w3.org/2000/svg" xmlns:xlink="http://www.w3.org/1999/xlink">
 <defs>
  <style type="text/css">
*{stroke-linecap:butt;stroke-linejoin:round;}
  </style>
 </defs>
 <g id="figure_1">
  <g id="patch_1">
   <path d="
M0 432
L576 432
L576 0
L0 0
z
" style="fill:#ffffff;"/>
  </g>
  <g id="axes_1">
   <g id="LineCollection_1">
    <defs>
     <path d="
M264.51 -177.733
L314.607 -226.368" id="C0_0_f737d1c4e8"/>
     <path d="
M264.51 -177.733
L244.88 -338.463" id="C0_1_e03047148f"/>
     <path d="
M264.51 -177.733
L188.963 -303.938" id="C0_2_2e5cf8f026"/>
     <path d="
M264.51 -177.733
L384.335 -338.463" id="C0_3_5279c14dc6"/>
     <path d="
M264.51 -177.733
L157.932 -254.051" id="C0_4_f8a3fd49b3"/>
     <path d="
M264.51 -177.733
L377.427 -265.153" id="C0_5_a03126cda1"/>
     <path d="
M264.51 -177.733
L157.932 -198.685" id="C0_6_5117bc3029"/>
     <path d="
M264.51 -177.733
L188.963 -148.795" id="C0_7_6dceb75e33"/>
     <path d="
M264.51 -177.733
L244.88 -114.273" id="C0_8_0aa650141f"/>
     <path d="
M264.51 -177.733
L314.607 -101.952" id="C0_9_c6ed058d4f"/>
     <path d="
M264.51 -177.733
L471.282 -254.051" id="C0_a_386836e39b"/>
     <path d="
M264.51 -177.733
L384.335 -114.273" id="C0_b_7a9da9fe21"/>
     <path d="
M264.51 -177.733
L440.247 -148.795" id="C0_c_b93e3bdc31"/>
     <path d="
M264.51 -177.733
L440.247 -303.938" id="C0_d_fa2c9aef9e"/>
     <path d="
M264.51 -177.733
L314.607 -288.576" id="C0_e_c118e791ba"/>
     <path d="
M264.51 -177.733
L471.282 -198.685" id="C0_f_25cf0d37c5"/>
     <path d="
M314.607 -226.368
L314.607 -288.576" id="C0_10_06dc2fa2f7"/>
     <path d="
M314.607 -226.368
L377.427 -265.153" id="C0_11_076173f2d7"/>
     <path d="
M244.88 -338.463
L188.963 -148.795" id="C0_12_20b233b871"/>
     <path d="
M244.88 -338.463
L188.963 -303.938" id="C0_13_a1e8f77d79"/>
     <path d="
M188.963 -303.938
L157.932 -198.685" id="C0_14_3bbf8931c4"/>
     <path d="
M188.963 -303.938
L188.963 -148.795" id="C0_15_685ea1e91d"/>
     <path d="
M384.335 -338.463
L188.963 -148.795" id="C0_16_f0a8ffeb14"/>
     <path d="
M384.335 -338.463
L314.607 -101.952" id="C0_17_00773ef5c8"/>
     <path d="
M384.335 -338.463
L377.427 -265.153" id="C0_18_d367995039"/>
     <path d="
M157.932 -254.051
L384.335 -114.273" id="C0_19_289e72e6c3"/>
     <path d="
M157.932 -254.051
L244.88 -114.273" id="C0_1a_6bf779a044"/>
     <path d="
M377.427 -265.153
L440.247 -303.938" id="C0_1b_6ab8583e58"/>
     <path d="
M377.427 -265.153
L471.282 -254.051" id="C0_1c_0658bd3d50"/>
     <path d="
M377.427 -265.153
L314.607 -288.576" id="C0_1d_6db68483ec"/>
     <path d="
M157.932 -198.685
L188.963 -148.795" id="C0_1e_10e54f6e84"/>
     <path d="
M188.963 -148.795
L440.247 -303.938" id="C0_1f_58ba64e1f5"/>
     <path d="
M244.88 -114.273
L471.282 -254.051" id="C0_20_230883697e"/>
     <path d="
M244.88 -114.273
L440.247 -148.795" id="C0_21_1f18703ea6"/>
     <path d="
M471.282 -254.051
L440.247 -303.938" id="C0_22_0f5aa7d014"/>
     <path d="
M471.282 -254.051
L384.335 -114.273" id="C0_23_1f43cacaa5"/>
     <path d="
M471.282 -254.051
L314.607 -288.576" id="C0_24_9432db4adf"/>
    </defs>
    <g clip-path="url(#p7ff5b81e1d)">
     <use style="fill:none;stroke:#808080;stroke-opacity:0.7;" x="0.0" xlink:href="#C0_0_f737d1c4e8" y="432.0"/>
    </g>
    <g clip-path="url(#p7ff5b81e1d)">
     <use style="fill:none;stroke:#808080;stroke-opacity:0.7;" x="0.0" xlink:href="#C0_1_e03047148f" y="432.0"/>
    </g>
    <g clip-path="url(#p7ff5b81e1d)">
     <use style="fill:none;stroke:#808080;stroke-opacity:0.7;" x="0.0" xlink:href="#C0_2_2e5cf8f026" y="432.0"/>
    </g>
    <g clip-path="url(#p7ff5b81e1d)">
     <use style="fill:none;stroke:#808080;stroke-opacity:0.7;" x="0.0" xlink:href="#C0_3_5279c14dc6" y="432.0"/>
    </g>
    <g clip-path="url(#p7ff5b81e1d)">
     <use style="fill:none;stroke:#808080;stroke-opacity:0.7;" x="0.0" xlink:href="#C0_4_f8a3fd49b3" y="432.0"/>
    </g>
    <g clip-path="url(#p7ff5b81e1d)">
     <use style="fill:none;stroke:#808080;stroke-opacity:0.7;" x="0.0" xlink:href="#C0_5_a03126cda1" y="432.0"/>
    </g>
    <g clip-path="url(#p7ff5b81e1d)">
     <use style="fill:none;stroke:#808080;stroke-opacity:0.7;" x="0.0" xlink:href="#C0_6_5117bc3029" y="432.0"/>
    </g>
    <g clip-path="url(#p7ff5b81e1d)">
     <use style="fill:none;stroke:#808080;stroke-opacity:0.7;" x="0.0" xlink:href="#C0_7_6dceb75e33" y="432.0"/>
    </g>
    <g clip-path="url(#p7ff5b81e1d)">
     <use style="fill:none;stroke:#808080;stroke-opacity:0.7;" x="0.0" xlink:href="#C0_8_0aa650141f" y="432.0"/>
    </g>
    <g clip-path="url(#p7ff5b81e1d)">
     <use style="fill:none;stroke:#808080;stroke-opacity:0.7;" x="0.0" xlink:href="#C0_9_c6ed058d4f" y="432.0"/>
    </g>
    <g clip-path="url(#p7ff5b81e1d)">
     <use style="fill:none;stroke:#808080;stroke-opacity:0.7;" x="0.0" xlink:href="#C0_a_386836e39b" y="432.0"/>
    </g>
    <g clip-path="url(#p7ff5b81e1d)">
     <use style="fill:none;stroke:#808080;stroke-opacity:0.7;" x="0.0" xlink:href="#C0_b_7a9da9fe21" y="432.0"/>
    </g>
    <g clip-path="url(#p7ff5b81e1d)">
     <use style="fill:none;stroke:#808080;stroke-opacity:0.7;" x="0.0" xlink:href="#C0_c_b93e3bdc31" y="432.0"/>
    </g>
    <g clip-path="url(#p7ff5b81e1d)">
     <use style="fill:none;stroke:#808080;stroke-opacity:0.7;" x="0.0" xlink:href="#C0_d_fa2c9aef9e" y="432.0"/>
    </g>
    <g clip-path="url(#p7ff5b81e1d)">
     <use style="fill:none;stroke:#808080;stroke-opacity:0.7;" x="0.0" xlink:href="#C0_e_c118e791ba" y="432.0"/>
    </g>
    <g clip-path="url(#p7ff5b81e1d)">
     <use style="fill:none;stroke:#808080;stroke-opacity:0.7;" x="0.0" xlink:href="#C0_f_25cf0d37c5" y="432.0"/>
    </g>
    <g clip-path="url(#p7ff5b81e1d)">
     <use style="fill:none;stroke:#808080;stroke-opacity:0.7;" x="0.0" xlink:href="#C0_10_06dc2fa2f7" y="432.0"/>
    </g>
    <g clip-path="url(#p7ff5b81e1d)">
     <use style="fill:none;stroke:#808080;stroke-opacity:0.7;" x="0.0" xlink:href="#C0_11_076173f2d7" y="432.0"/>
    </g>
    <g clip-path="url(#p7ff5b81e1d)">
     <use style="fill:none;stroke:#808080;stroke-opacity:0.7;" x="0.0" xlink:href="#C0_12_20b233b871" y="432.0"/>
    </g>
    <g clip-path="url(#p7ff5b81e1d)">
     <use style="fill:none;stroke:#808080;stroke-opacity:0.7;" x="0.0" xlink:href="#C0_13_a1e8f77d79" y="432.0"/>
    </g>
    <g clip-path="url(#p7ff5b81e1d)">
     <use style="fill:none;stroke:#808080;stroke-opacity:0.7;" x="0.0" xlink:href="#C0_14_3bbf8931c4" y="432.0"/>
    </g>
    <g clip-path="url(#p7ff5b81e1d)">
     <use style="fill:none;stroke:#808080;stroke-opacity:0.7;" x="0.0" xlink:href="#C0_15_685ea1e91d" y="432.0"/>
    </g>
    <g clip-path="url(#p7ff5b81e1d)">
     <use style="fill:none;stroke:#808080;stroke-opacity:0.7;" x="0.0" xlink:href="#C0_16_f0a8ffeb14" y="432.0"/>
    </g>
    <g clip-path="url(#p7ff5b81e1d)">
     <use style="fill:none;stroke:#808080;stroke-opacity:0.7;" x="0.0" xlink:href="#C0_17_00773ef5c8" y="432.0"/>
    </g>
    <g clip-path="url(#p7ff5b81e1d)">
     <use style="fill:none;stroke:#808080;stroke-opacity:0.7;" x="0.0" xlink:href="#C0_18_d367995039" y="432.0"/>
    </g>
    <g clip-path="url(#p7ff5b81e1d)">
     <use style="fill:none;stroke:#808080;stroke-opacity:0.7;" x="0.0" xlink:href="#C0_19_289e72e6c3" y="432.0"/>
    </g>
    <g clip-path="url(#p7ff5b81e1d)">
     <use style="fill:none;stroke:#808080;stroke-opacity:0.7;" x="0.0" xlink:href="#C0_1a_6bf779a044" y="432.0"/>
    </g>
    <g clip-path="url(#p7ff5b81e1d)">
     <use style="fill:none;stroke:#808080;stroke-opacity:0.7;" x="0.0" xlink:href="#C0_1b_6ab8583e58" y="432.0"/>
    </g>
    <g clip-path="url(#p7ff5b81e1d)">
     <use style="fill:none;stroke:#808080;stroke-opacity:0.7;" x="0.0" xlink:href="#C0_1c_0658bd3d50" y="432.0"/>
    </g>
    <g clip-path="url(#p7ff5b81e1d)">
     <use style="fill:none;stroke:#808080;stroke-opacity:0.7;" x="0.0" xlink:href="#C0_1d_6db68483ec" y="432.0"/>
    </g>
    <g clip-path="url(#p7ff5b81e1d)">
     <use style="fill:none;stroke:#808080;stroke-opacity:0.7;" x="0.0" xlink:href="#C0_1e_10e54f6e84" y="432.0"/>
    </g>
    <g clip-path="url(#p7ff5b81e1d)">
     <use style="fill:none;stroke:#808080;stroke-opacity:0.7;" x="0.0" xlink:href="#C0_1f_58ba64e1f5" y="432.0"/>
    </g>
    <g clip-path="url(#p7ff5b81e1d)">
     <use style="fill:none;stroke:#808080;stroke-opacity:0.7;" x="0.0" xlink:href="#C0_20_230883697e" y="432.0"/>
    </g>
    <g clip-path="url(#p7ff5b81e1d)">
     <use style="fill:none;stroke:#808080;stroke-opacity:0.7;" x="0.0" xlink:href="#C0_21_1f18703ea6" y="432.0"/>
    </g>
    <g clip-path="url(#p7ff5b81e1d)">
     <use style="fill:none;stroke:#808080;stroke-opacity:0.7;" x="0.0" xlink:href="#C0_22_0f5aa7d014" y="432.0"/>
    </g>
    <g clip-path="url(#p7ff5b81e1d)">
     <use style="fill:none;stroke:#808080;stroke-opacity:0.7;" x="0.0" xlink:href="#C0_23_1f43cacaa5" y="432.0"/>
    </g>
    <g clip-path="url(#p7ff5b81e1d)">
     <use style="fill:none;stroke:#808080;stroke-opacity:0.7;" x="0.0" xlink:href="#C0_24_9432db4adf" y="432.0"/>
    </g>
   </g>
   <g id="LineCollection_2">
    <defs>
     <path d="
M264.51 -177.733
L384.335 -338.463" id="C1_0_5279c14dc6"/>
     <path d="
M264.51 -177.733
L377.427 -265.153" id="C1_1_a03126cda1"/>
     <path d="
M264.51 -177.733
L188.963 -148.795" id="C1_2_6dceb75e33"/>
     <path d="
M264.51 -177.733
L471.282 -254.051" id="C1_3_386836e39b"/>
     <path d="
M314.607 -226.368
L377.427 -265.153" id="C1_4_076173f2d7"/>
     <path d="
M244.88 -338.463
L188.963 -303.938" id="C1_5_a1e8f77d79"/>
     <path d="
M384.335 -338.463
L188.963 -148.795" id="C1_6_f0a8ffeb14"/>
     <path d="
M384.335 -338.463
L377.427 -265.153" id="C1_7_d367995039"/>
     <path d="
M377.427 -265.153
L440.247 -303.938" id="C1_8_6ab8583e58"/>
     <path d="
M377.427 -265.153
L471.282 -254.051" id="C1_9_0658bd3d50"/>
     <path d="
M377.427 -265.153
L314.607 -288.576" id="C1_a_6db68483ec"/>
     <path d="
M157.932 -198.685
L188.963 -148.795" id="C1_b_10e54f6e84"/>
     <path d="
M188.963 -148.795
L440.247 -303.938" id="C1_c_58ba64e1f5"/>
     <path d="
M244.88 -114.273
L471.282 -254.051" id="C1_d_230883697e"/>
     <path d="
M471.282 -254.051
L384.335 -114.273" id="C1_e_1f43cacaa5"/>
     <path d="
M471.282 -254.051
L314.607 -288.576" id="C1_f_9432db4adf"/>
    </defs>
    <g clip-path="url(#p7ff5b81e1d)">
     <use style="fill:none;stroke:#000000;stroke-opacity:0.6;stroke-width:4;" x="0.0" xlink:href="#C1_0_5279c14dc6" y="432.0"/>
    </g>
    <g clip-path="url(#p7ff5b81e1d)">
     <use style="fill:none;stroke:#000000;stroke-opacity:0.6;stroke-width:4;" x="0.0" xlink:href="#C1_1_a03126cda1" y="432.0"/>
    </g>
    <g clip-path="url(#p7ff5b81e1d)">
     <use style="fill:none;stroke:#000000;stroke-opacity:0.6;stroke-width:4;" x="0.0" xlink:href="#C1_2_6dceb75e33" y="432.0"/>
    </g>
    <g clip-path="url(#p7ff5b81e1d)">
     <use style="fill:none;stroke:#000000;stroke-opacity:0.6;stroke-width:4;" x="0.0" xlink:href="#C1_3_386836e39b" y="432.0"/>
    </g>
    <g clip-path="url(#p7ff5b81e1d)">
     <use style="fill:none;stroke:#000000;stroke-opacity:0.6;stroke-width:4;" x="0.0" xlink:href="#C1_4_076173f2d7" y="432.0"/>
    </g>
    <g clip-path="url(#p7ff5b81e1d)">
     <use style="fill:none;stroke:#000000;stroke-opacity:0.6;stroke-width:4;" x="0.0" xlink:href="#C1_5_a1e8f77d79" y="432.0"/>
    </g>
    <g clip-path="url(#p7ff5b81e1d)">
     <use style="fill:none;stroke:#000000;stroke-opacity:0.6;stroke-width:4;" x="0.0" xlink:href="#C1_6_f0a8ffeb14" y="432.0"/>
    </g>
    <g clip-path="url(#p7ff5b81e1d)">
     <use style="fill:none;stroke:#000000;stroke-opacity:0.6;stroke-width:4;" x="0.0" xlink:href="#C1_7_d367995039" y="432.0"/>
    </g>
    <g clip-path="url(#p7ff5b81e1d)">
     <use style="fill:none;stroke:#000000;stroke-opacity:0.6;stroke-width:4;" x="0.0" xlink:href="#C1_8_6ab8583e58" y="432.0"/>
    </g>
    <g clip-path="url(#p7ff5b81e1d)">
     <use style="fill:none;stroke:#000000;stroke-opacity:0.6;stroke-width:4;" x="0.0" xlink:href="#C1_9_0658bd3d50" y="432.0"/>
    </g>
    <g clip-path="url(#p7ff5b81e1d)">
     <use style="fill:none;stroke:#000000;stroke-opacity:0.6;stroke-width:4;" x="0.0" xlink:href="#C1_a_6db68483ec" y="432.0"/>
    </g>
    <g clip-path="url(#p7ff5b81e1d)">
     <use style="fill:none;stroke:#000000;stroke-opacity:0.6;stroke-width:4;" x="0.0" xlink:href="#C1_b_10e54f6e84" y="432.0"/>
    </g>
    <g clip-path="url(#p7ff5b81e1d)">
     <use style="fill:none;stroke:#000000;stroke-opacity:0.6;stroke-width:4;" x="0.0" xlink:href="#C1_c_58ba64e1f5" y="432.0"/>
    </g>
    <g clip-path="url(#p7ff5b81e1d)">
     <use style="fill:none;stroke:#000000;stroke-opacity:0.6;stroke-width:4;" x="0.0" xlink:href="#C1_d_230883697e" y="432.0"/>
    </g>
    <g clip-path="url(#p7ff5b81e1d)">
     <use style="fill:none;stroke:#000000;stroke-opacity:0.6;stroke-width:4;" x="0.0" xlink:href="#C1_e_1f43cacaa5" y="432.0"/>
    </g>
    <g clip-path="url(#p7ff5b81e1d)">
     <use style="fill:none;stroke:#000000;stroke-opacity:0.6;stroke-width:4;" x="0.0" xlink:href="#C1_f_9432db4adf" y="432.0"/>
    </g>
   </g>
   <g id="LineCollection_3">
    <defs>
     <path d="
M264.51 -177.733
L314.607 -226.368" id="C2_0_f737d1c4e8"/>
     <path d="
M264.51 -177.733
L244.88 -338.463" id="C2_1_e03047148f"/>
     <path d="
M264.51 -177.733
L188.963 -303.938" id="C2_2_2e5cf8f026"/>
     <path d="
M264.51 -177.733
L157.932 -254.051" id="C2_3_f8a3fd49b3"/>
     <path d="
M264.51 -177.733
L157.932 -198.685" id="C2_4_5117bc3029"/>
     <path d="
M264.51 -177.733
L244.88 -114.273" id="C2_5_0aa650141f"/>
     <path d="
M264.51 -177.733
L314.607 -101.952" id="C2_6_c6ed058d4f"/>
     <path d="
M264.51 -177.733
L440.247 -303.938" id="C2_7_fa2c9aef9e"/>
     <path d="
M264.51 -177.733
L314.607 -288.576" id="C2_8_c118e791ba"/>
     <path d="
M264.51 -177.733
L471.282 -198.685" id="C2_9_25cf0d37c5"/>
     <path d="
M314.607 -226.368
L314.607 -288.576" id="C2_a_06dc2fa2f7"/>
     <path d="
M244.88 -338.463
L188.963 -148.795" id="C2_b_20b233b871"/>
     <path d="
M188.963 -303.938
L157.932 -198.685" id="C2_c_3bbf8931c4"/>
     <path d="
M188.963 -303.938
L188.963 -148.795" id="C2_d_685ea1e91d"/>
     <path d="
M384.335 -338.463
L314.607 -101.952" id="C2_e_00773ef5c8"/>
     <path d="
M244.88 -114.273
L440.247 -148.795" id="C2_f_1f18703ea6"/>
     <path d="
M471.282 -254.051
L440.247 -303.938" id="C2_10_0f5aa7d014"/>
    </defs>
    <g clip-path="url(#p7ff5b81e1d)">
     <use style="fill:none;stroke:#000000;stroke-opacity:0.5;stroke-width:3;" x="0.0" xlink:href="#C2_0_f737d1c4e8" y="432.0"/>
    </g>
    <g clip-path="url(#p7ff5b81e1d)">
     <use style="fill:none;stroke:#000000;stroke-opacity:0.5;stroke-width:3;" x="0.0" xlink:href="#C2_1_e03047148f" y="432.0"/>
    </g>
    <g clip-path="url(#p7ff5b81e1d)">
     <use style="fill:none;stroke:#000000;stroke-opacity:0.5;stroke-width:3;" x="0.0" xlink:href="#C2_2_2e5cf8f026" y="432.0"/>
    </g>
    <g clip-path="url(#p7ff5b81e1d)">
     <use style="fill:none;stroke:#000000;stroke-opacity:0.5;stroke-width:3;" x="0.0" xlink:href="#C2_3_f8a3fd49b3" y="432.0"/>
    </g>
    <g clip-path="url(#p7ff5b81e1d)">
     <use style="fill:none;stroke:#000000;stroke-opacity:0.5;stroke-width:3;" x="0.0" xlink:href="#C2_4_5117bc3029" y="432.0"/>
    </g>
    <g clip-path="url(#p7ff5b81e1d)">
     <use style="fill:none;stroke:#000000;stroke-opacity:0.5;stroke-width:3;" x="0.0" xlink:href="#C2_5_0aa650141f" y="432.0"/>
    </g>
    <g clip-path="url(#p7ff5b81e1d)">
     <use style="fill:none;stroke:#000000;stroke-opacity:0.5;stroke-width:3;" x="0.0" xlink:href="#C2_6_c6ed058d4f" y="432.0"/>
    </g>
    <g clip-path="url(#p7ff5b81e1d)">
     <use style="fill:none;stroke:#000000;stroke-opacity:0.5;stroke-width:3;" x="0.0" xlink:href="#C2_7_fa2c9aef9e" y="432.0"/>
    </g>
    <g clip-path="url(#p7ff5b81e1d)">
     <use style="fill:none;stroke:#000000;stroke-opacity:0.5;stroke-width:3;" x="0.0" xlink:href="#C2_8_c118e791ba" y="432.0"/>
    </g>
    <g clip-path="url(#p7ff5b81e1d)">
     <use style="fill:none;stroke:#000000;stroke-opacity:0.5;stroke-width:3;" x="0.0" xlink:href="#C2_9_25cf0d37c5" y="432.0"/>
    </g>
    <g clip-path="url(#p7ff5b81e1d)">
     <use style="fill:none;stroke:#000000;stroke-opacity:0.5;stroke-width:3;" x="0.0" xlink:href="#C2_a_06dc2fa2f7" y="432.0"/>
    </g>
    <g clip-path="url(#p7ff5b81e1d)">
     <use style="fill:none;stroke:#000000;stroke-opacity:0.5;stroke-width:3;" x="0.0" xlink:href="#C2_b_20b233b871" y="432.0"/>
    </g>
    <g clip-path="url(#p7ff5b81e1d)">
     <use style="fill:none;stroke:#000000;stroke-opacity:0.5;stroke-width:3;" x="0.0" xlink:href="#C2_c_3bbf8931c4" y="432.0"/>
    </g>
    <g clip-path="url(#p7ff5b81e1d)">
     <use style="fill:none;stroke:#000000;stroke-opacity:0.5;stroke-width:3;" x="0.0" xlink:href="#C2_d_685ea1e91d" y="432.0"/>
    </g>
    <g clip-path="url(#p7ff5b81e1d)">
     <use style="fill:none;stroke:#000000;stroke-opacity:0.5;stroke-width:3;" x="0.0" xlink:href="#C2_e_00773ef5c8" y="432.0"/>
    </g>
    <g clip-path="url(#p7ff5b81e1d)">
     <use style="fill:none;stroke:#000000;stroke-opacity:0.5;stroke-width:3;" x="0.0" xlink:href="#C2_f_1f18703ea6" y="432.0"/>
    </g>
    <g clip-path="url(#p7ff5b81e1d)">
     <use style="fill:none;stroke:#000000;stroke-opacity:0.5;stroke-width:3;" x="0.0" xlink:href="#C2_10_0f5aa7d014" y="432.0"/>
    </g>
   </g>
   <g id="LineCollection_4">
    <defs>
     <path d="
M264.51 -177.733
L440.247 -148.795" id="C3_0_b93e3bdc31"/>
     <path d="
M157.932 -254.051
L384.335 -114.273" id="C3_1_289e72e6c3"/>
     <path d="
M157.932 -254.051
L244.88 -114.273" id="C3_2_6bf779a044"/>
    </defs>
    <g clip-path="url(#p7ff5b81e1d)">
     <use style="fill:none;stroke:#000000;stroke-opacity:0.4;stroke-width:2;" x="0.0" xlink:href="#C3_0_b93e3bdc31" y="432.0"/>
    </g>
    <g clip-path="url(#p7ff5b81e1d)">
     <use style="fill:none;stroke:#000000;stroke-opacity:0.4;stroke-width:2;" x="0.0" xlink:href="#C3_1_289e72e6c3" y="432.0"/>
    </g>
    <g clip-path="url(#p7ff5b81e1d)">
     <use style="fill:none;stroke:#000000;stroke-opacity:0.4;stroke-width:2;" x="0.0" xlink:href="#C3_2_6bf779a044" y="432.0"/>
    </g>
   </g>
   <g id="LineCollection_5">
    <defs>
     <path d="
M264.51 -177.733
L384.335 -114.273" id="C4_0_7a9da9fe21"/>
    </defs>
    <g clip-path="url(#p7ff5b81e1d)">
     <use style="fill:none;stroke:#000000;stroke-opacity:0.3;" x="0.0" xlink:href="#C4_0_7a9da9fe21" y="432.0"/>
    </g>
   </g>
   <g id="LineCollection_6">
    <defs>
     <path d="
M264.51 -177.733
L384.335 -114.273" id="C5_0_7a9da9fe21"/>
    </defs>
    <g clip-path="url(#p7ff5b81e1d)">
     <use style="fill:none;stroke:#cd5c5c;stroke-dasharray:6.000000,6.000000;stroke-dashoffset:0.0;stroke-opacity:0.6;stroke-width:5;" x="0.0" xlink:href="#C5_0_7a9da9fe21" y="432.0"/>
    </g>
   </g>
   <g id="LineCollection_7">
    <defs>
     <path d="
M264.51 -177.733
L188.963 -148.795" id="C6_0_6dceb75e33"/>
    </defs>
    <g clip-path="url(#p7ff5b81e1d)">
     <use style="fill:none;stroke:#33a02c;stroke-dasharray:6.000000,6.000000;stroke-dashoffset:0.0;stroke-opacity:0.6;stroke-width:5;" x="0.0" xlink:href="#C6_0_6dceb75e33" y="432.0"/>
    </g>
   </g>
   <g id="PathCollection_1">
    <defs>
     <path d="
M0 26.4575
C7.01661 26.4575 13.7468 23.6698 18.7083 18.7083
C23.6698 13.7468 26.4575 7.01661 26.4575 0
C26.4575 -7.01661 23.6698 -13.7468 18.7083 -18.7083
C13.7468 -23.6698 7.01661 -26.4575 0 -26.4575
C-7.01661 -26.4575 -13.7468 -23.6698 -18.7083 -18.7083
C-23.6698 -13.7468 -26.4575 -7.01661 -26.4575 0
C-26.4575 7.01661 -23.6698 13.7468 -18.7083 18.7083
C-13.7468 23.6698 -7.01661 26.4575 0 26.4575
z
" id="m7b51eb38a4" style="stroke:#ffffff;"/>
    </defs>
    <g clip-path="url(#p7ff5b81e1d)">
     <use style="fill:#cab2d6;stroke:#ffffff;" x="264.51" xlink:href="#m7b51eb38a4" y="254.26656"/>
    </g>
   </g>
   <g id="PathCollection_2">
    <defs>
     <path d="
M0 23.9792
C6.35935 23.9792 12.4591 21.4526 16.9558 16.9558
C21.4526 12.4591 23.9792 6.35935 23.9792 0
C23.9792 -6.35935 21.4526 -12.4591 16.9558 -16.9558
C12.4591 -21.4526 6.35935 -23.9792 0 -23.9792
C-6.35935 -23.9792 -12.4591 -21.4526 -16.9558 -16.9558
C-21.4526 -12.4591 -23.9792 -6.35935 -23.9792 0
C-23.9792 6.35935 -21.4526 12.4591 -16.9558 16.9558
C-12.4591 21.4526 -6.35935 23.9792 0 23.9792
z
" id="m40ee9afd51" style="stroke:#ffffff;stroke-opacity:0.6;"/>
    </defs>
    <g clip-path="url(#p7ff5b81e1d)">
     <use style="fill:#33a02c;fill-opacity:0.6;stroke:#ffffff;stroke-opacity:0.6;" x="314.60724" xlink:href="#m40ee9afd51" y="205.632"/>
     <use style="fill:#33a02c;fill-opacity:0.6;stroke:#ffffff;stroke-opacity:0.6;" x="244.87956" xlink:href="#m40ee9afd51" y="93.53664"/>
     <use style="fill:#33a02c;fill-opacity:0.6;stroke:#ffffff;stroke-opacity:0.6;" x="314.60724" xlink:href="#m40ee9afd51" y="143.424"/>
     <use style="fill:#33a02c;fill-opacity:0.6;stroke:#ffffff;stroke-opacity:0.6;" x="384.33492" xlink:href="#m40ee9afd51" y="93.53664"/>
     <use style="fill:#33a02c;fill-opacity:0.6;stroke:#ffffff;stroke-opacity:0.6;" x="377.42688" xlink:href="#m40ee9afd51" y="166.84704"/>
     <use style="fill:#33a02c;fill-opacity:0.6;stroke:#ffffff;stroke-opacity:0.6;" x="471.28248" xlink:href="#m40ee9afd51" y="177.94944"/>
     <use style="fill:#33a02c;fill-opacity:0.6;stroke:#ffffff;stroke-opacity:0.6;" x="188.963496" xlink:href="#m40ee9afd51" y="283.204512"/>
     <use style="fill:#33a02c;fill-opacity:0.6;stroke:#ffffff;stroke-opacity:0.6;" x="157.932" xlink:href="#m40ee9afd51" y="233.31456"/>
     <use style="fill:#33a02c;fill-opacity:0.6;stroke:#ffffff;stroke-opacity:0.6;" x="440.24652" xlink:href="#m40ee9afd51" y="128.06208"/>
     <use style="fill:#33a02c;fill-opacity:0.6;stroke:#ffffff;stroke-opacity:0.6;" x="244.87956" xlink:href="#m40ee9afd51" y="317.72736"/>
    </g>
   </g>
   <g id="PathCollection_3">
    <defs>
     <path d="
M0 23.9792
C6.35935 23.9792 12.4591 21.4526 16.9558 16.9558
C21.4526 12.4591 23.9792 6.35935 23.9792 0
C23.9792 -6.35935 21.4526 -12.4591 16.9558 -16.9558
C12.4591 -21.4526 6.35935 -23.9792 0 -23.9792
C-6.35935 -23.9792 -12.4591 -21.4526 -16.9558 -16.9558
C-21.4526 -12.4591 -23.9792 -6.35935 -23.9792 0
C-23.9792 6.35935 -21.4526 12.4591 -16.9558 16.9558
C-12.4591 21.4526 -6.35935 23.9792 0 23.9792
z
" id="mf124c272a1" style="stroke:#ffffff;"/>
    </defs>
    <g clip-path="url(#p7ff5b81e1d)">
     <use style="fill:#cd5c5c;stroke:#ffffff;" x="384.33492" xlink:href="#mf124c272a1" y="317.72736"/>
    </g>
   </g>
   <g id="PathCollection_4">
    <defs>
     <path d="
M0 20.6155
C5.4673 20.6155 10.7114 18.4433 14.5774 14.5774
C18.4433 10.7114 20.6155 5.4673 20.6155 0
C20.6155 -5.4673 18.4433 -10.7114 14.5774 -14.5774
C10.7114 -18.4433 5.4673 -20.6155 0 -20.6155
C-5.4673 -20.6155 -10.7114 -18.4433 -14.5774 -14.5774
C-18.4433 -10.7114 -20.6155 -5.4673 -20.6155 0
C-20.6155 5.4673 -18.4433 10.7114 -14.5774 14.5774
C-10.7114 18.4433 -5.4673 20.6155 0 20.6155
z
" id="mb3f8d1181c" style="stroke:#ffffff;"/>
    </defs>
    <g clip-path="url(#p7ff5b81e1d)">
     <use style="fill:#a6cee3;stroke:#ffffff;" x="157.932" xlink:href="#mb3f8d1181c" y="177.94944"/>
    </g>
   </g>
   <g id="PathCollection_5">
    <defs>
     <path d="
M0 21.7945
C5.77997 21.7945 11.324 19.4981 15.411 15.411
C19.4981 11.324 21.7945 5.77997 21.7945 0
C21.7945 -5.77997 19.4981 -11.324 15.411 -15.411
C11.324 -19.4981 5.77997 -21.7945 0 -21.7945
C-5.77997 -21.7945 -11.324 -19.4981 -15.411 -15.411
C-19.4981 -11.324 -21.7945 -5.77997 -21.7945 0
C-21.7945 5.77997 -19.4981 11.324 -15.411 15.411
C-11.324 19.4981 -5.77997 21.7945 0 21.7945
z
" id="m10f713e06b" style="stroke:#ffffff;"/>
    </defs>
    <g clip-path="url(#p7ff5b81e1d)">
     <use style="fill:#ff7f00;stroke:#ffffff;" x="188.963496" xlink:href="#m10f713e06b" y="283.204512"/>
    </g>
   </g>
   <g id="PathCollection_6">
    <defs>
     <path d="
M0 19.3649
C5.13564 19.3649 10.0616 17.3245 13.6931 13.6931
C17.3245 10.0616 19.3649 5.13564 19.3649 0
C19.3649 -5.13564 17.3245 -10.0616 13.6931 -13.6931
C10.0616 -17.3245 5.13564 -19.3649 0 -19.3649
C-5.13564 -19.3649 -10.0616 -17.3245 -13.6931 -13.6931
C-17.3245 -10.0616 -19.3649 -5.13564 -19.3649 0
C-19.3649 5.13564 -17.3245 10.0616 -13.6931 13.6931
C-10.0616 17.3245 -5.13564 19.3649 0 19.3649
z
" id="mf7d5ae399e" style="stroke:#ffffff;"/>
    </defs>
    <g clip-path="url(#p7ff5b81e1d)">
     <use style="fill:#b2df8a;stroke:#ffffff;" x="314.60724" xlink:href="#mf7d5ae399e" y="205.632"/>
     <use style="fill:#b2df8a;stroke:#ffffff;" x="440.24652" xlink:href="#mf7d5ae399e" y="128.06208"/>
     <use style="fill:#b2df8a;stroke:#ffffff;" x="244.87956" xlink:href="#mf7d5ae399e" y="93.53664"/>
     <use style="fill:#b2df8a;stroke:#ffffff;" x="188.963496" xlink:href="#mf7d5ae399e" y="128.06208"/>
     <use style="fill:#b2df8a;stroke:#ffffff;" x="384.33492" xlink:href="#mf7d5ae399e" y="93.53664"/>
     <use style="fill:#b2df8a;stroke:#ffffff;" x="377.42688" xlink:href="#mf7d5ae399e" y="166.84704"/>
     <use style="fill:#b2df8a;stroke:#ffffff;" x="471.28248" xlink:href="#mf7d5ae399e" y="177.94944"/>
     <use style="fill:#b2df8a;stroke:#ffffff;" x="314.60724" xlink:href="#mf7d5ae399e" y="330.048"/>
     <use style="fill:#b2df8a;stroke:#ffffff;" x="157.932" xlink:href="#mf7d5ae399e" y="233.31456"/>
     <use style="fill:#b2df8a;stroke:#ffffff;" x="471.28248" xlink:href="#mf7d5ae399e" y="233.31456"/>
     <use style="fill:#b2df8a;stroke:#ffffff;" x="314.60724" xlink:href="#mf7d5ae399e" y="143.424"/>
     <use style="fill:#b2df8a;stroke:#ffffff;" x="244.87956" xlink:href="#mf7d5ae399e" y="317.72736"/>
     <use style="fill:#b2df8a;stroke:#ffffff;" x="440.24652" xlink:href="#mf7d5ae399e" y="283.204512"/>
    </g>
   </g>
   <g id="text_1">
    <g clip-path="url(#p7ff5b81e1d)">
     <!-- Audur G -->
     <defs>
      <path id="BitstreamVeraSans-Roman-20"/>
      <path d="
M59.5156 10.4062
L59.5156 29.9844
L43.4062 29.9844
L43.4062 38.0938
L69.2812 38.0938
L69.2812 6.78125
Q63.5781 2.73438 56.6875 0.65625
Q49.8125 -1.42188 42 -1.42188
Q24.9062 -1.42188 15.25 8.5625
Q5.60938 18.5625 5.60938 36.375
Q5.60938 54.25 15.25 64.2344
Q24.9062 74.2188 42 74.2188
Q49.125 74.2188 55.5469 72.4531
Q61.9688 70.7031 67.3906 67.2812
L67.3906 56.7812
Q61.9219 61.4219 55.7656 63.7656
Q49.6094 66.1094 42.8281 66.1094
Q29.4375 66.1094 22.7188 58.6406
Q16.0156 51.1719 16.0156 36.375
Q16.0156 21.625 22.7188 14.1562
Q29.4375 6.6875 42.8281 6.6875
Q48.0469 6.6875 52.1406 7.59375
Q56.25 8.5 59.5156 10.4062" id="BitstreamVeraSans-Roman-47"/>
      <path d="
M34.1875 63.1875
L20.7969 26.9062
L47.6094 26.9062
z

M28.6094 72.9062
L39.7969 72.9062
L67.5781 0
L57.3281 0
L50.6875 18.7031
L17.8281 18.7031
L11.1875 0
L0.78125 0
z
" id="BitstreamVeraSans-Roman-41"/>
      <path d="
M45.4062 46.3906
L45.4062 75.9844
L54.3906 75.9844
L54.3906 0
L45.4062 0
L45.4062 8.20312
Q42.5781 3.32812 38.25 0.953125
Q33.9375 -1.42188 27.875 -1.42188
Q17.9688 -1.42188 11.7344 6.48438
Q5.51562 14.4062 5.51562 27.2969
Q5.51562 40.1875 11.7344 48.0938
Q17.9688 56 27.875 56
Q33.9375 56 38.25 53.625
Q42.5781 51.2656 45.4062 46.3906
M14.7969 27.2969
Q14.7969 17.3906 18.875 11.75
Q22.9531 6.10938 30.0781 6.10938
Q37.2031 6.10938 41.2969 11.75
Q45.4062 17.3906 45.4062 27.2969
Q45.4062 37.2031 41.2969 42.8438
Q37.2031 48.4844 30.0781 48.4844
Q22.9531 48.4844 18.875 42.8438
Q14.7969 37.2031 14.7969 27.2969" id="BitstreamVeraSans-Roman-64"/>
      <path d="
M8.5 21.5781
L8.5 54.6875
L17.4844 54.6875
L17.4844 21.9219
Q17.4844 14.1562 20.5 10.2656
Q23.5312 6.39062 29.5938 6.39062
Q36.8594 6.39062 41.0781 11.0312
Q45.3125 15.6719 45.3125 23.6875
L45.3125 54.6875
L54.2969 54.6875
L54.2969 0
L45.3125 0
L45.3125 8.40625
Q42.0469 3.42188 37.7188 1
Q33.4062 -1.42188 27.6875 -1.42188
Q18.2656 -1.42188 13.375 4.4375
Q8.5 10.2969 8.5 21.5781" id="BitstreamVeraSans-Roman-75"/>
      <path d="
M41.1094 46.2969
Q39.5938 47.1719 37.8125 47.5781
Q36.0312 48 33.8906 48
Q26.2656 48 22.1875 43.0469
Q18.1094 38.0938 18.1094 28.8125
L18.1094 0
L9.07812 0
L9.07812 54.6875
L18.1094 54.6875
L18.1094 46.1875
Q20.9531 51.1719 25.4844 53.5781
Q30.0312 56 36.5312 56
Q37.4531 56 38.5781 55.875
Q39.7031 55.7656 41.0625 55.5156
z
" id="BitstreamVeraSans-Roman-72"/>
     </defs>
     <g transform="translate(248.4775 256.47406)scale(0.08 -0.08)">
      <use xlink:href="#BitstreamVeraSans-Roman-41"/>
      <use x="68.408203125" xlink:href="#BitstreamVeraSans-Roman-75"/>
      <use x="131.787109375" xlink:href="#BitstreamVeraSans-Roman-64"/>
      <use x="195.263671875" xlink:href="#BitstreamVeraSans-Roman-75"/>
      <use x="258.642578125" xlink:href="#BitstreamVeraSans-Roman-72"/>
      <use x="299.755859375" xlink:href="#BitstreamVeraSans-Roman-20"/>
      <use x="331.54296875" xlink:href="#BitstreamVeraSans-Roman-47"/>
     </g>
    </g>
   </g>
   <g id="text_2">
    <g clip-path="url(#p7ff5b81e1d)">
     <!-- Guðfinna -->
     <defs>
      <path d="
M54.8906 33.0156
L54.8906 0
L45.9062 0
L45.9062 32.7188
Q45.9062 40.4844 42.875 44.3281
Q39.8438 48.1875 33.7969 48.1875
Q26.5156 48.1875 22.3125 43.5469
Q18.1094 38.9219 18.1094 30.9062
L18.1094 0
L9.07812 0
L9.07812 54.6875
L18.1094 54.6875
L18.1094 46.1875
Q21.3438 51.125 25.7031 53.5625
Q30.0781 56 35.7969 56
Q45.2188 56 50.0469 50.1719
Q54.8906 44.3438 54.8906 33.0156" id="BitstreamVeraSans-Roman-6e"/>
      <path d="
M34.2812 27.4844
Q23.3906 27.4844 19.1875 25
Q14.9844 22.5156 14.9844 16.5
Q14.9844 11.7188 18.1406 8.90625
Q21.2969 6.10938 26.7031 6.10938
Q34.1875 6.10938 38.7031 11.4062
Q43.2188 16.7031 43.2188 25.4844
L43.2188 27.4844
z

M52.2031 31.2031
L52.2031 0
L43.2188 0
L43.2188 8.29688
Q40.1406 3.32812 35.5469 0.953125
Q30.9531 -1.42188 24.3125 -1.42188
Q15.9219 -1.42188 10.9531 3.29688
Q6 8.01562 6 15.9219
Q6 25.1406 12.1719 29.8281
Q18.3594 34.5156 30.6094 34.5156
L43.2188 34.5156
L43.2188 35.4062
Q43.2188 41.6094 39.1406 45
Q35.0625 48.3906 27.6875 48.3906
Q23 48.3906 18.5469 47.2656
Q14.1094 46.1406 10.0156 43.8906
L10.0156 52.2031
Q14.9375 54.1094 19.5781 55.0469
Q24.2188 56 28.6094 56
Q40.4844 56 46.3438 49.8438
Q52.2031 43.7031 52.2031 31.2031" id="BitstreamVeraSans-Roman-61"/>
      <path d="
M37.1094 75.9844
L37.1094 68.5
L28.5156 68.5
Q23.6875 68.5 21.7969 66.5469
Q19.9219 64.5938 19.9219 59.5156
L19.9219 54.6875
L34.7188 54.6875
L34.7188 47.7031
L19.9219 47.7031
L19.9219 0
L10.8906 0
L10.8906 47.7031
L2.29688 47.7031
L2.29688 54.6875
L10.8906 54.6875
L10.8906 58.5
Q10.8906 67.625 15.1406 71.7969
Q19.3906 75.9844 28.6094 75.9844
z
" id="BitstreamVeraSans-Roman-66"/>
      <path d="
M9.42188 54.6875
L18.4062 54.6875
L18.4062 0
L9.42188 0
z

M9.42188 75.9844
L18.4062 75.9844
L18.4062 64.5938
L9.42188 64.5938
z
" id="BitstreamVeraSans-Roman-69"/>
      <path d="
M40.9219 44.6719
Q38.4844 45.5156 36.3281 45.9062
Q34.1875 46.2969 32.1719 46.2969
Q24.0312 46.2969 19.5 41.0156
Q14.9844 35.75 14.9844 26.2188
Q14.9844 17.0469 19.2344 11.625
Q23.4844 6.20312 30.6094 6.20312
Q37.7031 6.20312 41.9375 11.625
Q46.1875 17.0469 46.1875 26.2188
Q46.1875 32.1719 44.875 36.7656
Q43.5625 41.3594 40.9219 44.6719
M44 55.7188
Q50.1406 48.7344 52.9219 41.7031
Q55.7188 34.6719 55.7188 26.2188
Q55.7188 13.7656 48.7812 6.17188
Q41.8438 -1.42188 30.6094 -1.42188
Q19.3438 -1.42188 12.4219 6.17188
Q5.51562 13.7656 5.51562 26.2188
Q5.51562 38.4219 12.25 46.0156
Q19 53.6094 29.7812 53.6094
Q30.6719 53.6094 31.9375 53.4844
Q33.2031 53.375 35.25 53.125
L27.4844 61.9219
L11.9219 56.6875
L10.2969 61.5312
L24.0312 66.0156
L15.1875 75.9844
L26.3125 75.9844
L32.5156 68.8906
L48.7812 74.3125
L50.3906 69.5781
L35.9844 64.7969
z
" id="BitstreamVeraSans-Roman-f0"/>
     </defs>
     <g transform="translate(297.07224 207.8395)scale(0.08 -0.08)">
      <use xlink:href="#BitstreamVeraSans-Roman-47"/>
      <use x="77.490234375" xlink:href="#BitstreamVeraSans-Roman-75"/>
      <use x="140.869140625" xlink:href="#BitstreamVeraSans-Roman-f0"/>
      <use x="202.05078125" xlink:href="#BitstreamVeraSans-Roman-66"/>
      <use x="237.255859375" xlink:href="#BitstreamVeraSans-Roman-69"/>
      <use x="265.0390625" xlink:href="#BitstreamVeraSans-Roman-6e"/>
      <use x="328.41796875" xlink:href="#BitstreamVeraSans-Roman-6e"/>
      <use x="391.796875" xlink:href="#BitstreamVeraSans-Roman-61"/>
     </g>
    </g>
   </g>
   <g id="text_3">
    <g clip-path="url(#p7ff5b81e1d)">
     <!-- Helga -->
     <defs>
      <path d="
M56.2031 29.5938
L56.2031 25.2031
L14.8906 25.2031
Q15.4844 15.9219 20.4844 11.0625
Q25.4844 6.20312 34.4219 6.20312
Q39.5938 6.20312 44.4531 7.46875
Q49.3125 8.73438 54.1094 11.2812
L54.1094 2.78125
Q49.2656 0.734375 44.1875 -0.34375
Q39.1094 -1.42188 33.8906 -1.42188
Q20.7969 -1.42188 13.1562 6.1875
Q5.51562 13.8125 5.51562 26.8125
Q5.51562 40.2344 12.7656 48.1094
Q20.0156 56 32.3281 56
Q43.3594 56 49.7812 48.8906
Q56.2031 41.7969 56.2031 29.5938
M47.2188 32.2344
Q47.125 39.5938 43.0938 43.9844
Q39.0625 48.3906 32.4219 48.3906
Q24.9062 48.3906 20.3906 44.1406
Q15.875 39.8906 15.1875 32.1719
z
" id="BitstreamVeraSans-Roman-65"/>
      <path d="
M45.4062 27.9844
Q45.4062 37.75 41.375 43.1094
Q37.3594 48.4844 30.0781 48.4844
Q22.8594 48.4844 18.8281 43.1094
Q14.7969 37.75 14.7969 27.9844
Q14.7969 18.2656 18.8281 12.8906
Q22.8594 7.51562 30.0781 7.51562
Q37.3594 7.51562 41.375 12.8906
Q45.4062 18.2656 45.4062 27.9844
M54.3906 6.78125
Q54.3906 -7.17188 48.1875 -13.9844
Q42 -20.7969 29.2031 -20.7969
Q24.4688 -20.7969 20.2656 -20.0938
Q16.0625 -19.3906 12.1094 -17.9219
L12.1094 -9.1875
Q16.0625 -11.3281 19.9219 -12.3438
Q23.7812 -13.375 27.7812 -13.375
Q36.625 -13.375 41.0156 -8.76562
Q45.4062 -4.15625 45.4062 5.17188
L45.4062 9.625
Q42.625 4.78125 38.2812 2.39062
Q33.9375 0 27.875 0
Q17.8281 0 11.6719 7.65625
Q5.51562 15.3281 5.51562 27.9844
Q5.51562 40.6719 11.6719 48.3281
Q17.8281 56 27.875 56
Q33.9375 56 38.2812 53.6094
Q42.625 51.2188 45.4062 46.3906
L45.4062 54.6875
L54.3906 54.6875
z
" id="BitstreamVeraSans-Roman-67"/>
      <path d="
M9.42188 75.9844
L18.4062 75.9844
L18.4062 0
L9.42188 0
z
" id="BitstreamVeraSans-Roman-6c"/>
      <path d="
M9.8125 72.9062
L19.6719 72.9062
L19.6719 43.0156
L55.5156 43.0156
L55.5156 72.9062
L65.375 72.9062
L65.375 0
L55.5156 0
L55.5156 34.7188
L19.6719 34.7188
L19.6719 0
L9.8125 0
z
" id="BitstreamVeraSans-Roman-48"/>
     </defs>
     <g transform="translate(234.063935 95.74414)scale(0.08 -0.08)">
      <use xlink:href="#BitstreamVeraSans-Roman-48"/>
      <use x="75.1953125" xlink:href="#BitstreamVeraSans-Roman-65"/>
      <use x="136.71875" xlink:href="#BitstreamVeraSans-Roman-6c"/>
      <use x="164.501953125" xlink:href="#BitstreamVeraSans-Roman-67"/>
      <use x="227.978515625" xlink:href="#BitstreamVeraSans-Roman-61"/>
     </g>
    </g>
   </g>
   <g id="text_4">
    <g clip-path="url(#p7ff5b81e1d)">
     <!-- Anna S -->
     <defs>
      <path d="
M53.5156 70.5156
L53.5156 60.8906
Q47.9062 63.5781 42.9219 64.8906
Q37.9375 66.2188 33.2969 66.2188
Q25.25 66.2188 20.875 63.0938
Q16.5 59.9688 16.5 54.2031
Q16.5 49.3594 19.4062 46.8906
Q22.3125 44.4375 30.4219 42.9219
L36.375 41.7031
Q47.4062 39.5938 52.6562 34.2969
Q57.9062 29 57.9062 20.125
Q57.9062 9.51562 50.7969 4.04688
Q43.7031 -1.42188 29.9844 -1.42188
Q24.8125 -1.42188 18.9688 -0.25
Q13.1406 0.921875 6.89062 3.21875
L6.89062 13.375
Q12.8906 10.0156 18.6562 8.29688
Q24.4219 6.59375 29.9844 6.59375
Q38.4219 6.59375 43.0156 9.90625
Q47.6094 13.2344 47.6094 19.3906
Q47.6094 24.75 44.3125 27.7812
Q41.0156 30.8125 33.5 32.3281
L27.4844 33.5
Q16.4531 35.6875 11.5156 40.375
Q6.59375 45.0625 6.59375 53.4219
Q6.59375 63.0938 13.4062 68.6562
Q20.2188 74.2188 32.1719 74.2188
Q37.3125 74.2188 42.625 73.2812
Q47.9531 72.3594 53.5156 70.5156" id="BitstreamVeraSans-Roman-53"/>
     </defs>
     <g transform="translate(175.118496 130.26958)scale(0.08 -0.08)">
      <use xlink:href="#BitstreamVeraSans-Roman-41"/>
      <use x="68.408203125" xlink:href="#BitstreamVeraSans-Roman-6e"/>
      <use x="131.787109375" xlink:href="#BitstreamVeraSans-Roman-6e"/>
      <use x="195.166015625" xlink:href="#BitstreamVeraSans-Roman-61"/>
      <use x="256.4453125" xlink:href="#BitstreamVeraSans-Roman-20"/>
      <use x="288.232421875" xlink:href="#BitstreamVeraSans-Roman-53"/>
     </g>
    </g>
   </g>
   <g id="text_5">
    <g clip-path="url(#p7ff5b81e1d)">
     <!-- Katrín -->
     <defs>
      <path d="
M18.3125 70.2188
L18.3125 54.6875
L36.8125 54.6875
L36.8125 47.7031
L18.3125 47.7031
L18.3125 18.0156
Q18.3125 11.3281 20.1406 9.42188
Q21.9688 7.51562 27.5938 7.51562
L36.8125 7.51562
L36.8125 0
L27.5938 0
Q17.1875 0 13.2344 3.875
Q9.28125 7.76562 9.28125 18.0156
L9.28125 47.7031
L2.6875 47.7031
L2.6875 54.6875
L9.28125 54.6875
L9.28125 70.2188
z
" id="BitstreamVeraSans-Roman-74"/>
      <path d="
M9.42188 54.6875
L18.4062 54.6875
L18.4062 0
L9.42188 0
z

M20.6562 79.9844
L30.375 79.9844
L14.4688 61.625
L6.98438 61.625
z
" id="BitstreamVeraSans-Roman-ed"/>
      <path d="
M9.8125 72.9062
L19.6719 72.9062
L19.6719 42.0938
L52.3906 72.9062
L65.0938 72.9062
L28.9062 38.9219
L67.6719 0
L54.6875 0
L19.6719 35.1094
L19.6719 0
L9.8125 0
z
" id="BitstreamVeraSans-Roman-4b"/>
     </defs>
     <g transform="translate(303.47599 145.6315)scale(0.08 -0.08)">
      <use xlink:href="#BitstreamVeraSans-Roman-4b"/>
      <use x="63.826171875" xlink:href="#BitstreamVeraSans-Roman-61"/>
      <use x="125.10546875" xlink:href="#BitstreamVeraSans-Roman-74"/>
      <use x="164.314453125" xlink:href="#BitstreamVeraSans-Roman-72"/>
      <use x="205.427734375" xlink:href="#BitstreamVeraSans-Roman-ed"/>
      <use x="233.2109375" xlink:href="#BitstreamVeraSans-Roman-6e"/>
     </g>
    </g>
   </g>
   <g id="text_6">
    <g clip-path="url(#p7ff5b81e1d)">
     <!-- Edda -->
     <defs>
      <path d="
M9.8125 72.9062
L55.9062 72.9062
L55.9062 64.5938
L19.6719 64.5938
L19.6719 43.0156
L54.3906 43.0156
L54.3906 34.7188
L19.6719 34.7188
L19.6719 8.29688
L56.7812 8.29688
L56.7812 0
L9.8125 0
z
" id="BitstreamVeraSans-Roman-45"/>
     </defs>
     <g transform="translate(375.033045 95.74414)scale(0.08 -0.08)">
      <use xlink:href="#BitstreamVeraSans-Roman-45"/>
      <use x="63.18359375" xlink:href="#BitstreamVeraSans-Roman-64"/>
      <use x="126.66015625" xlink:href="#BitstreamVeraSans-Roman-64"/>
      <use x="190.13671875" xlink:href="#BitstreamVeraSans-Roman-61"/>
     </g>
    </g>
   </g>
   <g id="text_7">
    <g clip-path="url(#p7ff5b81e1d)">
     <!-- Helgi -->
     <g transform="translate(148.46825 180.15694)scale(0.08 -0.08)">
      <use xlink:href="#BitstreamVeraSans-Roman-48"/>
      <use x="75.1953125" xlink:href="#BitstreamVeraSans-Roman-65"/>
      <use x="136.71875" xlink:href="#BitstreamVeraSans-Roman-6c"/>
      <use x="164.501953125" xlink:href="#BitstreamVeraSans-Roman-67"/>
      <use x="227.978515625" xlink:href="#BitstreamVeraSans-Roman-69"/>
     </g>
    </g>
   </g>
   <g id="text_8">
    <g clip-path="url(#p7ff5b81e1d)">
     <!-- Halla -->
     <g transform="translate(368.04938 169.05454)scale(0.08 -0.08)">
      <use xlink:href="#BitstreamVeraSans-Roman-48"/>
      <use x="75.1953125" xlink:href="#BitstreamVeraSans-Roman-61"/>
      <use x="136.474609375" xlink:href="#BitstreamVeraSans-Roman-6c"/>
      <use x="164.2578125" xlink:href="#BitstreamVeraSans-Roman-6c"/>
      <use x="192.041015625" xlink:href="#BitstreamVeraSans-Roman-61"/>
     </g>
    </g>
   </g>
   <g id="text_9">
    <g clip-path="url(#p7ff5b81e1d)">
     <!-- Sigrun -->
     <g transform="translate(458.98123 180.15694)scale(0.08 -0.08)">
      <use xlink:href="#BitstreamVeraSans-Roman-53"/>
      <use x="63.4765625" xlink:href="#BitstreamVeraSans-Roman-69"/>
      <use x="91.259765625" xlink:href="#BitstreamVeraSans-Roman-67"/>
      <use x="154.736328125" xlink:href="#BitstreamVeraSans-Roman-72"/>
      <use x="195.849609375" xlink:href="#BitstreamVeraSans-Roman-75"/>
      <use x="259.228515625" xlink:href="#BitstreamVeraSans-Roman-6e"/>
     </g>
    </g>
   </g>
   <g id="text_10">
    <g clip-path="url(#p7ff5b81e1d)">
     <!-- Ægir -->
     <defs>
      <path d="
M90.0938 72.9062
L90.0938 64.5938
L53.9062 64.5938
L53.9062 43.0156
L88.625 43.0156
L88.625 34.7188
L53.9062 34.7188
L53.9062 8.29688
L91.0156 8.29688
L91.0156 0
L44 0
L44 18.7031
L18.2188 18.7031
L10.4062 0
L0.390625 0
L30.9062 72.9062
z

M37.7031 65.1875
L21.5781 26.9062
L44 26.9062
L44 65.1875
z
" id="BitstreamVeraSans-Roman-c6"/>
     </defs>
     <g transform="translate(179.787871 285.412012)scale(0.08 -0.08)">
      <use xlink:href="#BitstreamVeraSans-Roman-c6"/>
      <use x="97.412109375" xlink:href="#BitstreamVeraSans-Roman-67"/>
      <use x="160.888671875" xlink:href="#BitstreamVeraSans-Roman-69"/>
      <use x="188.671875" xlink:href="#BitstreamVeraSans-Roman-72"/>
     </g>
    </g>
   </g>
   <g id="text_11">
    <g clip-path="url(#p7ff5b81e1d)">
     <!-- Otto -->
     <defs>
      <path d="
M39.4062 66.2188
Q28.6562 66.2188 22.3281 58.2031
Q16.0156 50.2031 16.0156 36.375
Q16.0156 22.6094 22.3281 14.5938
Q28.6562 6.59375 39.4062 6.59375
Q50.1406 6.59375 56.4219 14.5938
Q62.7031 22.6094 62.7031 36.375
Q62.7031 50.2031 56.4219 58.2031
Q50.1406 66.2188 39.4062 66.2188
M39.4062 74.2188
Q54.7344 74.2188 63.9062 63.9375
Q73.0938 53.6562 73.0938 36.375
Q73.0938 19.1406 63.9062 8.85938
Q54.7344 -1.42188 39.4062 -1.42188
Q24.0312 -1.42188 14.8125 8.82812
Q5.60938 19.0938 5.60938 36.375
Q5.60938 53.6562 14.8125 63.9375
Q24.0312 74.2188 39.4062 74.2188" id="BitstreamVeraSans-Roman-4f"/>
      <path d="
M30.6094 48.3906
Q23.3906 48.3906 19.1875 42.75
Q14.9844 37.1094 14.9844 27.2969
Q14.9844 17.4844 19.1562 11.8438
Q23.3438 6.20312 30.6094 6.20312
Q37.7969 6.20312 41.9844 11.8594
Q46.1875 17.5312 46.1875 27.2969
Q46.1875 37.0156 41.9844 42.7031
Q37.7969 48.3906 30.6094 48.3906
M30.6094 56
Q42.3281 56 49.0156 48.375
Q55.7188 40.7656 55.7188 27.2969
Q55.7188 13.875 49.0156 6.21875
Q42.3281 -1.42188 30.6094 -1.42188
Q18.8438 -1.42188 12.1719 6.21875
Q5.51562 13.875 5.51562 27.2969
Q5.51562 40.7656 12.1719 48.375
Q18.8438 56 30.6094 56" id="BitstreamVeraSans-Roman-6f"/>
     </defs>
     <g transform="translate(306.317865 332.2555)scale(0.08 -0.08)">
      <use xlink:href="#BitstreamVeraSans-Roman-4f"/>
      <use x="78.7109375" xlink:href="#BitstreamVeraSans-Roman-74"/>
      <use x="117.919921875" xlink:href="#BitstreamVeraSans-Roman-74"/>
      <use x="157.12890625" xlink:href="#BitstreamVeraSans-Roman-6f"/>
     </g>
    </g>
   </g>
   <g id="text_12">
    <g clip-path="url(#p7ff5b81e1d)">
     <!-- Bjarni B -->
     <defs>
      <path d="
M9.42188 54.6875
L18.4062 54.6875
L18.4062 -0.984375
Q18.4062 -11.4219 14.4219 -16.1094
Q10.4531 -20.7969 1.60938 -20.7969
L-1.8125 -20.7969
L-1.8125 -13.1875
L0.59375 -13.1875
Q5.71875 -13.1875 7.5625 -10.8125
Q9.42188 -8.45312 9.42188 -0.984375
z

M9.42188 75.9844
L18.4062 75.9844
L18.4062 64.5938
L9.42188 64.5938
z
" id="BitstreamVeraSans-Roman-6a"/>
      <path d="
M19.6719 34.8125
L19.6719 8.10938
L35.5 8.10938
Q43.4531 8.10938 47.2812 11.4062
Q51.125 14.7031 51.125 21.4844
Q51.125 28.3281 47.2812 31.5625
Q43.4531 34.8125 35.5 34.8125
z

M19.6719 64.7969
L19.6719 42.8281
L34.2812 42.8281
Q41.5 42.8281 45.0312 45.5312
Q48.5781 48.25 48.5781 53.8125
Q48.5781 59.3281 45.0312 62.0625
Q41.5 64.7969 34.2812 64.7969
z

M9.8125 72.9062
L35.0156 72.9062
Q46.2969 72.9062 52.3906 68.2188
Q58.5 63.5312 58.5 54.8906
Q58.5 48.1875 55.375 44.2344
Q52.25 40.2812 46.1875 39.3125
Q53.4688 37.75 57.5 32.7812
Q61.5312 27.8281 61.5312 20.4062
Q61.5312 10.6406 54.8906 5.3125
Q48.25 0 35.9844 0
L9.8125 0
z
" id="BitstreamVeraSans-Roman-42"/>
     </defs>
     <g transform="translate(142.672 235.52206)scale(0.08 -0.08)">
      <use xlink:href="#BitstreamVeraSans-Roman-42"/>
      <use x="68.603515625" xlink:href="#BitstreamVeraSans-Roman-6a"/>
      <use x="96.38671875" xlink:href="#BitstreamVeraSans-Roman-61"/>
      <use x="157.666015625" xlink:href="#BitstreamVeraSans-Roman-72"/>
      <use x="197.029296875" xlink:href="#BitstreamVeraSans-Roman-6e"/>
      <use x="260.408203125" xlink:href="#BitstreamVeraSans-Roman-69"/>
      <use x="288.19140625" xlink:href="#BitstreamVeraSans-Roman-20"/>
      <use x="319.978515625" xlink:href="#BitstreamVeraSans-Roman-42"/>
     </g>
    </g>
   </g>
   <g id="text_13">
    <g clip-path="url(#p7ff5b81e1d)">
     <!-- Þorvaldur -->
     <defs>
      <path d="
M2.98438 54.6875
L12.5 54.6875
L29.5938 8.79688
L46.6875 54.6875
L56.2031 54.6875
L35.6875 0
L23.4844 0
z
" id="BitstreamVeraSans-Roman-76"/>
      <path d="
M9.8125 72.9062
L19.6719 72.9062
L19.6719 60.0156
L32.0781 60.0156
Q44.3438 60.0156 50.6094 54.5156
Q56.8906 49.0312 56.8906 38.2812
Q56.8906 27.5469 50.6094 22.0156
Q44.3438 16.5 32.0781 16.5
L19.6719 16.5
L19.6719 0
L9.8125 0
z

M19.6719 51.9062
L19.6719 24.6094
L32.0781 24.6094
Q38.9688 24.6094 42.7188 28.1719
Q46.4844 31.7344 46.4844 38.2812
Q46.4844 44.8281 42.75 48.3594
Q39.0156 51.9062 32.0781 51.9062
z
" id="BitstreamVeraSans-Roman-de"/>
     </defs>
     <g transform="translate(365.566795 319.93486)scale(0.08 -0.08)">
      <use xlink:href="#BitstreamVeraSans-Roman-de"/>
      <use x="60.498046875" xlink:href="#BitstreamVeraSans-Roman-6f"/>
      <use x="121.6796875" xlink:href="#BitstreamVeraSans-Roman-72"/>
      <use x="162.79296875" xlink:href="#BitstreamVeraSans-Roman-76"/>
      <use x="221.97265625" xlink:href="#BitstreamVeraSans-Roman-61"/>
      <use x="283.251953125" xlink:href="#BitstreamVeraSans-Roman-6c"/>
      <use x="311.03515625" xlink:href="#BitstreamVeraSans-Roman-64"/>
      <use x="374.51171875" xlink:href="#BitstreamVeraSans-Roman-75"/>
      <use x="437.890625" xlink:href="#BitstreamVeraSans-Roman-72"/>
     </g>
    </g>
   </g>
   <g id="text_14">
    <g clip-path="url(#p7ff5b81e1d)">
     <!-- Sigurður -->
     <g transform="translate(454.54998 235.52206)scale(0.08 -0.08)">
      <use xlink:href="#BitstreamVeraSans-Roman-53"/>
      <use x="63.4765625" xlink:href="#BitstreamVeraSans-Roman-69"/>
      <use x="91.259765625" xlink:href="#BitstreamVeraSans-Roman-67"/>
      <use x="154.736328125" xlink:href="#BitstreamVeraSans-Roman-75"/>
      <use x="218.115234375" xlink:href="#BitstreamVeraSans-Roman-72"/>
      <use x="259.228515625" xlink:href="#BitstreamVeraSans-Roman-f0"/>
      <use x="320.41015625" xlink:href="#BitstreamVeraSans-Roman-75"/>
      <use x="383.7890625" xlink:href="#BitstreamVeraSans-Roman-72"/>
     </g>
    </g>
   </g>
   <g id="text_15">
    <g clip-path="url(#p7ff5b81e1d)">
     <!-- Hreggviður -->
     <g transform="translate(418.430895 130.26958)scale(0.08 -0.08)">
      <use xlink:href="#BitstreamVeraSans-Roman-48"/>
      <use x="75.1953125" xlink:href="#BitstreamVeraSans-Roman-72"/>
      <use x="114.05859375" xlink:href="#BitstreamVeraSans-Roman-65"/>
      <use x="175.58203125" xlink:href="#BitstreamVeraSans-Roman-67"/>
      <use x="239.05859375" xlink:href="#BitstreamVeraSans-Roman-67"/>
      <use x="302.53515625" xlink:href="#BitstreamVeraSans-Roman-76"/>
      <use x="361.71484375" xlink:href="#BitstreamVeraSans-Roman-69"/>
      <use x="389.498046875" xlink:href="#BitstreamVeraSans-Roman-f0"/>
      <use x="450.6796875" xlink:href="#BitstreamVeraSans-Roman-75"/>
      <use x="514.05859375" xlink:href="#BitstreamVeraSans-Roman-72"/>
     </g>
    </g>
   </g>
   <g id="text_16">
    <g clip-path="url(#p7ff5b81e1d)">
     <!-- Anna -->
     <g transform="translate(235.016435 319.93486)scale(0.08 -0.08)">
      <use xlink:href="#BitstreamVeraSans-Roman-41"/>
      <use x="68.408203125" xlink:href="#BitstreamVeraSans-Roman-6e"/>
      <use x="131.787109375" xlink:href="#BitstreamVeraSans-Roman-6e"/>
      <use x="195.166015625" xlink:href="#BitstreamVeraSans-Roman-61"/>
     </g>
    </g>
   </g>
   <g id="text_17">
    <g clip-path="url(#p7ff5b81e1d)">
     <!-- Sveinn -->
     <g transform="translate(427.30027 285.412012)scale(0.08 -0.08)">
      <use xlink:href="#BitstreamVeraSans-Roman-53"/>
      <use x="63.4765625" xlink:href="#BitstreamVeraSans-Roman-76"/>
      <use x="122.65625" xlink:href="#BitstreamVeraSans-Roman-65"/>
      <use x="184.1796875" xlink:href="#BitstreamVeraSans-Roman-69"/>
      <use x="211.962890625" xlink:href="#BitstreamVeraSans-Roman-6e"/>
      <use x="275.341796875" xlink:href="#BitstreamVeraSans-Roman-6e"/>
     </g>
    </g>
   </g>
  </g>
 </g>
 <defs>
  <clipPath id="p7ff5b81e1d">
   <rect height="345.6" width="446.4" x="72.0" y="43.2"/>
  </clipPath>
 </defs>
</svg>
