<?xml version="1.0" encoding="utf-8" standalone="no"?>
<!DOCTYPE svg PUBLIC "-//W3C//DTD SVG 1.1//EN"
  "http://www.w3.org/Graphics/SVG/1.1/DTD/svg11.dtd">
<!-- Created with matplotlib (http://matplotlib.org/) -->
<svg height="432pt" version="1.1" viewBox="0 0 576 432" width="576pt" xmlns="http://www.w3.org/2000/svg" xmlns:xlink="http://www.w3.org/1999/xlink">
 <defs>
  <style type="text/css">
*{stroke-linecap:butt;stroke-linejoin:round;}
  </style>
 </defs>
 <g id="figure_1">
  <g id="patch_1">
   <path d="M 0 432 
L 576 432 
L 576 0 
L 0 0 
z
" style="fill:#ffffff;"/>
  </g>
  <g id="axes_1">
   <g id="LineCollection_1">
    <path clip-path="url(#p63ce1727a8)" d="M 110.73719 312.937812 
L 479.66281 236.292238 
" style="fill:none;stroke:#808080;stroke-opacity:0.7;"/>
    <path clip-path="url(#p63ce1727a8)" d="M 110.73719 312.937812 
L 350.203153 355.614545 
" style="fill:none;stroke:#808080;stroke-opacity:0.7;"/>
    <path clip-path="url(#p63ce1727a8)" d="M 479.66281 236.292238 
L 350.203153 355.614545 
" style="fill:none;stroke:#808080;stroke-opacity:0.7;"/>
    <path clip-path="url(#p63ce1727a8)" d="M 479.66281 236.292238 
L 362.730027 80.705455 
" style="fill:none;stroke:#808080;stroke-opacity:0.7;"/>
    <path clip-path="url(#p63ce1727a8)" d="M 350.203153 355.614545 
L 362.730027 80.705455 
" style="fill:none;stroke:#808080;stroke-opacity:0.7;"/>
   </g>
   <g id="LineCollection_2">
    <path clip-path="url(#p63ce1727a8)" d="M 479.66281 236.292238 
L 350.203153 355.614545 
" style="fill:none;stroke:#000000;stroke-opacity:0.6;stroke-width:4;"/>
   </g>
   <g id="LineCollection_3">
    <path clip-path="url(#p63ce1727a8)" d="M 110.73719 312.937812 
L 479.66281 236.292238 
" style="fill:none;stroke:#000000;stroke-opacity:0.5;stroke-width:3;"/>
    <path clip-path="url(#p63ce1727a8)" d="M 110.73719 312.937812 
L 350.203153 355.614545 
" style="fill:none;stroke:#000000;stroke-opacity:0.5;stroke-width:3;"/>
   </g>
   <g id="LineCollection_4">
    <path clip-path="url(#p63ce1727a8)" d="M 479.66281 236.292238 
L 362.730027 80.705455 
" style="fill:none;stroke:#000000;stroke-opacity:0.4;stroke-width:2;"/>
    <path clip-path="url(#p63ce1727a8)" d="M 350.203153 355.614545 
L 362.730027 80.705455 
" style="fill:none;stroke:#000000;stroke-opacity:0.4;stroke-width:2;"/>
   </g>
   <g id="LineCollection_5">
    <path clip-path="url(#p63ce1727a8)" d="M 479.66281 236.292238 
L 110.73719 312.937812 
" style="fill:none;stroke:#cd5c5c;stroke-dasharray:18.5,8;stroke-dashoffset:0;stroke-opacity:0.6;stroke-width:5;"/>
    <path clip-path="url(#p63ce1727a8)" d="M 479.66281 236.292238 
L 350.203153 355.614545 
" style="fill:none;stroke:#cd5c5c;stroke-dasharray:18.5,8;stroke-dashoffset:0;stroke-opacity:0.6;stroke-width:5;"/>
   </g>
   <g id="PathCollection_1">
    <defs>
     <path d="M 0 26.457513 
C 7.016614 26.457513 13.746791 23.669783 18.708287 18.708287 
C 23.669783 13.746791 26.457513 7.016614 26.457513 0 
C 26.457513 -7.016614 23.669783 -13.746791 18.708287 -18.708287 
C 13.746791 -23.669783 7.016614 -26.457513 0 -26.457513 
C -7.016614 -26.457513 -13.746791 -23.669783 -18.708287 -18.708287 
C -23.669783 -13.746791 -26.457513 -7.016614 -26.457513 0 
C -26.457513 7.016614 -23.669783 13.746791 -18.708287 18.708287 
C -13.746791 23.669783 -7.016614 26.457513 0 26.457513 
z
" id="ma94d137995" style="stroke:#cab2d6;"/>
    </defs>
    <g clip-path="url(#p63ce1727a8)">
     <use style="fill:#cab2d6;stroke:#cab2d6;" x="479.66281" xlink:href="#ma94d137995" y="236.292238"/>
    </g>
   </g>
   <g id="PathCollection_2">
    <defs>
     <path d="M 0 23.979158 
C 6.359347 23.979158 12.459088 21.452562 16.955825 16.955825 
C 21.452562 12.459088 23.979158 6.359347 23.979158 0 
C 23.979158 -6.359347 21.452562 -12.459088 16.955825 -16.955825 
C 12.459088 -21.452562 6.359347 -23.979158 0 -23.979158 
C -6.359347 -23.979158 -12.459088 -21.452562 -16.955825 -16.955825 
C -21.452562 -12.459088 -23.979158 -6.359347 -23.979158 0 
C -23.979158 6.359347 -21.452562 12.459088 -16.955825 16.955825 
C -12.459088 21.452562 -6.359347 23.979158 0 23.979158 
z
" id="m4e2b12fb73" style="stroke:#33a02c;stroke-opacity:0.6;"/>
    </defs>
    <g clip-path="url(#p63ce1727a8)">
     <use style="fill:#33a02c;fill-opacity:0.6;stroke:#33a02c;stroke-opacity:0.6;" x="110.73719" xlink:href="#m4e2b12fb73" y="312.937812"/>
     <use style="fill:#33a02c;fill-opacity:0.6;stroke:#33a02c;stroke-opacity:0.6;" x="350.203153" xlink:href="#m4e2b12fb73" y="355.614545"/>
     <use style="fill:#33a02c;fill-opacity:0.6;stroke:#33a02c;stroke-opacity:0.6;" x="362.730027" xlink:href="#m4e2b12fb73" y="80.705455"/>
    </g>
   </g>
   <g id="PathCollection_3">
    <defs>
     <path d="M 0 23.979158 
C 6.359347 23.979158 12.459088 21.452562 16.955825 16.955825 
C 21.452562 12.459088 23.979158 6.359347 23.979158 0 
C 23.979158 -6.359347 21.452562 -12.459088 16.955825 -16.955825 
C 12.459088 -21.452562 6.359347 -23.979158 0 -23.979158 
C -6.359347 -23.979158 -12.459088 -21.452562 -16.955825 -16.955825 
C -21.452562 -12.459088 -23.979158 -6.359347 -23.979158 0 
C -23.979158 6.359347 -21.452562 12.459088 -16.955825 16.955825 
C -12.459088 21.452562 -6.359347 23.979158 0 23.979158 
z
" id="m5b3edacd5f" style="stroke:#cd5c5c;"/>
    </defs>
    <g clip-path="url(#p63ce1727a8)">
     <use style="fill:#cd5c5c;stroke:#cd5c5c;" x="110.73719" xlink:href="#m5b3edacd5f" y="312.937812"/>
     <use style="fill:#cd5c5c;stroke:#cd5c5c;" x="350.203153" xlink:href="#m5b3edacd5f" y="355.614545"/>
    </g>
   </g>
   <g id="PathCollection_4">
    <defs>
     <path d="M 0 20.615528 
C 5.467302 20.615528 10.711413 18.443346 14.57738 14.57738 
C 18.443346 10.711413 20.615528 5.467302 20.615528 0 
C 20.615528 -5.467302 18.443346 -10.711413 14.57738 -14.57738 
C 10.711413 -18.443346 5.467302 -20.615528 0 -20.615528 
C -5.467302 -20.615528 -10.711413 -18.443346 -14.57738 -14.57738 
C -18.443346 -10.711413 -20.615528 -5.467302 -20.615528 0 
C -20.615528 5.467302 -18.443346 10.711413 -14.57738 14.57738 
C -10.711413 18.443346 -5.467302 20.615528 0 20.615528 
z
" id="m9c3775af20" style="stroke:#a6cee3;"/>
    </defs>
    <g clip-path="url(#p63ce1727a8)">
     <use style="fill:#a6cee3;stroke:#a6cee3;" x="110.73719" xlink:href="#m9c3775af20" y="312.937812"/>
    </g>
   </g>
   <g id="PathCollection_5">
    <defs>
     <path d="M 0 21.794495 
C 5.779968 21.794495 11.323981 19.498089 15.411035 15.411035 
C 19.498089 11.323981 21.794495 5.779968 21.794495 0 
C 21.794495 -5.779968 19.498089 -11.323981 15.411035 -15.411035 
C 11.323981 -19.498089 5.779968 -21.794495 0 -21.794495 
C -5.779968 -21.794495 -11.323981 -19.498089 -15.411035 -15.411035 
C -19.498089 -11.323981 -21.794495 -5.779968 -21.794495 0 
C -21.794495 5.779968 -19.498089 11.323981 -15.411035 15.411035 
C -11.323981 19.498089 -5.779968 21.794495 0 21.794495 
z
" id="ma9a6a977a1" style="stroke:#ff7f00;"/>
    </defs>
    <g clip-path="url(#p63ce1727a8)">
     <use style="fill:#ff7f00;stroke:#ff7f00;" x="110.73719" xlink:href="#ma9a6a977a1" y="312.937812"/>
    </g>
   </g>
   <g id="PathCollection_6">
    <defs>
     <path d="M 0 19.364917 
C 5.135636 19.364917 10.061621 17.324507 13.693064 13.693064 
C 17.324507 10.061621 19.364917 5.135636 19.364917 0 
C 19.364917 -5.135636 17.324507 -10.061621 13.693064 -13.693064 
C 10.061621 -17.324507 5.135636 -19.364917 0 -19.364917 
C -5.135636 -19.364917 -10.061621 -17.324507 -13.693064 -13.693064 
C -17.324507 -10.061621 -19.364917 -5.135636 -19.364917 0 
C -19.364917 5.135636 -17.324507 10.061621 -13.693064 13.693064 
C -10.061621 17.324507 -5.135636 19.364917 0 19.364917 
z
" id="mfdb791b193" style="stroke:#b2df8a;"/>
    </defs>
    <g clip-path="url(#p63ce1727a8)">
     <use style="fill:#b2df8a;stroke:#b2df8a;" x="362.730027" xlink:href="#mfdb791b193" y="80.705455"/>
    </g>
   </g>
   <g id="text_1">
    <g clip-path="url(#p63ce1727a8)">
     <!-- andrea c -->
     <defs>
      <path d="M 34.28125 27.484375 
Q 23.390625 27.484375 19.1875 25 
Q 14.984375 22.515625 14.984375 16.5 
Q 14.984375 11.71875 18.140625 8.90625 
Q 21.296875 6.109375 26.703125 6.109375 
Q 34.1875 6.109375 38.703125 11.40625 
Q 43.21875 16.703125 43.21875 25.484375 
L 43.21875 27.484375 
z
M 52.203125 31.203125 
L 52.203125 0 
L 43.21875 0 
L 43.21875 8.296875 
Q 40.140625 3.328125 35.546875 0.953125 
Q 30.953125 -1.421875 24.3125 -1.421875 
Q 15.921875 -1.421875 10.953125 3.296875 
Q 6 8.015625 6 15.921875 
Q 6 25.140625 12.171875 29.828125 
Q 18.359375 34.515625 30.609375 34.515625 
L 43.21875 34.515625 
L 43.21875 35.40625 
Q 43.21875 41.609375 39.140625 45 
Q 35.0625 48.390625 27.6875 48.390625 
Q 23 48.390625 18.546875 47.265625 
Q 14.109375 46.140625 10.015625 43.890625 
L 10.015625 52.203125 
Q 14.9375 54.109375 19.578125 55.046875 
Q 24.21875 56 28.609375 56 
Q 40.484375 56 46.34375 49.84375 
Q 52.203125 43.703125 52.203125 31.203125 
z
" id="DejaVuSans-61"/>
      <path d="M 54.890625 33.015625 
L 54.890625 0 
L 45.90625 0 
L 45.90625 32.71875 
Q 45.90625 40.484375 42.875 44.328125 
Q 39.84375 48.1875 33.796875 48.1875 
Q 26.515625 48.1875 22.3125 43.546875 
Q 18.109375 38.921875 18.109375 30.90625 
L 18.109375 0 
L 9.078125 0 
L 9.078125 54.6875 
L 18.109375 54.6875 
L 18.109375 46.1875 
Q 21.34375 51.125 25.703125 53.5625 
Q 30.078125 56 35.796875 56 
Q 45.21875 56 50.046875 50.171875 
Q 54.890625 44.34375 54.890625 33.015625 
z
" id="DejaVuSans-6e"/>
      <path d="M 45.40625 46.390625 
L 45.40625 75.984375 
L 54.390625 75.984375 
L 54.390625 0 
L 45.40625 0 
L 45.40625 8.203125 
Q 42.578125 3.328125 38.25 0.953125 
Q 33.9375 -1.421875 27.875 -1.421875 
Q 17.96875 -1.421875 11.734375 6.484375 
Q 5.515625 14.40625 5.515625 27.296875 
Q 5.515625 40.1875 11.734375 48.09375 
Q 17.96875 56 27.875 56 
Q 33.9375 56 38.25 53.625 
Q 42.578125 51.265625 45.40625 46.390625 
z
M 14.796875 27.296875 
Q 14.796875 17.390625 18.875 11.75 
Q 22.953125 6.109375 30.078125 6.109375 
Q 37.203125 6.109375 41.296875 11.75 
Q 45.40625 17.390625 45.40625 27.296875 
Q 45.40625 37.203125 41.296875 42.84375 
Q 37.203125 48.484375 30.078125 48.484375 
Q 22.953125 48.484375 18.875 42.84375 
Q 14.796875 37.203125 14.796875 27.296875 
z
" id="DejaVuSans-64"/>
      <path d="M 41.109375 46.296875 
Q 39.59375 47.171875 37.8125 47.578125 
Q 36.03125 48 33.890625 48 
Q 26.265625 48 22.1875 43.046875 
Q 18.109375 38.09375 18.109375 28.8125 
L 18.109375 0 
L 9.078125 0 
L 9.078125 54.6875 
L 18.109375 54.6875 
L 18.109375 46.1875 
Q 20.953125 51.171875 25.484375 53.578125 
Q 30.03125 56 36.53125 56 
Q 37.453125 56 38.578125 55.875 
Q 39.703125 55.765625 41.0625 55.515625 
z
" id="DejaVuSans-72"/>
      <path d="M 56.203125 29.59375 
L 56.203125 25.203125 
L 14.890625 25.203125 
Q 15.484375 15.921875 20.484375 11.0625 
Q 25.484375 6.203125 34.421875 6.203125 
Q 39.59375 6.203125 44.453125 7.46875 
Q 49.3125 8.734375 54.109375 11.28125 
L 54.109375 2.78125 
Q 49.265625 0.734375 44.1875 -0.34375 
Q 39.109375 -1.421875 33.890625 -1.421875 
Q 20.796875 -1.421875 13.15625 6.1875 
Q 5.515625 13.8125 5.515625 26.8125 
Q 5.515625 40.234375 12.765625 48.109375 
Q 20.015625 56 32.328125 56 
Q 43.359375 56 49.78125 48.890625 
Q 56.203125 41.796875 56.203125 29.59375 
z
M 47.21875 32.234375 
Q 47.125 39.59375 43.09375 43.984375 
Q 39.0625 48.390625 32.421875 48.390625 
Q 24.90625 48.390625 20.390625 44.140625 
Q 15.875 39.890625 15.1875 32.171875 
z
" id="DejaVuSans-65"/>
      <path id="DejaVuSans-20"/>
      <path d="M 48.78125 52.59375 
L 48.78125 44.1875 
Q 44.96875 46.296875 41.140625 47.34375 
Q 37.3125 48.390625 33.40625 48.390625 
Q 24.65625 48.390625 19.8125 42.84375 
Q 14.984375 37.3125 14.984375 27.296875 
Q 14.984375 17.28125 19.8125 11.734375 
Q 24.65625 6.203125 33.40625 6.203125 
Q 37.3125 6.203125 41.140625 7.25 
Q 44.96875 8.296875 48.78125 10.40625 
L 48.78125 2.09375 
Q 45.015625 0.34375 40.984375 -0.53125 
Q 36.96875 -1.421875 32.421875 -1.421875 
Q 20.0625 -1.421875 12.78125 6.34375 
Q 5.515625 14.109375 5.515625 27.296875 
Q 5.515625 40.671875 12.859375 48.328125 
Q 20.21875 56 33.015625 56 
Q 37.15625 56 41.109375 55.140625 
Q 45.0625 54.296875 48.78125 52.59375 
z
" id="DejaVuSans-63"/>
     </defs>
     <g transform="translate(462.110935 238.499738)scale(0.08 -0.08)">
      <use xlink:href="#DejaVuSans-61"/>
      <use x="61.279297" xlink:href="#DejaVuSans-6e"/>
      <use x="124.658203" xlink:href="#DejaVuSans-64"/>
      <use x="188.134766" xlink:href="#DejaVuSans-72"/>
      <use x="229.216797" xlink:href="#DejaVuSans-65"/>
      <use x="290.740234" xlink:href="#DejaVuSans-61"/>
      <use x="352.019531" xlink:href="#DejaVuSans-20"/>
      <use x="383.806641" xlink:href="#DejaVuSans-63"/>
     </g>
    </g>
   </g>
   <g id="text_2">
    <g clip-path="url(#p63ce1727a8)">
     <!-- tre -->
     <defs>
      <path d="M 18.3125 70.21875 
L 18.3125 54.6875 
L 36.8125 54.6875 
L 36.8125 47.703125 
L 18.3125 47.703125 
L 18.3125 18.015625 
Q 18.3125 11.328125 20.140625 9.421875 
Q 21.96875 7.515625 27.59375 7.515625 
L 36.8125 7.515625 
L 36.8125 0 
L 27.59375 0 
Q 17.1875 0 13.234375 3.875 
Q 9.28125 7.765625 9.28125 18.015625 
L 9.28125 47.703125 
L 2.6875 47.703125 
L 2.6875 54.6875 
L 9.28125 54.6875 
L 9.28125 70.21875 
z
" id="DejaVuSans-74"/>
     </defs>
     <g transform="translate(105.06469 315.145312)scale(0.08 -0.08)">
      <use xlink:href="#DejaVuSans-74"/>
      <use x="39.208984" xlink:href="#DejaVuSans-72"/>
      <use x="80.291016" xlink:href="#DejaVuSans-65"/>
     </g>
    </g>
   </g>
   <g id="text_3">
    <g clip-path="url(#p63ce1727a8)">
     <!-- due -->
     <defs>
      <path d="M 8.5 21.578125 
L 8.5 54.6875 
L 17.484375 54.6875 
L 17.484375 21.921875 
Q 17.484375 14.15625 20.5 10.265625 
Q 23.53125 6.390625 29.59375 6.390625 
Q 36.859375 6.390625 41.078125 11.03125 
Q 45.3125 15.671875 45.3125 23.6875 
L 45.3125 54.6875 
L 54.296875 54.6875 
L 54.296875 0 
L 45.3125 0 
L 45.3125 8.40625 
Q 42.046875 3.421875 37.71875 1 
Q 33.40625 -1.421875 27.6875 -1.421875 
Q 18.265625 -1.421875 13.375 4.4375 
Q 8.5 10.296875 8.5 21.578125 
z
M 31.109375 56 
z
" id="DejaVuSans-75"/>
     </defs>
     <g transform="translate(342.667528 357.822045)scale(0.08 -0.08)">
      <use xlink:href="#DejaVuSans-64"/>
      <use x="63.476562" xlink:href="#DejaVuSans-75"/>
      <use x="126.855469" xlink:href="#DejaVuSans-65"/>
     </g>
    </g>
   </g>
   <g id="text_4">
    <g clip-path="url(#p63ce1727a8)">
     <!-- uno -->
     <defs>
      <path d="M 30.609375 48.390625 
Q 23.390625 48.390625 19.1875 42.75 
Q 14.984375 37.109375 14.984375 27.296875 
Q 14.984375 17.484375 19.15625 11.84375 
Q 23.34375 6.203125 30.609375 6.203125 
Q 37.796875 6.203125 41.984375 11.859375 
Q 46.1875 17.53125 46.1875 27.296875 
Q 46.1875 37.015625 41.984375 42.703125 
Q 37.796875 48.390625 30.609375 48.390625 
z
M 30.609375 56 
Q 42.328125 56 49.015625 48.375 
Q 55.71875 40.765625 55.71875 27.296875 
Q 55.71875 13.875 49.015625 6.21875 
Q 42.328125 -1.421875 30.609375 -1.421875 
Q 18.84375 -1.421875 12.171875 6.21875 
Q 5.515625 13.875 5.515625 27.296875 
Q 5.515625 40.765625 12.171875 48.375 
Q 18.84375 56 30.609375 56 
z
" id="DejaVuSans-6f"/>
     </defs>
     <g transform="translate(355.212527 82.912955)scale(0.08 -0.08)">
      <use xlink:href="#DejaVuSans-75"/>
      <use x="63.378906" xlink:href="#DejaVuSans-6e"/>
      <use x="126.757812" xlink:href="#DejaVuSans-6f"/>
     </g>
    </g>
   </g>
  </g>
 </g>
 <defs>
  <clipPath id="p63ce1727a8">
   <rect height="332.64" width="446.4" x="72" y="51.84"/>
  </clipPath>
 </defs>
</svg>
