<?xml version="1.0" encoding="utf-8" standalone="no"?>
<!DOCTYPE svg PUBLIC "-//W3C//DTD SVG 1.1//EN"
  "http://www.w3.org/Graphics/SVG/1.1/DTD/svg11.dtd">
<!-- Created with matplotlib (http://matplotlib.org/) -->
<svg height="432pt" version="1.1" viewBox="0 0 576 432" width="576pt" xmlns="http://www.w3.org/2000/svg" xmlns:xlink="http://www.w3.org/1999/xlink">
 <defs>
  <style type="text/css">
*{stroke-linecap:butt;stroke-linejoin:round;}
  </style>
 </defs>
 <g id="figure_1">
  <g id="patch_1">
   <path d="M 0 432 
L 576 432 
L 576 0 
L 0 0 
z
" style="fill:#ffffff;"/>
  </g>
  <g id="axes_1">
   <g id="LineCollection_1">
    <path clip-path="url(#pccac680b31)" d="M 479.66281 80.705455 
L 295.190942 134.39498 
" style="fill:none;stroke:#808080;stroke-opacity:0.7;"/>
    <path clip-path="url(#pccac680b31)" d="M 295.190942 263.980582 
L 295.190942 134.39498 
" style="fill:none;stroke:#808080;stroke-opacity:0.7;"/>
    <path clip-path="url(#pccac680b31)" d="M 295.190942 263.980582 
L 202.967689 355.614545 
" style="fill:none;stroke:#808080;stroke-opacity:0.7;"/>
    <path clip-path="url(#pccac680b31)" d="M 295.190942 263.980582 
L 387.435934 355.614545 
" style="fill:none;stroke:#808080;stroke-opacity:0.7;"/>
    <path clip-path="url(#pccac680b31)" d="M 110.73719 80.705455 
L 295.190942 134.39498 
" style="fill:none;stroke:#808080;stroke-opacity:0.7;"/>
    <path clip-path="url(#pccac680b31)" d="M 295.190942 134.39498 
L 202.967689 355.614545 
" style="fill:none;stroke:#808080;stroke-opacity:0.7;"/>
    <path clip-path="url(#pccac680b31)" d="M 295.190942 134.39498 
L 387.435934 355.614545 
" style="fill:none;stroke:#808080;stroke-opacity:0.7;"/>
    <path clip-path="url(#pccac680b31)" d="M 202.967689 355.614545 
L 387.435934 355.614545 
" style="fill:none;stroke:#808080;stroke-opacity:0.7;"/>
   </g>
   <g id="LineCollection_2">
    <path clip-path="url(#pccac680b31)" d="M 479.66281 80.705455 
L 295.190942 134.39498 
" style="fill:none;stroke:#000000;stroke-opacity:0.6;stroke-width:4;"/>
   </g>
   <g id="LineCollection_3">
    <path clip-path="url(#pccac680b31)" d="M 295.190942 263.980582 
L 295.190942 134.39498 
" style="fill:none;stroke:#000000;stroke-opacity:0.4;stroke-width:2;"/>
    <path clip-path="url(#pccac680b31)" d="M 295.190942 263.980582 
L 202.967689 355.614545 
" style="fill:none;stroke:#000000;stroke-opacity:0.4;stroke-width:2;"/>
    <path clip-path="url(#pccac680b31)" d="M 295.190942 134.39498 
L 202.967689 355.614545 
" style="fill:none;stroke:#000000;stroke-opacity:0.4;stroke-width:2;"/>
    <path clip-path="url(#pccac680b31)" d="M 295.190942 134.39498 
L 387.435934 355.614545 
" style="fill:none;stroke:#000000;stroke-opacity:0.4;stroke-width:2;"/>
    <path clip-path="url(#pccac680b31)" d="M 202.967689 355.614545 
L 387.435934 355.614545 
" style="fill:none;stroke:#000000;stroke-opacity:0.4;stroke-width:2;"/>
   </g>
   <g id="LineCollection_4">
    <path clip-path="url(#pccac680b31)" d="M 295.190942 263.980582 
L 387.435934 355.614545 
" style="fill:none;stroke:#000000;stroke-opacity:0.3;"/>
    <path clip-path="url(#pccac680b31)" d="M 110.73719 80.705455 
L 295.190942 134.39498 
" style="fill:none;stroke:#000000;stroke-opacity:0.3;"/>
   </g>
   <g id="LineCollection_5">
    <path clip-path="url(#pccac680b31)" d="M 295.190942 134.39498 
L 110.73719 80.705455 
" style="fill:none;stroke:#cd5c5c;stroke-dasharray:18.5,8;stroke-dashoffset:0;stroke-opacity:0.6;stroke-width:5;"/>
   </g>
   <g id="LineCollection_6">
    <path clip-path="url(#pccac680b31)" d="M 295.190942 134.39498 
L 202.967689 355.614545 
" style="fill:none;stroke:#33a02c;stroke-dasharray:18.5,8;stroke-dashoffset:0;stroke-opacity:0.6;stroke-width:5;"/>
    <path clip-path="url(#pccac680b31)" d="M 295.190942 134.39498 
L 479.66281 80.705455 
" style="fill:none;stroke:#33a02c;stroke-dasharray:18.5,8;stroke-dashoffset:0;stroke-opacity:0.6;stroke-width:5;"/>
    <path clip-path="url(#pccac680b31)" d="M 295.190942 134.39498 
L 295.190942 263.980582 
" style="fill:none;stroke:#33a02c;stroke-dasharray:18.5,8;stroke-dashoffset:0;stroke-opacity:0.6;stroke-width:5;"/>
   </g>
   <g id="PathCollection_1">
    <defs>
     <path d="M 0 26.457513 
C 7.016614 26.457513 13.746791 23.669783 18.708287 18.708287 
C 23.669783 13.746791 26.457513 7.016614 26.457513 0 
C 26.457513 -7.016614 23.669783 -13.746791 18.708287 -18.708287 
C 13.746791 -23.669783 7.016614 -26.457513 0 -26.457513 
C -7.016614 -26.457513 -13.746791 -23.669783 -18.708287 -18.708287 
C -23.669783 -13.746791 -26.457513 -7.016614 -26.457513 0 
C -26.457513 7.016614 -23.669783 13.746791 -18.708287 18.708287 
C -13.746791 23.669783 -7.016614 26.457513 0 26.457513 
z
" id="mf7bdcaa3b5" style="stroke:#cab2d6;"/>
    </defs>
    <g clip-path="url(#pccac680b31)">
     <use style="fill:#cab2d6;stroke:#cab2d6;" x="295.190942" xlink:href="#mf7bdcaa3b5" y="134.39498"/>
    </g>
   </g>
   <g id="PathCollection_2">
    <defs>
     <path d="M 0 23.979158 
C 6.359347 23.979158 12.459088 21.452562 16.955825 16.955825 
C 21.452562 12.459088 23.979158 6.359347 23.979158 0 
C 23.979158 -6.359347 21.452562 -12.459088 16.955825 -16.955825 
C 12.459088 -21.452562 6.359347 -23.979158 0 -23.979158 
C -6.359347 -23.979158 -12.459088 -21.452562 -16.955825 -16.955825 
C -21.452562 -12.459088 -23.979158 -6.359347 -23.979158 0 
C -23.979158 6.359347 -21.452562 12.459088 -16.955825 16.955825 
C -12.459088 21.452562 -6.359347 23.979158 0 23.979158 
z
" id="m14329bbbee" style="stroke:#33a02c;stroke-opacity:0.6;"/>
    </defs>
    <g clip-path="url(#pccac680b31)">
     <use style="fill:#33a02c;fill-opacity:0.6;stroke:#33a02c;stroke-opacity:0.6;" x="202.967689" xlink:href="#m14329bbbee" y="355.614545"/>
     <use style="fill:#33a02c;fill-opacity:0.6;stroke:#33a02c;stroke-opacity:0.6;" x="387.435934" xlink:href="#m14329bbbee" y="355.614545"/>
     <use style="fill:#33a02c;fill-opacity:0.6;stroke:#33a02c;stroke-opacity:0.6;" x="479.66281" xlink:href="#m14329bbbee" y="80.705455"/>
    </g>
   </g>
   <g id="PathCollection_3">
    <defs>
     <path d="M 0 23.979158 
C 6.359347 23.979158 12.459088 21.452562 16.955825 16.955825 
C 21.452562 12.459088 23.979158 6.359347 23.979158 0 
C 23.979158 -6.359347 21.452562 -12.459088 16.955825 -16.955825 
C 12.459088 -21.452562 6.359347 -23.979158 0 -23.979158 
C -6.359347 -23.979158 -12.459088 -21.452562 -16.955825 -16.955825 
C -21.452562 -12.459088 -23.979158 -6.359347 -23.979158 0 
C -23.979158 6.359347 -21.452562 12.459088 -16.955825 16.955825 
C -12.459088 21.452562 -6.359347 23.979158 0 23.979158 
z
" id="mdb81cf434c" style="stroke:#cd5c5c;"/>
    </defs>
    <g clip-path="url(#pccac680b31)">
     <use style="fill:#cd5c5c;stroke:#cd5c5c;" x="110.73719" xlink:href="#mdb81cf434c" y="80.705455"/>
    </g>
   </g>
   <g id="PathCollection_4">
    <defs>
     <path d="M 0 20.615528 
C 5.467302 20.615528 10.711413 18.443346 14.57738 14.57738 
C 18.443346 10.711413 20.615528 5.467302 20.615528 0 
C 20.615528 -5.467302 18.443346 -10.711413 14.57738 -14.57738 
C 10.711413 -18.443346 5.467302 -20.615528 0 -20.615528 
C -5.467302 -20.615528 -10.711413 -18.443346 -14.57738 -14.57738 
C -18.443346 -10.711413 -20.615528 -5.467302 -20.615528 0 
C -20.615528 5.467302 -18.443346 10.711413 -14.57738 14.57738 
C -10.711413 18.443346 -5.467302 20.615528 0 20.615528 
z
" id="m64d3d2a35c" style="stroke:#a6cee3;"/>
    </defs>
    <g clip-path="url(#pccac680b31)">
     <use style="fill:#a6cee3;stroke:#a6cee3;" x="295.190942" xlink:href="#m64d3d2a35c" y="263.980582"/>
    </g>
   </g>
   <g id="PathCollection_5">
    <defs>
     <path d="M 0 21.794495 
C 5.779968 21.794495 11.323981 19.498089 15.411035 15.411035 
C 19.498089 11.323981 21.794495 5.779968 21.794495 0 
C 21.794495 -5.779968 19.498089 -11.323981 15.411035 -15.411035 
C 11.323981 -19.498089 5.779968 -21.794495 0 -21.794495 
C -5.779968 -21.794495 -11.323981 -19.498089 -15.411035 -15.411035 
C -19.498089 -11.323981 -21.794495 -5.779968 -21.794495 0 
C -21.794495 5.779968 -19.498089 11.323981 -15.411035 15.411035 
C -11.323981 19.498089 -5.779968 21.794495 0 21.794495 
z
" id="m47d5405d15" style="stroke:#ff7f00;"/>
    </defs>
    <g clip-path="url(#pccac680b31)">
     <use style="fill:#ff7f00;stroke:#ff7f00;" x="479.66281" xlink:href="#m47d5405d15" y="80.705455"/>
    </g>
   </g>
   <g id="PathCollection_6">
    <defs>
     <path d="M 0 19.364917 
C 5.135636 19.364917 10.061621 17.324507 13.693064 13.693064 
C 17.324507 10.061621 19.364917 5.135636 19.364917 0 
C 19.364917 -5.135636 17.324507 -10.061621 13.693064 -13.693064 
C 10.061621 -17.324507 5.135636 -19.364917 0 -19.364917 
C -5.135636 -19.364917 -10.061621 -17.324507 -13.693064 -13.693064 
C -17.324507 -10.061621 -19.364917 -5.135636 -19.364917 0 
C -19.364917 5.135636 -17.324507 10.061621 -13.693064 13.693064 
C -10.061621 17.324507 -5.135636 19.364917 0 19.364917 
z
" id="mc954fc025d" style="stroke:#b2df8a;"/>
    </defs>
    <g clip-path="url(#pccac680b31)">
     <use style="fill:#b2df8a;stroke:#b2df8a;" x="202.967689" xlink:href="#mc954fc025d" y="355.614545"/>
     <use style="fill:#b2df8a;stroke:#b2df8a;" x="387.435934" xlink:href="#mc954fc025d" y="355.614545"/>
    </g>
   </g>
   <g id="text_1">
    <g clip-path="url(#pccac680b31)">
     <!-- Ania -->
     <defs>
      <path d="M 34.1875 63.1875 
L 20.796875 26.90625 
L 47.609375 26.90625 
z
M 28.609375 72.90625 
L 39.796875 72.90625 
L 67.578125 0 
L 57.328125 0 
L 50.6875 18.703125 
L 17.828125 18.703125 
L 11.1875 0 
L 0.78125 0 
z
" id="DejaVuSans-41"/>
      <path d="M 54.890625 33.015625 
L 54.890625 0 
L 45.90625 0 
L 45.90625 32.71875 
Q 45.90625 40.484375 42.875 44.328125 
Q 39.84375 48.1875 33.796875 48.1875 
Q 26.515625 48.1875 22.3125 43.546875 
Q 18.109375 38.921875 18.109375 30.90625 
L 18.109375 0 
L 9.078125 0 
L 9.078125 54.6875 
L 18.109375 54.6875 
L 18.109375 46.1875 
Q 21.34375 51.125 25.703125 53.5625 
Q 30.078125 56 35.796875 56 
Q 45.21875 56 50.046875 50.171875 
Q 54.890625 44.34375 54.890625 33.015625 
z
" id="DejaVuSans-6e"/>
      <path d="M 9.421875 54.6875 
L 18.40625 54.6875 
L 18.40625 0 
L 9.421875 0 
z
M 9.421875 75.984375 
L 18.40625 75.984375 
L 18.40625 64.59375 
L 9.421875 64.59375 
z
" id="DejaVuSans-69"/>
      <path d="M 34.28125 27.484375 
Q 23.390625 27.484375 19.1875 25 
Q 14.984375 22.515625 14.984375 16.5 
Q 14.984375 11.71875 18.140625 8.90625 
Q 21.296875 6.109375 26.703125 6.109375 
Q 34.1875 6.109375 38.703125 11.40625 
Q 43.21875 16.703125 43.21875 25.484375 
L 43.21875 27.484375 
z
M 52.203125 31.203125 
L 52.203125 0 
L 43.21875 0 
L 43.21875 8.296875 
Q 40.140625 3.328125 35.546875 0.953125 
Q 30.953125 -1.421875 24.3125 -1.421875 
Q 15.921875 -1.421875 10.953125 3.296875 
Q 6 8.015625 6 15.921875 
Q 6 25.140625 12.171875 29.828125 
Q 18.359375 34.515625 30.609375 34.515625 
L 43.21875 34.515625 
L 43.21875 35.40625 
Q 43.21875 41.609375 39.140625 45 
Q 35.0625 48.390625 27.6875 48.390625 
Q 23 48.390625 18.546875 47.265625 
Q 14.109375 46.140625 10.015625 43.890625 
L 10.015625 52.203125 
Q 14.9375 54.109375 19.578125 55.046875 
Q 24.21875 56 28.609375 56 
Q 40.484375 56 46.34375 49.84375 
Q 52.203125 43.703125 52.203125 31.203125 
z
" id="DejaVuSans-61"/>
     </defs>
     <g transform="translate(378.602184 357.822045)scale(0.08 -0.08)">
      <use xlink:href="#DejaVuSans-41"/>
      <use x="68.408203" xlink:href="#DejaVuSans-6e"/>
      <use x="131.787109" xlink:href="#DejaVuSans-69"/>
      <use x="159.570312" xlink:href="#DejaVuSans-61"/>
     </g>
    </g>
   </g>
   <g id="text_2">
    <g clip-path="url(#pccac680b31)">
     <!-- Piotr W -->
     <defs>
      <path d="M 19.671875 64.796875 
L 19.671875 37.40625 
L 32.078125 37.40625 
Q 38.96875 37.40625 42.71875 40.96875 
Q 46.484375 44.53125 46.484375 51.125 
Q 46.484375 57.671875 42.71875 61.234375 
Q 38.96875 64.796875 32.078125 64.796875 
z
M 9.8125 72.90625 
L 32.078125 72.90625 
Q 44.34375 72.90625 50.609375 67.359375 
Q 56.890625 61.8125 56.890625 51.125 
Q 56.890625 40.328125 50.609375 34.8125 
Q 44.34375 29.296875 32.078125 29.296875 
L 19.671875 29.296875 
L 19.671875 0 
L 9.8125 0 
z
" id="DejaVuSans-50"/>
      <path d="M 30.609375 48.390625 
Q 23.390625 48.390625 19.1875 42.75 
Q 14.984375 37.109375 14.984375 27.296875 
Q 14.984375 17.484375 19.15625 11.84375 
Q 23.34375 6.203125 30.609375 6.203125 
Q 37.796875 6.203125 41.984375 11.859375 
Q 46.1875 17.53125 46.1875 27.296875 
Q 46.1875 37.015625 41.984375 42.703125 
Q 37.796875 48.390625 30.609375 48.390625 
z
M 30.609375 56 
Q 42.328125 56 49.015625 48.375 
Q 55.71875 40.765625 55.71875 27.296875 
Q 55.71875 13.875 49.015625 6.21875 
Q 42.328125 -1.421875 30.609375 -1.421875 
Q 18.84375 -1.421875 12.171875 6.21875 
Q 5.515625 13.875 5.515625 27.296875 
Q 5.515625 40.765625 12.171875 48.375 
Q 18.84375 56 30.609375 56 
z
" id="DejaVuSans-6f"/>
      <path d="M 18.3125 70.21875 
L 18.3125 54.6875 
L 36.8125 54.6875 
L 36.8125 47.703125 
L 18.3125 47.703125 
L 18.3125 18.015625 
Q 18.3125 11.328125 20.140625 9.421875 
Q 21.96875 7.515625 27.59375 7.515625 
L 36.8125 7.515625 
L 36.8125 0 
L 27.59375 0 
Q 17.1875 0 13.234375 3.875 
Q 9.28125 7.765625 9.28125 18.015625 
L 9.28125 47.703125 
L 2.6875 47.703125 
L 2.6875 54.6875 
L 9.28125 54.6875 
L 9.28125 70.21875 
z
" id="DejaVuSans-74"/>
      <path d="M 41.109375 46.296875 
Q 39.59375 47.171875 37.8125 47.578125 
Q 36.03125 48 33.890625 48 
Q 26.265625 48 22.1875 43.046875 
Q 18.109375 38.09375 18.109375 28.8125 
L 18.109375 0 
L 9.078125 0 
L 9.078125 54.6875 
L 18.109375 54.6875 
L 18.109375 46.1875 
Q 20.953125 51.171875 25.484375 53.578125 
Q 30.03125 56 36.53125 56 
Q 37.453125 56 38.578125 55.875 
Q 39.703125 55.765625 41.0625 55.515625 
z
" id="DejaVuSans-72"/>
      <path id="DejaVuSans-20"/>
      <path d="M 3.328125 72.90625 
L 13.28125 72.90625 
L 28.609375 11.28125 
L 43.890625 72.90625 
L 54.984375 72.90625 
L 70.3125 11.28125 
L 85.59375 72.90625 
L 95.609375 72.90625 
L 77.296875 0 
L 64.890625 0 
L 49.515625 63.28125 
L 33.984375 0 
L 21.578125 0 
z
" id="DejaVuSans-57"/>
     </defs>
     <g transform="translate(280.782817 266.188082)scale(0.08 -0.08)">
      <use xlink:href="#DejaVuSans-50"/>
      <use x="60.271484" xlink:href="#DejaVuSans-69"/>
      <use x="88.054688" xlink:href="#DejaVuSans-6f"/>
      <use x="149.236328" xlink:href="#DejaVuSans-74"/>
      <use x="188.445312" xlink:href="#DejaVuSans-72"/>
      <use x="229.558594" xlink:href="#DejaVuSans-20"/>
      <use x="261.345703" xlink:href="#DejaVuSans-57"/>
     </g>
    </g>
   </g>
   <g id="text_3">
    <g clip-path="url(#pccac680b31)">
     <!-- Piotr M -->
     <defs>
      <path d="M 9.8125 72.90625 
L 24.515625 72.90625 
L 43.109375 23.296875 
L 61.8125 72.90625 
L 76.515625 72.90625 
L 76.515625 0 
L 66.890625 0 
L 66.890625 64.015625 
L 48.09375 14.015625 
L 38.1875 14.015625 
L 19.390625 64.015625 
L 19.390625 0 
L 9.8125 0 
z
" id="DejaVuSans-4d"/>
     </defs>
     <g transform="translate(96.832815 82.912955)scale(0.08 -0.08)">
      <use xlink:href="#DejaVuSans-50"/>
      <use x="60.271484" xlink:href="#DejaVuSans-69"/>
      <use x="88.054688" xlink:href="#DejaVuSans-6f"/>
      <use x="149.236328" xlink:href="#DejaVuSans-74"/>
      <use x="188.445312" xlink:href="#DejaVuSans-72"/>
      <use x="229.558594" xlink:href="#DejaVuSans-20"/>
      <use x="261.345703" xlink:href="#DejaVuSans-4d"/>
     </g>
    </g>
   </g>
   <g id="text_4">
    <g clip-path="url(#pccac680b31)">
     <!-- Grzegorz W -->
     <defs>
      <path d="M 59.515625 10.40625 
L 59.515625 29.984375 
L 43.40625 29.984375 
L 43.40625 38.09375 
L 69.28125 38.09375 
L 69.28125 6.78125 
Q 63.578125 2.734375 56.6875 0.65625 
Q 49.8125 -1.421875 42 -1.421875 
Q 24.90625 -1.421875 15.25 8.5625 
Q 5.609375 18.5625 5.609375 36.375 
Q 5.609375 54.25 15.25 64.234375 
Q 24.90625 74.21875 42 74.21875 
Q 49.125 74.21875 55.546875 72.453125 
Q 61.96875 70.703125 67.390625 67.28125 
L 67.390625 56.78125 
Q 61.921875 61.421875 55.765625 63.765625 
Q 49.609375 66.109375 42.828125 66.109375 
Q 29.4375 66.109375 22.71875 58.640625 
Q 16.015625 51.171875 16.015625 36.375 
Q 16.015625 21.625 22.71875 14.15625 
Q 29.4375 6.6875 42.828125 6.6875 
Q 48.046875 6.6875 52.140625 7.59375 
Q 56.25 8.5 59.515625 10.40625 
z
" id="DejaVuSans-47"/>
      <path d="M 5.515625 54.6875 
L 48.1875 54.6875 
L 48.1875 46.484375 
L 14.40625 7.171875 
L 48.1875 7.171875 
L 48.1875 0 
L 4.296875 0 
L 4.296875 8.203125 
L 38.09375 47.515625 
L 5.515625 47.515625 
z
" id="DejaVuSans-7a"/>
      <path d="M 56.203125 29.59375 
L 56.203125 25.203125 
L 14.890625 25.203125 
Q 15.484375 15.921875 20.484375 11.0625 
Q 25.484375 6.203125 34.421875 6.203125 
Q 39.59375 6.203125 44.453125 7.46875 
Q 49.3125 8.734375 54.109375 11.28125 
L 54.109375 2.78125 
Q 49.265625 0.734375 44.1875 -0.34375 
Q 39.109375 -1.421875 33.890625 -1.421875 
Q 20.796875 -1.421875 13.15625 6.1875 
Q 5.515625 13.8125 5.515625 26.8125 
Q 5.515625 40.234375 12.765625 48.109375 
Q 20.015625 56 32.328125 56 
Q 43.359375 56 49.78125 48.890625 
Q 56.203125 41.796875 56.203125 29.59375 
z
M 47.21875 32.234375 
Q 47.125 39.59375 43.09375 43.984375 
Q 39.0625 48.390625 32.421875 48.390625 
Q 24.90625 48.390625 20.390625 44.140625 
Q 15.875 39.890625 15.1875 32.171875 
z
" id="DejaVuSans-65"/>
      <path d="M 45.40625 27.984375 
Q 45.40625 37.75 41.375 43.109375 
Q 37.359375 48.484375 30.078125 48.484375 
Q 22.859375 48.484375 18.828125 43.109375 
Q 14.796875 37.75 14.796875 27.984375 
Q 14.796875 18.265625 18.828125 12.890625 
Q 22.859375 7.515625 30.078125 7.515625 
Q 37.359375 7.515625 41.375 12.890625 
Q 45.40625 18.265625 45.40625 27.984375 
z
M 54.390625 6.78125 
Q 54.390625 -7.171875 48.1875 -13.984375 
Q 42 -20.796875 29.203125 -20.796875 
Q 24.46875 -20.796875 20.265625 -20.09375 
Q 16.0625 -19.390625 12.109375 -17.921875 
L 12.109375 -9.1875 
Q 16.0625 -11.328125 19.921875 -12.34375 
Q 23.78125 -13.375 27.78125 -13.375 
Q 36.625 -13.375 41.015625 -8.765625 
Q 45.40625 -4.15625 45.40625 5.171875 
L 45.40625 9.625 
Q 42.625 4.78125 38.28125 2.390625 
Q 33.9375 0 27.875 0 
Q 17.828125 0 11.671875 7.65625 
Q 5.515625 15.328125 5.515625 27.984375 
Q 5.515625 40.671875 11.671875 48.328125 
Q 17.828125 56 27.875 56 
Q 33.9375 56 38.28125 53.609375 
Q 42.625 51.21875 45.40625 46.390625 
L 45.40625 54.6875 
L 54.390625 54.6875 
z
" id="DejaVuSans-67"/>
     </defs>
     <g transform="translate(271.929692 136.60248)scale(0.08 -0.08)">
      <use xlink:href="#DejaVuSans-47"/>
      <use x="77.490234" xlink:href="#DejaVuSans-72"/>
      <use x="118.603516" xlink:href="#DejaVuSans-7a"/>
      <use x="171.09375" xlink:href="#DejaVuSans-65"/>
      <use x="232.617188" xlink:href="#DejaVuSans-67"/>
      <use x="296.09375" xlink:href="#DejaVuSans-6f"/>
      <use x="357.275391" xlink:href="#DejaVuSans-72"/>
      <use x="398.388672" xlink:href="#DejaVuSans-7a"/>
      <use x="450.878906" xlink:href="#DejaVuSans-20"/>
      <use x="482.666016" xlink:href="#DejaVuSans-57"/>
     </g>
    </g>
   </g>
   <g id="text_5">
    <g clip-path="url(#pccac680b31)">
     <!-- Zbyszek -->
     <defs>
      <path d="M 5.609375 72.90625 
L 62.890625 72.90625 
L 62.890625 65.375 
L 16.796875 8.296875 
L 64.015625 8.296875 
L 64.015625 0 
L 4.5 0 
L 4.5 7.515625 
L 50.59375 64.59375 
L 5.609375 64.59375 
z
" id="DejaVuSans-5a"/>
      <path d="M 48.6875 27.296875 
Q 48.6875 37.203125 44.609375 42.84375 
Q 40.53125 48.484375 33.40625 48.484375 
Q 26.265625 48.484375 22.1875 42.84375 
Q 18.109375 37.203125 18.109375 27.296875 
Q 18.109375 17.390625 22.1875 11.75 
Q 26.265625 6.109375 33.40625 6.109375 
Q 40.53125 6.109375 44.609375 11.75 
Q 48.6875 17.390625 48.6875 27.296875 
z
M 18.109375 46.390625 
Q 20.953125 51.265625 25.265625 53.625 
Q 29.59375 56 35.59375 56 
Q 45.5625 56 51.78125 48.09375 
Q 58.015625 40.1875 58.015625 27.296875 
Q 58.015625 14.40625 51.78125 6.484375 
Q 45.5625 -1.421875 35.59375 -1.421875 
Q 29.59375 -1.421875 25.265625 0.953125 
Q 20.953125 3.328125 18.109375 8.203125 
L 18.109375 0 
L 9.078125 0 
L 9.078125 75.984375 
L 18.109375 75.984375 
z
" id="DejaVuSans-62"/>
      <path d="M 32.171875 -5.078125 
Q 28.375 -14.84375 24.75 -17.8125 
Q 21.140625 -20.796875 15.09375 -20.796875 
L 7.90625 -20.796875 
L 7.90625 -13.28125 
L 13.1875 -13.28125 
Q 16.890625 -13.28125 18.9375 -11.515625 
Q 21 -9.765625 23.484375 -3.21875 
L 25.09375 0.875 
L 2.984375 54.6875 
L 12.5 54.6875 
L 29.59375 11.921875 
L 46.6875 54.6875 
L 56.203125 54.6875 
z
" id="DejaVuSans-79"/>
      <path d="M 44.28125 53.078125 
L 44.28125 44.578125 
Q 40.484375 46.53125 36.375 47.5 
Q 32.28125 48.484375 27.875 48.484375 
Q 21.1875 48.484375 17.84375 46.4375 
Q 14.5 44.390625 14.5 40.28125 
Q 14.5 37.15625 16.890625 35.375 
Q 19.28125 33.59375 26.515625 31.984375 
L 29.59375 31.296875 
Q 39.15625 29.25 43.1875 25.515625 
Q 47.21875 21.78125 47.21875 15.09375 
Q 47.21875 7.46875 41.1875 3.015625 
Q 35.15625 -1.421875 24.609375 -1.421875 
Q 20.21875 -1.421875 15.453125 -0.5625 
Q 10.6875 0.296875 5.421875 2 
L 5.421875 11.28125 
Q 10.40625 8.6875 15.234375 7.390625 
Q 20.0625 6.109375 24.8125 6.109375 
Q 31.15625 6.109375 34.5625 8.28125 
Q 37.984375 10.453125 37.984375 14.40625 
Q 37.984375 18.0625 35.515625 20.015625 
Q 33.0625 21.96875 24.703125 23.78125 
L 21.578125 24.515625 
Q 13.234375 26.265625 9.515625 29.90625 
Q 5.8125 33.546875 5.8125 39.890625 
Q 5.8125 47.609375 11.28125 51.796875 
Q 16.75 56 26.8125 56 
Q 31.78125 56 36.171875 55.265625 
Q 40.578125 54.546875 44.28125 53.078125 
z
" id="DejaVuSans-73"/>
      <path d="M 9.078125 75.984375 
L 18.109375 75.984375 
L 18.109375 31.109375 
L 44.921875 54.6875 
L 56.390625 54.6875 
L 27.390625 29.109375 
L 57.625 0 
L 45.90625 0 
L 18.109375 26.703125 
L 18.109375 0 
L 9.078125 0 
z
" id="DejaVuSans-6b"/>
     </defs>
     <g transform="translate(186.360189 357.822045)scale(0.08 -0.08)">
      <use xlink:href="#DejaVuSans-5a"/>
      <use x="68.505859" xlink:href="#DejaVuSans-62"/>
      <use x="131.982422" xlink:href="#DejaVuSans-79"/>
      <use x="191.162109" xlink:href="#DejaVuSans-73"/>
      <use x="243.261719" xlink:href="#DejaVuSans-7a"/>
      <use x="295.751953" xlink:href="#DejaVuSans-65"/>
      <use x="357.275391" xlink:href="#DejaVuSans-6b"/>
     </g>
    </g>
   </g>
   <g id="text_6">
    <g clip-path="url(#pccac680b31)">
     <!-- Renatka -->
     <defs>
      <path d="M 44.390625 34.1875 
Q 47.5625 33.109375 50.5625 29.59375 
Q 53.5625 26.078125 56.59375 19.921875 
L 66.609375 0 
L 56 0 
L 46.6875 18.703125 
Q 43.0625 26.03125 39.671875 28.421875 
Q 36.28125 30.8125 30.421875 30.8125 
L 19.671875 30.8125 
L 19.671875 0 
L 9.8125 0 
L 9.8125 72.90625 
L 32.078125 72.90625 
Q 44.578125 72.90625 50.734375 67.671875 
Q 56.890625 62.453125 56.890625 51.90625 
Q 56.890625 45.015625 53.6875 40.46875 
Q 50.484375 35.9375 44.390625 34.1875 
z
M 19.671875 64.796875 
L 19.671875 38.921875 
L 32.078125 38.921875 
Q 39.203125 38.921875 42.84375 42.21875 
Q 46.484375 45.515625 46.484375 51.90625 
Q 46.484375 58.296875 42.84375 61.546875 
Q 39.203125 64.796875 32.078125 64.796875 
z
" id="DejaVuSans-52"/>
     </defs>
     <g transform="translate(463.103435 82.912955)scale(0.08 -0.08)">
      <use xlink:href="#DejaVuSans-52"/>
      <use x="69.419922" xlink:href="#DejaVuSans-65"/>
      <use x="130.943359" xlink:href="#DejaVuSans-6e"/>
      <use x="194.322266" xlink:href="#DejaVuSans-61"/>
      <use x="255.601562" xlink:href="#DejaVuSans-74"/>
      <use x="294.810547" xlink:href="#DejaVuSans-6b"/>
      <use x="352.705078" xlink:href="#DejaVuSans-61"/>
     </g>
    </g>
   </g>
  </g>
 </g>
 <defs>
  <clipPath id="pccac680b31">
   <rect height="332.64" width="446.4" x="72" y="51.84"/>
  </clipPath>
 </defs>
</svg>
