<?xml version="1.0" encoding="utf-8" standalone="no"?>
<!DOCTYPE svg PUBLIC "-//W3C//DTD SVG 1.1//EN"
  "http://www.w3.org/Graphics/SVG/1.1/DTD/svg11.dtd">
<!-- Created with matplotlib (http://matplotlib.org/) -->
<svg height="432pt" version="1.1" viewBox="0 0 576 432" width="576pt" xmlns="http://www.w3.org/2000/svg" xmlns:xlink="http://www.w3.org/1999/xlink">
 <defs>
  <style type="text/css">
*{stroke-linecap:butt;stroke-linejoin:round;}
  </style>
 </defs>
 <g id="figure_1">
  <g id="patch_1">
   <path d="M 0 432 
L 576 432 
L 576 0 
L 0 0 
z
" style="fill:#ffffff;"/>
  </g>
  <g id="axes_1">
   <g id="LineCollection_1">
    <path clip-path="url(#pd758de0b5f)" d="M 479.66281 156.986412 
L 217.38249 187.573206 
" style="fill:none;stroke:#808080;stroke-opacity:0.7;"/>
    <path clip-path="url(#pd758de0b5f)" d="M 347.990299 80.705455 
L 217.38249 187.573206 
" style="fill:none;stroke:#808080;stroke-opacity:0.7;"/>
    <path clip-path="url(#pd758de0b5f)" d="M 183.806673 107.933967 
L 217.38249 187.573206 
" style="fill:none;stroke:#808080;stroke-opacity:0.7;"/>
    <path clip-path="url(#pd758de0b5f)" d="M 110.73719 218.16 
L 217.38249 187.573206 
" style="fill:none;stroke:#808080;stroke-opacity:0.7;"/>
    <path clip-path="url(#pd758de0b5f)" d="M 183.806673 328.389949 
L 217.38249 187.573206 
" style="fill:none;stroke:#808080;stroke-opacity:0.7;"/>
    <path clip-path="url(#pd758de0b5f)" d="M 304.809263 218.16 
L 392.236036 248.746794 
" style="fill:none;stroke:#808080;stroke-opacity:0.7;"/>
    <path clip-path="url(#pd758de0b5f)" d="M 304.809263 218.16 
L 217.38249 187.573206 
" style="fill:none;stroke:#808080;stroke-opacity:0.7;"/>
    <path clip-path="url(#pd758de0b5f)" d="M 392.236036 248.746794 
L 217.38249 187.573206 
" style="fill:none;stroke:#808080;stroke-opacity:0.7;"/>
    <path clip-path="url(#pd758de0b5f)" d="M 347.990299 355.614545 
L 217.38249 187.573206 
" style="fill:none;stroke:#808080;stroke-opacity:0.7;"/>
   </g>
   <g id="LineCollection_2">
    <path clip-path="url(#pd758de0b5f)" d="M 304.809263 218.16 
L 217.38249 187.573206 
" style="fill:none;stroke:#000000;stroke-opacity:0.6;stroke-width:4;"/>
    <path clip-path="url(#pd758de0b5f)" d="M 392.236036 248.746794 
L 217.38249 187.573206 
" style="fill:none;stroke:#000000;stroke-opacity:0.6;stroke-width:4;"/>
   </g>
   <g id="LineCollection_3">
    <path clip-path="url(#pd758de0b5f)" d="M 479.66281 156.986412 
L 217.38249 187.573206 
" style="fill:none;stroke:#000000;stroke-opacity:0.4;stroke-width:2;"/>
    <path clip-path="url(#pd758de0b5f)" d="M 347.990299 80.705455 
L 217.38249 187.573206 
" style="fill:none;stroke:#000000;stroke-opacity:0.4;stroke-width:2;"/>
    <path clip-path="url(#pd758de0b5f)" d="M 183.806673 328.389949 
L 217.38249 187.573206 
" style="fill:none;stroke:#000000;stroke-opacity:0.4;stroke-width:2;"/>
    <path clip-path="url(#pd758de0b5f)" d="M 304.809263 218.16 
L 392.236036 248.746794 
" style="fill:none;stroke:#000000;stroke-opacity:0.4;stroke-width:2;"/>
    <path clip-path="url(#pd758de0b5f)" d="M 347.990299 355.614545 
L 217.38249 187.573206 
" style="fill:none;stroke:#000000;stroke-opacity:0.4;stroke-width:2;"/>
   </g>
   <g id="LineCollection_4">
    <path clip-path="url(#pd758de0b5f)" d="M 183.806673 107.933967 
L 217.38249 187.573206 
" style="fill:none;stroke:#000000;stroke-opacity:0.3;"/>
    <path clip-path="url(#pd758de0b5f)" d="M 110.73719 218.16 
L 217.38249 187.573206 
" style="fill:none;stroke:#000000;stroke-opacity:0.3;"/>
   </g>
   <g id="LineCollection_5">
    <path clip-path="url(#pd758de0b5f)" d="M 217.38249 187.573206 
L 183.806673 107.933967 
" style="fill:none;stroke:#cd5c5c;stroke-dasharray:18.5,8;stroke-dashoffset:0;stroke-opacity:0.6;stroke-width:5;"/>
    <path clip-path="url(#pd758de0b5f)" d="M 217.38249 187.573206 
L 110.73719 218.16 
" style="fill:none;stroke:#cd5c5c;stroke-dasharray:18.5,8;stroke-dashoffset:0;stroke-opacity:0.6;stroke-width:5;"/>
   </g>
   <g id="PathCollection_1">
    <defs>
     <path d="M 0 26.457513 
C 7.016614 26.457513 13.746791 23.669783 18.708287 18.708287 
C 23.669783 13.746791 26.457513 7.016614 26.457513 0 
C 26.457513 -7.016614 23.669783 -13.746791 18.708287 -18.708287 
C 13.746791 -23.669783 7.016614 -26.457513 0 -26.457513 
C -7.016614 -26.457513 -13.746791 -23.669783 -18.708287 -18.708287 
C -23.669783 -13.746791 -26.457513 -7.016614 -26.457513 0 
C -26.457513 7.016614 -23.669783 13.746791 -18.708287 18.708287 
C -13.746791 23.669783 -7.016614 26.457513 0 26.457513 
z
" id="ma507a2191c" style="stroke:#cab2d6;"/>
    </defs>
    <g clip-path="url(#pd758de0b5f)">
     <use style="fill:#cab2d6;stroke:#cab2d6;" x="217.38249" xlink:href="#ma507a2191c" y="187.573206"/>
    </g>
   </g>
   <g id="PathCollection_2">
    <defs>
     <path d="M 0 23.979158 
C 6.359347 23.979158 12.459088 21.452562 16.955825 16.955825 
C 21.452562 12.459088 23.979158 6.359347 23.979158 0 
C 23.979158 -6.359347 21.452562 -12.459088 16.955825 -16.955825 
C 12.459088 -21.452562 6.359347 -23.979158 0 -23.979158 
C -6.359347 -23.979158 -12.459088 -21.452562 -16.955825 -16.955825 
C -21.452562 -12.459088 -23.979158 -6.359347 -23.979158 0 
C -23.979158 6.359347 -21.452562 12.459088 -16.955825 16.955825 
C -12.459088 21.452562 -6.359347 23.979158 0 23.979158 
z
" id="mb37807cc26" style="stroke:#33a02c;stroke-opacity:0.6;"/>
    </defs>
    <g clip-path="url(#pd758de0b5f)">
     <use style="fill:#33a02c;fill-opacity:0.6;stroke:#33a02c;stroke-opacity:0.6;" x="347.990299" xlink:href="#mb37807cc26" y="80.705455"/>
     <use style="fill:#33a02c;fill-opacity:0.6;stroke:#33a02c;stroke-opacity:0.6;" x="392.236036" xlink:href="#mb37807cc26" y="248.746794"/>
     <use style="fill:#33a02c;fill-opacity:0.6;stroke:#33a02c;stroke-opacity:0.6;" x="304.809263" xlink:href="#mb37807cc26" y="218.16"/>
    </g>
   </g>
   <g id="PathCollection_3">
    <defs>
     <path d="M 0 23.979158 
C 6.359347 23.979158 12.459088 21.452562 16.955825 16.955825 
C 21.452562 12.459088 23.979158 6.359347 23.979158 0 
C 23.979158 -6.359347 21.452562 -12.459088 16.955825 -16.955825 
C 12.459088 -21.452562 6.359347 -23.979158 0 -23.979158 
C -6.359347 -23.979158 -12.459088 -21.452562 -16.955825 -16.955825 
C -21.452562 -12.459088 -23.979158 -6.359347 -23.979158 0 
C -23.979158 6.359347 -21.452562 12.459088 -16.955825 16.955825 
C -12.459088 21.452562 -6.359347 23.979158 0 23.979158 
z
" id="m47144a5928" style="stroke:#cd5c5c;"/>
    </defs>
    <g clip-path="url(#pd758de0b5f)">
     <use style="fill:#cd5c5c;stroke:#cd5c5c;" x="110.73719" xlink:href="#m47144a5928" y="218.16"/>
     <use style="fill:#cd5c5c;stroke:#cd5c5c;" x="183.806673" xlink:href="#m47144a5928" y="107.933967"/>
    </g>
   </g>
   <g id="PathCollection_4">
    <defs>
     <path d="M 0 20.615528 
C 5.467302 20.615528 10.711413 18.443346 14.57738 14.57738 
C 18.443346 10.711413 20.615528 5.467302 20.615528 0 
C 20.615528 -5.467302 18.443346 -10.711413 14.57738 -14.57738 
C 10.711413 -18.443346 5.467302 -20.615528 0 -20.615528 
C -5.467302 -20.615528 -10.711413 -18.443346 -14.57738 -14.57738 
C -18.443346 -10.711413 -20.615528 -5.467302 -20.615528 0 
C -20.615528 5.467302 -18.443346 10.711413 -14.57738 14.57738 
C -10.711413 18.443346 -5.467302 20.615528 0 20.615528 
z
" id="m02c9c4da31" style="stroke:#a6cee3;"/>
    </defs>
    <g clip-path="url(#pd758de0b5f)">
     <use style="fill:#a6cee3;stroke:#a6cee3;" x="347.990299" xlink:href="#m02c9c4da31" y="80.705455"/>
    </g>
   </g>
   <g id="PathCollection_5">
    <defs>
     <path d="M 0 21.794495 
C 5.779968 21.794495 11.323981 19.498089 15.411035 15.411035 
C 19.498089 11.323981 21.794495 5.779968 21.794495 0 
C 21.794495 -5.779968 19.498089 -11.323981 15.411035 -15.411035 
C 11.323981 -19.498089 5.779968 -21.794495 0 -21.794495 
C -5.779968 -21.794495 -11.323981 -19.498089 -15.411035 -15.411035 
C -19.498089 -11.323981 -21.794495 -5.779968 -21.794495 0 
C -21.794495 5.779968 -19.498089 11.323981 -15.411035 15.411035 
C -11.323981 19.498089 -5.779968 21.794495 0 21.794495 
z
" id="mc51e80058a" style="stroke:#ff7f00;"/>
    </defs>
    <g clip-path="url(#pd758de0b5f)">
     <use style="fill:#ff7f00;stroke:#ff7f00;" x="392.236036" xlink:href="#mc51e80058a" y="248.746794"/>
    </g>
   </g>
   <g id="PathCollection_6">
    <defs>
     <path d="M 0 19.364917 
C 5.135636 19.364917 10.061621 17.324507 13.693064 13.693064 
C 17.324507 10.061621 19.364917 5.135636 19.364917 0 
C 19.364917 -5.135636 17.324507 -10.061621 13.693064 -13.693064 
C 10.061621 -17.324507 5.135636 -19.364917 0 -19.364917 
C -5.135636 -19.364917 -10.061621 -17.324507 -13.693064 -13.693064 
C -17.324507 -10.061621 -19.364917 -5.135636 -19.364917 0 
C -19.364917 5.135636 -17.324507 10.061621 -13.693064 13.693064 
C -10.061621 17.324507 -5.135636 19.364917 0 19.364917 
z
" id="m8d7c2addb2" style="stroke:#b2df8a;"/>
    </defs>
    <g clip-path="url(#pd758de0b5f)">
     <use style="fill:#b2df8a;stroke:#b2df8a;" x="347.990299" xlink:href="#m8d7c2addb2" y="355.614545"/>
     <use style="fill:#b2df8a;stroke:#b2df8a;" x="479.66281" xlink:href="#m8d7c2addb2" y="156.986412"/>
     <use style="fill:#b2df8a;stroke:#b2df8a;" x="304.809263" xlink:href="#m8d7c2addb2" y="218.16"/>
     <use style="fill:#b2df8a;stroke:#b2df8a;" x="183.806673" xlink:href="#m8d7c2addb2" y="328.389949"/>
    </g>
   </g>
   <g id="text_1">
    <g clip-path="url(#pd758de0b5f)">
     <!-- AC -->
     <defs>
      <path d="M 34.1875 63.1875 
L 20.796875 26.90625 
L 47.609375 26.90625 
z
M 28.609375 72.90625 
L 39.796875 72.90625 
L 67.578125 0 
L 57.328125 0 
L 50.6875 18.703125 
L 17.828125 18.703125 
L 11.1875 0 
L 0.78125 0 
z
" id="DejaVuSans-41"/>
      <path d="M 64.40625 67.28125 
L 64.40625 56.890625 
Q 59.421875 61.53125 53.78125 63.8125 
Q 48.140625 66.109375 41.796875 66.109375 
Q 29.296875 66.109375 22.65625 58.46875 
Q 16.015625 50.828125 16.015625 36.375 
Q 16.015625 21.96875 22.65625 14.328125 
Q 29.296875 6.6875 41.796875 6.6875 
Q 48.140625 6.6875 53.78125 8.984375 
Q 59.421875 11.28125 64.40625 15.921875 
L 64.40625 5.609375 
Q 59.234375 2.09375 53.4375 0.328125 
Q 47.65625 -1.421875 41.21875 -1.421875 
Q 24.65625 -1.421875 15.125 8.703125 
Q 5.609375 18.84375 5.609375 36.375 
Q 5.609375 53.953125 15.125 64.078125 
Q 24.65625 74.21875 41.21875 74.21875 
Q 47.75 74.21875 53.53125 72.484375 
Q 59.328125 70.75 64.40625 67.28125 
z
" id="DejaVuSans-43"/>
     </defs>
     <g transform="translate(474.13406 159.193912)scale(0.08 -0.08)">
      <use xlink:href="#DejaVuSans-41"/>
      <use x="68.392578" xlink:href="#DejaVuSans-43"/>
     </g>
    </g>
   </g>
   <g id="text_2">
    <g clip-path="url(#pd758de0b5f)">
     <!-- B -->
     <defs>
      <path d="M 19.671875 34.8125 
L 19.671875 8.109375 
L 35.5 8.109375 
Q 43.453125 8.109375 47.28125 11.40625 
Q 51.125 14.703125 51.125 21.484375 
Q 51.125 28.328125 47.28125 31.5625 
Q 43.453125 34.8125 35.5 34.8125 
z
M 19.671875 64.796875 
L 19.671875 42.828125 
L 34.28125 42.828125 
Q 41.5 42.828125 45.03125 45.53125 
Q 48.578125 48.25 48.578125 53.8125 
Q 48.578125 59.328125 45.03125 62.0625 
Q 41.5 64.796875 34.28125 64.796875 
z
M 9.8125 72.90625 
L 35.015625 72.90625 
Q 46.296875 72.90625 52.390625 68.21875 
Q 58.5 63.53125 58.5 54.890625 
Q 58.5 48.1875 55.375 44.234375 
Q 52.25 40.28125 46.1875 39.3125 
Q 53.46875 37.75 57.5 32.78125 
Q 61.53125 27.828125 61.53125 20.40625 
Q 61.53125 10.640625 54.890625 5.3125 
Q 48.25 0 35.984375 0 
L 9.8125 0 
z
" id="DejaVuSans-42"/>
     </defs>
     <g transform="translate(345.245924 82.912955)scale(0.08 -0.08)">
      <use xlink:href="#DejaVuSans-42"/>
     </g>
    </g>
   </g>
   <g id="text_3">
    <g clip-path="url(#pd758de0b5f)">
     <!-- G -->
     <defs>
      <path d="M 59.515625 10.40625 
L 59.515625 29.984375 
L 43.40625 29.984375 
L 43.40625 38.09375 
L 69.28125 38.09375 
L 69.28125 6.78125 
Q 63.578125 2.734375 56.6875 0.65625 
Q 49.8125 -1.421875 42 -1.421875 
Q 24.90625 -1.421875 15.25 8.5625 
Q 5.609375 18.5625 5.609375 36.375 
Q 5.609375 54.25 15.25 64.234375 
Q 24.90625 74.21875 42 74.21875 
Q 49.125 74.21875 55.546875 72.453125 
Q 61.96875 70.703125 67.390625 67.28125 
L 67.390625 56.78125 
Q 61.921875 61.421875 55.765625 63.765625 
Q 49.609375 66.109375 42.828125 66.109375 
Q 29.4375 66.109375 22.71875 58.640625 
Q 16.015625 51.171875 16.015625 36.375 
Q 16.015625 21.625 22.71875 14.15625 
Q 29.4375 6.6875 42.828125 6.6875 
Q 48.046875 6.6875 52.140625 7.59375 
Q 56.25 8.5 59.515625 10.40625 
z
" id="DejaVuSans-47"/>
     </defs>
     <g transform="translate(180.707298 110.141467)scale(0.08 -0.08)">
      <use xlink:href="#DejaVuSans-47"/>
     </g>
    </g>
   </g>
   <g id="text_4">
    <g clip-path="url(#pd758de0b5f)">
     <!-- GKS -->
     <defs>
      <path d="M 9.8125 72.90625 
L 19.671875 72.90625 
L 19.671875 42.09375 
L 52.390625 72.90625 
L 65.09375 72.90625 
L 28.90625 38.921875 
L 67.671875 0 
L 54.6875 0 
L 19.671875 35.109375 
L 19.671875 0 
L 9.8125 0 
z
" id="DejaVuSans-4b"/>
      <path d="M 53.515625 70.515625 
L 53.515625 60.890625 
Q 47.90625 63.578125 42.921875 64.890625 
Q 37.9375 66.21875 33.296875 66.21875 
Q 25.25 66.21875 20.875 63.09375 
Q 16.5 59.96875 16.5 54.203125 
Q 16.5 49.359375 19.40625 46.890625 
Q 22.3125 44.4375 30.421875 42.921875 
L 36.375 41.703125 
Q 47.40625 39.59375 52.65625 34.296875 
Q 57.90625 29 57.90625 20.125 
Q 57.90625 9.515625 50.796875 4.046875 
Q 43.703125 -1.421875 29.984375 -1.421875 
Q 24.8125 -1.421875 18.96875 -0.25 
Q 13.140625 0.921875 6.890625 3.21875 
L 6.890625 13.375 
Q 12.890625 10.015625 18.65625 8.296875 
Q 24.421875 6.59375 29.984375 6.59375 
Q 38.421875 6.59375 43.015625 9.90625 
Q 47.609375 13.234375 47.609375 19.390625 
Q 47.609375 24.75 44.3125 27.78125 
Q 41.015625 30.8125 33.5 32.328125 
L 27.484375 33.5 
Q 16.453125 35.6875 11.515625 40.375 
Q 6.59375 45.0625 6.59375 53.421875 
Q 6.59375 63.09375 13.40625 68.65625 
Q 20.21875 74.21875 32.171875 74.21875 
Q 37.3125 74.21875 42.625 73.28125 
Q 47.953125 72.359375 53.515625 70.515625 
z
" id="DejaVuSans-53"/>
     </defs>
     <g transform="translate(102.475315 220.3675)scale(0.08 -0.08)">
      <use xlink:href="#DejaVuSans-47"/>
      <use x="77.490234" xlink:href="#DejaVuSans-4b"/>
      <use x="143.066406" xlink:href="#DejaVuSans-53"/>
     </g>
    </g>
   </g>
   <g id="text_5">
    <g clip-path="url(#pd758de0b5f)">
     <!-- MW -->
     <defs>
      <path d="M 9.8125 72.90625 
L 24.515625 72.90625 
L 43.109375 23.296875 
L 61.8125 72.90625 
L 76.515625 72.90625 
L 76.515625 0 
L 66.890625 0 
L 66.890625 64.015625 
L 48.09375 14.015625 
L 38.1875 14.015625 
L 19.390625 64.015625 
L 19.390625 0 
L 9.8125 0 
z
" id="DejaVuSans-4d"/>
      <path d="M 3.328125 72.90625 
L 13.28125 72.90625 
L 28.609375 11.28125 
L 43.890625 72.90625 
L 54.984375 72.90625 
L 70.3125 11.28125 
L 85.59375 72.90625 
L 95.609375 72.90625 
L 77.296875 0 
L 64.890625 0 
L 49.515625 63.28125 
L 33.984375 0 
L 21.578125 0 
z
" id="DejaVuSans-57"/>
     </defs>
     <g transform="translate(176.400423 330.597449)scale(0.08 -0.08)">
      <use xlink:href="#DejaVuSans-4d"/>
      <use x="86.279297" xlink:href="#DejaVuSans-57"/>
     </g>
    </g>
   </g>
   <g id="text_6">
    <g clip-path="url(#pd758de0b5f)">
     <!-- KP -->
     <defs>
      <path d="M 19.671875 64.796875 
L 19.671875 37.40625 
L 32.078125 37.40625 
Q 38.96875 37.40625 42.71875 40.96875 
Q 46.484375 44.53125 46.484375 51.125 
Q 46.484375 57.671875 42.71875 61.234375 
Q 38.96875 64.796875 32.078125 64.796875 
z
M 9.8125 72.90625 
L 32.078125 72.90625 
Q 44.34375 72.90625 50.609375 67.359375 
Q 56.890625 61.8125 56.890625 51.125 
Q 56.890625 40.328125 50.609375 34.8125 
Q 44.34375 29.296875 32.078125 29.296875 
L 19.671875 29.296875 
L 19.671875 0 
L 9.8125 0 
z
" id="DejaVuSans-50"/>
     </defs>
     <g transform="translate(299.774263 220.3675)scale(0.08 -0.08)">
      <use xlink:href="#DejaVuSans-4b"/>
      <use x="65.576172" xlink:href="#DejaVuSans-50"/>
     </g>
    </g>
   </g>
   <g id="text_7">
    <g clip-path="url(#pd758de0b5f)">
     <!-- MP -->
     <g transform="translate(386.372911 250.954294)scale(0.08 -0.08)">
      <use xlink:href="#DejaVuSans-4d"/>
      <use x="86.279297" xlink:href="#DejaVuSans-50"/>
     </g>
    </g>
   </g>
   <g id="text_8">
    <g clip-path="url(#pd758de0b5f)">
     <!-- JE -->
     <defs>
      <path d="M 9.8125 72.90625 
L 19.671875 72.90625 
L 19.671875 5.078125 
Q 19.671875 -8.109375 14.671875 -14.0625 
Q 9.671875 -20.015625 -1.421875 -20.015625 
L -5.171875 -20.015625 
L -5.171875 -11.71875 
L -2.09375 -11.71875 
Q 4.4375 -11.71875 7.125 -8.046875 
Q 9.8125 -4.390625 9.8125 5.078125 
z
" id="DejaVuSans-4a"/>
      <path d="M 9.8125 72.90625 
L 55.90625 72.90625 
L 55.90625 64.59375 
L 19.671875 64.59375 
L 19.671875 43.015625 
L 54.390625 43.015625 
L 54.390625 34.71875 
L 19.671875 34.71875 
L 19.671875 8.296875 
L 56.78125 8.296875 
L 56.78125 0 
L 9.8125 0 
z
" id="DejaVuSans-45"/>
     </defs>
     <g transform="translate(344.282799 357.822045)scale(0.08 -0.08)">
      <use xlink:href="#DejaVuSans-4a"/>
      <use x="29.492188" xlink:href="#DejaVuSans-45"/>
     </g>
    </g>
   </g>
   <g id="text_9">
    <g clip-path="url(#pd758de0b5f)">
     <!-- Piotr P -->
     <defs>
      <path d="M 9.421875 54.6875 
L 18.40625 54.6875 
L 18.40625 0 
L 9.421875 0 
z
M 9.421875 75.984375 
L 18.40625 75.984375 
L 18.40625 64.59375 
L 9.421875 64.59375 
z
" id="DejaVuSans-69"/>
      <path d="M 30.609375 48.390625 
Q 23.390625 48.390625 19.1875 42.75 
Q 14.984375 37.109375 14.984375 27.296875 
Q 14.984375 17.484375 19.15625 11.84375 
Q 23.34375 6.203125 30.609375 6.203125 
Q 37.796875 6.203125 41.984375 11.859375 
Q 46.1875 17.53125 46.1875 27.296875 
Q 46.1875 37.015625 41.984375 42.703125 
Q 37.796875 48.390625 30.609375 48.390625 
z
M 30.609375 56 
Q 42.328125 56 49.015625 48.375 
Q 55.71875 40.765625 55.71875 27.296875 
Q 55.71875 13.875 49.015625 6.21875 
Q 42.328125 -1.421875 30.609375 -1.421875 
Q 18.84375 -1.421875 12.171875 6.21875 
Q 5.515625 13.875 5.515625 27.296875 
Q 5.515625 40.765625 12.171875 48.375 
Q 18.84375 56 30.609375 56 
z
" id="DejaVuSans-6f"/>
      <path d="M 18.3125 70.21875 
L 18.3125 54.6875 
L 36.8125 54.6875 
L 36.8125 47.703125 
L 18.3125 47.703125 
L 18.3125 18.015625 
Q 18.3125 11.328125 20.140625 9.421875 
Q 21.96875 7.515625 27.59375 7.515625 
L 36.8125 7.515625 
L 36.8125 0 
L 27.59375 0 
Q 17.1875 0 13.234375 3.875 
Q 9.28125 7.765625 9.28125 18.015625 
L 9.28125 47.703125 
L 2.6875 47.703125 
L 2.6875 54.6875 
L 9.28125 54.6875 
L 9.28125 70.21875 
z
" id="DejaVuSans-74"/>
      <path d="M 41.109375 46.296875 
Q 39.59375 47.171875 37.8125 47.578125 
Q 36.03125 48 33.890625 48 
Q 26.265625 48 22.1875 43.046875 
Q 18.109375 38.09375 18.109375 28.8125 
L 18.109375 0 
L 9.078125 0 
L 9.078125 54.6875 
L 18.109375 54.6875 
L 18.109375 46.1875 
Q 20.953125 51.171875 25.484375 53.578125 
Q 30.03125 56 36.53125 56 
Q 37.453125 56 38.578125 55.875 
Q 39.703125 55.765625 41.0625 55.515625 
z
" id="DejaVuSans-72"/>
      <path id="DejaVuSans-20"/>
     </defs>
     <g transform="translate(204.51749 189.780706)scale(0.08 -0.08)">
      <use xlink:href="#DejaVuSans-50"/>
      <use x="60.271484" xlink:href="#DejaVuSans-69"/>
      <use x="88.054688" xlink:href="#DejaVuSans-6f"/>
      <use x="149.236328" xlink:href="#DejaVuSans-74"/>
      <use x="188.445312" xlink:href="#DejaVuSans-72"/>
      <use x="229.558594" xlink:href="#DejaVuSans-20"/>
      <use x="261.345703" xlink:href="#DejaVuSans-50"/>
     </g>
    </g>
   </g>
  </g>
 </g>
 <defs>
  <clipPath id="pd758de0b5f">
   <rect height="332.64" width="446.4" x="72" y="51.84"/>
  </clipPath>
 </defs>
</svg>
