<?xml version="1.0" encoding="utf-8" standalone="no"?>
<!DOCTYPE svg PUBLIC "-//W3C//DTD SVG 1.1//EN"
  "http://www.w3.org/Graphics/SVG/1.1/DTD/svg11.dtd">
<!-- Created with matplotlib (http://matplotlib.org/) -->
<svg height="432pt" version="1.1" viewBox="0 0 576 432" width="576pt" xmlns="http://www.w3.org/2000/svg" xmlns:xlink="http://www.w3.org/1999/xlink">
 <defs>
  <style type="text/css">
*{stroke-linecap:butt;stroke-linejoin:round;}
  </style>
 </defs>
 <g id="figure_1">
  <g id="patch_1">
   <path d="
M0 432
L576 432
L576 0
L0 0
z
" style="fill:#ffffff;"/>
  </g>
  <g id="axes_1">
   <g id="LineCollection_1">
    <defs>
     <path d="
M121.997 -209.378
L273.362 -191.269" id="C0_0_f63fc9debe"/>
     <path d="
M121.997 -209.378
L125.979 -144.859" id="C0_1_6579f2111d"/>
     <path d="
M223.98 -300.755
L273.362 -191.269" id="C0_2_97e5710226"/>
     <path d="
M223.98 -300.755
L307.146 -306.367" id="C0_3_889d2e9a91"/>
     <path d="
M292.2 -122.92
L376.784 -158.014" id="C0_4_ca3c5a6430"/>
     <path d="
M292.2 -122.92
L273.362 -191.269" id="C0_5_d91bebe16b"/>
     <path d="
M292.2 -122.92
L361.446 -72.5193" id="C0_6_e066e248f4"/>
     <path d="
M292.2 -122.92
L288.575 -70.1568" id="C0_7_1a8a41511e"/>
     <path d="
M292.2 -122.92
L410.032 -113.778" id="C0_8_d1f82c02e7"/>
     <path d="
M376.784 -158.014
L273.362 -191.269" id="C0_9_5c491086d3"/>
     <path d="
M376.784 -158.014
L361.446 -72.5193" id="C0_a_058904d18c"/>
     <path d="
M376.784 -158.014
L288.575 -70.1568" id="C0_b_75435e1ab2"/>
     <path d="
M376.784 -158.014
L410.032 -113.778" id="C0_c_cb8aef5d5f"/>
     <path d="
M125.979 -144.859
L273.362 -191.269" id="C0_d_c4fe46ddcd"/>
     <path d="
M410.032 -113.778
L273.362 -191.269" id="C0_e_b9392045b6"/>
     <path d="
M410.032 -113.778
L361.446 -72.5193" id="C0_f_1f0c16fe9d"/>
     <path d="
M410.032 -113.778
L288.575 -70.1568" id="C0_10_69d2f44e8b"/>
     <path d="
M168.121 -87.6414
L273.362 -191.269" id="C0_11_8791ae209f"/>
     <path d="
M273.362 -191.269
L361.446 -72.5193" id="C0_12_e85da3c501"/>
     <path d="
M273.362 -191.269
L307.146 -306.367" id="C0_13_4e83c9714f"/>
     <path d="
M273.362 -191.269
L158.05 -264.882" id="C0_14_a0b30134d3"/>
     <path d="
M273.362 -191.269
L288.575 -70.1568" id="C0_15_5b3efede6f"/>
     <path d="
M273.362 -191.269
L436.495 -229.008" id="C0_16_3c9b0a4b4d"/>
     <path d="
M273.362 -191.269
L380.659 -280.613" id="C0_17_25033a3201"/>
     <path d="
M361.446 -72.5193
L288.575 -70.1568" id="C0_18_60ef4947f8"/>
    </defs>
    <g clip-path="url(#p7ff5b81e1d)">
     <use style="fill:none;stroke:#808080;stroke-opacity:0.7;" x="0.0" xlink:href="#C0_0_f63fc9debe" y="432.0"/>
    </g>
    <g clip-path="url(#p7ff5b81e1d)">
     <use style="fill:none;stroke:#808080;stroke-opacity:0.7;" x="0.0" xlink:href="#C0_1_6579f2111d" y="432.0"/>
    </g>
    <g clip-path="url(#p7ff5b81e1d)">
     <use style="fill:none;stroke:#808080;stroke-opacity:0.7;" x="0.0" xlink:href="#C0_2_97e5710226" y="432.0"/>
    </g>
    <g clip-path="url(#p7ff5b81e1d)">
     <use style="fill:none;stroke:#808080;stroke-opacity:0.7;" x="0.0" xlink:href="#C0_3_889d2e9a91" y="432.0"/>
    </g>
    <g clip-path="url(#p7ff5b81e1d)">
     <use style="fill:none;stroke:#808080;stroke-opacity:0.7;" x="0.0" xlink:href="#C0_4_ca3c5a6430" y="432.0"/>
    </g>
    <g clip-path="url(#p7ff5b81e1d)">
     <use style="fill:none;stroke:#808080;stroke-opacity:0.7;" x="0.0" xlink:href="#C0_5_d91bebe16b" y="432.0"/>
    </g>
    <g clip-path="url(#p7ff5b81e1d)">
     <use style="fill:none;stroke:#808080;stroke-opacity:0.7;" x="0.0" xlink:href="#C0_6_e066e248f4" y="432.0"/>
    </g>
    <g clip-path="url(#p7ff5b81e1d)">
     <use style="fill:none;stroke:#808080;stroke-opacity:0.7;" x="0.0" xlink:href="#C0_7_1a8a41511e" y="432.0"/>
    </g>
    <g clip-path="url(#p7ff5b81e1d)">
     <use style="fill:none;stroke:#808080;stroke-opacity:0.7;" x="0.0" xlink:href="#C0_8_d1f82c02e7" y="432.0"/>
    </g>
    <g clip-path="url(#p7ff5b81e1d)">
     <use style="fill:none;stroke:#808080;stroke-opacity:0.7;" x="0.0" xlink:href="#C0_9_5c491086d3" y="432.0"/>
    </g>
    <g clip-path="url(#p7ff5b81e1d)">
     <use style="fill:none;stroke:#808080;stroke-opacity:0.7;" x="0.0" xlink:href="#C0_a_058904d18c" y="432.0"/>
    </g>
    <g clip-path="url(#p7ff5b81e1d)">
     <use style="fill:none;stroke:#808080;stroke-opacity:0.7;" x="0.0" xlink:href="#C0_b_75435e1ab2" y="432.0"/>
    </g>
    <g clip-path="url(#p7ff5b81e1d)">
     <use style="fill:none;stroke:#808080;stroke-opacity:0.7;" x="0.0" xlink:href="#C0_c_cb8aef5d5f" y="432.0"/>
    </g>
    <g clip-path="url(#p7ff5b81e1d)">
     <use style="fill:none;stroke:#808080;stroke-opacity:0.7;" x="0.0" xlink:href="#C0_d_c4fe46ddcd" y="432.0"/>
    </g>
    <g clip-path="url(#p7ff5b81e1d)">
     <use style="fill:none;stroke:#808080;stroke-opacity:0.7;" x="0.0" xlink:href="#C0_e_b9392045b6" y="432.0"/>
    </g>
    <g clip-path="url(#p7ff5b81e1d)">
     <use style="fill:none;stroke:#808080;stroke-opacity:0.7;" x="0.0" xlink:href="#C0_f_1f0c16fe9d" y="432.0"/>
    </g>
    <g clip-path="url(#p7ff5b81e1d)">
     <use style="fill:none;stroke:#808080;stroke-opacity:0.7;" x="0.0" xlink:href="#C0_10_69d2f44e8b" y="432.0"/>
    </g>
    <g clip-path="url(#p7ff5b81e1d)">
     <use style="fill:none;stroke:#808080;stroke-opacity:0.7;" x="0.0" xlink:href="#C0_11_8791ae209f" y="432.0"/>
    </g>
    <g clip-path="url(#p7ff5b81e1d)">
     <use style="fill:none;stroke:#808080;stroke-opacity:0.7;" x="0.0" xlink:href="#C0_12_e85da3c501" y="432.0"/>
    </g>
    <g clip-path="url(#p7ff5b81e1d)">
     <use style="fill:none;stroke:#808080;stroke-opacity:0.7;" x="0.0" xlink:href="#C0_13_4e83c9714f" y="432.0"/>
    </g>
    <g clip-path="url(#p7ff5b81e1d)">
     <use style="fill:none;stroke:#808080;stroke-opacity:0.7;" x="0.0" xlink:href="#C0_14_a0b30134d3" y="432.0"/>
    </g>
    <g clip-path="url(#p7ff5b81e1d)">
     <use style="fill:none;stroke:#808080;stroke-opacity:0.7;" x="0.0" xlink:href="#C0_15_5b3efede6f" y="432.0"/>
    </g>
    <g clip-path="url(#p7ff5b81e1d)">
     <use style="fill:none;stroke:#808080;stroke-opacity:0.7;" x="0.0" xlink:href="#C0_16_3c9b0a4b4d" y="432.0"/>
    </g>
    <g clip-path="url(#p7ff5b81e1d)">
     <use style="fill:none;stroke:#808080;stroke-opacity:0.7;" x="0.0" xlink:href="#C0_17_25033a3201" y="432.0"/>
    </g>
    <g clip-path="url(#p7ff5b81e1d)">
     <use style="fill:none;stroke:#808080;stroke-opacity:0.7;" x="0.0" xlink:href="#C0_18_60ef4947f8" y="432.0"/>
    </g>
   </g>
   <g id="LineCollection_2">
    <defs>
     <path d="
M168.121 -87.6414
L273.362 -191.269" id="C1_0_8791ae209f"/>
     <path d="
M273.362 -191.269
L158.05 -264.882" id="C1_1_a0b30134d3"/>
     <path d="
M273.362 -191.269
L436.495 -229.008" id="C1_2_3c9b0a4b4d"/>
    </defs>
    <g clip-path="url(#p7ff5b81e1d)">
     <use style="fill:none;stroke:#000000;stroke-opacity:0.6;stroke-width:4;" x="0.0" xlink:href="#C1_0_8791ae209f" y="432.0"/>
    </g>
    <g clip-path="url(#p7ff5b81e1d)">
     <use style="fill:none;stroke:#000000;stroke-opacity:0.6;stroke-width:4;" x="0.0" xlink:href="#C1_1_a0b30134d3" y="432.0"/>
    </g>
    <g clip-path="url(#p7ff5b81e1d)">
     <use style="fill:none;stroke:#000000;stroke-opacity:0.6;stroke-width:4;" x="0.0" xlink:href="#C1_2_3c9b0a4b4d" y="432.0"/>
    </g>
   </g>
   <g id="LineCollection_3">
    <defs>
     <path d="
M121.997 -209.378
L125.979 -144.859" id="C2_0_6579f2111d"/>
     <path d="
M223.98 -300.755
L273.362 -191.269" id="C2_1_97e5710226"/>
     <path d="
M223.98 -300.755
L307.146 -306.367" id="C2_2_889d2e9a91"/>
     <path d="
M292.2 -122.92
L376.784 -158.014" id="C2_3_ca3c5a6430"/>
     <path d="
M292.2 -122.92
L273.362 -191.269" id="C2_4_d91bebe16b"/>
     <path d="
M125.979 -144.859
L273.362 -191.269" id="C2_5_c4fe46ddcd"/>
     <path d="
M410.032 -113.778
L361.446 -72.5193" id="C2_6_1f0c16fe9d"/>
     <path d="
M410.032 -113.778
L288.575 -70.1568" id="C2_7_69d2f44e8b"/>
     <path d="
M273.362 -191.269
L307.146 -306.367" id="C2_8_4e83c9714f"/>
     <path d="
M273.362 -191.269
L380.659 -280.613" id="C2_9_25033a3201"/>
     <path d="
M361.446 -72.5193
L288.575 -70.1568" id="C2_a_60ef4947f8"/>
    </defs>
    <g clip-path="url(#p7ff5b81e1d)">
     <use style="fill:none;stroke:#000000;stroke-opacity:0.5;stroke-width:3;" x="0.0" xlink:href="#C2_0_6579f2111d" y="432.0"/>
    </g>
    <g clip-path="url(#p7ff5b81e1d)">
     <use style="fill:none;stroke:#000000;stroke-opacity:0.5;stroke-width:3;" x="0.0" xlink:href="#C2_1_97e5710226" y="432.0"/>
    </g>
    <g clip-path="url(#p7ff5b81e1d)">
     <use style="fill:none;stroke:#000000;stroke-opacity:0.5;stroke-width:3;" x="0.0" xlink:href="#C2_2_889d2e9a91" y="432.0"/>
    </g>
    <g clip-path="url(#p7ff5b81e1d)">
     <use style="fill:none;stroke:#000000;stroke-opacity:0.5;stroke-width:3;" x="0.0" xlink:href="#C2_3_ca3c5a6430" y="432.0"/>
    </g>
    <g clip-path="url(#p7ff5b81e1d)">
     <use style="fill:none;stroke:#000000;stroke-opacity:0.5;stroke-width:3;" x="0.0" xlink:href="#C2_4_d91bebe16b" y="432.0"/>
    </g>
    <g clip-path="url(#p7ff5b81e1d)">
     <use style="fill:none;stroke:#000000;stroke-opacity:0.5;stroke-width:3;" x="0.0" xlink:href="#C2_5_c4fe46ddcd" y="432.0"/>
    </g>
    <g clip-path="url(#p7ff5b81e1d)">
     <use style="fill:none;stroke:#000000;stroke-opacity:0.5;stroke-width:3;" x="0.0" xlink:href="#C2_6_1f0c16fe9d" y="432.0"/>
    </g>
    <g clip-path="url(#p7ff5b81e1d)">
     <use style="fill:none;stroke:#000000;stroke-opacity:0.5;stroke-width:3;" x="0.0" xlink:href="#C2_7_69d2f44e8b" y="432.0"/>
    </g>
    <g clip-path="url(#p7ff5b81e1d)">
     <use style="fill:none;stroke:#000000;stroke-opacity:0.5;stroke-width:3;" x="0.0" xlink:href="#C2_8_4e83c9714f" y="432.0"/>
    </g>
    <g clip-path="url(#p7ff5b81e1d)">
     <use style="fill:none;stroke:#000000;stroke-opacity:0.5;stroke-width:3;" x="0.0" xlink:href="#C2_9_25033a3201" y="432.0"/>
    </g>
    <g clip-path="url(#p7ff5b81e1d)">
     <use style="fill:none;stroke:#000000;stroke-opacity:0.5;stroke-width:3;" x="0.0" xlink:href="#C2_a_60ef4947f8" y="432.0"/>
    </g>
   </g>
   <g id="LineCollection_4">
    <defs>
     <path d="
M121.997 -209.378
L273.362 -191.269" id="C3_0_f63fc9debe"/>
     <path d="
M292.2 -122.92
L361.446 -72.5193" id="C3_1_e066e248f4"/>
     <path d="
M292.2 -122.92
L288.575 -70.1568" id="C3_2_1a8a41511e"/>
     <path d="
M292.2 -122.92
L410.032 -113.778" id="C3_3_d1f82c02e7"/>
     <path d="
M376.784 -158.014
L361.446 -72.5193" id="C3_4_058904d18c"/>
     <path d="
M376.784 -158.014
L288.575 -70.1568" id="C3_5_75435e1ab2"/>
     <path d="
M376.784 -158.014
L410.032 -113.778" id="C3_6_cb8aef5d5f"/>
     <path d="
M273.362 -191.269
L361.446 -72.5193" id="C3_7_e85da3c501"/>
     <path d="
M273.362 -191.269
L288.575 -70.1568" id="C3_8_5b3efede6f"/>
    </defs>
    <g clip-path="url(#p7ff5b81e1d)">
     <use style="fill:none;stroke:#000000;stroke-opacity:0.4;stroke-width:2;" x="0.0" xlink:href="#C3_0_f63fc9debe" y="432.0"/>
    </g>
    <g clip-path="url(#p7ff5b81e1d)">
     <use style="fill:none;stroke:#000000;stroke-opacity:0.4;stroke-width:2;" x="0.0" xlink:href="#C3_1_e066e248f4" y="432.0"/>
    </g>
    <g clip-path="url(#p7ff5b81e1d)">
     <use style="fill:none;stroke:#000000;stroke-opacity:0.4;stroke-width:2;" x="0.0" xlink:href="#C3_2_1a8a41511e" y="432.0"/>
    </g>
    <g clip-path="url(#p7ff5b81e1d)">
     <use style="fill:none;stroke:#000000;stroke-opacity:0.4;stroke-width:2;" x="0.0" xlink:href="#C3_3_d1f82c02e7" y="432.0"/>
    </g>
    <g clip-path="url(#p7ff5b81e1d)">
     <use style="fill:none;stroke:#000000;stroke-opacity:0.4;stroke-width:2;" x="0.0" xlink:href="#C3_4_058904d18c" y="432.0"/>
    </g>
    <g clip-path="url(#p7ff5b81e1d)">
     <use style="fill:none;stroke:#000000;stroke-opacity:0.4;stroke-width:2;" x="0.0" xlink:href="#C3_5_75435e1ab2" y="432.0"/>
    </g>
    <g clip-path="url(#p7ff5b81e1d)">
     <use style="fill:none;stroke:#000000;stroke-opacity:0.4;stroke-width:2;" x="0.0" xlink:href="#C3_6_cb8aef5d5f" y="432.0"/>
    </g>
    <g clip-path="url(#p7ff5b81e1d)">
     <use style="fill:none;stroke:#000000;stroke-opacity:0.4;stroke-width:2;" x="0.0" xlink:href="#C3_7_e85da3c501" y="432.0"/>
    </g>
    <g clip-path="url(#p7ff5b81e1d)">
     <use style="fill:none;stroke:#000000;stroke-opacity:0.4;stroke-width:2;" x="0.0" xlink:href="#C3_8_5b3efede6f" y="432.0"/>
    </g>
   </g>
   <g id="LineCollection_5">
    <defs>
     <path d="
M376.784 -158.014
L273.362 -191.269" id="C4_0_5c491086d3"/>
     <path d="
M410.032 -113.778
L273.362 -191.269" id="C4_1_b9392045b6"/>
    </defs>
    <g clip-path="url(#p7ff5b81e1d)">
     <use style="fill:none;stroke:#000000;stroke-opacity:0.3;" x="0.0" xlink:href="#C4_0_5c491086d3" y="432.0"/>
    </g>
    <g clip-path="url(#p7ff5b81e1d)">
     <use style="fill:none;stroke:#000000;stroke-opacity:0.3;" x="0.0" xlink:href="#C4_1_b9392045b6" y="432.0"/>
    </g>
   </g>
   <g id="LineCollection_6">
    <defs>
     <path d="
M273.362 -191.269
L410.032 -113.778" id="C5_0_42ea87b0fd"/>
    </defs>
    <g clip-path="url(#p7ff5b81e1d)">
     <use style="fill:none;stroke:#cd5c5c;stroke-dasharray:6.000000,6.000000;stroke-dashoffset:0.0;stroke-opacity:0.6;stroke-width:5;" x="0.0" xlink:href="#C5_0_42ea87b0fd" y="432.0"/>
    </g>
   </g>
   <g id="LineCollection_7">
    <defs>
     <path d="
M273.362 -191.269
L168.121 -87.6414" id="C6_0_8c642e4a28"/>
     <path d="
M273.362 -191.269
L158.05 -264.882" id="C6_1_a0b30134d3"/>
     <path d="
M273.362 -191.269
L436.495 -229.008" id="C6_2_3c9b0a4b4d"/>
    </defs>
    <g clip-path="url(#p7ff5b81e1d)">
     <use style="fill:none;stroke:#33a02c;stroke-dasharray:6.000000,6.000000;stroke-dashoffset:0.0;stroke-opacity:0.6;stroke-width:5;" x="0.0" xlink:href="#C6_0_8c642e4a28" y="432.0"/>
    </g>
    <g clip-path="url(#p7ff5b81e1d)">
     <use style="fill:none;stroke:#33a02c;stroke-dasharray:6.000000,6.000000;stroke-dashoffset:0.0;stroke-opacity:0.6;stroke-width:5;" x="0.0" xlink:href="#C6_1_a0b30134d3" y="432.0"/>
    </g>
    <g clip-path="url(#p7ff5b81e1d)">
     <use style="fill:none;stroke:#33a02c;stroke-dasharray:6.000000,6.000000;stroke-dashoffset:0.0;stroke-opacity:0.6;stroke-width:5;" x="0.0" xlink:href="#C6_2_3c9b0a4b4d" y="432.0"/>
    </g>
   </g>
   <g id="PathCollection_1">
    <defs>
     <path d="
M0 26.4575
C7.01661 26.4575 13.7468 23.6698 18.7083 18.7083
C23.6698 13.7468 26.4575 7.01661 26.4575 0
C26.4575 -7.01661 23.6698 -13.7468 18.7083 -18.7083
C13.7468 -23.6698 7.01661 -26.4575 0 -26.4575
C-7.01661 -26.4575 -13.7468 -23.6698 -18.7083 -18.7083
C-23.6698 -13.7468 -26.4575 -7.01661 -26.4575 0
C-26.4575 7.01661 -23.6698 13.7468 -18.7083 18.7083
C-13.7468 23.6698 -7.01661 26.4575 0 26.4575
z
" id="C7_0_466bb23d25"/>
    </defs>
    <g clip-path="url(#p7ff5b81e1d)">
     <use style="fill:#cab2d6;stroke:#ffffff;" x="273.362112" xlink:href="#C7_0_466bb23d25" y="240.731136"/>
    </g>
   </g>
   <g id="PathCollection_2">
    <defs>
     <path d="
M0 23.9792
C6.35935 23.9792 12.4591 21.4526 16.9558 16.9558
C21.4526 12.4591 23.9792 6.35935 23.9792 0
C23.9792 -6.35935 21.4526 -12.4591 16.9558 -16.9558
C12.4591 -21.4526 6.35935 -23.9792 0 -23.9792
C-6.35935 -23.9792 -12.4591 -21.4526 -16.9558 -16.9558
C-21.4526 -12.4591 -23.9792 -6.35935 -23.9792 0
C-23.9792 6.35935 -21.4526 12.4591 -16.9558 16.9558
C-12.4591 21.4526 -6.35935 23.9792 0 23.9792
z
" id="C8_0_8473be9584"/>
    </defs>
    <g clip-path="url(#p7ff5b81e1d)">
     <use style="fill:#33a02c;fill-opacity:0.6;stroke:#ffffff;stroke-opacity:0.6;" x="223.9795584" xlink:href="#C8_0_8473be9584" y="131.245056"/>
    </g>
    <g clip-path="url(#p7ff5b81e1d)">
     <use style="fill:#33a02c;fill-opacity:0.6;stroke:#ffffff;stroke-opacity:0.6;" x="292.200192" xlink:href="#C8_0_8473be9584" y="309.0797568"/>
    </g>
    <g clip-path="url(#p7ff5b81e1d)">
     <use style="fill:#33a02c;fill-opacity:0.6;stroke:#ffffff;stroke-opacity:0.6;" x="125.978688" xlink:href="#C8_0_8473be9584" y="287.1410688"/>
    </g>
    <g clip-path="url(#p7ff5b81e1d)">
     <use style="fill:#33a02c;fill-opacity:0.6;stroke:#ffffff;stroke-opacity:0.6;" x="168.1206336" xlink:href="#C8_0_8473be9584" y="344.3586048"/>
    </g>
    <g clip-path="url(#p7ff5b81e1d)">
     <use style="fill:#33a02c;fill-opacity:0.6;stroke:#ffffff;stroke-opacity:0.6;" x="158.0498496" xlink:href="#C8_0_8473be9584" y="167.118336"/>
    </g>
    <g clip-path="url(#p7ff5b81e1d)">
     <use style="fill:#33a02c;fill-opacity:0.6;stroke:#ffffff;stroke-opacity:0.6;" x="436.494528" xlink:href="#C8_0_8473be9584" y="202.991616"/>
    </g>
    <g clip-path="url(#p7ff5b81e1d)">
     <use style="fill:#33a02c;fill-opacity:0.6;stroke:#ffffff;stroke-opacity:0.6;" x="380.658816" xlink:href="#C8_0_8473be9584" y="151.386624"/>
    </g>
   </g>
   <g id="PathCollection_3">
    <defs>
     <path d="
M0 23.9792
C6.35935 23.9792 12.4591 21.4526 16.9558 16.9558
C21.4526 12.4591 23.9792 6.35935 23.9792 0
C23.9792 -6.35935 21.4526 -12.4591 16.9558 -16.9558
C12.4591 -21.4526 6.35935 -23.9792 0 -23.9792
C-6.35935 -23.9792 -12.4591 -21.4526 -16.9558 -16.9558
C-21.4526 -12.4591 -23.9792 -6.35935 -23.9792 0
C-23.9792 6.35935 -21.4526 12.4591 -16.9558 16.9558
C-12.4591 21.4526 -6.35935 23.9792 0 23.9792
z
" id="C9_0_8473be9584"/>
    </defs>
    <g clip-path="url(#p7ff5b81e1d)">
     <use style="fill:#cd5c5c;stroke:#ffffff;" x="410.031936" xlink:href="#C9_0_8473be9584" y="318.221568"/>
    </g>
   </g>
   <g id="PathCollection_4">
    <defs>
     <path d="
M0 20.6155
C5.4673 20.6155 10.7114 18.4433 14.5774 14.5774
C18.4433 10.7114 20.6155 5.4673 20.6155 0
C20.6155 -5.4673 18.4433 -10.7114 14.5774 -14.5774
C10.7114 -18.4433 5.4673 -20.6155 0 -20.6155
C-5.4673 -20.6155 -10.7114 -18.4433 -14.5774 -14.5774
C-18.4433 -10.7114 -20.6155 -5.4673 -20.6155 0
C-20.6155 5.4673 -18.4433 10.7114 -14.5774 14.5774
C-10.7114 18.4433 -5.4673 20.6155 0 20.6155
z
" id="Ca_0_6a28282978"/>
    </defs>
    <g clip-path="url(#p7ff5b81e1d)">
     <use style="fill:#a6cee3;stroke:#ffffff;" x="288.575424" xlink:href="#Ca_0_6a28282978" y="361.8432"/>
    </g>
   </g>
   <g id="PathCollection_5">
    <defs>
     <path d="
M0 19.3649
C5.13564 19.3649 10.0616 17.3245 13.6931 13.6931
C17.3245 10.0616 19.3649 5.13564 19.3649 0
C19.3649 -5.13564 17.3245 -10.0616 13.6931 -13.6931
C10.0616 -17.3245 5.13564 -19.3649 0 -19.3649
C-5.13564 -19.3649 -10.0616 -17.3245 -13.6931 -13.6931
C-17.3245 -10.0616 -19.3649 -5.13564 -19.3649 0
C-19.3649 5.13564 -17.3245 10.0616 -13.6931 13.6931
C-10.0616 17.3245 -5.13564 19.3649 0 19.3649
z
" id="Cb_0_6b8dc3028e"/>
    </defs>
    <g clip-path="url(#p7ff5b81e1d)">
     <use style="fill:#b2df8a;stroke:#ffffff;" x="121.9968" xlink:href="#Cb_0_6b8dc3028e" y="222.621696"/>
    </g>
    <g clip-path="url(#p7ff5b81e1d)">
     <use style="fill:#b2df8a;stroke:#ffffff;" x="223.9795584" xlink:href="#Cb_0_6b8dc3028e" y="131.245056"/>
    </g>
    <g clip-path="url(#p7ff5b81e1d)">
     <use style="fill:#b2df8a;stroke:#ffffff;" x="158.0498496" xlink:href="#Cb_0_6b8dc3028e" y="167.118336"/>
    </g>
    <g clip-path="url(#p7ff5b81e1d)">
     <use style="fill:#b2df8a;stroke:#ffffff;" x="376.784064" xlink:href="#Cb_0_6b8dc3028e" y="273.9861504"/>
    </g>
    <g clip-path="url(#p7ff5b81e1d)">
     <use style="fill:#b2df8a;stroke:#ffffff;" x="125.978688" xlink:href="#Cb_0_6b8dc3028e" y="287.1410688"/>
    </g>
    <g clip-path="url(#p7ff5b81e1d)">
     <use style="fill:#b2df8a;stroke:#ffffff;" x="168.1206336" xlink:href="#Cb_0_6b8dc3028e" y="344.3586048"/>
    </g>
    <g clip-path="url(#p7ff5b81e1d)">
     <use style="fill:#b2df8a;stroke:#ffffff;" x="361.44576" xlink:href="#Cb_0_6b8dc3028e" y="359.4806784"/>
    </g>
    <g clip-path="url(#p7ff5b81e1d)">
     <use style="fill:#b2df8a;stroke:#ffffff;" x="307.145664" xlink:href="#Cb_0_6b8dc3028e" y="125.632512"/>
    </g>
    <g clip-path="url(#p7ff5b81e1d)">
     <use style="fill:#b2df8a;stroke:#ffffff;" x="292.200192" xlink:href="#Cb_0_6b8dc3028e" y="309.0797568"/>
    </g>
    <g clip-path="url(#p7ff5b81e1d)">
     <use style="fill:#b2df8a;stroke:#ffffff;" x="436.494528" xlink:href="#Cb_0_6b8dc3028e" y="202.991616"/>
    </g>
    <g clip-path="url(#p7ff5b81e1d)">
     <use style="fill:#b2df8a;stroke:#ffffff;" x="380.658816" xlink:href="#Cb_0_6b8dc3028e" y="151.386624"/>
    </g>
   </g>
  </g>
 </g>
 <defs>
  <clipPath id="p7ff5b81e1d">
   <rect height="345.6" width="446.4" x="72.0" y="43.2"/>
  </clipPath>
 </defs>
</svg>
