<?xml version="1.0" encoding="utf-8" standalone="no"?>
<!DOCTYPE svg PUBLIC "-//W3C//DTD SVG 1.1//EN"
  "http://www.w3.org/Graphics/SVG/1.1/DTD/svg11.dtd">
<!-- Created with matplotlib (http://matplotlib.org/) -->
<svg height="432pt" version="1.1" viewBox="0 0 576 432" width="576pt" xmlns="http://www.w3.org/2000/svg" xmlns:xlink="http://www.w3.org/1999/xlink">
 <defs>
  <style type="text/css">
*{stroke-linecap:butt;stroke-linejoin:round;}
  </style>
 </defs>
 <g id="figure_1">
  <g id="patch_1">
   <path d="
M0 432
L576 432
L576 0
L0 0
z
" style="fill:#ffffff;"/>
  </g>
  <g id="axes_1">
   <g id="LineCollection_1">
    <defs>
     <path d="
M120.211 -158.019
L251.56 -165.545" id="C0_0_e31fcc73a3"/>
     <path d="
M120.211 -158.019
L159.482 -264.622" id="C0_1_78fe07cc07"/>
     <path d="
M120.211 -158.019
L204.9 -329.184" id="C0_2_f5028305be"/>
     <path d="
M312.681 -268.834
L347.929 -82.08" id="C0_3_b5daae3e33"/>
     <path d="
M312.681 -268.834
L251.56 -165.545" id="C0_4_18be91ff03"/>
     <path d="
M312.681 -268.834
L404.389 -192.866" id="C0_5_07fa2b5b39"/>
     <path d="
M312.681 -268.834
L204.9 -329.184" id="C0_6_eaaea3d41c"/>
     <path d="
M312.681 -268.834
L159.482 -264.622" id="C0_7_14430e8bcc"/>
     <path d="
M347.929 -82.08
L251.56 -165.545" id="C0_8_df7f1eb533"/>
     <path d="
M347.929 -82.08
L404.389 -192.866" id="C0_9_0e73ff49ef"/>
     <path d="
M404.389 -192.866
L251.56 -165.545" id="C0_a_955be65496"/>
     <path d="
M159.482 -264.622
L251.56 -165.545" id="C0_b_8da0590ed3"/>
     <path d="
M204.9 -329.184
L251.56 -165.545" id="C0_c_dbff6a3ae7"/>
    </defs>
    <g clip-path="url(#p7ff5b81e1d)">
     <use style="fill:none;stroke:#808080;stroke-opacity:0.7;" x="0.0" xlink:href="#C0_0_e31fcc73a3" y="432.0"/>
    </g>
    <g clip-path="url(#p7ff5b81e1d)">
     <use style="fill:none;stroke:#808080;stroke-opacity:0.7;" x="0.0" xlink:href="#C0_1_78fe07cc07" y="432.0"/>
    </g>
    <g clip-path="url(#p7ff5b81e1d)">
     <use style="fill:none;stroke:#808080;stroke-opacity:0.7;" x="0.0" xlink:href="#C0_2_f5028305be" y="432.0"/>
    </g>
    <g clip-path="url(#p7ff5b81e1d)">
     <use style="fill:none;stroke:#808080;stroke-opacity:0.7;" x="0.0" xlink:href="#C0_3_b5daae3e33" y="432.0"/>
    </g>
    <g clip-path="url(#p7ff5b81e1d)">
     <use style="fill:none;stroke:#808080;stroke-opacity:0.7;" x="0.0" xlink:href="#C0_4_18be91ff03" y="432.0"/>
    </g>
    <g clip-path="url(#p7ff5b81e1d)">
     <use style="fill:none;stroke:#808080;stroke-opacity:0.7;" x="0.0" xlink:href="#C0_5_07fa2b5b39" y="432.0"/>
    </g>
    <g clip-path="url(#p7ff5b81e1d)">
     <use style="fill:none;stroke:#808080;stroke-opacity:0.7;" x="0.0" xlink:href="#C0_6_eaaea3d41c" y="432.0"/>
    </g>
    <g clip-path="url(#p7ff5b81e1d)">
     <use style="fill:none;stroke:#808080;stroke-opacity:0.7;" x="0.0" xlink:href="#C0_7_14430e8bcc" y="432.0"/>
    </g>
    <g clip-path="url(#p7ff5b81e1d)">
     <use style="fill:none;stroke:#808080;stroke-opacity:0.7;" x="0.0" xlink:href="#C0_8_df7f1eb533" y="432.0"/>
    </g>
    <g clip-path="url(#p7ff5b81e1d)">
     <use style="fill:none;stroke:#808080;stroke-opacity:0.7;" x="0.0" xlink:href="#C0_9_0e73ff49ef" y="432.0"/>
    </g>
    <g clip-path="url(#p7ff5b81e1d)">
     <use style="fill:none;stroke:#808080;stroke-opacity:0.7;" x="0.0" xlink:href="#C0_a_955be65496" y="432.0"/>
    </g>
    <g clip-path="url(#p7ff5b81e1d)">
     <use style="fill:none;stroke:#808080;stroke-opacity:0.7;" x="0.0" xlink:href="#C0_b_8da0590ed3" y="432.0"/>
    </g>
    <g clip-path="url(#p7ff5b81e1d)">
     <use style="fill:none;stroke:#808080;stroke-opacity:0.7;" x="0.0" xlink:href="#C0_c_dbff6a3ae7" y="432.0"/>
    </g>
   </g>
   <g id="LineCollection_2">
    <defs>
     <path d="
M120.211 -158.019
L204.9 -329.184" id="C1_0_f5028305be"/>
     <path d="
M312.681 -268.834
L404.389 -192.866" id="C1_1_07fa2b5b39"/>
     <path d="
M204.9 -329.184
L251.56 -165.545" id="C1_2_dbff6a3ae7"/>
    </defs>
    <g clip-path="url(#p7ff5b81e1d)">
     <use style="fill:none;stroke:#000000;stroke-opacity:0.6;stroke-width:4;" x="0.0" xlink:href="#C1_0_f5028305be" y="432.0"/>
    </g>
    <g clip-path="url(#p7ff5b81e1d)">
     <use style="fill:none;stroke:#000000;stroke-opacity:0.6;stroke-width:4;" x="0.0" xlink:href="#C1_1_07fa2b5b39" y="432.0"/>
    </g>
    <g clip-path="url(#p7ff5b81e1d)">
     <use style="fill:none;stroke:#000000;stroke-opacity:0.6;stroke-width:4;" x="0.0" xlink:href="#C1_2_dbff6a3ae7" y="432.0"/>
    </g>
   </g>
   <g id="LineCollection_3">
    <defs>
     <path d="
M120.211 -158.019
L251.56 -165.545" id="C2_0_e31fcc73a3"/>
     <path d="
M120.211 -158.019
L159.482 -264.622" id="C2_1_78fe07cc07"/>
     <path d="
M312.681 -268.834
L251.56 -165.545" id="C2_2_18be91ff03"/>
     <path d="
M312.681 -268.834
L159.482 -264.622" id="C2_3_14430e8bcc"/>
     <path d="
M347.929 -82.08
L251.56 -165.545" id="C2_4_df7f1eb533"/>
     <path d="
M404.389 -192.866
L251.56 -165.545" id="C2_5_955be65496"/>
     <path d="
M159.482 -264.622
L251.56 -165.545" id="C2_6_8da0590ed3"/>
    </defs>
    <g clip-path="url(#p7ff5b81e1d)">
     <use style="fill:none;stroke:#000000;stroke-opacity:0.5;stroke-width:3;" x="0.0" xlink:href="#C2_0_e31fcc73a3" y="432.0"/>
    </g>
    <g clip-path="url(#p7ff5b81e1d)">
     <use style="fill:none;stroke:#000000;stroke-opacity:0.5;stroke-width:3;" x="0.0" xlink:href="#C2_1_78fe07cc07" y="432.0"/>
    </g>
    <g clip-path="url(#p7ff5b81e1d)">
     <use style="fill:none;stroke:#000000;stroke-opacity:0.5;stroke-width:3;" x="0.0" xlink:href="#C2_2_18be91ff03" y="432.0"/>
    </g>
    <g clip-path="url(#p7ff5b81e1d)">
     <use style="fill:none;stroke:#000000;stroke-opacity:0.5;stroke-width:3;" x="0.0" xlink:href="#C2_3_14430e8bcc" y="432.0"/>
    </g>
    <g clip-path="url(#p7ff5b81e1d)">
     <use style="fill:none;stroke:#000000;stroke-opacity:0.5;stroke-width:3;" x="0.0" xlink:href="#C2_4_df7f1eb533" y="432.0"/>
    </g>
    <g clip-path="url(#p7ff5b81e1d)">
     <use style="fill:none;stroke:#000000;stroke-opacity:0.5;stroke-width:3;" x="0.0" xlink:href="#C2_5_955be65496" y="432.0"/>
    </g>
    <g clip-path="url(#p7ff5b81e1d)">
     <use style="fill:none;stroke:#000000;stroke-opacity:0.5;stroke-width:3;" x="0.0" xlink:href="#C2_6_8da0590ed3" y="432.0"/>
    </g>
   </g>
   <g id="LineCollection_4">
    <defs>
     <path d="
M312.681 -268.834
L347.929 -82.08" id="C3_0_b5daae3e33"/>
     <path d="
M312.681 -268.834
L204.9 -329.184" id="C3_1_eaaea3d41c"/>
    </defs>
    <g clip-path="url(#p7ff5b81e1d)">
     <use style="fill:none;stroke:#000000;stroke-opacity:0.4;stroke-width:2;" x="0.0" xlink:href="#C3_0_b5daae3e33" y="432.0"/>
    </g>
    <g clip-path="url(#p7ff5b81e1d)">
     <use style="fill:none;stroke:#000000;stroke-opacity:0.4;stroke-width:2;" x="0.0" xlink:href="#C3_1_eaaea3d41c" y="432.0"/>
    </g>
   </g>
   <g id="LineCollection_5">
    <defs>
     <path d="
M347.929 -82.08
L404.389 -192.866" id="C4_0_0e73ff49ef"/>
    </defs>
    <g clip-path="url(#p7ff5b81e1d)">
     <use style="fill:none;stroke:#000000;stroke-opacity:0.3;" x="0.0" xlink:href="#C4_0_0e73ff49ef" y="432.0"/>
    </g>
   </g>
   <g id="LineCollection_6">
    <defs>
     <path d="
M251.56 -165.545
L159.482 -264.622" id="C5_0_a3be1270f2"/>
    </defs>
    <g clip-path="url(#p7ff5b81e1d)">
     <use style="fill:none;stroke:#cd5c5c;stroke-dasharray:6.000000,6.000000;stroke-dashoffset:0.0;stroke-opacity:0.6;stroke-width:5;" x="0.0" xlink:href="#C5_0_a3be1270f2" y="432.0"/>
    </g>
   </g>
   <g id="LineCollection_7">
    <defs>
     <path d="
M251.56 -165.545
L159.482 -264.622" id="C6_0_a3be1270f2"/>
     <path d="
M251.56 -165.545
L204.9 -329.184" id="C6_1_256b083b93"/>
    </defs>
    <g clip-path="url(#p7ff5b81e1d)">
     <use style="fill:none;stroke:#33a02c;stroke-dasharray:6.000000,6.000000;stroke-dashoffset:0.0;stroke-opacity:0.6;stroke-width:5;" x="0.0" xlink:href="#C6_0_a3be1270f2" y="432.0"/>
    </g>
    <g clip-path="url(#p7ff5b81e1d)">
     <use style="fill:none;stroke:#33a02c;stroke-dasharray:6.000000,6.000000;stroke-dashoffset:0.0;stroke-opacity:0.6;stroke-width:5;" x="0.0" xlink:href="#C6_1_256b083b93" y="432.0"/>
    </g>
   </g>
   <g id="PathCollection_1">
    <defs>
     <path d="
M0 26.4575
C7.01661 26.4575 13.7468 23.6698 18.7083 18.7083
C23.6698 13.7468 26.4575 7.01661 26.4575 0
C26.4575 -7.01661 23.6698 -13.7468 18.7083 -18.7083
C13.7468 -23.6698 7.01661 -26.4575 0 -26.4575
C-7.01661 -26.4575 -13.7468 -23.6698 -18.7083 -18.7083
C-23.6698 -13.7468 -26.4575 -7.01661 -26.4575 0
C-26.4575 7.01661 -23.6698 13.7468 -18.7083 18.7083
C-13.7468 23.6698 -7.01661 26.4575 0 26.4575
z
" id="m7b51eb38a4" style="stroke:#ffffff;"/>
    </defs>
    <g clip-path="url(#p7ff5b81e1d)">
     <use style="fill:#cab2d6;stroke:#ffffff;" x="251.559936" xlink:href="#m7b51eb38a4" y="266.45544"/>
    </g>
   </g>
   <g id="PathCollection_2">
    <defs>
     <path d="
M0 23.9792
C6.35935 23.9792 12.4591 21.4526 16.9558 16.9558
C21.4526 12.4591 23.9792 6.35935 23.9792 0
C23.9792 -6.35935 21.4526 -12.4591 16.9558 -16.9558
C12.4591 -21.4526 6.35935 -23.9792 0 -23.9792
C-6.35935 -23.9792 -12.4591 -21.4526 -16.9558 -16.9558
C-21.4526 -12.4591 -23.9792 -6.35935 -23.9792 0
C-23.9792 6.35935 -21.4526 12.4591 -16.9558 16.9558
C-12.4591 21.4526 -6.35935 23.9792 0 23.9792
z
" id="m40ee9afd51" style="stroke:#ffffff;stroke-opacity:0.6;"/>
    </defs>
    <g clip-path="url(#p7ff5b81e1d)">
     <use style="fill:#33a02c;fill-opacity:0.6;stroke:#ffffff;stroke-opacity:0.6;" x="204.9004224" xlink:href="#m40ee9afd51" y="102.816"/>
    </g>
   </g>
   <g id="PathCollection_3">
    <defs>
     <path d="
M0 23.9792
C6.35935 23.9792 12.4591 21.4526 16.9558 16.9558
C21.4526 12.4591 23.9792 6.35935 23.9792 0
C23.9792 -6.35935 21.4526 -12.4591 16.9558 -16.9558
C12.4591 -21.4526 6.35935 -23.9792 0 -23.9792
C-6.35935 -23.9792 -12.4591 -21.4526 -16.9558 -16.9558
C-21.4526 -12.4591 -23.9792 -6.35935 -23.9792 0
C-23.9792 6.35935 -21.4526 12.4591 -16.9558 16.9558
C-12.4591 21.4526 -6.35935 23.9792 0 23.9792
z
" id="mf124c272a1" style="stroke:#ffffff;"/>
    </defs>
    <g clip-path="url(#p7ff5b81e1d)">
     <use style="fill:#cd5c5c;stroke:#ffffff;" x="159.4819008" xlink:href="#mf124c272a1" y="167.3784"/>
    </g>
   </g>
   <g id="PathCollection_4">
    <defs>
     <path d="
M0 20.6155
C5.4673 20.6155 10.7114 18.4433 14.5774 14.5774
C18.4433 10.7114 20.6155 5.4673 20.6155 0
C20.6155 -5.4673 18.4433 -10.7114 14.5774 -14.5774
C10.7114 -18.4433 5.4673 -20.6155 0 -20.6155
C-5.4673 -20.6155 -10.7114 -18.4433 -14.5774 -14.5774
C-18.4433 -10.7114 -20.6155 -5.4673 -20.6155 0
C-20.6155 5.4673 -18.4433 10.7114 -14.5774 14.5774
C-10.7114 18.4433 -5.4673 20.6155 0 20.6155
z
" id="mb3f8d1181c" style="stroke:#ffffff;"/>
    </defs>
    <g clip-path="url(#p7ff5b81e1d)">
     <use style="fill:#a6cee3;stroke:#ffffff;" x="312.681024" xlink:href="#mb3f8d1181c" y="163.1664"/>
     <use style="fill:#a6cee3;stroke:#ffffff;" x="404.38944" xlink:href="#mb3f8d1181c" y="239.1336"/>
    </g>
   </g>
   <g id="PathCollection_5">
    <defs>
     <path d="
M0 21.7945
C5.77997 21.7945 11.324 19.4981 15.411 15.411
C19.4981 11.324 21.7945 5.77997 21.7945 0
C21.7945 -5.77997 19.4981 -11.324 15.411 -15.411
C11.324 -19.4981 5.77997 -21.7945 0 -21.7945
C-5.77997 -21.7945 -11.324 -19.4981 -15.411 -15.411
C-19.4981 -11.324 -21.7945 -5.77997 -21.7945 0
C-21.7945 5.77997 -19.4981 11.324 -15.411 15.411
C-11.324 19.4981 -5.77997 21.7945 0 21.7945
z
" id="m10f713e06b" style="stroke:#ffffff;"/>
    </defs>
    <g clip-path="url(#p7ff5b81e1d)">
     <use style="fill:#ff7f00;stroke:#ffffff;" x="120.2112" xlink:href="#m10f713e06b" y="273.98088"/>
    </g>
   </g>
   <g id="PathCollection_6">
    <defs>
     <path d="
M0 19.3649
C5.13564 19.3649 10.0616 17.3245 13.6931 13.6931
C17.3245 10.0616 19.3649 5.13564 19.3649 0
C19.3649 -5.13564 17.3245 -10.0616 13.6931 -13.6931
C10.0616 -17.3245 5.13564 -19.3649 0 -19.3649
C-5.13564 -19.3649 -10.0616 -17.3245 -13.6931 -13.6931
C-17.3245 -10.0616 -19.3649 -5.13564 -19.3649 0
C-19.3649 5.13564 -17.3245 10.0616 -13.6931 13.6931
C-10.0616 17.3245 -5.13564 19.3649 0 19.3649
z
" id="mf7d5ae399e" style="stroke:#ffffff;"/>
    </defs>
    <g clip-path="url(#p7ff5b81e1d)">
     <use style="fill:#b2df8a;stroke:#ffffff;" x="347.928768" xlink:href="#mf7d5ae399e" y="349.92"/>
     <use style="fill:#b2df8a;stroke:#ffffff;" x="204.9004224" xlink:href="#mf7d5ae399e" y="102.816"/>
    </g>
   </g>
   <g id="text_1">
    <g clip-path="url(#p7ff5b81e1d)">
     <!-- A -->
     <defs>
      <path d="
M34.1875 63.1875
L20.7969 26.9062
L47.6094 26.9062
z

M28.6094 72.9062
L39.7969 72.9062
L67.5781 0
L57.3281 0
L50.6875 18.7031
L17.8281 18.7031
L11.1875 0
L0.78125 0
z
" id="BitstreamVeraSans-Roman-41"/>
     </defs>
     <g transform="translate(117.539325 276.18838)scale(0.08 -0.08)">
      <use xlink:href="#BitstreamVeraSans-Roman-41"/>
     </g>
    </g>
   </g>
   <g id="text_2">
    <g clip-path="url(#p7ff5b81e1d)">
     <!-- C -->
     <defs>
      <path d="
M64.4062 67.2812
L64.4062 56.8906
Q59.4219 61.5312 53.7812 63.8125
Q48.1406 66.1094 41.7969 66.1094
Q29.2969 66.1094 22.6562 58.4688
Q16.0156 50.8281 16.0156 36.375
Q16.0156 21.9688 22.6562 14.3281
Q29.2969 6.6875 41.7969 6.6875
Q48.1406 6.6875 53.7812 8.98438
Q59.4219 11.2812 64.4062 15.9219
L64.4062 5.60938
Q59.2344 2.09375 53.4375 0.328125
Q47.6562 -1.42188 41.2188 -1.42188
Q24.6562 -1.42188 15.125 8.70312
Q5.60938 18.8438 5.60938 36.375
Q5.60938 53.9531 15.125 64.0781
Q24.6562 74.2188 41.2188 74.2188
Q47.75 74.2188 53.5312 72.4844
Q59.3281 70.75 64.4062 67.2812" id="BitstreamVeraSans-Roman-43"/>
     </defs>
     <g transform="translate(310.329149 165.3739)scale(0.08 -0.08)">
      <use xlink:href="#BitstreamVeraSans-Roman-43"/>
     </g>
    </g>
   </g>
   <g id="text_3">
    <g clip-path="url(#p7ff5b81e1d)">
     <!-- B -->
     <defs>
      <path d="
M19.6719 34.8125
L19.6719 8.10938
L35.5 8.10938
Q43.4531 8.10938 47.2812 11.4062
Q51.125 14.7031 51.125 21.4844
Q51.125 28.3281 47.2812 31.5625
Q43.4531 34.8125 35.5 34.8125
z

M19.6719 64.7969
L19.6719 42.8281
L34.2812 42.8281
Q41.5 42.8281 45.0312 45.5312
Q48.5781 48.25 48.5781 53.8125
Q48.5781 59.3281 45.0312 62.0625
Q41.5 64.7969 34.2812 64.7969
z

M9.8125 72.9062
L35.0156 72.9062
Q46.2969 72.9062 52.3906 68.2188
Q58.5 63.5312 58.5 54.8906
Q58.5 48.1875 55.375 44.2344
Q52.25 40.2812 46.1875 39.3125
Q53.4688 37.75 57.5 32.7812
Q61.5312 27.8281 61.5312 20.4062
Q61.5312 10.6406 54.8906 5.3125
Q48.25 0 35.9844 0
L9.8125 0
z
" id="BitstreamVeraSans-Roman-42"/>
     </defs>
     <g transform="translate(345.860018 352.1275)scale(0.08 -0.08)">
      <use xlink:href="#BitstreamVeraSans-Roman-42"/>
     </g>
    </g>
   </g>
   <g id="text_4">
    <g clip-path="url(#p7ff5b81e1d)">
     <!-- D -->
     <defs>
      <path d="
M19.6719 64.7969
L19.6719 8.10938
L31.5938 8.10938
Q46.6875 8.10938 53.6875 14.9375
Q60.6875 21.7812 60.6875 36.5312
Q60.6875 51.1719 53.6875 57.9844
Q46.6875 64.7969 31.5938 64.7969
z

M9.8125 72.9062
L30.0781 72.9062
Q51.2656 72.9062 61.1719 64.0938
Q71.0938 55.2812 71.0938 36.5312
Q71.0938 17.6719 61.125 8.82812
Q51.1719 0 30.0781 0
L9.8125 0
z
" id="BitstreamVeraSans-Roman-44"/>
     </defs>
     <g transform="translate(401.93819 241.3411)scale(0.08 -0.08)">
      <use xlink:href="#BitstreamVeraSans-Roman-44"/>
     </g>
    </g>
   </g>
   <g id="text_5">
    <g clip-path="url(#p7ff5b81e1d)">
     <!-- L -->
     <defs>
      <path d="
M9.8125 72.9062
L19.6719 72.9062
L19.6719 8.29688
L55.1719 8.29688
L55.1719 0
L9.8125 0
z
" id="BitstreamVeraSans-Roman-4c"/>
     </defs>
     <g transform="translate(157.6675258 169.5859)scale(0.08 -0.08)">
      <use xlink:href="#BitstreamVeraSans-Roman-4c"/>
     </g>
    </g>
   </g>
   <g id="text_6">
    <g clip-path="url(#p7ff5b81e1d)">
     <!-- O -->
     <defs>
      <path d="
M39.4062 66.2188
Q28.6562 66.2188 22.3281 58.2031
Q16.0156 50.2031 16.0156 36.375
Q16.0156 22.6094 22.3281 14.5938
Q28.6562 6.59375 39.4062 6.59375
Q50.1406 6.59375 56.4219 14.5938
Q62.7031 22.6094 62.7031 36.375
Q62.7031 50.2031 56.4219 58.2031
Q50.1406 66.2188 39.4062 66.2188
M39.4062 74.2188
Q54.7344 74.2188 63.9062 63.9375
Q73.0938 53.6562 73.0938 36.375
Q73.0938 19.1406 63.9062 8.85938
Q54.7344 -1.42188 39.4062 -1.42188
Q24.0312 -1.42188 14.8125 8.82812
Q5.60938 19.0938 5.60938 36.375
Q5.60938 53.6562 14.8125 63.9375
Q24.0312 74.2188 39.4062 74.2188" id="BitstreamVeraSans-Roman-4f"/>
     </defs>
     <g transform="translate(202.2010474 105.0235)scale(0.08 -0.08)">
      <use xlink:href="#BitstreamVeraSans-Roman-4f"/>
     </g>
    </g>
   </g>
   <g id="text_7">
    <g clip-path="url(#p7ff5b81e1d)">
     <!-- M M -->
     <defs>
      <path id="BitstreamVeraSans-Roman-20"/>
      <path d="
M9.8125 72.9062
L24.5156 72.9062
L43.1094 23.2969
L61.8125 72.9062
L76.5156 72.9062
L76.5156 0
L66.8906 0
L66.8906 64.0156
L48.0938 14.0156
L38.1875 14.0156
L19.3906 64.0156
L19.3906 0
L9.8125 0
z
" id="BitstreamVeraSans-Roman-4d"/>
     </defs>
     <g transform="translate(243.776811 268.66294)scale(0.08 -0.08)">
      <use xlink:href="#BitstreamVeraSans-Roman-4d"/>
      <use x="86.279296875" xlink:href="#BitstreamVeraSans-Roman-20"/>
      <use x="118.06640625" xlink:href="#BitstreamVeraSans-Roman-4d"/>
     </g>
    </g>
   </g>
  </g>
 </g>
 <defs>
  <clipPath id="p7ff5b81e1d">
   <rect height="345.6" width="446.4" x="72.0" y="43.2"/>
  </clipPath>
 </defs>
</svg>
