<?xml version="1.0" encoding="utf-8" standalone="no"?>
<!DOCTYPE svg PUBLIC "-//W3C//DTD SVG 1.1//EN"
  "http://www.w3.org/Graphics/SVG/1.1/DTD/svg11.dtd">
<!-- Created with matplotlib (http://matplotlib.org/) -->
<svg height="432pt" version="1.1" viewBox="0 0 576 432" width="576pt" xmlns="http://www.w3.org/2000/svg" xmlns:xlink="http://www.w3.org/1999/xlink">
 <defs>
  <style type="text/css">
*{stroke-linecap:butt;stroke-linejoin:round;}
  </style>
 </defs>
 <g id="figure_1">
  <g id="patch_1">
   <path d="
M0 432
L576 432
L576 0
L0 0
z
" style="fill:#ffffff;"/>
  </g>
  <g id="axes_1">
   <g id="LineCollection_1">
    <defs>
     <path d="
M184.29 -74.304
L327.252 -74.9002" id="C0_0_dc522ae43f"/>
     <path d="
M184.29 -74.304
L262.994 -200.512" id="C0_1_3f69985b30"/>
     <path d="
M309.038 -293.656
L444.677 -235.336" id="C0_2_bfa6e3969c"/>
     <path d="
M309.038 -293.656
L228.867 -350.266" id="C0_3_a38ef0e832"/>
     <path d="
M309.038 -293.656
L132.264 -238.222" id="C0_4_9c8984f303"/>
     <path d="
M309.038 -293.656
L132.996 -315.084" id="C0_5_919b74af55"/>
     <path d="
M309.038 -293.656
L262.994 -200.512" id="C0_6_38e564f844"/>
     <path d="
M327.252 -74.9002
L262.994 -200.512" id="C0_7_2bb0b441dc"/>
     <path d="
M444.677 -235.336
L262.994 -200.512" id="C0_8_a68c97b457"/>
     <path d="
M228.867 -350.266
L132.264 -238.222" id="C0_9_7df866bc62"/>
     <path d="
M228.867 -350.266
L132.996 -315.084" id="C0_a_195ddce8d0"/>
     <path d="
M228.867 -350.266
L262.994 -200.512" id="C0_b_39d1455603"/>
     <path d="
M132.996 -315.084
L132.264 -238.222" id="C0_c_9729791724"/>
     <path d="
M132.996 -315.084
L262.994 -200.512" id="C0_d_c3e78c9236"/>
     <path d="
M132.264 -238.222
L262.994 -200.512" id="C0_e_df6255ca7f"/>
    </defs>
    <g clip-path="url(#p7ff5b81e1d)">
     <use style="fill:none;stroke:#808080;stroke-opacity:0.7;" x="0.0" xlink:href="#C0_0_dc522ae43f" y="432.0"/>
    </g>
    <g clip-path="url(#p7ff5b81e1d)">
     <use style="fill:none;stroke:#808080;stroke-opacity:0.7;" x="0.0" xlink:href="#C0_1_3f69985b30" y="432.0"/>
    </g>
    <g clip-path="url(#p7ff5b81e1d)">
     <use style="fill:none;stroke:#808080;stroke-opacity:0.7;" x="0.0" xlink:href="#C0_2_bfa6e3969c" y="432.0"/>
    </g>
    <g clip-path="url(#p7ff5b81e1d)">
     <use style="fill:none;stroke:#808080;stroke-opacity:0.7;" x="0.0" xlink:href="#C0_3_a38ef0e832" y="432.0"/>
    </g>
    <g clip-path="url(#p7ff5b81e1d)">
     <use style="fill:none;stroke:#808080;stroke-opacity:0.7;" x="0.0" xlink:href="#C0_4_9c8984f303" y="432.0"/>
    </g>
    <g clip-path="url(#p7ff5b81e1d)">
     <use style="fill:none;stroke:#808080;stroke-opacity:0.7;" x="0.0" xlink:href="#C0_5_919b74af55" y="432.0"/>
    </g>
    <g clip-path="url(#p7ff5b81e1d)">
     <use style="fill:none;stroke:#808080;stroke-opacity:0.7;" x="0.0" xlink:href="#C0_6_38e564f844" y="432.0"/>
    </g>
    <g clip-path="url(#p7ff5b81e1d)">
     <use style="fill:none;stroke:#808080;stroke-opacity:0.7;" x="0.0" xlink:href="#C0_7_2bb0b441dc" y="432.0"/>
    </g>
    <g clip-path="url(#p7ff5b81e1d)">
     <use style="fill:none;stroke:#808080;stroke-opacity:0.7;" x="0.0" xlink:href="#C0_8_a68c97b457" y="432.0"/>
    </g>
    <g clip-path="url(#p7ff5b81e1d)">
     <use style="fill:none;stroke:#808080;stroke-opacity:0.7;" x="0.0" xlink:href="#C0_9_7df866bc62" y="432.0"/>
    </g>
    <g clip-path="url(#p7ff5b81e1d)">
     <use style="fill:none;stroke:#808080;stroke-opacity:0.7;" x="0.0" xlink:href="#C0_a_195ddce8d0" y="432.0"/>
    </g>
    <g clip-path="url(#p7ff5b81e1d)">
     <use style="fill:none;stroke:#808080;stroke-opacity:0.7;" x="0.0" xlink:href="#C0_b_39d1455603" y="432.0"/>
    </g>
    <g clip-path="url(#p7ff5b81e1d)">
     <use style="fill:none;stroke:#808080;stroke-opacity:0.7;" x="0.0" xlink:href="#C0_c_9729791724" y="432.0"/>
    </g>
    <g clip-path="url(#p7ff5b81e1d)">
     <use style="fill:none;stroke:#808080;stroke-opacity:0.7;" x="0.0" xlink:href="#C0_d_c3e78c9236" y="432.0"/>
    </g>
    <g clip-path="url(#p7ff5b81e1d)">
     <use style="fill:none;stroke:#808080;stroke-opacity:0.7;" x="0.0" xlink:href="#C0_e_df6255ca7f" y="432.0"/>
    </g>
   </g>
   <g id="LineCollection_2">
    <defs>
     <path d="
M184.29 -74.304
L327.252 -74.9002" id="C1_0_dc522ae43f"/>
     <path d="
M184.29 -74.304
L262.994 -200.512" id="C1_1_3f69985b30"/>
     <path d="
M309.038 -293.656
L228.867 -350.266" id="C1_2_a38ef0e832"/>
     <path d="
M309.038 -293.656
L262.994 -200.512" id="C1_3_38e564f844"/>
     <path d="
M327.252 -74.9002
L262.994 -200.512" id="C1_4_2bb0b441dc"/>
     <path d="
M444.677 -235.336
L262.994 -200.512" id="C1_5_a68c97b457"/>
     <path d="
M228.867 -350.266
L262.994 -200.512" id="C1_6_39d1455603"/>
    </defs>
    <g clip-path="url(#p7ff5b81e1d)">
     <use style="fill:none;stroke:#000000;stroke-opacity:0.6;stroke-width:4;" x="0.0" xlink:href="#C1_0_dc522ae43f" y="432.0"/>
    </g>
    <g clip-path="url(#p7ff5b81e1d)">
     <use style="fill:none;stroke:#000000;stroke-opacity:0.6;stroke-width:4;" x="0.0" xlink:href="#C1_1_3f69985b30" y="432.0"/>
    </g>
    <g clip-path="url(#p7ff5b81e1d)">
     <use style="fill:none;stroke:#000000;stroke-opacity:0.6;stroke-width:4;" x="0.0" xlink:href="#C1_2_a38ef0e832" y="432.0"/>
    </g>
    <g clip-path="url(#p7ff5b81e1d)">
     <use style="fill:none;stroke:#000000;stroke-opacity:0.6;stroke-width:4;" x="0.0" xlink:href="#C1_3_38e564f844" y="432.0"/>
    </g>
    <g clip-path="url(#p7ff5b81e1d)">
     <use style="fill:none;stroke:#000000;stroke-opacity:0.6;stroke-width:4;" x="0.0" xlink:href="#C1_4_2bb0b441dc" y="432.0"/>
    </g>
    <g clip-path="url(#p7ff5b81e1d)">
     <use style="fill:none;stroke:#000000;stroke-opacity:0.6;stroke-width:4;" x="0.0" xlink:href="#C1_5_a68c97b457" y="432.0"/>
    </g>
    <g clip-path="url(#p7ff5b81e1d)">
     <use style="fill:none;stroke:#000000;stroke-opacity:0.6;stroke-width:4;" x="0.0" xlink:href="#C1_6_39d1455603" y="432.0"/>
    </g>
   </g>
   <g id="LineCollection_3">
    <defs>
     <path d="
M309.038 -293.656
L132.996 -315.084" id="C2_0_919b74af55"/>
     <path d="
M228.867 -350.266
L132.996 -315.084" id="C2_1_195ddce8d0"/>
    </defs>
    <g clip-path="url(#p7ff5b81e1d)">
     <use style="fill:none;stroke:#000000;stroke-opacity:0.5;stroke-width:3;" x="0.0" xlink:href="#C2_0_919b74af55" y="432.0"/>
    </g>
    <g clip-path="url(#p7ff5b81e1d)">
     <use style="fill:none;stroke:#000000;stroke-opacity:0.5;stroke-width:3;" x="0.0" xlink:href="#C2_1_195ddce8d0" y="432.0"/>
    </g>
   </g>
   <g id="LineCollection_4">
    <defs>
     <path d="
M309.038 -293.656
L132.264 -238.222" id="C3_0_9c8984f303"/>
     <path d="
M228.867 -350.266
L132.264 -238.222" id="C3_1_7df866bc62"/>
     <path d="
M132.996 -315.084
L132.264 -238.222" id="C3_2_9729791724"/>
     <path d="
M132.996 -315.084
L262.994 -200.512" id="C3_3_c3e78c9236"/>
    </defs>
    <g clip-path="url(#p7ff5b81e1d)">
     <use style="fill:none;stroke:#000000;stroke-opacity:0.4;stroke-width:2;" x="0.0" xlink:href="#C3_0_9c8984f303" y="432.0"/>
    </g>
    <g clip-path="url(#p7ff5b81e1d)">
     <use style="fill:none;stroke:#000000;stroke-opacity:0.4;stroke-width:2;" x="0.0" xlink:href="#C3_1_7df866bc62" y="432.0"/>
    </g>
    <g clip-path="url(#p7ff5b81e1d)">
     <use style="fill:none;stroke:#000000;stroke-opacity:0.4;stroke-width:2;" x="0.0" xlink:href="#C3_2_9729791724" y="432.0"/>
    </g>
    <g clip-path="url(#p7ff5b81e1d)">
     <use style="fill:none;stroke:#000000;stroke-opacity:0.4;stroke-width:2;" x="0.0" xlink:href="#C3_3_c3e78c9236" y="432.0"/>
    </g>
   </g>
   <g id="LineCollection_5">
    <defs>
     <path d="
M309.038 -293.656
L444.677 -235.336" id="C4_0_bfa6e3969c"/>
     <path d="
M132.264 -238.222
L262.994 -200.512" id="C4_1_df6255ca7f"/>
    </defs>
    <g clip-path="url(#p7ff5b81e1d)">
     <use style="fill:none;stroke:#000000;stroke-opacity:0.3;" x="0.0" xlink:href="#C4_0_bfa6e3969c" y="432.0"/>
    </g>
    <g clip-path="url(#p7ff5b81e1d)">
     <use style="fill:none;stroke:#000000;stroke-opacity:0.3;" x="0.0" xlink:href="#C4_1_df6255ca7f" y="432.0"/>
    </g>
   </g>
   <g id="LineCollection_6">
    <defs>
     <path d="
M262.994 -200.512
L132.264 -238.222" id="C5_0_496ace1f78"/>
    </defs>
    <g clip-path="url(#p7ff5b81e1d)">
     <use style="fill:none;stroke:#cd5c5c;stroke-dasharray:6.000000,6.000000;stroke-dashoffset:0.0;stroke-opacity:0.6;stroke-width:5;" x="0.0" xlink:href="#C5_0_496ace1f78" y="432.0"/>
    </g>
   </g>
   <g id="PathCollection_1">
    <defs>
     <path d="
M0 26.4575
C7.01661 26.4575 13.7468 23.6698 18.7083 18.7083
C23.6698 13.7468 26.4575 7.01661 26.4575 0
C26.4575 -7.01661 23.6698 -13.7468 18.7083 -18.7083
C13.7468 -23.6698 7.01661 -26.4575 0 -26.4575
C-7.01661 -26.4575 -13.7468 -23.6698 -18.7083 -18.7083
C-23.6698 -13.7468 -26.4575 -7.01661 -26.4575 0
C-26.4575 7.01661 -23.6698 13.7468 -18.7083 18.7083
C-13.7468 23.6698 -7.01661 26.4575 0 26.4575
z
" id="m7b51eb38a4" style="stroke:#ffffff;"/>
    </defs>
    <g clip-path="url(#p7ff5b81e1d)">
     <use style="fill:#cab2d6;stroke:#ffffff;" x="262.994472" xlink:href="#m7b51eb38a4" y="231.488064"/>
    </g>
   </g>
   <g id="PathCollection_2">
    <defs>
     <path d="
M0 23.9792
C6.35935 23.9792 12.4591 21.4526 16.9558 16.9558
C21.4526 12.4591 23.9792 6.35935 23.9792 0
C23.9792 -6.35935 21.4526 -12.4591 16.9558 -16.9558
C12.4591 -21.4526 6.35935 -23.9792 0 -23.9792
C-6.35935 -23.9792 -12.4591 -21.4526 -16.9558 -16.9558
C-21.4526 -12.4591 -23.9792 -6.35935 -23.9792 0
C-23.9792 6.35935 -21.4526 12.4591 -16.9558 16.9558
C-12.4591 21.4526 -6.35935 23.9792 0 23.9792
z
" id="m40ee9afd51" style="stroke:#ffffff;stroke-opacity:0.6;"/>
    </defs>
    <g clip-path="url(#p7ff5b81e1d)">
     <use style="fill:#33a02c;fill-opacity:0.6;stroke:#ffffff;stroke-opacity:0.6;" x="228.867192" xlink:href="#m40ee9afd51" y="81.7344"/>
     <use style="fill:#33a02c;fill-opacity:0.6;stroke:#ffffff;stroke-opacity:0.6;" x="309.0384" xlink:href="#m40ee9afd51" y="138.34368"/>
     <use style="fill:#33a02c;fill-opacity:0.6;stroke:#ffffff;stroke-opacity:0.6;" x="327.25152" xlink:href="#m40ee9afd51" y="357.09984"/>
     <use style="fill:#33a02c;fill-opacity:0.6;stroke:#ffffff;stroke-opacity:0.6;" x="444.67704" xlink:href="#m40ee9afd51" y="196.66368"/>
     <use style="fill:#33a02c;fill-opacity:0.6;stroke:#ffffff;stroke-opacity:0.6;" x="184.289688" xlink:href="#m40ee9afd51" y="357.696"/>
     <use style="fill:#33a02c;fill-opacity:0.6;stroke:#ffffff;stroke-opacity:0.6;" x="132.996096" xlink:href="#m40ee9afd51" y="116.91648"/>
    </g>
   </g>
   <g id="PathCollection_3">
    <defs>
     <path d="
M0 23.9792
C6.35935 23.9792 12.4591 21.4526 16.9558 16.9558
C21.4526 12.4591 23.9792 6.35935 23.9792 0
C23.9792 -6.35935 21.4526 -12.4591 16.9558 -16.9558
C12.4591 -21.4526 6.35935 -23.9792 0 -23.9792
C-6.35935 -23.9792 -12.4591 -21.4526 -16.9558 -16.9558
C-21.4526 -12.4591 -23.9792 -6.35935 -23.9792 0
C-23.9792 6.35935 -21.4526 12.4591 -16.9558 16.9558
C-12.4591 21.4526 -6.35935 23.9792 0 23.9792
z
" id="mf124c272a1" style="stroke:#ffffff;"/>
    </defs>
    <g clip-path="url(#p7ff5b81e1d)">
     <use style="fill:#cd5c5c;stroke:#ffffff;" x="132.264" xlink:href="#mf124c272a1" y="193.77792"/>
    </g>
   </g>
   <g id="PathCollection_4">
    <defs>
     <path d="
M0 21.7945
C5.77997 21.7945 11.324 19.4981 15.411 15.411
C19.4981 11.324 21.7945 5.77997 21.7945 0
C21.7945 -5.77997 19.4981 -11.324 15.411 -15.411
C11.324 -19.4981 5.77997 -21.7945 0 -21.7945
C-5.77997 -21.7945 -11.324 -19.4981 -15.411 -15.411
C-19.4981 -11.324 -21.7945 -5.77997 -21.7945 0
C-21.7945 5.77997 -19.4981 11.324 -15.411 15.411
C-11.324 19.4981 -5.77997 21.7945 0 21.7945
z
" id="m10f713e06b" style="stroke:#ffffff;"/>
    </defs>
    <g clip-path="url(#p7ff5b81e1d)">
     <use style="fill:#ff7f00;stroke:#ffffff;" x="327.25152" xlink:href="#m10f713e06b" y="357.09984"/>
    </g>
   </g>
   <g id="PathCollection_5">
    <defs>
     <path d="
M0 19.3649
C5.13564 19.3649 10.0616 17.3245 13.6931 13.6931
C17.3245 10.0616 19.3649 5.13564 19.3649 0
C19.3649 -5.13564 17.3245 -10.0616 13.6931 -13.6931
C10.0616 -17.3245 5.13564 -19.3649 0 -19.3649
C-5.13564 -19.3649 -10.0616 -17.3245 -13.6931 -13.6931
C-17.3245 -10.0616 -19.3649 -5.13564 -19.3649 0
C-19.3649 5.13564 -17.3245 10.0616 -13.6931 13.6931
C-10.0616 17.3245 -5.13564 19.3649 0 19.3649
z
" id="mf7d5ae399e" style="stroke:#ffffff;"/>
    </defs>
    <g clip-path="url(#p7ff5b81e1d)">
     <use style="fill:#b2df8a;stroke:#ffffff;" x="444.67704" xlink:href="#mf7d5ae399e" y="196.66368"/>
     <use style="fill:#b2df8a;stroke:#ffffff;" x="184.289688" xlink:href="#mf7d5ae399e" y="357.696"/>
     <use style="fill:#b2df8a;stroke:#ffffff;" x="228.867192" xlink:href="#mf7d5ae399e" y="81.7344"/>
     <use style="fill:#b2df8a;stroke:#ffffff;" x="132.996096" xlink:href="#mf7d5ae399e" y="116.91648"/>
     <use style="fill:#b2df8a;stroke:#ffffff;" x="309.0384" xlink:href="#mf7d5ae399e" y="138.34368"/>
    </g>
   </g>
   <g id="text_1">
    <g clip-path="url(#p7ff5b81e1d)">
     <!-- MT -->
     <defs>
      <path d="
M9.8125 72.9062
L24.5156 72.9062
L43.1094 23.2969
L61.8125 72.9062
L76.5156 72.9062
L76.5156 0
L66.8906 0
L66.8906 64.0156
L48.0938 14.0156
L38.1875 14.0156
L19.3906 64.0156
L19.3906 0
L9.8125 0
z
" id="BitstreamVeraSans-Roman-4d"/>
      <path d="
M-0.296875 72.9062
L61.375 72.9062
L61.375 64.5938
L35.5 64.5938
L35.5 0
L25.5938 0
L25.5938 64.5938
L-0.296875 64.5938
z
" id="BitstreamVeraSans-Roman-54"/>
     </defs>
     <g transform="translate(223.353442 83.9419)scale(0.08 -0.08)">
      <use xlink:href="#BitstreamVeraSans-Roman-4d"/>
      <use x="86.279296875" xlink:href="#BitstreamVeraSans-Roman-54"/>
     </g>
    </g>
   </g>
   <g id="text_2">
    <g clip-path="url(#p7ff5b81e1d)">
     <!-- NO -->
     <defs>
      <path d="
M39.4062 66.2188
Q28.6562 66.2188 22.3281 58.2031
Q16.0156 50.2031 16.0156 36.375
Q16.0156 22.6094 22.3281 14.5938
Q28.6562 6.59375 39.4062 6.59375
Q50.1406 6.59375 56.4219 14.5938
Q62.7031 22.6094 62.7031 36.375
Q62.7031 50.2031 56.4219 58.2031
Q50.1406 66.2188 39.4062 66.2188
M39.4062 74.2188
Q54.7344 74.2188 63.9062 63.9375
Q73.0938 53.6562 73.0938 36.375
Q73.0938 19.1406 63.9062 8.85938
Q54.7344 -1.42188 39.4062 -1.42188
Q24.0312 -1.42188 14.8125 8.82812
Q5.60938 19.0938 5.60938 36.375
Q5.60938 53.6562 14.8125 63.9375
Q24.0312 74.2188 39.4062 74.2188" id="BitstreamVeraSans-Roman-4f"/>
      <path d="
M9.8125 72.9062
L23.0938 72.9062
L55.4219 11.9219
L55.4219 72.9062
L64.9844 72.9062
L64.9844 0
L51.7031 0
L19.3906 60.9844
L19.3906 0
L9.8125 0
z
" id="BitstreamVeraSans-Roman-4e"/>
     </defs>
     <g transform="translate(303.51465 140.55118)scale(0.08 -0.08)">
      <use xlink:href="#BitstreamVeraSans-Roman-4e"/>
      <use x="74.8046875" xlink:href="#BitstreamVeraSans-Roman-4f"/>
     </g>
    </g>
   </g>
   <g id="text_3">
    <g clip-path="url(#p7ff5b81e1d)">
     <!-- EB -->
     <defs>
      <path d="
M9.8125 72.9062
L55.9062 72.9062
L55.9062 64.5938
L19.6719 64.5938
L19.6719 43.0156
L54.3906 43.0156
L54.3906 34.7188
L19.6719 34.7188
L19.6719 8.29688
L56.7812 8.29688
L56.7812 0
L9.8125 0
z
" id="BitstreamVeraSans-Roman-45"/>
      <path d="
M19.6719 34.8125
L19.6719 8.10938
L35.5 8.10938
Q43.4531 8.10938 47.2812 11.4062
Q51.125 14.7031 51.125 21.4844
Q51.125 28.3281 47.2812 31.5625
Q43.4531 34.8125 35.5 34.8125
z

M19.6719 64.7969
L19.6719 42.8281
L34.2812 42.8281
Q41.5 42.8281 45.0312 45.5312
Q48.5781 48.25 48.5781 53.8125
Q48.5781 59.3281 45.0312 62.0625
Q41.5 64.7969 34.2812 64.7969
z

M9.8125 72.9062
L35.0156 72.9062
Q46.2969 72.9062 52.3906 68.2188
Q58.5 63.5312 58.5 54.8906
Q58.5 48.1875 55.375 44.2344
Q52.25 40.2812 46.1875 39.3125
Q53.4688 37.75 57.5 32.7812
Q61.5312 27.8281 61.5312 20.4062
Q61.5312 10.6406 54.8906 5.3125
Q48.25 0 35.9844 0
L9.8125 0
z
" id="BitstreamVeraSans-Roman-42"/>
     </defs>
     <g transform="translate(322.65527 359.30734)scale(0.08 -0.08)">
      <use xlink:href="#BitstreamVeraSans-Roman-45"/>
      <use x="63.18359375" xlink:href="#BitstreamVeraSans-Roman-42"/>
     </g>
    </g>
   </g>
   <g id="text_4">
    <g clip-path="url(#p7ff5b81e1d)">
     <!-- TN -->
     <g transform="translate(439.622665 198.87118)scale(0.08 -0.08)">
      <use xlink:href="#BitstreamVeraSans-Roman-54"/>
      <use x="61.083984375" xlink:href="#BitstreamVeraSans-Roman-4e"/>
     </g>
    </g>
   </g>
   <g id="text_5">
    <g clip-path="url(#p7ff5b81e1d)">
     <!-- WV -->
     <defs>
      <path d="
M28.6094 0
L0.78125 72.9062
L11.0781 72.9062
L34.1875 11.5312
L57.3281 72.9062
L67.5781 72.9062
L39.7969 0
z
" id="BitstreamVeraSans-Roman-56"/>
      <path d="
M3.32812 72.9062
L13.2812 72.9062
L28.6094 11.2812
L43.8906 72.9062
L54.9844 72.9062
L70.3125 11.2812
L85.5938 72.9062
L95.6094 72.9062
L77.2969 0
L64.8906 0
L49.5156 63.2812
L33.9844 0
L21.5781 0
z
" id="BitstreamVeraSans-Roman-57"/>
     </defs>
     <g transform="translate(177.764688 359.9035)scale(0.08 -0.08)">
      <use xlink:href="#BitstreamVeraSans-Roman-57"/>
      <use x="98.876953125" xlink:href="#BitstreamVeraSans-Roman-56"/>
     </g>
    </g>
   </g>
   <g id="text_6">
    <g clip-path="url(#p7ff5b81e1d)">
     <!-- RB -->
     <defs>
      <path d="
M44.3906 34.1875
Q47.5625 33.1094 50.5625 29.5938
Q53.5625 26.0781 56.5938 19.9219
L66.6094 0
L56 0
L46.6875 18.7031
Q43.0625 26.0312 39.6719 28.4219
Q36.2812 30.8125 30.4219 30.8125
L19.6719 30.8125
L19.6719 0
L9.8125 0
L9.8125 72.9062
L32.0781 72.9062
Q44.5781 72.9062 50.7344 67.6719
Q56.8906 62.4531 56.8906 51.9062
Q56.8906 45.0156 53.6875 40.4688
Q50.4844 35.9375 44.3906 34.1875
M19.6719 64.7969
L19.6719 38.9219
L32.0781 38.9219
Q39.2031 38.9219 42.8438 42.2188
Q46.4844 45.5156 46.4844 51.9062
Q46.4844 58.2969 42.8438 61.5469
Q39.2031 64.7969 32.0781 64.7969
z
" id="BitstreamVeraSans-Roman-52"/>
     </defs>
     <g transform="translate(128.147971 119.12398)scale(0.08 -0.08)">
      <use xlink:href="#BitstreamVeraSans-Roman-52"/>
      <use x="69.482421875" xlink:href="#BitstreamVeraSans-Roman-42"/>
     </g>
    </g>
   </g>
   <g id="text_7">
    <g clip-path="url(#p7ff5b81e1d)">
     <!-- GK -->
     <defs>
      <path d="
M59.5156 10.4062
L59.5156 29.9844
L43.4062 29.9844
L43.4062 38.0938
L69.2812 38.0938
L69.2812 6.78125
Q63.5781 2.73438 56.6875 0.65625
Q49.8125 -1.42188 42 -1.42188
Q24.9062 -1.42188 15.25 8.5625
Q5.60938 18.5625 5.60938 36.375
Q5.60938 54.25 15.25 64.2344
Q24.9062 74.2188 42 74.2188
Q49.125 74.2188 55.5469 72.4531
Q61.9688 70.7031 67.3906 67.2812
L67.3906 56.7812
Q61.9219 61.4219 55.7656 63.7656
Q49.6094 66.1094 42.8281 66.1094
Q29.4375 66.1094 22.7188 58.6406
Q16.0156 51.1719 16.0156 36.375
Q16.0156 21.625 22.7188 14.1562
Q29.4375 6.6875 42.8281 6.6875
Q48.0469 6.6875 52.1406 7.59375
Q56.25 8.5 59.5156 10.4062" id="BitstreamVeraSans-Roman-47"/>
      <path d="
M9.8125 72.9062
L19.6719 72.9062
L19.6719 42.0938
L52.3906 72.9062
L65.0938 72.9062
L28.9062 38.9219
L67.6719 0
L54.6875 0
L19.6719 35.1094
L19.6719 0
L9.8125 0
z
" id="BitstreamVeraSans-Roman-4b"/>
     </defs>
     <g transform="translate(126.682125 195.98542)scale(0.08 -0.08)">
      <use xlink:href="#BitstreamVeraSans-Roman-47"/>
      <use x="77.490234375" xlink:href="#BitstreamVeraSans-Roman-4b"/>
     </g>
    </g>
   </g>
   <g id="text_8">
    <g clip-path="url(#p7ff5b81e1d)">
     <!-- Bas A -->
     <defs>
      <path id="BitstreamVeraSans-Roman-20"/>
      <path d="
M34.2812 27.4844
Q23.3906 27.4844 19.1875 25
Q14.9844 22.5156 14.9844 16.5
Q14.9844 11.7188 18.1406 8.90625
Q21.2969 6.10938 26.7031 6.10938
Q34.1875 6.10938 38.7031 11.4062
Q43.2188 16.7031 43.2188 25.4844
L43.2188 27.4844
z

M52.2031 31.2031
L52.2031 0
L43.2188 0
L43.2188 8.29688
Q40.1406 3.32812 35.5469 0.953125
Q30.9531 -1.42188 24.3125 -1.42188
Q15.9219 -1.42188 10.9531 3.29688
Q6 8.01562 6 15.9219
Q6 25.1406 12.1719 29.8281
Q18.3594 34.5156 30.6094 34.5156
L43.2188 34.5156
L43.2188 35.4062
Q43.2188 41.6094 39.1406 45
Q35.0625 48.3906 27.6875 48.3906
Q23 48.3906 18.5469 47.2656
Q14.1094 46.1406 10.0156 43.8906
L10.0156 52.2031
Q14.9375 54.1094 19.5781 55.0469
Q24.2188 56 28.6094 56
Q40.4844 56 46.3438 49.8438
Q52.2031 43.7031 52.2031 31.2031" id="BitstreamVeraSans-Roman-61"/>
      <path d="
M44.2812 53.0781
L44.2812 44.5781
Q40.4844 46.5312 36.375 47.5
Q32.2812 48.4844 27.875 48.4844
Q21.1875 48.4844 17.8438 46.4375
Q14.5 44.3906 14.5 40.2812
Q14.5 37.1562 16.8906 35.375
Q19.2812 33.5938 26.5156 31.9844
L29.5938 31.2969
Q39.1562 29.25 43.1875 25.5156
Q47.2188 21.7812 47.2188 15.0938
Q47.2188 7.46875 41.1875 3.01562
Q35.1562 -1.42188 24.6094 -1.42188
Q20.2188 -1.42188 15.4531 -0.5625
Q10.6875 0.296875 5.42188 2
L5.42188 11.2812
Q10.4062 8.6875 15.2344 7.39062
Q20.0625 6.10938 24.8125 6.10938
Q31.1562 6.10938 34.5625 8.28125
Q37.9844 10.4531 37.9844 14.4062
Q37.9844 18.0625 35.5156 20.0156
Q33.0625 21.9688 24.7031 23.7812
L21.5781 24.5156
Q13.2344 26.2656 9.51562 29.9062
Q5.8125 33.5469 5.8125 39.8906
Q5.8125 47.6094 11.2812 51.7969
Q16.75 56 26.8125 56
Q31.7812 56 36.1719 55.2656
Q40.5781 54.5469 44.2812 53.0781" id="BitstreamVeraSans-Roman-73"/>
      <path d="
M34.1875 63.1875
L20.7969 26.9062
L47.6094 26.9062
z

M28.6094 72.9062
L39.7969 72.9062
L67.5781 0
L57.3281 0
L50.6875 18.7031
L17.8281 18.7031
L11.1875 0
L0.78125 0
z
" id="BitstreamVeraSans-Roman-41"/>
     </defs>
     <g transform="translate(251.740722 233.695564)scale(0.08 -0.08)">
      <use xlink:href="#BitstreamVeraSans-Roman-42"/>
      <use x="68.603515625" xlink:href="#BitstreamVeraSans-Roman-61"/>
      <use x="129.8828125" xlink:href="#BitstreamVeraSans-Roman-73"/>
      <use x="181.982421875" xlink:href="#BitstreamVeraSans-Roman-20"/>
      <use x="213.76953125" xlink:href="#BitstreamVeraSans-Roman-41"/>
     </g>
    </g>
   </g>
  </g>
 </g>
 <defs>
  <clipPath id="p7ff5b81e1d">
   <rect height="345.6" width="446.4" x="72.0" y="43.2"/>
  </clipPath>
 </defs>
</svg>
