<?xml version="1.0" encoding="utf-8" standalone="no"?>
<!DOCTYPE svg PUBLIC "-//W3C//DTD SVG 1.1//EN"
  "http://www.w3.org/Graphics/SVG/1.1/DTD/svg11.dtd">
<!-- Created with matplotlib (http://matplotlib.org/) -->
<svg height="432pt" version="1.1" viewBox="0 0 576 432" width="576pt" xmlns="http://www.w3.org/2000/svg" xmlns:xlink="http://www.w3.org/1999/xlink">
 <defs>
  <style type="text/css">
*{stroke-linecap:butt;stroke-linejoin:round;}
  </style>
 </defs>
 <g id="figure_1">
  <g id="patch_1">
   <path d="
M0 432
L576 432
L576 0
L0 0
z
" style="fill:#ffffff;"/>
  </g>
  <g id="axes_1">
   <g id="LineCollection_1">
    <defs>
     <path d="
M318.636 -224.476
L304.686 -285.742" id="C0_0_ac2cc45868"/>
     <path d="
M318.636 -224.476
L243.127 -203.204" id="C0_1_e9ecb1e828"/>
     <path d="
M318.636 -224.476
L394.145 -203.204" id="C0_2_6cdbbcbb95"/>
     <path d="
M318.636 -224.476
L358.812 -170.604" id="C0_3_f37c08fc51"/>
     <path d="
M318.636 -224.476
L380.195 -264.462" id="C0_4_28d39393bb"/>
     <path d="
M394.145 -203.204
L243.127 -203.204" id="C0_5_71b725eb5a"/>
     <path d="
M394.145 -203.204
L358.812 -170.604" id="C0_6_3a2c71584e"/>
     <path d="
M394.145 -203.204
L469.653 -267.028" id="C0_7_3002862cde"/>
     <path d="
M394.145 -203.204
L398.988 -332.225" id="C0_8_0fe865c352"/>
     <path d="
M394.145 -203.204
L380.195 -264.462" id="C0_9_b47826de3a"/>
     <path d="
M394.145 -203.204
L304.686 -285.742" id="C0_a_cf7f79ca9f"/>
     <path d="
M243.127 -203.204
L195.53 -304.448" id="C0_b_b8b371c717"/>
     <path d="
M243.127 -203.204
L358.812 -170.604" id="C0_c_9a6fd0a65d"/>
     <path d="
M243.127 -203.204
L157.932 -224.476" id="C0_d_6003049095"/>
     <path d="
M243.127 -203.204
L469.653 -267.028" id="C0_e_25f21d8e73"/>
     <path d="
M243.127 -203.204
L398.988 -332.225" id="C0_f_e933ef3ea4"/>
     <path d="
M243.127 -203.204
L380.195 -264.462" id="C0_10_fb7ce6165e"/>
     <path d="
M243.127 -203.204
L304.686 -285.742" id="C0_11_a66923cb98"/>
     <path d="
M243.127 -203.204
L195.53 -144.505" id="C0_12_79b87c5194"/>
     <path d="
M243.127 -203.204
L290.725 -101.952" id="C0_13_0674e454d5"/>
     <path d="
M358.812 -170.604
L380.195 -264.462" id="C0_14_9c4753f09a"/>
     <path d="
M358.812 -170.604
L304.686 -285.742" id="C0_15_c051852782"/>
     <path d="
M358.812 -170.604
L290.725 -101.952" id="C0_16_f858fdca85"/>
     <path d="
M195.53 -304.448
L195.53 -144.505" id="C0_17_6e00ad33ff"/>
     <path d="
M469.653 -267.028
L195.53 -144.505" id="C0_18_49edcd600b"/>
     <path d="
M469.653 -267.028
L398.988 -332.225" id="C0_19_f779187756"/>
     <path d="
M469.653 -267.028
L380.195 -264.462" id="C0_1a_944f1760c9"/>
     <path d="
M469.653 -267.028
L304.686 -285.742" id="C0_1b_6a6a673ffb"/>
     <path d="
M469.653 -267.028
L290.725 -101.952" id="C0_1c_67f713e2e7"/>
     <path d="
M398.988 -332.225
L380.195 -264.462" id="C0_1d_c2f522f7e1"/>
     <path d="
M398.988 -332.225
L304.686 -285.742" id="C0_1e_61780eb6e9"/>
     <path d="
M380.195 -264.462
L304.686 -285.742" id="C0_1f_682c9a73df"/>
    </defs>
    <g clip-path="url(#p7ff5b81e1d)">
     <use style="fill:none;stroke:#808080;stroke-opacity:0.7;" x="0.0" xlink:href="#C0_0_ac2cc45868" y="432.0"/>
    </g>
    <g clip-path="url(#p7ff5b81e1d)">
     <use style="fill:none;stroke:#808080;stroke-opacity:0.7;" x="0.0" xlink:href="#C0_1_e9ecb1e828" y="432.0"/>
    </g>
    <g clip-path="url(#p7ff5b81e1d)">
     <use style="fill:none;stroke:#808080;stroke-opacity:0.7;" x="0.0" xlink:href="#C0_2_6cdbbcbb95" y="432.0"/>
    </g>
    <g clip-path="url(#p7ff5b81e1d)">
     <use style="fill:none;stroke:#808080;stroke-opacity:0.7;" x="0.0" xlink:href="#C0_3_f37c08fc51" y="432.0"/>
    </g>
    <g clip-path="url(#p7ff5b81e1d)">
     <use style="fill:none;stroke:#808080;stroke-opacity:0.7;" x="0.0" xlink:href="#C0_4_28d39393bb" y="432.0"/>
    </g>
    <g clip-path="url(#p7ff5b81e1d)">
     <use style="fill:none;stroke:#808080;stroke-opacity:0.7;" x="0.0" xlink:href="#C0_5_71b725eb5a" y="432.0"/>
    </g>
    <g clip-path="url(#p7ff5b81e1d)">
     <use style="fill:none;stroke:#808080;stroke-opacity:0.7;" x="0.0" xlink:href="#C0_6_3a2c71584e" y="432.0"/>
    </g>
    <g clip-path="url(#p7ff5b81e1d)">
     <use style="fill:none;stroke:#808080;stroke-opacity:0.7;" x="0.0" xlink:href="#C0_7_3002862cde" y="432.0"/>
    </g>
    <g clip-path="url(#p7ff5b81e1d)">
     <use style="fill:none;stroke:#808080;stroke-opacity:0.7;" x="0.0" xlink:href="#C0_8_0fe865c352" y="432.0"/>
    </g>
    <g clip-path="url(#p7ff5b81e1d)">
     <use style="fill:none;stroke:#808080;stroke-opacity:0.7;" x="0.0" xlink:href="#C0_9_b47826de3a" y="432.0"/>
    </g>
    <g clip-path="url(#p7ff5b81e1d)">
     <use style="fill:none;stroke:#808080;stroke-opacity:0.7;" x="0.0" xlink:href="#C0_a_cf7f79ca9f" y="432.0"/>
    </g>
    <g clip-path="url(#p7ff5b81e1d)">
     <use style="fill:none;stroke:#808080;stroke-opacity:0.7;" x="0.0" xlink:href="#C0_b_b8b371c717" y="432.0"/>
    </g>
    <g clip-path="url(#p7ff5b81e1d)">
     <use style="fill:none;stroke:#808080;stroke-opacity:0.7;" x="0.0" xlink:href="#C0_c_9a6fd0a65d" y="432.0"/>
    </g>
    <g clip-path="url(#p7ff5b81e1d)">
     <use style="fill:none;stroke:#808080;stroke-opacity:0.7;" x="0.0" xlink:href="#C0_d_6003049095" y="432.0"/>
    </g>
    <g clip-path="url(#p7ff5b81e1d)">
     <use style="fill:none;stroke:#808080;stroke-opacity:0.7;" x="0.0" xlink:href="#C0_e_25f21d8e73" y="432.0"/>
    </g>
    <g clip-path="url(#p7ff5b81e1d)">
     <use style="fill:none;stroke:#808080;stroke-opacity:0.7;" x="0.0" xlink:href="#C0_f_e933ef3ea4" y="432.0"/>
    </g>
    <g clip-path="url(#p7ff5b81e1d)">
     <use style="fill:none;stroke:#808080;stroke-opacity:0.7;" x="0.0" xlink:href="#C0_10_fb7ce6165e" y="432.0"/>
    </g>
    <g clip-path="url(#p7ff5b81e1d)">
     <use style="fill:none;stroke:#808080;stroke-opacity:0.7;" x="0.0" xlink:href="#C0_11_a66923cb98" y="432.0"/>
    </g>
    <g clip-path="url(#p7ff5b81e1d)">
     <use style="fill:none;stroke:#808080;stroke-opacity:0.7;" x="0.0" xlink:href="#C0_12_79b87c5194" y="432.0"/>
    </g>
    <g clip-path="url(#p7ff5b81e1d)">
     <use style="fill:none;stroke:#808080;stroke-opacity:0.7;" x="0.0" xlink:href="#C0_13_0674e454d5" y="432.0"/>
    </g>
    <g clip-path="url(#p7ff5b81e1d)">
     <use style="fill:none;stroke:#808080;stroke-opacity:0.7;" x="0.0" xlink:href="#C0_14_9c4753f09a" y="432.0"/>
    </g>
    <g clip-path="url(#p7ff5b81e1d)">
     <use style="fill:none;stroke:#808080;stroke-opacity:0.7;" x="0.0" xlink:href="#C0_15_c051852782" y="432.0"/>
    </g>
    <g clip-path="url(#p7ff5b81e1d)">
     <use style="fill:none;stroke:#808080;stroke-opacity:0.7;" x="0.0" xlink:href="#C0_16_f858fdca85" y="432.0"/>
    </g>
    <g clip-path="url(#p7ff5b81e1d)">
     <use style="fill:none;stroke:#808080;stroke-opacity:0.7;" x="0.0" xlink:href="#C0_17_6e00ad33ff" y="432.0"/>
    </g>
    <g clip-path="url(#p7ff5b81e1d)">
     <use style="fill:none;stroke:#808080;stroke-opacity:0.7;" x="0.0" xlink:href="#C0_18_49edcd600b" y="432.0"/>
    </g>
    <g clip-path="url(#p7ff5b81e1d)">
     <use style="fill:none;stroke:#808080;stroke-opacity:0.7;" x="0.0" xlink:href="#C0_19_f779187756" y="432.0"/>
    </g>
    <g clip-path="url(#p7ff5b81e1d)">
     <use style="fill:none;stroke:#808080;stroke-opacity:0.7;" x="0.0" xlink:href="#C0_1a_944f1760c9" y="432.0"/>
    </g>
    <g clip-path="url(#p7ff5b81e1d)">
     <use style="fill:none;stroke:#808080;stroke-opacity:0.7;" x="0.0" xlink:href="#C0_1b_6a6a673ffb" y="432.0"/>
    </g>
    <g clip-path="url(#p7ff5b81e1d)">
     <use style="fill:none;stroke:#808080;stroke-opacity:0.7;" x="0.0" xlink:href="#C0_1c_67f713e2e7" y="432.0"/>
    </g>
    <g clip-path="url(#p7ff5b81e1d)">
     <use style="fill:none;stroke:#808080;stroke-opacity:0.7;" x="0.0" xlink:href="#C0_1d_c2f522f7e1" y="432.0"/>
    </g>
    <g clip-path="url(#p7ff5b81e1d)">
     <use style="fill:none;stroke:#808080;stroke-opacity:0.7;" x="0.0" xlink:href="#C0_1e_61780eb6e9" y="432.0"/>
    </g>
    <g clip-path="url(#p7ff5b81e1d)">
     <use style="fill:none;stroke:#808080;stroke-opacity:0.7;" x="0.0" xlink:href="#C0_1f_682c9a73df" y="432.0"/>
    </g>
   </g>
   <g id="LineCollection_2">
    <defs>
     <path d="
M394.145 -203.204
L243.127 -203.204" id="C1_0_71b725eb5a"/>
     <path d="
M243.127 -203.204
L358.812 -170.604" id="C1_1_9a6fd0a65d"/>
     <path d="
M243.127 -203.204
L157.932 -224.476" id="C1_2_6003049095"/>
     <path d="
M243.127 -203.204
L469.653 -267.028" id="C1_3_25f21d8e73"/>
     <path d="
M243.127 -203.204
L304.686 -285.742" id="C1_4_a66923cb98"/>
     <path d="
M358.812 -170.604
L380.195 -264.462" id="C1_5_9c4753f09a"/>
     <path d="
M469.653 -267.028
L398.988 -332.225" id="C1_6_f779187756"/>
    </defs>
    <g clip-path="url(#p7ff5b81e1d)">
     <use style="fill:none;stroke:#000000;stroke-opacity:0.6;stroke-width:4;" x="0.0" xlink:href="#C1_0_71b725eb5a" y="432.0"/>
    </g>
    <g clip-path="url(#p7ff5b81e1d)">
     <use style="fill:none;stroke:#000000;stroke-opacity:0.6;stroke-width:4;" x="0.0" xlink:href="#C1_1_9a6fd0a65d" y="432.0"/>
    </g>
    <g clip-path="url(#p7ff5b81e1d)">
     <use style="fill:none;stroke:#000000;stroke-opacity:0.6;stroke-width:4;" x="0.0" xlink:href="#C1_2_6003049095" y="432.0"/>
    </g>
    <g clip-path="url(#p7ff5b81e1d)">
     <use style="fill:none;stroke:#000000;stroke-opacity:0.6;stroke-width:4;" x="0.0" xlink:href="#C1_3_25f21d8e73" y="432.0"/>
    </g>
    <g clip-path="url(#p7ff5b81e1d)">
     <use style="fill:none;stroke:#000000;stroke-opacity:0.6;stroke-width:4;" x="0.0" xlink:href="#C1_4_a66923cb98" y="432.0"/>
    </g>
    <g clip-path="url(#p7ff5b81e1d)">
     <use style="fill:none;stroke:#000000;stroke-opacity:0.6;stroke-width:4;" x="0.0" xlink:href="#C1_5_9c4753f09a" y="432.0"/>
    </g>
    <g clip-path="url(#p7ff5b81e1d)">
     <use style="fill:none;stroke:#000000;stroke-opacity:0.6;stroke-width:4;" x="0.0" xlink:href="#C1_6_f779187756" y="432.0"/>
    </g>
   </g>
   <g id="LineCollection_3">
    <defs>
     <path d="
M318.636 -224.476
L243.127 -203.204" id="C2_0_e9ecb1e828"/>
     <path d="
M318.636 -224.476
L358.812 -170.604" id="C2_1_f37c08fc51"/>
     <path d="
M394.145 -203.204
L358.812 -170.604" id="C2_2_3a2c71584e"/>
     <path d="
M394.145 -203.204
L469.653 -267.028" id="C2_3_3002862cde"/>
     <path d="
M394.145 -203.204
L380.195 -264.462" id="C2_4_b47826de3a"/>
     <path d="
M243.127 -203.204
L195.53 -304.448" id="C2_5_b8b371c717"/>
     <path d="
M243.127 -203.204
L398.988 -332.225" id="C2_6_e933ef3ea4"/>
     <path d="
M243.127 -203.204
L380.195 -264.462" id="C2_7_fb7ce6165e"/>
     <path d="
M358.812 -170.604
L304.686 -285.742" id="C2_8_c051852782"/>
     <path d="
M469.653 -267.028
L290.725 -101.952" id="C2_9_67f713e2e7"/>
    </defs>
    <g clip-path="url(#p7ff5b81e1d)">
     <use style="fill:none;stroke:#000000;stroke-opacity:0.5;stroke-width:3;" x="0.0" xlink:href="#C2_0_e9ecb1e828" y="432.0"/>
    </g>
    <g clip-path="url(#p7ff5b81e1d)">
     <use style="fill:none;stroke:#000000;stroke-opacity:0.5;stroke-width:3;" x="0.0" xlink:href="#C2_1_f37c08fc51" y="432.0"/>
    </g>
    <g clip-path="url(#p7ff5b81e1d)">
     <use style="fill:none;stroke:#000000;stroke-opacity:0.5;stroke-width:3;" x="0.0" xlink:href="#C2_2_3a2c71584e" y="432.0"/>
    </g>
    <g clip-path="url(#p7ff5b81e1d)">
     <use style="fill:none;stroke:#000000;stroke-opacity:0.5;stroke-width:3;" x="0.0" xlink:href="#C2_3_3002862cde" y="432.0"/>
    </g>
    <g clip-path="url(#p7ff5b81e1d)">
     <use style="fill:none;stroke:#000000;stroke-opacity:0.5;stroke-width:3;" x="0.0" xlink:href="#C2_4_b47826de3a" y="432.0"/>
    </g>
    <g clip-path="url(#p7ff5b81e1d)">
     <use style="fill:none;stroke:#000000;stroke-opacity:0.5;stroke-width:3;" x="0.0" xlink:href="#C2_5_b8b371c717" y="432.0"/>
    </g>
    <g clip-path="url(#p7ff5b81e1d)">
     <use style="fill:none;stroke:#000000;stroke-opacity:0.5;stroke-width:3;" x="0.0" xlink:href="#C2_6_e933ef3ea4" y="432.0"/>
    </g>
    <g clip-path="url(#p7ff5b81e1d)">
     <use style="fill:none;stroke:#000000;stroke-opacity:0.5;stroke-width:3;" x="0.0" xlink:href="#C2_7_fb7ce6165e" y="432.0"/>
    </g>
    <g clip-path="url(#p7ff5b81e1d)">
     <use style="fill:none;stroke:#000000;stroke-opacity:0.5;stroke-width:3;" x="0.0" xlink:href="#C2_8_c051852782" y="432.0"/>
    </g>
    <g clip-path="url(#p7ff5b81e1d)">
     <use style="fill:none;stroke:#000000;stroke-opacity:0.5;stroke-width:3;" x="0.0" xlink:href="#C2_9_67f713e2e7" y="432.0"/>
    </g>
   </g>
   <g id="LineCollection_4">
    <defs>
     <path d="
M318.636 -224.476
L304.686 -285.742" id="C3_0_ac2cc45868"/>
     <path d="
M318.636 -224.476
L394.145 -203.204" id="C3_1_6cdbbcbb95"/>
     <path d="
M318.636 -224.476
L380.195 -264.462" id="C3_2_28d39393bb"/>
     <path d="
M394.145 -203.204
L398.988 -332.225" id="C3_3_0fe865c352"/>
     <path d="
M394.145 -203.204
L304.686 -285.742" id="C3_4_cf7f79ca9f"/>
     <path d="
M243.127 -203.204
L195.53 -144.505" id="C3_5_79b87c5194"/>
     <path d="
M358.812 -170.604
L290.725 -101.952" id="C3_6_f858fdca85"/>
     <path d="
M195.53 -304.448
L195.53 -144.505" id="C3_7_6e00ad33ff"/>
     <path d="
M469.653 -267.028
L195.53 -144.505" id="C3_8_49edcd600b"/>
     <path d="
M469.653 -267.028
L380.195 -264.462" id="C3_9_944f1760c9"/>
     <path d="
M469.653 -267.028
L304.686 -285.742" id="C3_a_6a6a673ffb"/>
     <path d="
M398.988 -332.225
L380.195 -264.462" id="C3_b_c2f522f7e1"/>
     <path d="
M398.988 -332.225
L304.686 -285.742" id="C3_c_61780eb6e9"/>
     <path d="
M380.195 -264.462
L304.686 -285.742" id="C3_d_682c9a73df"/>
    </defs>
    <g clip-path="url(#p7ff5b81e1d)">
     <use style="fill:none;stroke:#000000;stroke-opacity:0.4;stroke-width:2;" x="0.0" xlink:href="#C3_0_ac2cc45868" y="432.0"/>
    </g>
    <g clip-path="url(#p7ff5b81e1d)">
     <use style="fill:none;stroke:#000000;stroke-opacity:0.4;stroke-width:2;" x="0.0" xlink:href="#C3_1_6cdbbcbb95" y="432.0"/>
    </g>
    <g clip-path="url(#p7ff5b81e1d)">
     <use style="fill:none;stroke:#000000;stroke-opacity:0.4;stroke-width:2;" x="0.0" xlink:href="#C3_2_28d39393bb" y="432.0"/>
    </g>
    <g clip-path="url(#p7ff5b81e1d)">
     <use style="fill:none;stroke:#000000;stroke-opacity:0.4;stroke-width:2;" x="0.0" xlink:href="#C3_3_0fe865c352" y="432.0"/>
    </g>
    <g clip-path="url(#p7ff5b81e1d)">
     <use style="fill:none;stroke:#000000;stroke-opacity:0.4;stroke-width:2;" x="0.0" xlink:href="#C3_4_cf7f79ca9f" y="432.0"/>
    </g>
    <g clip-path="url(#p7ff5b81e1d)">
     <use style="fill:none;stroke:#000000;stroke-opacity:0.4;stroke-width:2;" x="0.0" xlink:href="#C3_5_79b87c5194" y="432.0"/>
    </g>
    <g clip-path="url(#p7ff5b81e1d)">
     <use style="fill:none;stroke:#000000;stroke-opacity:0.4;stroke-width:2;" x="0.0" xlink:href="#C3_6_f858fdca85" y="432.0"/>
    </g>
    <g clip-path="url(#p7ff5b81e1d)">
     <use style="fill:none;stroke:#000000;stroke-opacity:0.4;stroke-width:2;" x="0.0" xlink:href="#C3_7_6e00ad33ff" y="432.0"/>
    </g>
    <g clip-path="url(#p7ff5b81e1d)">
     <use style="fill:none;stroke:#000000;stroke-opacity:0.4;stroke-width:2;" x="0.0" xlink:href="#C3_8_49edcd600b" y="432.0"/>
    </g>
    <g clip-path="url(#p7ff5b81e1d)">
     <use style="fill:none;stroke:#000000;stroke-opacity:0.4;stroke-width:2;" x="0.0" xlink:href="#C3_9_944f1760c9" y="432.0"/>
    </g>
    <g clip-path="url(#p7ff5b81e1d)">
     <use style="fill:none;stroke:#000000;stroke-opacity:0.4;stroke-width:2;" x="0.0" xlink:href="#C3_a_6a6a673ffb" y="432.0"/>
    </g>
    <g clip-path="url(#p7ff5b81e1d)">
     <use style="fill:none;stroke:#000000;stroke-opacity:0.4;stroke-width:2;" x="0.0" xlink:href="#C3_b_c2f522f7e1" y="432.0"/>
    </g>
    <g clip-path="url(#p7ff5b81e1d)">
     <use style="fill:none;stroke:#000000;stroke-opacity:0.4;stroke-width:2;" x="0.0" xlink:href="#C3_c_61780eb6e9" y="432.0"/>
    </g>
    <g clip-path="url(#p7ff5b81e1d)">
     <use style="fill:none;stroke:#000000;stroke-opacity:0.4;stroke-width:2;" x="0.0" xlink:href="#C3_d_682c9a73df" y="432.0"/>
    </g>
   </g>
   <g id="LineCollection_5">
    <defs>
     <path d="
M243.127 -203.204
L290.725 -101.952" id="C4_0_0674e454d5"/>
    </defs>
    <g clip-path="url(#p7ff5b81e1d)">
     <use style="fill:none;stroke:#000000;stroke-opacity:0.3;" x="0.0" xlink:href="#C4_0_0674e454d5" y="432.0"/>
    </g>
   </g>
   <g id="LineCollection_6">
    <defs>
     <path d="
M243.127 -203.204
L318.636 -224.476" id="C5_0_185f4ffa1e"/>
     <path d="
M243.127 -203.204
L304.686 -285.742" id="C5_1_a66923cb98"/>
     <path d="
M243.127 -203.204
L195.53 -144.505" id="C5_2_79b87c5194"/>
    </defs>
    <g clip-path="url(#p7ff5b81e1d)">
     <use style="fill:none;stroke:#cd5c5c;stroke-dasharray:6.000000,6.000000;stroke-dashoffset:0.0;stroke-opacity:0.6;stroke-width:5;" x="0.0" xlink:href="#C5_0_185f4ffa1e" y="432.0"/>
    </g>
    <g clip-path="url(#p7ff5b81e1d)">
     <use style="fill:none;stroke:#cd5c5c;stroke-dasharray:6.000000,6.000000;stroke-dashoffset:0.0;stroke-opacity:0.6;stroke-width:5;" x="0.0" xlink:href="#C5_1_a66923cb98" y="432.0"/>
    </g>
    <g clip-path="url(#p7ff5b81e1d)">
     <use style="fill:none;stroke:#cd5c5c;stroke-dasharray:6.000000,6.000000;stroke-dashoffset:0.0;stroke-opacity:0.6;stroke-width:5;" x="0.0" xlink:href="#C5_2_79b87c5194" y="432.0"/>
    </g>
   </g>
   <g id="LineCollection_7">
    <defs>
     <path d="
M243.127 -203.204
L358.812 -170.604" id="C6_0_9a6fd0a65d"/>
    </defs>
    <g clip-path="url(#p7ff5b81e1d)">
     <use style="fill:none;stroke:#33a02c;stroke-dasharray:6.000000,6.000000;stroke-dashoffset:0.0;stroke-opacity:0.6;stroke-width:5;" x="0.0" xlink:href="#C6_0_9a6fd0a65d" y="432.0"/>
    </g>
   </g>
   <g id="PathCollection_1">
    <defs>
     <path d="
M0 26.4575
C7.01661 26.4575 13.7468 23.6698 18.7083 18.7083
C23.6698 13.7468 26.4575 7.01661 26.4575 0
C26.4575 -7.01661 23.6698 -13.7468 18.7083 -18.7083
C13.7468 -23.6698 7.01661 -26.4575 0 -26.4575
C-7.01661 -26.4575 -13.7468 -23.6698 -18.7083 -18.7083
C-23.6698 -13.7468 -26.4575 -7.01661 -26.4575 0
C-26.4575 7.01661 -23.6698 13.7468 -18.7083 18.7083
C-13.7468 23.6698 -7.01661 26.4575 0 26.4575
z
" id="m7b51eb38a4" style="stroke:#ffffff;"/>
    </defs>
    <g clip-path="url(#p7ff5b81e1d)">
     <use style="fill:#cab2d6;stroke:#ffffff;" x="243.12744" xlink:href="#m7b51eb38a4" y="228.79584"/>
    </g>
   </g>
   <g id="PathCollection_2">
    <defs>
     <path d="
M0 23.9792
C6.35935 23.9792 12.4591 21.4526 16.9558 16.9558
C21.4526 12.4591 23.9792 6.35935 23.9792 0
C23.9792 -6.35935 21.4526 -12.4591 16.9558 -16.9558
C12.4591 -21.4526 6.35935 -23.9792 0 -23.9792
C-6.35935 -23.9792 -12.4591 -21.4526 -16.9558 -16.9558
C-21.4526 -12.4591 -23.9792 -6.35935 -23.9792 0
C-23.9792 6.35935 -21.4526 12.4591 -16.9558 16.9558
C-12.4591 21.4526 -6.35935 23.9792 0 23.9792
z
" id="m40ee9afd51" style="stroke:#ffffff;stroke-opacity:0.6;"/>
    </defs>
    <g clip-path="url(#p7ff5b81e1d)">
     <use style="fill:#33a02c;fill-opacity:0.6;stroke:#ffffff;stroke-opacity:0.6;" x="318.636" xlink:href="#m40ee9afd51" y="207.52416"/>
     <use style="fill:#33a02c;fill-opacity:0.6;stroke:#ffffff;stroke-opacity:0.6;" x="157.932" xlink:href="#m40ee9afd51" y="207.52416"/>
     <use style="fill:#33a02c;fill-opacity:0.6;stroke:#ffffff;stroke-opacity:0.6;" x="195.53004" xlink:href="#m40ee9afd51" y="127.55232"/>
     <use style="fill:#33a02c;fill-opacity:0.6;stroke:#ffffff;stroke-opacity:0.6;" x="358.812" xlink:href="#m40ee9afd51" y="261.396288"/>
     <use style="fill:#33a02c;fill-opacity:0.6;stroke:#ffffff;stroke-opacity:0.6;" x="469.65312" xlink:href="#m40ee9afd51" y="164.97216"/>
     <use style="fill:#33a02c;fill-opacity:0.6;stroke:#ffffff;stroke-opacity:0.6;" x="398.988" xlink:href="#m40ee9afd51" y="99.77472"/>
     <use style="fill:#33a02c;fill-opacity:0.6;stroke:#ffffff;stroke-opacity:0.6;" x="380.19456" xlink:href="#m40ee9afd51" y="167.53824"/>
     <use style="fill:#33a02c;fill-opacity:0.6;stroke:#ffffff;stroke-opacity:0.6;" x="304.686" xlink:href="#m40ee9afd51" y="146.25792"/>
     <use style="fill:#33a02c;fill-opacity:0.6;stroke:#ffffff;stroke-opacity:0.6;" x="394.14456" xlink:href="#m40ee9afd51" y="228.79584"/>
     <use style="fill:#33a02c;fill-opacity:0.6;stroke:#ffffff;stroke-opacity:0.6;" x="290.72484" xlink:href="#m40ee9afd51" y="330.048"/>
    </g>
   </g>
   <g id="PathCollection_3">
    <defs>
     <path d="
M0 23.9792
C6.35935 23.9792 12.4591 21.4526 16.9558 16.9558
C21.4526 12.4591 23.9792 6.35935 23.9792 0
C23.9792 -6.35935 21.4526 -12.4591 16.9558 -16.9558
C12.4591 -21.4526 6.35935 -23.9792 0 -23.9792
C-6.35935 -23.9792 -12.4591 -21.4526 -16.9558 -16.9558
C-21.4526 -12.4591 -23.9792 -6.35935 -23.9792 0
C-23.9792 6.35935 -21.4526 12.4591 -16.9558 16.9558
C-12.4591 21.4526 -6.35935 23.9792 0 23.9792
z
" id="mf124c272a1" style="stroke:#ffffff;"/>
    </defs>
    <g clip-path="url(#p7ff5b81e1d)">
     <use style="fill:#cd5c5c;stroke:#ffffff;" x="304.686" xlink:href="#mf124c272a1" y="146.25792"/>
     <use style="fill:#cd5c5c;stroke:#ffffff;" x="318.636" xlink:href="#mf124c272a1" y="207.52416"/>
     <use style="fill:#cd5c5c;stroke:#ffffff;" x="195.53004" xlink:href="#mf124c272a1" y="287.495136"/>
    </g>
   </g>
   <g id="PathCollection_4">
    <defs>
     <path d="
M0 20.6155
C5.4673 20.6155 10.7114 18.4433 14.5774 14.5774
C18.4433 10.7114 20.6155 5.4673 20.6155 0
C20.6155 -5.4673 18.4433 -10.7114 14.5774 -14.5774
C10.7114 -18.4433 5.4673 -20.6155 0 -20.6155
C-5.4673 -20.6155 -10.7114 -18.4433 -14.5774 -14.5774
C-18.4433 -10.7114 -20.6155 -5.4673 -20.6155 0
C-20.6155 5.4673 -18.4433 10.7114 -14.5774 14.5774
C-10.7114 18.4433 -5.4673 20.6155 0 20.6155
z
" id="mb3f8d1181c" style="stroke:#ffffff;"/>
    </defs>
    <g clip-path="url(#p7ff5b81e1d)">
     <use style="fill:#a6cee3;stroke:#ffffff;" x="469.65312" xlink:href="#mb3f8d1181c" y="164.97216"/>
    </g>
   </g>
   <g id="PathCollection_5">
    <defs>
     <path d="
M0 21.7945
C5.77997 21.7945 11.324 19.4981 15.411 15.411
C19.4981 11.324 21.7945 5.77997 21.7945 0
C21.7945 -5.77997 19.4981 -11.324 15.411 -15.411
C11.324 -19.4981 5.77997 -21.7945 0 -21.7945
C-5.77997 -21.7945 -11.324 -19.4981 -15.411 -15.411
C-19.4981 -11.324 -21.7945 -5.77997 -21.7945 0
C-21.7945 5.77997 -19.4981 11.324 -15.411 15.411
C-11.324 19.4981 -5.77997 21.7945 0 21.7945
z
" id="m10f713e06b" style="stroke:#ffffff;"/>
    </defs>
    <g clip-path="url(#p7ff5b81e1d)">
     <use style="fill:#ff7f00;stroke:#ffffff;" x="157.932" xlink:href="#m10f713e06b" y="207.52416"/>
    </g>
   </g>
   <g id="PathCollection_6">
    <defs>
     <path d="
M0 19.3649
C5.13564 19.3649 10.0616 17.3245 13.6931 13.6931
C17.3245 10.0616 19.3649 5.13564 19.3649 0
C19.3649 -5.13564 17.3245 -10.0616 13.6931 -13.6931
C10.0616 -17.3245 5.13564 -19.3649 0 -19.3649
C-5.13564 -19.3649 -10.0616 -17.3245 -13.6931 -13.6931
C-17.3245 -10.0616 -19.3649 -5.13564 -19.3649 0
C-19.3649 5.13564 -17.3245 10.0616 -13.6931 13.6931
C-10.0616 17.3245 -5.13564 19.3649 0 19.3649
z
" id="mf7d5ae399e" style="stroke:#ffffff;"/>
    </defs>
    <g clip-path="url(#p7ff5b81e1d)">
     <use style="fill:#b2df8a;stroke:#ffffff;" x="195.53004" xlink:href="#mf7d5ae399e" y="127.55232"/>
     <use style="fill:#b2df8a;stroke:#ffffff;" x="358.812" xlink:href="#mf7d5ae399e" y="261.396288"/>
     <use style="fill:#b2df8a;stroke:#ffffff;" x="398.988" xlink:href="#mf7d5ae399e" y="99.77472"/>
     <use style="fill:#b2df8a;stroke:#ffffff;" x="380.19456" xlink:href="#mf7d5ae399e" y="167.53824"/>
     <use style="fill:#b2df8a;stroke:#ffffff;" x="394.14456" xlink:href="#mf7d5ae399e" y="228.79584"/>
     <use style="fill:#b2df8a;stroke:#ffffff;" x="290.72484" xlink:href="#mf7d5ae399e" y="330.048"/>
    </g>
   </g>
   <g id="text_1">
    <g clip-path="url(#p7ff5b81e1d)">
     <!-- Jakub -->
     <defs>
      <path d="
M48.6875 27.2969
Q48.6875 37.2031 44.6094 42.8438
Q40.5312 48.4844 33.4062 48.4844
Q26.2656 48.4844 22.1875 42.8438
Q18.1094 37.2031 18.1094 27.2969
Q18.1094 17.3906 22.1875 11.75
Q26.2656 6.10938 33.4062 6.10938
Q40.5312 6.10938 44.6094 11.75
Q48.6875 17.3906 48.6875 27.2969
M18.1094 46.3906
Q20.9531 51.2656 25.2656 53.625
Q29.5938 56 35.5938 56
Q45.5625 56 51.7812 48.0938
Q58.0156 40.1875 58.0156 27.2969
Q58.0156 14.4062 51.7812 6.48438
Q45.5625 -1.42188 35.5938 -1.42188
Q29.5938 -1.42188 25.2656 0.953125
Q20.9531 3.32812 18.1094 8.20312
L18.1094 0
L9.07812 0
L9.07812 75.9844
L18.1094 75.9844
z
" id="BitstreamVeraSans-Roman-62"/>
      <path d="
M8.5 21.5781
L8.5 54.6875
L17.4844 54.6875
L17.4844 21.9219
Q17.4844 14.1562 20.5 10.2656
Q23.5312 6.39062 29.5938 6.39062
Q36.8594 6.39062 41.0781 11.0312
Q45.3125 15.6719 45.3125 23.6875
L45.3125 54.6875
L54.2969 54.6875
L54.2969 0
L45.3125 0
L45.3125 8.40625
Q42.0469 3.42188 37.7188 1
Q33.4062 -1.42188 27.6875 -1.42188
Q18.2656 -1.42188 13.375 4.4375
Q8.5 10.2969 8.5 21.5781" id="BitstreamVeraSans-Roman-75"/>
      <path d="
M34.2812 27.4844
Q23.3906 27.4844 19.1875 25
Q14.9844 22.5156 14.9844 16.5
Q14.9844 11.7188 18.1406 8.90625
Q21.2969 6.10938 26.7031 6.10938
Q34.1875 6.10938 38.7031 11.4062
Q43.2188 16.7031 43.2188 25.4844
L43.2188 27.4844
z

M52.2031 31.2031
L52.2031 0
L43.2188 0
L43.2188 8.29688
Q40.1406 3.32812 35.5469 0.953125
Q30.9531 -1.42188 24.3125 -1.42188
Q15.9219 -1.42188 10.9531 3.29688
Q6 8.01562 6 15.9219
Q6 25.1406 12.1719 29.8281
Q18.3594 34.5156 30.6094 34.5156
L43.2188 34.5156
L43.2188 35.4062
Q43.2188 41.6094 39.1406 45
Q35.0625 48.3906 27.6875 48.3906
Q23 48.3906 18.5469 47.2656
Q14.1094 46.1406 10.0156 43.8906
L10.0156 52.2031
Q14.9375 54.1094 19.5781 55.0469
Q24.2188 56 28.6094 56
Q40.4844 56 46.3438 49.8438
Q52.2031 43.7031 52.2031 31.2031" id="BitstreamVeraSans-Roman-61"/>
      <path d="
M9.8125 72.9062
L19.6719 72.9062
L19.6719 5.07812
Q19.6719 -8.10938 14.6719 -14.0625
Q9.67188 -20.0156 -1.42188 -20.0156
L-5.17188 -20.0156
L-5.17188 -11.7188
L-2.09375 -11.7188
Q4.4375 -11.7188 7.125 -8.04688
Q9.8125 -4.39062 9.8125 5.07812
z
" id="BitstreamVeraSans-Roman-4a"/>
      <path d="
M9.07812 75.9844
L18.1094 75.9844
L18.1094 31.1094
L44.9219 54.6875
L56.3906 54.6875
L27.3906 29.1094
L57.625 0
L45.9062 0
L18.1094 26.7031
L18.1094 0
L9.07812 0
z
" id="BitstreamVeraSans-Roman-6b"/>
     </defs>
     <g transform="translate(307.751 209.73166)scale(0.08 -0.08)">
      <use xlink:href="#BitstreamVeraSans-Roman-4a"/>
      <use x="29.4921875" xlink:href="#BitstreamVeraSans-Roman-61"/>
      <use x="90.771484375" xlink:href="#BitstreamVeraSans-Roman-6b"/>
      <use x="145.556640625" xlink:href="#BitstreamVeraSans-Roman-75"/>
      <use x="208.935546875" xlink:href="#BitstreamVeraSans-Roman-62"/>
     </g>
    </g>
   </g>
   <g id="text_2">
    <g clip-path="url(#p7ff5b81e1d)">
     <!-- Mikael -->
     <defs>
      <path d="
M56.2031 29.5938
L56.2031 25.2031
L14.8906 25.2031
Q15.4844 15.9219 20.4844 11.0625
Q25.4844 6.20312 34.4219 6.20312
Q39.5938 6.20312 44.4531 7.46875
Q49.3125 8.73438 54.1094 11.2812
L54.1094 2.78125
Q49.2656 0.734375 44.1875 -0.34375
Q39.1094 -1.42188 33.8906 -1.42188
Q20.7969 -1.42188 13.1562 6.1875
Q5.51562 13.8125 5.51562 26.8125
Q5.51562 40.2344 12.7656 48.1094
Q20.0156 56 32.3281 56
Q43.3594 56 49.7812 48.8906
Q56.2031 41.7969 56.2031 29.5938
M47.2188 32.2344
Q47.125 39.5938 43.0938 43.9844
Q39.0625 48.3906 32.4219 48.3906
Q24.9062 48.3906 20.3906 44.1406
Q15.875 39.8906 15.1875 32.1719
z
" id="BitstreamVeraSans-Roman-65"/>
      <path d="
M9.8125 72.9062
L24.5156 72.9062
L43.1094 23.2969
L61.8125 72.9062
L76.5156 72.9062
L76.5156 0
L66.8906 0
L66.8906 64.0156
L48.0938 14.0156
L38.1875 14.0156
L19.3906 64.0156
L19.3906 0
L9.8125 0
z
" id="BitstreamVeraSans-Roman-4d"/>
      <path d="
M9.42188 54.6875
L18.4062 54.6875
L18.4062 0
L9.42188 0
z

M9.42188 75.9844
L18.4062 75.9844
L18.4062 64.5938
L9.42188 64.5938
z
" id="BitstreamVeraSans-Roman-69"/>
      <path d="
M9.42188 75.9844
L18.4062 75.9844
L18.4062 0
L9.42188 0
z
" id="BitstreamVeraSans-Roman-6c"/>
     </defs>
     <g transform="translate(145.867 209.73166)scale(0.08 -0.08)">
      <use xlink:href="#BitstreamVeraSans-Roman-4d"/>
      <use x="86.279296875" xlink:href="#BitstreamVeraSans-Roman-69"/>
      <use x="114.0625" xlink:href="#BitstreamVeraSans-Roman-6b"/>
      <use x="170.22265625" xlink:href="#BitstreamVeraSans-Roman-61"/>
      <use x="231.501953125" xlink:href="#BitstreamVeraSans-Roman-65"/>
      <use x="293.025390625" xlink:href="#BitstreamVeraSans-Roman-6c"/>
     </g>
    </g>
   </g>
   <g id="text_3">
    <g clip-path="url(#p7ff5b81e1d)">
     <!-- Anna F -->
     <defs>
      <path d="
M54.8906 33.0156
L54.8906 0
L45.9062 0
L45.9062 32.7188
Q45.9062 40.4844 42.875 44.3281
Q39.8438 48.1875 33.7969 48.1875
Q26.5156 48.1875 22.3125 43.5469
Q18.1094 38.9219 18.1094 30.9062
L18.1094 0
L9.07812 0
L9.07812 54.6875
L18.1094 54.6875
L18.1094 46.1875
Q21.3438 51.125 25.7031 53.5625
Q30.0781 56 35.7969 56
Q45.2188 56 50.0469 50.1719
Q54.8906 44.3438 54.8906 33.0156" id="BitstreamVeraSans-Roman-6e"/>
      <path id="BitstreamVeraSans-Roman-20"/>
      <path d="
M34.1875 63.1875
L20.7969 26.9062
L47.6094 26.9062
z

M28.6094 72.9062
L39.7969 72.9062
L67.5781 0
L57.3281 0
L50.6875 18.7031
L17.8281 18.7031
L11.1875 0
L0.78125 0
z
" id="BitstreamVeraSans-Roman-41"/>
      <path d="
M9.8125 72.9062
L51.7031 72.9062
L51.7031 64.5938
L19.6719 64.5938
L19.6719 43.1094
L48.5781 43.1094
L48.5781 34.8125
L19.6719 34.8125
L19.6719 0
L9.8125 0
z
" id="BitstreamVeraSans-Roman-46"/>
     </defs>
     <g transform="translate(229.530565 231.00334)scale(0.08 -0.08)">
      <use xlink:href="#BitstreamVeraSans-Roman-41"/>
      <use x="68.408203125" xlink:href="#BitstreamVeraSans-Roman-6e"/>
      <use x="131.787109375" xlink:href="#BitstreamVeraSans-Roman-6e"/>
      <use x="195.166015625" xlink:href="#BitstreamVeraSans-Roman-61"/>
      <use x="256.4453125" xlink:href="#BitstreamVeraSans-Roman-20"/>
      <use x="288.232421875" xlink:href="#BitstreamVeraSans-Roman-46"/>
     </g>
    </g>
   </g>
   <g id="text_4">
    <g clip-path="url(#p7ff5b81e1d)">
     <!-- Pavel -->
     <defs>
      <path d="
M19.6719 64.7969
L19.6719 37.4062
L32.0781 37.4062
Q38.9688 37.4062 42.7188 40.9688
Q46.4844 44.5312 46.4844 51.125
Q46.4844 57.6719 42.7188 61.2344
Q38.9688 64.7969 32.0781 64.7969
z

M9.8125 72.9062
L32.0781 72.9062
Q44.3438 72.9062 50.6094 67.3594
Q56.8906 61.8125 56.8906 51.125
Q56.8906 40.3281 50.6094 34.8125
Q44.3438 29.2969 32.0781 29.2969
L19.6719 29.2969
L19.6719 0
L9.8125 0
z
" id="BitstreamVeraSans-Roman-50"/>
      <path d="
M2.98438 54.6875
L12.5 54.6875
L29.5938 8.79688
L46.6875 54.6875
L56.2031 54.6875
L35.6875 0
L23.4844 0
z
" id="BitstreamVeraSans-Roman-76"/>
     </defs>
     <g transform="translate(370.338935 169.74574)scale(0.08 -0.08)">
      <use xlink:href="#BitstreamVeraSans-Roman-50"/>
      <use x="55.802734375" xlink:href="#BitstreamVeraSans-Roman-61"/>
      <use x="117.08203125" xlink:href="#BitstreamVeraSans-Roman-76"/>
      <use x="176.26171875" xlink:href="#BitstreamVeraSans-Roman-65"/>
      <use x="237.78515625" xlink:href="#BitstreamVeraSans-Roman-6c"/>
     </g>
    </g>
   </g>
   <g id="text_5">
    <g clip-path="url(#p7ff5b81e1d)">
     <!-- Irina -->
     <defs>
      <path d="
M41.1094 46.2969
Q39.5938 47.1719 37.8125 47.5781
Q36.0312 48 33.8906 48
Q26.2656 48 22.1875 43.0469
Q18.1094 38.0938 18.1094 28.8125
L18.1094 0
L9.07812 0
L9.07812 54.6875
L18.1094 54.6875
L18.1094 46.1875
Q20.9531 51.1719 25.4844 53.5781
Q30.0312 56 36.5312 56
Q37.4531 56 38.5781 55.875
Q39.7031 55.7656 41.0625 55.5156
z
" id="BitstreamVeraSans-Roman-72"/>
      <path d="
M9.8125 72.9062
L19.6719 72.9062
L19.6719 0
L9.8125 0
z
" id="BitstreamVeraSans-Roman-49"/>
     </defs>
     <g transform="translate(350.64575 263.603788)scale(0.08 -0.08)">
      <use xlink:href="#BitstreamVeraSans-Roman-49"/>
      <use x="29.4921875" xlink:href="#BitstreamVeraSans-Roman-72"/>
      <use x="70.60546875" xlink:href="#BitstreamVeraSans-Roman-69"/>
      <use x="98.388671875" xlink:href="#BitstreamVeraSans-Roman-6e"/>
      <use x="161.767578125" xlink:href="#BitstreamVeraSans-Roman-61"/>
     </g>
    </g>
   </g>
   <g id="text_6">
    <g clip-path="url(#p7ff5b81e1d)">
     <!-- Bodil -->
     <defs>
      <path d="
M45.4062 46.3906
L45.4062 75.9844
L54.3906 75.9844
L54.3906 0
L45.4062 0
L45.4062 8.20312
Q42.5781 3.32812 38.25 0.953125
Q33.9375 -1.42188 27.875 -1.42188
Q17.9688 -1.42188 11.7344 6.48438
Q5.51562 14.4062 5.51562 27.2969
Q5.51562 40.1875 11.7344 48.0938
Q17.9688 56 27.875 56
Q33.9375 56 38.25 53.625
Q42.5781 51.2656 45.4062 46.3906
M14.7969 27.2969
Q14.7969 17.3906 18.875 11.75
Q22.9531 6.10938 30.0781 6.10938
Q37.2031 6.10938 41.2969 11.75
Q45.4062 17.3906 45.4062 27.2969
Q45.4062 37.2031 41.2969 42.8438
Q37.2031 48.4844 30.0781 48.4844
Q22.9531 48.4844 18.875 42.8438
Q14.7969 37.2031 14.7969 27.2969" id="BitstreamVeraSans-Roman-64"/>
      <path d="
M30.6094 48.3906
Q23.3906 48.3906 19.1875 42.75
Q14.9844 37.1094 14.9844 27.2969
Q14.9844 17.4844 19.1562 11.8438
Q23.3438 6.20312 30.6094 6.20312
Q37.7969 6.20312 41.9844 11.8594
Q46.1875 17.5312 46.1875 27.2969
Q46.1875 37.0156 41.9844 42.7031
Q37.7969 48.3906 30.6094 48.3906
M30.6094 56
Q42.3281 56 49.0156 48.375
Q55.7188 40.7656 55.7188 27.2969
Q55.7188 13.875 49.0156 6.21875
Q42.3281 -1.42188 30.6094 -1.42188
Q18.8438 -1.42188 12.1719 6.21875
Q5.51562 13.875 5.51562 27.2969
Q5.51562 40.7656 12.1719 48.375
Q18.8438 56 30.6094 56" id="BitstreamVeraSans-Roman-6f"/>
      <path d="
M19.6719 34.8125
L19.6719 8.10938
L35.5 8.10938
Q43.4531 8.10938 47.2812 11.4062
Q51.125 14.7031 51.125 21.4844
Q51.125 28.3281 47.2812 31.5625
Q43.4531 34.8125 35.5 34.8125
z

M19.6719 64.7969
L19.6719 42.8281
L34.2812 42.8281
Q41.5 42.8281 45.0312 45.5312
Q48.5781 48.25 48.5781 53.8125
Q48.5781 59.3281 45.0312 62.0625
Q41.5 64.7969 34.2812 64.7969
z

M9.8125 72.9062
L35.0156 72.9062
Q46.2969 72.9062 52.3906 68.2188
Q58.5 63.5312 58.5 54.8906
Q58.5 48.1875 55.375 44.2344
Q52.25 40.2812 46.1875 39.3125
Q53.4688 37.75 57.5 32.7812
Q61.5312 27.8281 61.5312 20.4062
Q61.5312 10.6406 54.8906 5.3125
Q48.25 0 35.9844 0
L9.8125 0
z
" id="BitstreamVeraSans-Roman-42"/>
     </defs>
     <g transform="translate(460.46687 167.17966)scale(0.08 -0.08)">
      <use xlink:href="#BitstreamVeraSans-Roman-42"/>
      <use x="68.603515625" xlink:href="#BitstreamVeraSans-Roman-6f"/>
      <use x="129.78515625" xlink:href="#BitstreamVeraSans-Roman-64"/>
      <use x="193.26171875" xlink:href="#BitstreamVeraSans-Roman-69"/>
      <use x="221.044921875" xlink:href="#BitstreamVeraSans-Roman-6c"/>
     </g>
    </g>
   </g>
   <g id="text_7">
    <g clip-path="url(#p7ff5b81e1d)">
     <!-- Kent -->
     <defs>
      <path d="
M18.3125 70.2188
L18.3125 54.6875
L36.8125 54.6875
L36.8125 47.7031
L18.3125 47.7031
L18.3125 18.0156
Q18.3125 11.3281 20.1406 9.42188
Q21.9688 7.51562 27.5938 7.51562
L36.8125 7.51562
L36.8125 0
L27.5938 0
Q17.1875 0 13.2344 3.875
Q9.28125 7.76562 9.28125 18.0156
L9.28125 47.7031
L2.6875 47.7031
L2.6875 54.6875
L9.28125 54.6875
L9.28125 70.2188
z
" id="BitstreamVeraSans-Roman-74"/>
      <path d="
M9.8125 72.9062
L19.6719 72.9062
L19.6719 42.0938
L52.3906 72.9062
L65.0938 72.9062
L28.9062 38.9219
L67.6719 0
L54.6875 0
L19.6719 35.1094
L19.6719 0
L9.8125 0
z
" id="BitstreamVeraSans-Roman-4b"/>
     </defs>
     <g transform="translate(390.488625 101.98222)scale(0.08 -0.08)">
      <use xlink:href="#BitstreamVeraSans-Roman-4b"/>
      <use x="60.576171875" xlink:href="#BitstreamVeraSans-Roman-65"/>
      <use x="122.099609375" xlink:href="#BitstreamVeraSans-Roman-6e"/>
      <use x="185.478515625" xlink:href="#BitstreamVeraSans-Roman-74"/>
     </g>
    </g>
   </g>
   <g id="text_8">
    <g clip-path="url(#p7ff5b81e1d)">
     <!-- Eduardo -->
     <defs>
      <path d="
M9.8125 72.9062
L55.9062 72.9062
L55.9062 64.5938
L19.6719 64.5938
L19.6719 43.0156
L54.3906 43.0156
L54.3906 34.7188
L19.6719 34.7188
L19.6719 8.29688
L56.7812 8.29688
L56.7812 0
L9.8125 0
z
" id="BitstreamVeraSans-Roman-45"/>
     </defs>
     <g transform="translate(179.526915 129.75982)scale(0.08 -0.08)">
      <use xlink:href="#BitstreamVeraSans-Roman-45"/>
      <use x="63.18359375" xlink:href="#BitstreamVeraSans-Roman-64"/>
      <use x="126.66015625" xlink:href="#BitstreamVeraSans-Roman-75"/>
      <use x="190.0390625" xlink:href="#BitstreamVeraSans-Roman-61"/>
      <use x="251.318359375" xlink:href="#BitstreamVeraSans-Roman-72"/>
      <use x="290.681640625" xlink:href="#BitstreamVeraSans-Roman-64"/>
      <use x="354.158203125" xlink:href="#BitstreamVeraSans-Roman-6f"/>
     </g>
    </g>
   </g>
   <g id="text_9">
    <g clip-path="url(#p7ff5b81e1d)">
     <!-- Peter -->
     <g transform="translate(185.520665 289.702636)scale(0.08 -0.08)">
      <use xlink:href="#BitstreamVeraSans-Roman-50"/>
      <use x="56.677734375" xlink:href="#BitstreamVeraSans-Roman-65"/>
      <use x="118.201171875" xlink:href="#BitstreamVeraSans-Roman-74"/>
      <use x="157.41015625" xlink:href="#BitstreamVeraSans-Roman-65"/>
      <use x="218.93359375" xlink:href="#BitstreamVeraSans-Roman-72"/>
     </g>
    </g>
   </g>
   <g id="text_10">
    <g clip-path="url(#p7ff5b81e1d)">
     <!-- Petr T -->
     <defs>
      <path d="
M-0.296875 72.9062
L61.375 72.9062
L61.375 64.5938
L35.5 64.5938
L35.5 0
L25.5938 0
L25.5938 64.5938
L-0.296875 64.5938
z
" id="BitstreamVeraSans-Roman-54"/>
     </defs>
     <g transform="translate(293.019125 148.46542)scale(0.08 -0.08)">
      <use xlink:href="#BitstreamVeraSans-Roman-50"/>
      <use x="56.677734375" xlink:href="#BitstreamVeraSans-Roman-65"/>
      <use x="118.201171875" xlink:href="#BitstreamVeraSans-Roman-74"/>
      <use x="157.41015625" xlink:href="#BitstreamVeraSans-Roman-72"/>
      <use x="198.5234375" xlink:href="#BitstreamVeraSans-Roman-20"/>
      <use x="230.310546875" xlink:href="#BitstreamVeraSans-Roman-54"/>
     </g>
    </g>
   </g>
   <g id="text_11">
    <g clip-path="url(#p7ff5b81e1d)">
     <!-- Dmitry -->
     <defs>
      <path d="
M52 44.1875
Q55.375 50.25 60.0625 53.125
Q64.75 56 71.0938 56
Q79.6406 56 84.2812 50.0156
Q88.9219 44.0469 88.9219 33.0156
L88.9219 0
L79.8906 0
L79.8906 32.7188
Q79.8906 40.5781 77.0938 44.375
Q74.3125 48.1875 68.6094 48.1875
Q61.625 48.1875 57.5625 43.5469
Q53.5156 38.9219 53.5156 30.9062
L53.5156 0
L44.4844 0
L44.4844 32.7188
Q44.4844 40.625 41.7031 44.4062
Q38.9219 48.1875 33.1094 48.1875
Q26.2188 48.1875 22.1562 43.5312
Q18.1094 38.875 18.1094 30.9062
L18.1094 0
L9.07812 0
L9.07812 54.6875
L18.1094 54.6875
L18.1094 46.1875
Q21.1875 51.2188 25.4844 53.6094
Q29.7812 56 35.6875 56
Q41.6562 56 45.8281 52.9688
Q50 49.9531 52 44.1875" id="BitstreamVeraSans-Roman-6d"/>
      <path d="
M19.6719 64.7969
L19.6719 8.10938
L31.5938 8.10938
Q46.6875 8.10938 53.6875 14.9375
Q60.6875 21.7812 60.6875 36.5312
Q60.6875 51.1719 53.6875 57.9844
Q46.6875 64.7969 31.5938 64.7969
z

M9.8125 72.9062
L30.0781 72.9062
Q51.2656 72.9062 61.1719 64.0938
Q71.0938 55.2812 71.0938 36.5312
Q71.0938 17.6719 61.125 8.82812
Q51.1719 0 30.0781 0
L9.8125 0
z
" id="BitstreamVeraSans-Roman-44"/>
      <path d="
M32.1719 -5.07812
Q28.375 -14.8438 24.75 -17.8125
Q21.1406 -20.7969 15.0938 -20.7969
L7.90625 -20.7969
L7.90625 -13.2812
L13.1875 -13.2812
Q16.8906 -13.2812 18.9375 -11.5156
Q21 -9.76562 23.4844 -3.21875
L25.0938 0.875
L2.98438 54.6875
L12.5 54.6875
L29.5938 11.9219
L46.6875 54.6875
L56.2031 54.6875
z
" id="BitstreamVeraSans-Roman-79"/>
     </defs>
     <g transform="translate(380.988935 231.00334)scale(0.08 -0.08)">
      <use xlink:href="#BitstreamVeraSans-Roman-44"/>
      <use x="77.001953125" xlink:href="#BitstreamVeraSans-Roman-6d"/>
      <use x="174.4140625" xlink:href="#BitstreamVeraSans-Roman-69"/>
      <use x="202.197265625" xlink:href="#BitstreamVeraSans-Roman-74"/>
      <use x="241.40625" xlink:href="#BitstreamVeraSans-Roman-72"/>
      <use x="282.51953125" xlink:href="#BitstreamVeraSans-Roman-79"/>
     </g>
    </g>
   </g>
   <g id="text_12">
    <g clip-path="url(#p7ff5b81e1d)">
     <!-- Jerome -->
     <g transform="translate(276.730465 332.2555)scale(0.08 -0.08)">
      <use xlink:href="#BitstreamVeraSans-Roman-4a"/>
      <use x="29.4921875" xlink:href="#BitstreamVeraSans-Roman-65"/>
      <use x="91.015625" xlink:href="#BitstreamVeraSans-Roman-72"/>
      <use x="129.87890625" xlink:href="#BitstreamVeraSans-Roman-6f"/>
      <use x="191.060546875" xlink:href="#BitstreamVeraSans-Roman-6d"/>
      <use x="288.47265625" xlink:href="#BitstreamVeraSans-Roman-65"/>
     </g>
    </g>
   </g>
  </g>
 </g>
 <defs>
  <clipPath id="p7ff5b81e1d">
   <rect height="345.6" width="446.4" x="72.0" y="43.2"/>
  </clipPath>
 </defs>
</svg>
