<?xml version="1.0" encoding="utf-8" standalone="no"?>
<!DOCTYPE svg PUBLIC "-//W3C//DTD SVG 1.1//EN"
  "http://www.w3.org/Graphics/SVG/1.1/DTD/svg11.dtd">
<!-- Created with matplotlib (http://matplotlib.org/) -->
<svg height="432pt" version="1.1" viewBox="0 0 576 432" width="576pt" xmlns="http://www.w3.org/2000/svg" xmlns:xlink="http://www.w3.org/1999/xlink">
 <defs>
  <style type="text/css">
*{stroke-linecap:butt;stroke-linejoin:round;}
  </style>
 </defs>
 <g id="figure_1">
  <g id="patch_1">
   <path d="M 0 432 
L 576 432 
L 576 0 
L 0 0 
z
" style="fill:#ffffff;"/>
  </g>
  <g id="axes_1">
   <g id="LineCollection_1">
    <path clip-path="url(#p62f2a0992b)" d="M 295.19347 218.164866 
L 276.856246 286.887759 
" style="fill:none;stroke:#808080;stroke-opacity:0.7;"/>
    <path clip-path="url(#p62f2a0992b)" d="M 295.19347 218.164866 
L 313.543754 149.43516 
" style="fill:none;stroke:#808080;stroke-opacity:0.7;"/>
    <path clip-path="url(#p62f2a0992b)" d="M 295.19347 218.164866 
L 373.387886 179.235551 
" style="fill:none;stroke:#808080;stroke-opacity:0.7;"/>
    <path clip-path="url(#p62f2a0992b)" d="M 295.19347 218.164866 
L 228.701441 168.61758 
" style="fill:none;stroke:#808080;stroke-opacity:0.7;"/>
    <path clip-path="url(#p62f2a0992b)" d="M 295.19347 218.164866 
L 387.42814 204.490944 
" style="fill:none;stroke:#808080;stroke-opacity:0.7;"/>
    <path clip-path="url(#p62f2a0992b)" d="M 451.569242 296.022523 
L 276.856246 286.887759 
" style="fill:none;stroke:#808080;stroke-opacity:0.7;"/>
    <path clip-path="url(#p62f2a0992b)" d="M 451.569242 296.022523 
L 190.709168 101.639694 
" style="fill:none;stroke:#808080;stroke-opacity:0.7;"/>
    <path clip-path="url(#p62f2a0992b)" d="M 451.569242 296.022523 
L 331.894039 355.614545 
" style="fill:none;stroke:#808080;stroke-opacity:0.7;"/>
    <path clip-path="url(#p62f2a0992b)" d="M 479.66281 245.502978 
L 276.856246 286.887759 
" style="fill:none;stroke:#808080;stroke-opacity:0.7;"/>
    <path clip-path="url(#p62f2a0992b)" d="M 479.66281 245.502978 
L 190.709168 101.639694 
" style="fill:none;stroke:#808080;stroke-opacity:0.7;"/>
    <path clip-path="url(#p62f2a0992b)" d="M 479.66281 190.817022 
L 138.819003 140.296504 
" style="fill:none;stroke:#808080;stroke-opacity:0.7;"/>
    <path clip-path="url(#p62f2a0992b)" d="M 479.66281 190.817022 
L 258.505961 80.705455 
" style="fill:none;stroke:#808080;stroke-opacity:0.7;"/>
    <path clip-path="url(#p62f2a0992b)" d="M 479.66281 190.817022 
L 276.856246 286.887759 
" style="fill:none;stroke:#808080;stroke-opacity:0.7;"/>
    <path clip-path="url(#p62f2a0992b)" d="M 479.66281 190.817022 
L 387.42814 204.490944 
" style="fill:none;stroke:#808080;stroke-opacity:0.7;"/>
    <path clip-path="url(#p62f2a0992b)" d="M 479.66281 190.817022 
L 258.505961 355.614545 
" style="fill:none;stroke:#808080;stroke-opacity:0.7;"/>
    <path clip-path="url(#p62f2a0992b)" d="M 479.66281 190.817022 
L 190.709168 334.689065 
" style="fill:none;stroke:#808080;stroke-opacity:0.7;"/>
    <path clip-path="url(#p62f2a0992b)" d="M 479.66281 190.817022 
L 228.701441 168.61758 
" style="fill:none;stroke:#808080;stroke-opacity:0.7;"/>
    <path clip-path="url(#p62f2a0992b)" d="M 479.66281 190.817022 
L 399.692138 101.639694 
" style="fill:none;stroke:#808080;stroke-opacity:0.7;"/>
    <path clip-path="url(#p62f2a0992b)" d="M 479.66281 190.817022 
L 110.73719 245.502978 
" style="fill:none;stroke:#808080;stroke-opacity:0.7;"/>
    <path clip-path="url(#p62f2a0992b)" d="M 479.66281 190.817022 
L 331.894039 80.705455 
" style="fill:none;stroke:#808080;stroke-opacity:0.7;"/>
    <path clip-path="url(#p62f2a0992b)" d="M 138.819003 140.296504 
L 258.505961 80.705455 
" style="fill:none;stroke:#808080;stroke-opacity:0.7;"/>
    <path clip-path="url(#p62f2a0992b)" d="M 138.819003 140.296504 
L 276.856246 286.887759 
" style="fill:none;stroke:#808080;stroke-opacity:0.7;"/>
    <path clip-path="url(#p62f2a0992b)" d="M 138.819003 140.296504 
L 110.73719 245.502978 
" style="fill:none;stroke:#808080;stroke-opacity:0.7;"/>
    <path clip-path="url(#p62f2a0992b)" d="M 138.819003 140.296504 
L 258.505961 355.614545 
" style="fill:none;stroke:#808080;stroke-opacity:0.7;"/>
    <path clip-path="url(#p62f2a0992b)" d="M 138.819003 140.296504 
L 190.709168 334.689065 
" style="fill:none;stroke:#808080;stroke-opacity:0.7;"/>
    <path clip-path="url(#p62f2a0992b)" d="M 138.819003 140.296504 
L 228.701441 168.61758 
" style="fill:none;stroke:#808080;stroke-opacity:0.7;"/>
    <path clip-path="url(#p62f2a0992b)" d="M 138.819003 140.296504 
L 331.894039 80.705455 
" style="fill:none;stroke:#808080;stroke-opacity:0.7;"/>
    <path clip-path="url(#p62f2a0992b)" d="M 258.505961 80.705455 
L 276.856246 286.887759 
" style="fill:none;stroke:#808080;stroke-opacity:0.7;"/>
    <path clip-path="url(#p62f2a0992b)" d="M 258.505961 80.705455 
L 110.73719 245.502978 
" style="fill:none;stroke:#808080;stroke-opacity:0.7;"/>
    <path clip-path="url(#p62f2a0992b)" d="M 258.505961 80.705455 
L 258.505961 355.614545 
" style="fill:none;stroke:#808080;stroke-opacity:0.7;"/>
    <path clip-path="url(#p62f2a0992b)" d="M 258.505961 80.705455 
L 313.543754 149.43516 
" style="fill:none;stroke:#808080;stroke-opacity:0.7;"/>
    <path clip-path="url(#p62f2a0992b)" d="M 258.505961 80.705455 
L 190.709168 334.689065 
" style="fill:none;stroke:#808080;stroke-opacity:0.7;"/>
    <path clip-path="url(#p62f2a0992b)" d="M 276.856246 286.887759 
L 313.543754 149.43516 
" style="fill:none;stroke:#808080;stroke-opacity:0.7;"/>
    <path clip-path="url(#p62f2a0992b)" d="M 276.856246 286.887759 
L 110.73719 190.817022 
" style="fill:none;stroke:#808080;stroke-opacity:0.7;"/>
    <path clip-path="url(#p62f2a0992b)" d="M 276.856246 286.887759 
L 110.73719 245.502978 
" style="fill:none;stroke:#808080;stroke-opacity:0.7;"/>
    <path clip-path="url(#p62f2a0992b)" d="M 276.856246 286.887759 
L 138.819003 296.022523 
" style="fill:none;stroke:#808080;stroke-opacity:0.7;"/>
    <path clip-path="url(#p62f2a0992b)" d="M 276.856246 286.887759 
L 190.709168 334.689065 
" style="fill:none;stroke:#808080;stroke-opacity:0.7;"/>
    <path clip-path="url(#p62f2a0992b)" d="M 276.856246 286.887759 
L 228.701441 168.61758 
" style="fill:none;stroke:#808080;stroke-opacity:0.7;"/>
    <path clip-path="url(#p62f2a0992b)" d="M 276.856246 286.887759 
L 258.505961 355.614545 
" style="fill:none;stroke:#808080;stroke-opacity:0.7;"/>
    <path clip-path="url(#p62f2a0992b)" d="M 276.856246 286.887759 
L 190.709168 101.639694 
" style="fill:none;stroke:#808080;stroke-opacity:0.7;"/>
    <path clip-path="url(#p62f2a0992b)" d="M 276.856246 286.887759 
L 399.692138 101.639694 
" style="fill:none;stroke:#808080;stroke-opacity:0.7;"/>
    <path clip-path="url(#p62f2a0992b)" d="M 276.856246 286.887759 
L 387.42814 204.490944 
" style="fill:none;stroke:#808080;stroke-opacity:0.7;"/>
    <path clip-path="url(#p62f2a0992b)" d="M 276.856246 286.887759 
L 373.387886 179.235551 
" style="fill:none;stroke:#808080;stroke-opacity:0.7;"/>
    <path clip-path="url(#p62f2a0992b)" d="M 276.856246 286.887759 
L 331.894039 355.614545 
" style="fill:none;stroke:#808080;stroke-opacity:0.7;"/>
    <path clip-path="url(#p62f2a0992b)" d="M 276.856246 286.887759 
L 331.894039 80.705455 
" style="fill:none;stroke:#808080;stroke-opacity:0.7;"/>
    <path clip-path="url(#p62f2a0992b)" d="M 276.856246 286.887759 
L 399.692138 334.689065 
" style="fill:none;stroke:#808080;stroke-opacity:0.7;"/>
    <path clip-path="url(#p62f2a0992b)" d="M 110.73719 190.817022 
L 190.709168 101.639694 
" style="fill:none;stroke:#808080;stroke-opacity:0.7;"/>
    <path clip-path="url(#p62f2a0992b)" d="M 110.73719 190.817022 
L 399.692138 334.689065 
" style="fill:none;stroke:#808080;stroke-opacity:0.7;"/>
    <path clip-path="url(#p62f2a0992b)" d="M 110.73719 245.502978 
L 258.505961 355.614545 
" style="fill:none;stroke:#808080;stroke-opacity:0.7;"/>
    <path clip-path="url(#p62f2a0992b)" d="M 110.73719 245.502978 
L 190.709168 334.689065 
" style="fill:none;stroke:#808080;stroke-opacity:0.7;"/>
    <path clip-path="url(#p62f2a0992b)" d="M 110.73719 245.502978 
L 399.692138 101.639694 
" style="fill:none;stroke:#808080;stroke-opacity:0.7;"/>
    <path clip-path="url(#p62f2a0992b)" d="M 110.73719 245.502978 
L 331.894039 80.705455 
" style="fill:none;stroke:#808080;stroke-opacity:0.7;"/>
    <path clip-path="url(#p62f2a0992b)" d="M 138.819003 296.022523 
L 399.692138 101.639694 
" style="fill:none;stroke:#808080;stroke-opacity:0.7;"/>
    <path clip-path="url(#p62f2a0992b)" d="M 313.543754 149.43516 
L 387.42814 204.490944 
" style="fill:none;stroke:#808080;stroke-opacity:0.7;"/>
    <path clip-path="url(#p62f2a0992b)" d="M 313.543754 149.43516 
L 228.701441 168.61758 
" style="fill:none;stroke:#808080;stroke-opacity:0.7;"/>
    <path clip-path="url(#p62f2a0992b)" d="M 313.543754 149.43516 
L 399.692138 101.639694 
" style="fill:none;stroke:#808080;stroke-opacity:0.7;"/>
    <path clip-path="url(#p62f2a0992b)" d="M 313.543754 149.43516 
L 373.387886 179.235551 
" style="fill:none;stroke:#808080;stroke-opacity:0.7;"/>
    <path clip-path="url(#p62f2a0992b)" d="M 313.543754 149.43516 
L 331.894039 80.705455 
" style="fill:none;stroke:#808080;stroke-opacity:0.7;"/>
    <path clip-path="url(#p62f2a0992b)" d="M 190.709168 334.689065 
L 258.505961 355.614545 
" style="fill:none;stroke:#808080;stroke-opacity:0.7;"/>
    <path clip-path="url(#p62f2a0992b)" d="M 190.709168 334.689065 
L 399.692138 101.639694 
" style="fill:none;stroke:#808080;stroke-opacity:0.7;"/>
    <path clip-path="url(#p62f2a0992b)" d="M 228.701441 168.61758 
L 387.42814 204.490944 
" style="fill:none;stroke:#808080;stroke-opacity:0.7;"/>
    <path clip-path="url(#p62f2a0992b)" d="M 228.701441 168.61758 
L 190.709168 101.639694 
" style="fill:none;stroke:#808080;stroke-opacity:0.7;"/>
    <path clip-path="url(#p62f2a0992b)" d="M 228.701441 168.61758 
L 373.387886 179.235551 
" style="fill:none;stroke:#808080;stroke-opacity:0.7;"/>
    <path clip-path="url(#p62f2a0992b)" d="M 258.505961 355.614545 
L 399.692138 101.639694 
" style="fill:none;stroke:#808080;stroke-opacity:0.7;"/>
    <path clip-path="url(#p62f2a0992b)" d="M 258.505961 355.614545 
L 331.894039 80.705455 
" style="fill:none;stroke:#808080;stroke-opacity:0.7;"/>
    <path clip-path="url(#p62f2a0992b)" d="M 190.709168 101.639694 
L 331.894039 355.614545 
" style="fill:none;stroke:#808080;stroke-opacity:0.7;"/>
    <path clip-path="url(#p62f2a0992b)" d="M 190.709168 101.639694 
L 399.692138 334.689065 
" style="fill:none;stroke:#808080;stroke-opacity:0.7;"/>
    <path clip-path="url(#p62f2a0992b)" d="M 399.692138 101.639694 
L 331.894039 80.705455 
" style="fill:none;stroke:#808080;stroke-opacity:0.7;"/>
    <path clip-path="url(#p62f2a0992b)" d="M 387.42814 204.490944 
L 373.387886 179.235551 
" style="fill:none;stroke:#808080;stroke-opacity:0.7;"/>
   </g>
   <g id="LineCollection_2">
    <path clip-path="url(#p62f2a0992b)" d="M 295.19347 218.164866 
L 276.856246 286.887759 
" style="fill:none;stroke:#000000;stroke-opacity:0.6;stroke-width:4;"/>
    <path clip-path="url(#p62f2a0992b)" d="M 451.569242 296.022523 
L 276.856246 286.887759 
" style="fill:none;stroke:#000000;stroke-opacity:0.6;stroke-width:4;"/>
    <path clip-path="url(#p62f2a0992b)" d="M 479.66281 245.502978 
L 276.856246 286.887759 
" style="fill:none;stroke:#000000;stroke-opacity:0.6;stroke-width:4;"/>
    <path clip-path="url(#p62f2a0992b)" d="M 138.819003 140.296504 
L 276.856246 286.887759 
" style="fill:none;stroke:#000000;stroke-opacity:0.6;stroke-width:4;"/>
    <path clip-path="url(#p62f2a0992b)" d="M 258.505961 80.705455 
L 110.73719 245.502978 
" style="fill:none;stroke:#000000;stroke-opacity:0.6;stroke-width:4;"/>
    <path clip-path="url(#p62f2a0992b)" d="M 258.505961 80.705455 
L 313.543754 149.43516 
" style="fill:none;stroke:#000000;stroke-opacity:0.6;stroke-width:4;"/>
    <path clip-path="url(#p62f2a0992b)" d="M 276.856246 286.887759 
L 313.543754 149.43516 
" style="fill:none;stroke:#000000;stroke-opacity:0.6;stroke-width:4;"/>
    <path clip-path="url(#p62f2a0992b)" d="M 276.856246 286.887759 
L 110.73719 190.817022 
" style="fill:none;stroke:#000000;stroke-opacity:0.6;stroke-width:4;"/>
    <path clip-path="url(#p62f2a0992b)" d="M 276.856246 286.887759 
L 190.709168 334.689065 
" style="fill:none;stroke:#000000;stroke-opacity:0.6;stroke-width:4;"/>
    <path clip-path="url(#p62f2a0992b)" d="M 276.856246 286.887759 
L 228.701441 168.61758 
" style="fill:none;stroke:#000000;stroke-opacity:0.6;stroke-width:4;"/>
    <path clip-path="url(#p62f2a0992b)" d="M 276.856246 286.887759 
L 190.709168 101.639694 
" style="fill:none;stroke:#000000;stroke-opacity:0.6;stroke-width:4;"/>
    <path clip-path="url(#p62f2a0992b)" d="M 276.856246 286.887759 
L 331.894039 355.614545 
" style="fill:none;stroke:#000000;stroke-opacity:0.6;stroke-width:4;"/>
    <path clip-path="url(#p62f2a0992b)" d="M 276.856246 286.887759 
L 399.692138 334.689065 
" style="fill:none;stroke:#000000;stroke-opacity:0.6;stroke-width:4;"/>
    <path clip-path="url(#p62f2a0992b)" d="M 110.73719 190.817022 
L 399.692138 334.689065 
" style="fill:none;stroke:#000000;stroke-opacity:0.6;stroke-width:4;"/>
    <path clip-path="url(#p62f2a0992b)" d="M 190.709168 101.639694 
L 331.894039 355.614545 
" style="fill:none;stroke:#000000;stroke-opacity:0.6;stroke-width:4;"/>
    <path clip-path="url(#p62f2a0992b)" d="M 399.692138 101.639694 
L 331.894039 80.705455 
" style="fill:none;stroke:#000000;stroke-opacity:0.6;stroke-width:4;"/>
   </g>
   <g id="LineCollection_3">
    <path clip-path="url(#p62f2a0992b)" d="M 295.19347 218.164866 
L 313.543754 149.43516 
" style="fill:none;stroke:#000000;stroke-opacity:0.5;stroke-width:3;"/>
    <path clip-path="url(#p62f2a0992b)" d="M 295.19347 218.164866 
L 373.387886 179.235551 
" style="fill:none;stroke:#000000;stroke-opacity:0.5;stroke-width:3;"/>
    <path clip-path="url(#p62f2a0992b)" d="M 295.19347 218.164866 
L 228.701441 168.61758 
" style="fill:none;stroke:#000000;stroke-opacity:0.5;stroke-width:3;"/>
    <path clip-path="url(#p62f2a0992b)" d="M 295.19347 218.164866 
L 387.42814 204.490944 
" style="fill:none;stroke:#000000;stroke-opacity:0.5;stroke-width:3;"/>
    <path clip-path="url(#p62f2a0992b)" d="M 451.569242 296.022523 
L 190.709168 101.639694 
" style="fill:none;stroke:#000000;stroke-opacity:0.5;stroke-width:3;"/>
    <path clip-path="url(#p62f2a0992b)" d="M 451.569242 296.022523 
L 331.894039 355.614545 
" style="fill:none;stroke:#000000;stroke-opacity:0.5;stroke-width:3;"/>
    <path clip-path="url(#p62f2a0992b)" d="M 479.66281 245.502978 
L 190.709168 101.639694 
" style="fill:none;stroke:#000000;stroke-opacity:0.5;stroke-width:3;"/>
    <path clip-path="url(#p62f2a0992b)" d="M 479.66281 190.817022 
L 138.819003 140.296504 
" style="fill:none;stroke:#000000;stroke-opacity:0.5;stroke-width:3;"/>
    <path clip-path="url(#p62f2a0992b)" d="M 479.66281 190.817022 
L 258.505961 80.705455 
" style="fill:none;stroke:#000000;stroke-opacity:0.5;stroke-width:3;"/>
    <path clip-path="url(#p62f2a0992b)" d="M 479.66281 190.817022 
L 276.856246 286.887759 
" style="fill:none;stroke:#000000;stroke-opacity:0.5;stroke-width:3;"/>
    <path clip-path="url(#p62f2a0992b)" d="M 479.66281 190.817022 
L 228.701441 168.61758 
" style="fill:none;stroke:#000000;stroke-opacity:0.5;stroke-width:3;"/>
    <path clip-path="url(#p62f2a0992b)" d="M 479.66281 190.817022 
L 110.73719 245.502978 
" style="fill:none;stroke:#000000;stroke-opacity:0.5;stroke-width:3;"/>
    <path clip-path="url(#p62f2a0992b)" d="M 138.819003 140.296504 
L 110.73719 245.502978 
" style="fill:none;stroke:#000000;stroke-opacity:0.5;stroke-width:3;"/>
    <path clip-path="url(#p62f2a0992b)" d="M 138.819003 140.296504 
L 258.505961 355.614545 
" style="fill:none;stroke:#000000;stroke-opacity:0.5;stroke-width:3;"/>
    <path clip-path="url(#p62f2a0992b)" d="M 138.819003 140.296504 
L 228.701441 168.61758 
" style="fill:none;stroke:#000000;stroke-opacity:0.5;stroke-width:3;"/>
    <path clip-path="url(#p62f2a0992b)" d="M 138.819003 140.296504 
L 331.894039 80.705455 
" style="fill:none;stroke:#000000;stroke-opacity:0.5;stroke-width:3;"/>
    <path clip-path="url(#p62f2a0992b)" d="M 276.856246 286.887759 
L 110.73719 245.502978 
" style="fill:none;stroke:#000000;stroke-opacity:0.5;stroke-width:3;"/>
    <path clip-path="url(#p62f2a0992b)" d="M 276.856246 286.887759 
L 258.505961 355.614545 
" style="fill:none;stroke:#000000;stroke-opacity:0.5;stroke-width:3;"/>
    <path clip-path="url(#p62f2a0992b)" d="M 276.856246 286.887759 
L 399.692138 101.639694 
" style="fill:none;stroke:#000000;stroke-opacity:0.5;stroke-width:3;"/>
    <path clip-path="url(#p62f2a0992b)" d="M 276.856246 286.887759 
L 387.42814 204.490944 
" style="fill:none;stroke:#000000;stroke-opacity:0.5;stroke-width:3;"/>
    <path clip-path="url(#p62f2a0992b)" d="M 276.856246 286.887759 
L 373.387886 179.235551 
" style="fill:none;stroke:#000000;stroke-opacity:0.5;stroke-width:3;"/>
    <path clip-path="url(#p62f2a0992b)" d="M 276.856246 286.887759 
L 331.894039 80.705455 
" style="fill:none;stroke:#000000;stroke-opacity:0.5;stroke-width:3;"/>
    <path clip-path="url(#p62f2a0992b)" d="M 110.73719 190.817022 
L 190.709168 101.639694 
" style="fill:none;stroke:#000000;stroke-opacity:0.5;stroke-width:3;"/>
    <path clip-path="url(#p62f2a0992b)" d="M 110.73719 245.502978 
L 258.505961 355.614545 
" style="fill:none;stroke:#000000;stroke-opacity:0.5;stroke-width:3;"/>
    <path clip-path="url(#p62f2a0992b)" d="M 313.543754 149.43516 
L 387.42814 204.490944 
" style="fill:none;stroke:#000000;stroke-opacity:0.5;stroke-width:3;"/>
    <path clip-path="url(#p62f2a0992b)" d="M 190.709168 334.689065 
L 399.692138 101.639694 
" style="fill:none;stroke:#000000;stroke-opacity:0.5;stroke-width:3;"/>
    <path clip-path="url(#p62f2a0992b)" d="M 228.701441 168.61758 
L 387.42814 204.490944 
" style="fill:none;stroke:#000000;stroke-opacity:0.5;stroke-width:3;"/>
    <path clip-path="url(#p62f2a0992b)" d="M 228.701441 168.61758 
L 373.387886 179.235551 
" style="fill:none;stroke:#000000;stroke-opacity:0.5;stroke-width:3;"/>
    <path clip-path="url(#p62f2a0992b)" d="M 258.505961 355.614545 
L 331.894039 80.705455 
" style="fill:none;stroke:#000000;stroke-opacity:0.5;stroke-width:3;"/>
    <path clip-path="url(#p62f2a0992b)" d="M 190.709168 101.639694 
L 399.692138 334.689065 
" style="fill:none;stroke:#000000;stroke-opacity:0.5;stroke-width:3;"/>
   </g>
   <g id="LineCollection_4">
    <path clip-path="url(#p62f2a0992b)" d="M 479.66281 190.817022 
L 387.42814 204.490944 
" style="fill:none;stroke:#000000;stroke-opacity:0.4;stroke-width:2;"/>
    <path clip-path="url(#p62f2a0992b)" d="M 479.66281 190.817022 
L 258.505961 355.614545 
" style="fill:none;stroke:#000000;stroke-opacity:0.4;stroke-width:2;"/>
    <path clip-path="url(#p62f2a0992b)" d="M 479.66281 190.817022 
L 190.709168 334.689065 
" style="fill:none;stroke:#000000;stroke-opacity:0.4;stroke-width:2;"/>
    <path clip-path="url(#p62f2a0992b)" d="M 479.66281 190.817022 
L 399.692138 101.639694 
" style="fill:none;stroke:#000000;stroke-opacity:0.4;stroke-width:2;"/>
    <path clip-path="url(#p62f2a0992b)" d="M 479.66281 190.817022 
L 331.894039 80.705455 
" style="fill:none;stroke:#000000;stroke-opacity:0.4;stroke-width:2;"/>
    <path clip-path="url(#p62f2a0992b)" d="M 138.819003 140.296504 
L 258.505961 80.705455 
" style="fill:none;stroke:#000000;stroke-opacity:0.4;stroke-width:2;"/>
    <path clip-path="url(#p62f2a0992b)" d="M 138.819003 140.296504 
L 190.709168 334.689065 
" style="fill:none;stroke:#000000;stroke-opacity:0.4;stroke-width:2;"/>
    <path clip-path="url(#p62f2a0992b)" d="M 258.505961 80.705455 
L 258.505961 355.614545 
" style="fill:none;stroke:#000000;stroke-opacity:0.4;stroke-width:2;"/>
    <path clip-path="url(#p62f2a0992b)" d="M 258.505961 80.705455 
L 190.709168 334.689065 
" style="fill:none;stroke:#000000;stroke-opacity:0.4;stroke-width:2;"/>
    <path clip-path="url(#p62f2a0992b)" d="M 110.73719 245.502978 
L 190.709168 334.689065 
" style="fill:none;stroke:#000000;stroke-opacity:0.4;stroke-width:2;"/>
    <path clip-path="url(#p62f2a0992b)" d="M 110.73719 245.502978 
L 399.692138 101.639694 
" style="fill:none;stroke:#000000;stroke-opacity:0.4;stroke-width:2;"/>
    <path clip-path="url(#p62f2a0992b)" d="M 110.73719 245.502978 
L 331.894039 80.705455 
" style="fill:none;stroke:#000000;stroke-opacity:0.4;stroke-width:2;"/>
    <path clip-path="url(#p62f2a0992b)" d="M 138.819003 296.022523 
L 399.692138 101.639694 
" style="fill:none;stroke:#000000;stroke-opacity:0.4;stroke-width:2;"/>
    <path clip-path="url(#p62f2a0992b)" d="M 313.543754 149.43516 
L 228.701441 168.61758 
" style="fill:none;stroke:#000000;stroke-opacity:0.4;stroke-width:2;"/>
    <path clip-path="url(#p62f2a0992b)" d="M 313.543754 149.43516 
L 399.692138 101.639694 
" style="fill:none;stroke:#000000;stroke-opacity:0.4;stroke-width:2;"/>
    <path clip-path="url(#p62f2a0992b)" d="M 313.543754 149.43516 
L 373.387886 179.235551 
" style="fill:none;stroke:#000000;stroke-opacity:0.4;stroke-width:2;"/>
    <path clip-path="url(#p62f2a0992b)" d="M 313.543754 149.43516 
L 331.894039 80.705455 
" style="fill:none;stroke:#000000;stroke-opacity:0.4;stroke-width:2;"/>
    <path clip-path="url(#p62f2a0992b)" d="M 190.709168 334.689065 
L 258.505961 355.614545 
" style="fill:none;stroke:#000000;stroke-opacity:0.4;stroke-width:2;"/>
    <path clip-path="url(#p62f2a0992b)" d="M 228.701441 168.61758 
L 190.709168 101.639694 
" style="fill:none;stroke:#000000;stroke-opacity:0.4;stroke-width:2;"/>
    <path clip-path="url(#p62f2a0992b)" d="M 258.505961 355.614545 
L 399.692138 101.639694 
" style="fill:none;stroke:#000000;stroke-opacity:0.4;stroke-width:2;"/>
    <path clip-path="url(#p62f2a0992b)" d="M 387.42814 204.490944 
L 373.387886 179.235551 
" style="fill:none;stroke:#000000;stroke-opacity:0.4;stroke-width:2;"/>
   </g>
   <g id="LineCollection_5">
    <path clip-path="url(#p62f2a0992b)" d="M 258.505961 80.705455 
L 276.856246 286.887759 
" style="fill:none;stroke:#000000;stroke-opacity:0.3;"/>
    <path clip-path="url(#p62f2a0992b)" d="M 276.856246 286.887759 
L 138.819003 296.022523 
" style="fill:none;stroke:#000000;stroke-opacity:0.3;"/>
   </g>
   <g id="LineCollection_6">
    <path clip-path="url(#p62f2a0992b)" d="M 276.856246 286.887759 
L 258.505961 80.705455 
" style="fill:none;stroke:#cd5c5c;stroke-dasharray:18.5,8;stroke-dashoffset:0;stroke-opacity:0.6;stroke-width:5;"/>
    <path clip-path="url(#p62f2a0992b)" d="M 276.856246 286.887759 
L 138.819003 296.022523 
" style="fill:none;stroke:#cd5c5c;stroke-dasharray:18.5,8;stroke-dashoffset:0;stroke-opacity:0.6;stroke-width:5;"/>
   </g>
   <g id="LineCollection_7">
    <path clip-path="url(#p62f2a0992b)" d="M 276.856246 286.887759 
L 451.569242 296.022523 
" style="fill:none;stroke:#33a02c;stroke-dasharray:18.5,8;stroke-dashoffset:0;stroke-opacity:0.6;stroke-width:5;"/>
    <path clip-path="url(#p62f2a0992b)" d="M 276.856246 286.887759 
L 479.66281 245.502978 
" style="fill:none;stroke:#33a02c;stroke-dasharray:18.5,8;stroke-dashoffset:0;stroke-opacity:0.6;stroke-width:5;"/>
    <path clip-path="url(#p62f2a0992b)" d="M 276.856246 286.887759 
L 138.819003 140.296504 
" style="fill:none;stroke:#33a02c;stroke-dasharray:18.5,8;stroke-dashoffset:0;stroke-opacity:0.6;stroke-width:5;"/>
    <path clip-path="url(#p62f2a0992b)" d="M 276.856246 286.887759 
L 228.701441 168.61758 
" style="fill:none;stroke:#33a02c;stroke-dasharray:18.5,8;stroke-dashoffset:0;stroke-opacity:0.6;stroke-width:5;"/>
    <path clip-path="url(#p62f2a0992b)" d="M 276.856246 286.887759 
L 190.709168 101.639694 
" style="fill:none;stroke:#33a02c;stroke-dasharray:18.5,8;stroke-dashoffset:0;stroke-opacity:0.6;stroke-width:5;"/>
    <path clip-path="url(#p62f2a0992b)" d="M 276.856246 286.887759 
L 399.692138 101.639694 
" style="fill:none;stroke:#33a02c;stroke-dasharray:18.5,8;stroke-dashoffset:0;stroke-opacity:0.6;stroke-width:5;"/>
   </g>
   <g id="PathCollection_1">
    <defs>
     <path d="M 0 26.457513 
C 7.016614 26.457513 13.746791 23.669783 18.708287 18.708287 
C 23.669783 13.746791 26.457513 7.016614 26.457513 0 
C 26.457513 -7.016614 23.669783 -13.746791 18.708287 -18.708287 
C 13.746791 -23.669783 7.016614 -26.457513 0 -26.457513 
C -7.016614 -26.457513 -13.746791 -23.669783 -18.708287 -18.708287 
C -23.669783 -13.746791 -26.457513 -7.016614 -26.457513 0 
C -26.457513 7.016614 -23.669783 13.746791 -18.708287 18.708287 
C -13.746791 23.669783 -7.016614 26.457513 0 26.457513 
z
" id="m3870648ad2" style="stroke:#cab2d6;"/>
    </defs>
    <g clip-path="url(#p62f2a0992b)">
     <use style="fill:#cab2d6;stroke:#cab2d6;" x="276.856246" xlink:href="#m3870648ad2" y="286.887759"/>
    </g>
   </g>
   <g id="PathCollection_2">
    <defs>
     <path d="M 0 23.979158 
C 6.359347 23.979158 12.459088 21.452562 16.955825 16.955825 
C 21.452562 12.459088 23.979158 6.359347 23.979158 0 
C 23.979158 -6.359347 21.452562 -12.459088 16.955825 -16.955825 
C 12.459088 -21.452562 6.359347 -23.979158 0 -23.979158 
C -6.359347 -23.979158 -12.459088 -21.452562 -16.955825 -16.955825 
C -21.452562 -12.459088 -23.979158 -6.359347 -23.979158 0 
C -23.979158 6.359347 -21.452562 12.459088 -16.955825 16.955825 
C -12.459088 21.452562 -6.359347 23.979158 0 23.979158 
z
" id="m8e45c632eb" style="stroke:#33a02c;stroke-opacity:0.6;"/>
    </defs>
    <g clip-path="url(#p62f2a0992b)">
     <use style="fill:#33a02c;fill-opacity:0.6;stroke:#33a02c;stroke-opacity:0.6;" x="451.569242" xlink:href="#m8e45c632eb" y="296.022523"/>
     <use style="fill:#33a02c;fill-opacity:0.6;stroke:#33a02c;stroke-opacity:0.6;" x="479.66281" xlink:href="#m8e45c632eb" y="190.817022"/>
     <use style="fill:#33a02c;fill-opacity:0.6;stroke:#33a02c;stroke-opacity:0.6;" x="138.819003" xlink:href="#m8e45c632eb" y="140.296504"/>
     <use style="fill:#33a02c;fill-opacity:0.6;stroke:#33a02c;stroke-opacity:0.6;" x="110.73719" xlink:href="#m8e45c632eb" y="190.817022"/>
     <use style="fill:#33a02c;fill-opacity:0.6;stroke:#33a02c;stroke-opacity:0.6;" x="313.543754" xlink:href="#m8e45c632eb" y="149.43516"/>
     <use style="fill:#33a02c;fill-opacity:0.6;stroke:#33a02c;stroke-opacity:0.6;" x="399.692138" xlink:href="#m8e45c632eb" y="334.689065"/>
     <use style="fill:#33a02c;fill-opacity:0.6;stroke:#33a02c;stroke-opacity:0.6;" x="110.73719" xlink:href="#m8e45c632eb" y="245.502978"/>
     <use style="fill:#33a02c;fill-opacity:0.6;stroke:#33a02c;stroke-opacity:0.6;" x="295.19347" xlink:href="#m8e45c632eb" y="218.164866"/>
     <use style="fill:#33a02c;fill-opacity:0.6;stroke:#33a02c;stroke-opacity:0.6;" x="190.709168" xlink:href="#m8e45c632eb" y="334.689065"/>
     <use style="fill:#33a02c;fill-opacity:0.6;stroke:#33a02c;stroke-opacity:0.6;" x="479.66281" xlink:href="#m8e45c632eb" y="245.502978"/>
     <use style="fill:#33a02c;fill-opacity:0.6;stroke:#33a02c;stroke-opacity:0.6;" x="190.709168" xlink:href="#m8e45c632eb" y="101.639694"/>
     <use style="fill:#33a02c;fill-opacity:0.6;stroke:#33a02c;stroke-opacity:0.6;" x="399.692138" xlink:href="#m8e45c632eb" y="101.639694"/>
     <use style="fill:#33a02c;fill-opacity:0.6;stroke:#33a02c;stroke-opacity:0.6;" x="373.387886" xlink:href="#m8e45c632eb" y="179.235551"/>
     <use style="fill:#33a02c;fill-opacity:0.6;stroke:#33a02c;stroke-opacity:0.6;" x="331.894039" xlink:href="#m8e45c632eb" y="355.614545"/>
     <use style="fill:#33a02c;fill-opacity:0.6;stroke:#33a02c;stroke-opacity:0.6;" x="331.894039" xlink:href="#m8e45c632eb" y="80.705455"/>
     <use style="fill:#33a02c;fill-opacity:0.6;stroke:#33a02c;stroke-opacity:0.6;" x="228.701441" xlink:href="#m8e45c632eb" y="168.61758"/>
    </g>
   </g>
   <g id="PathCollection_3">
    <defs>
     <path d="M 0 23.979158 
C 6.359347 23.979158 12.459088 21.452562 16.955825 16.955825 
C 21.452562 12.459088 23.979158 6.359347 23.979158 0 
C 23.979158 -6.359347 21.452562 -12.459088 16.955825 -16.955825 
C 12.459088 -21.452562 6.359347 -23.979158 0 -23.979158 
C -6.359347 -23.979158 -12.459088 -21.452562 -16.955825 -16.955825 
C -21.452562 -12.459088 -23.979158 -6.359347 -23.979158 0 
C -23.979158 6.359347 -21.452562 12.459088 -16.955825 16.955825 
C -12.459088 21.452562 -6.359347 23.979158 0 23.979158 
z
" id="me7dee46b2c" style="stroke:#cd5c5c;"/>
    </defs>
    <g clip-path="url(#p62f2a0992b)">
     <use style="fill:#cd5c5c;stroke:#cd5c5c;" x="138.819003" xlink:href="#me7dee46b2c" y="296.022523"/>
     <use style="fill:#cd5c5c;stroke:#cd5c5c;" x="258.505961" xlink:href="#me7dee46b2c" y="80.705455"/>
    </g>
   </g>
   <g id="PathCollection_4">
    <defs>
     <path d="M 0 20.615528 
C 5.467302 20.615528 10.711413 18.443346 14.57738 14.57738 
C 18.443346 10.711413 20.615528 5.467302 20.615528 0 
C 20.615528 -5.467302 18.443346 -10.711413 14.57738 -14.57738 
C 10.711413 -18.443346 5.467302 -20.615528 0 -20.615528 
C -5.467302 -20.615528 -10.711413 -18.443346 -14.57738 -14.57738 
C -18.443346 -10.711413 -20.615528 -5.467302 -20.615528 0 
C -20.615528 5.467302 -18.443346 10.711413 -14.57738 14.57738 
C -10.711413 18.443346 -5.467302 20.615528 0 20.615528 
z
" id="m00b4f531d8" style="stroke:#a6cee3;"/>
    </defs>
    <g clip-path="url(#p62f2a0992b)">
     <use style="fill:#a6cee3;stroke:#a6cee3;" x="399.692138" xlink:href="#m00b4f531d8" y="101.639694"/>
    </g>
   </g>
   <g id="PathCollection_5">
    <defs>
     <path d="M 0 21.794495 
C 5.779968 21.794495 11.323981 19.498089 15.411035 15.411035 
C 19.498089 11.323981 21.794495 5.779968 21.794495 0 
C 21.794495 -5.779968 19.498089 -11.323981 15.411035 -15.411035 
C 11.323981 -19.498089 5.779968 -21.794495 0 -21.794495 
C -5.779968 -21.794495 -11.323981 -19.498089 -15.411035 -15.411035 
C -19.498089 -11.323981 -21.794495 -5.779968 -21.794495 0 
C -21.794495 5.779968 -19.498089 11.323981 -15.411035 15.411035 
C -11.323981 19.498089 -5.779968 21.794495 0 21.794495 
z
" id="me0dbc1b3b2" style="stroke:#ff7f00;"/>
    </defs>
    <g clip-path="url(#p62f2a0992b)">
     <use style="fill:#ff7f00;stroke:#ff7f00;" x="190.709168" xlink:href="#me0dbc1b3b2" y="101.639694"/>
    </g>
   </g>
   <g id="PathCollection_6">
    <defs>
     <path d="M 0 19.364917 
C 5.135636 19.364917 10.061621 17.324507 13.693064 13.693064 
C 17.324507 10.061621 19.364917 5.135636 19.364917 0 
C 19.364917 -5.135636 17.324507 -10.061621 13.693064 -13.693064 
C 10.061621 -17.324507 5.135636 -19.364917 0 -19.364917 
C -5.135636 -19.364917 -10.061621 -17.324507 -13.693064 -13.693064 
C -17.324507 -10.061621 -19.364917 -5.135636 -19.364917 0 
C -19.364917 5.135636 -17.324507 10.061621 -13.693064 13.693064 
C -10.061621 17.324507 -5.135636 19.364917 0 19.364917 
z
" id="mbea46d7d24" style="stroke:#b2df8a;"/>
    </defs>
    <g clip-path="url(#p62f2a0992b)">
     <use style="fill:#b2df8a;stroke:#b2df8a;" x="110.73719" xlink:href="#mbea46d7d24" y="190.817022"/>
     <use style="fill:#b2df8a;stroke:#b2df8a;" x="451.569242" xlink:href="#mbea46d7d24" y="296.022523"/>
     <use style="fill:#b2df8a;stroke:#b2df8a;" x="479.66281" xlink:href="#mbea46d7d24" y="190.817022"/>
     <use style="fill:#b2df8a;stroke:#b2df8a;" x="138.819003" xlink:href="#mbea46d7d24" y="140.296504"/>
     <use style="fill:#b2df8a;stroke:#b2df8a;" x="479.66281" xlink:href="#mbea46d7d24" y="245.502978"/>
     <use style="fill:#b2df8a;stroke:#b2df8a;" x="313.543754" xlink:href="#mbea46d7d24" y="149.43516"/>
     <use style="fill:#b2df8a;stroke:#b2df8a;" x="387.42814" xlink:href="#mbea46d7d24" y="204.490944"/>
     <use style="fill:#b2df8a;stroke:#b2df8a;" x="110.73719" xlink:href="#mbea46d7d24" y="245.502978"/>
     <use style="fill:#b2df8a;stroke:#b2df8a;" x="295.19347" xlink:href="#mbea46d7d24" y="218.164866"/>
     <use style="fill:#b2df8a;stroke:#b2df8a;" x="190.709168" xlink:href="#mbea46d7d24" y="334.689065"/>
     <use style="fill:#b2df8a;stroke:#b2df8a;" x="399.692138" xlink:href="#mbea46d7d24" y="334.689065"/>
     <use style="fill:#b2df8a;stroke:#b2df8a;" x="258.505961" xlink:href="#mbea46d7d24" y="355.614545"/>
     <use style="fill:#b2df8a;stroke:#b2df8a;" x="373.387886" xlink:href="#mbea46d7d24" y="179.235551"/>
     <use style="fill:#b2df8a;stroke:#b2df8a;" x="331.894039" xlink:href="#mbea46d7d24" y="355.614545"/>
     <use style="fill:#b2df8a;stroke:#b2df8a;" x="331.894039" xlink:href="#mbea46d7d24" y="80.705455"/>
     <use style="fill:#b2df8a;stroke:#b2df8a;" x="228.701441" xlink:href="#mbea46d7d24" y="168.61758"/>
    </g>
   </g>
   <g id="text_1">
    <g clip-path="url(#p62f2a0992b)">
     <!-- Jolanta S -->
     <defs>
      <path d="M 9.8125 72.90625 
L 19.671875 72.90625 
L 19.671875 5.078125 
Q 19.671875 -8.109375 14.671875 -14.0625 
Q 9.671875 -20.015625 -1.421875 -20.015625 
L -5.171875 -20.015625 
L -5.171875 -11.71875 
L -2.09375 -11.71875 
Q 4.4375 -11.71875 7.125 -8.046875 
Q 9.8125 -4.390625 9.8125 5.078125 
z
" id="DejaVuSans-4a"/>
      <path d="M 30.609375 48.390625 
Q 23.390625 48.390625 19.1875 42.75 
Q 14.984375 37.109375 14.984375 27.296875 
Q 14.984375 17.484375 19.15625 11.84375 
Q 23.34375 6.203125 30.609375 6.203125 
Q 37.796875 6.203125 41.984375 11.859375 
Q 46.1875 17.53125 46.1875 27.296875 
Q 46.1875 37.015625 41.984375 42.703125 
Q 37.796875 48.390625 30.609375 48.390625 
z
M 30.609375 56 
Q 42.328125 56 49.015625 48.375 
Q 55.71875 40.765625 55.71875 27.296875 
Q 55.71875 13.875 49.015625 6.21875 
Q 42.328125 -1.421875 30.609375 -1.421875 
Q 18.84375 -1.421875 12.171875 6.21875 
Q 5.515625 13.875 5.515625 27.296875 
Q 5.515625 40.765625 12.171875 48.375 
Q 18.84375 56 30.609375 56 
z
" id="DejaVuSans-6f"/>
      <path d="M 9.421875 75.984375 
L 18.40625 75.984375 
L 18.40625 0 
L 9.421875 0 
z
" id="DejaVuSans-6c"/>
      <path d="M 34.28125 27.484375 
Q 23.390625 27.484375 19.1875 25 
Q 14.984375 22.515625 14.984375 16.5 
Q 14.984375 11.71875 18.140625 8.90625 
Q 21.296875 6.109375 26.703125 6.109375 
Q 34.1875 6.109375 38.703125 11.40625 
Q 43.21875 16.703125 43.21875 25.484375 
L 43.21875 27.484375 
z
M 52.203125 31.203125 
L 52.203125 0 
L 43.21875 0 
L 43.21875 8.296875 
Q 40.140625 3.328125 35.546875 0.953125 
Q 30.953125 -1.421875 24.3125 -1.421875 
Q 15.921875 -1.421875 10.953125 3.296875 
Q 6 8.015625 6 15.921875 
Q 6 25.140625 12.171875 29.828125 
Q 18.359375 34.515625 30.609375 34.515625 
L 43.21875 34.515625 
L 43.21875 35.40625 
Q 43.21875 41.609375 39.140625 45 
Q 35.0625 48.390625 27.6875 48.390625 
Q 23 48.390625 18.546875 47.265625 
Q 14.109375 46.140625 10.015625 43.890625 
L 10.015625 52.203125 
Q 14.9375 54.109375 19.578125 55.046875 
Q 24.21875 56 28.609375 56 
Q 40.484375 56 46.34375 49.84375 
Q 52.203125 43.703125 52.203125 31.203125 
z
" id="DejaVuSans-61"/>
      <path d="M 54.890625 33.015625 
L 54.890625 0 
L 45.90625 0 
L 45.90625 32.71875 
Q 45.90625 40.484375 42.875 44.328125 
Q 39.84375 48.1875 33.796875 48.1875 
Q 26.515625 48.1875 22.3125 43.546875 
Q 18.109375 38.921875 18.109375 30.90625 
L 18.109375 0 
L 9.078125 0 
L 9.078125 54.6875 
L 18.109375 54.6875 
L 18.109375 46.1875 
Q 21.34375 51.125 25.703125 53.5625 
Q 30.078125 56 35.796875 56 
Q 45.21875 56 50.046875 50.171875 
Q 54.890625 44.34375 54.890625 33.015625 
z
" id="DejaVuSans-6e"/>
      <path d="M 18.3125 70.21875 
L 18.3125 54.6875 
L 36.8125 54.6875 
L 36.8125 47.703125 
L 18.3125 47.703125 
L 18.3125 18.015625 
Q 18.3125 11.328125 20.140625 9.421875 
Q 21.96875 7.515625 27.59375 7.515625 
L 36.8125 7.515625 
L 36.8125 0 
L 27.59375 0 
Q 17.1875 0 13.234375 3.875 
Q 9.28125 7.765625 9.28125 18.015625 
L 9.28125 47.703125 
L 2.6875 47.703125 
L 2.6875 54.6875 
L 9.28125 54.6875 
L 9.28125 70.21875 
z
" id="DejaVuSans-74"/>
      <path id="DejaVuSans-20"/>
      <path d="M 53.515625 70.515625 
L 53.515625 60.890625 
Q 47.90625 63.578125 42.921875 64.890625 
Q 37.9375 66.21875 33.296875 66.21875 
Q 25.25 66.21875 20.875 63.09375 
Q 16.5 59.96875 16.5 54.203125 
Q 16.5 49.359375 19.40625 46.890625 
Q 22.3125 44.4375 30.421875 42.921875 
L 36.375 41.703125 
Q 47.40625 39.59375 52.65625 34.296875 
Q 57.90625 29 57.90625 20.125 
Q 57.90625 9.515625 50.796875 4.046875 
Q 43.703125 -1.421875 29.984375 -1.421875 
Q 24.8125 -1.421875 18.96875 -0.25 
Q 13.140625 0.921875 6.890625 3.21875 
L 6.890625 13.375 
Q 12.890625 10.015625 18.65625 8.296875 
Q 24.421875 6.59375 29.984375 6.59375 
Q 38.421875 6.59375 43.015625 9.90625 
Q 47.609375 13.234375 47.609375 19.390625 
Q 47.609375 24.75 44.3125 27.78125 
Q 41.015625 30.8125 33.5 32.328125 
L 27.484375 33.5 
Q 16.453125 35.6875 11.515625 40.375 
Q 6.59375 45.0625 6.59375 53.421875 
Q 6.59375 63.09375 13.40625 68.65625 
Q 20.21875 74.21875 32.171875 74.21875 
Q 37.3125 74.21875 42.625 73.28125 
Q 47.953125 72.359375 53.515625 70.515625 
z
" id="DejaVuSans-53"/>
     </defs>
     <g transform="translate(434.014242 298.230023)scale(0.08 -0.08)">
      <use xlink:href="#DejaVuSans-4a"/>
      <use x="29.492188" xlink:href="#DejaVuSans-6f"/>
      <use x="90.673828" xlink:href="#DejaVuSans-6c"/>
      <use x="118.457031" xlink:href="#DejaVuSans-61"/>
      <use x="179.736328" xlink:href="#DejaVuSans-6e"/>
      <use x="243.115234" xlink:href="#DejaVuSans-74"/>
      <use x="282.324219" xlink:href="#DejaVuSans-61"/>
      <use x="343.603516" xlink:href="#DejaVuSans-20"/>
      <use x="375.390625" xlink:href="#DejaVuSans-53"/>
     </g>
    </g>
   </g>
   <g id="text_2">
    <g clip-path="url(#p62f2a0992b)">
     <!-- Ewa Z -->
     <defs>
      <path d="M 9.8125 72.90625 
L 55.90625 72.90625 
L 55.90625 64.59375 
L 19.671875 64.59375 
L 19.671875 43.015625 
L 54.390625 43.015625 
L 54.390625 34.71875 
L 19.671875 34.71875 
L 19.671875 8.296875 
L 56.78125 8.296875 
L 56.78125 0 
L 9.8125 0 
z
" id="DejaVuSans-45"/>
      <path d="M 4.203125 54.6875 
L 13.1875 54.6875 
L 24.421875 12.015625 
L 35.59375 54.6875 
L 46.1875 54.6875 
L 57.421875 12.015625 
L 68.609375 54.6875 
L 77.59375 54.6875 
L 63.28125 0 
L 52.6875 0 
L 40.921875 44.828125 
L 29.109375 0 
L 18.5 0 
z
" id="DejaVuSans-77"/>
      <path d="M 5.609375 72.90625 
L 62.890625 72.90625 
L 62.890625 65.375 
L 16.796875 8.296875 
L 64.015625 8.296875 
L 64.015625 0 
L 4.5 0 
L 4.5 7.515625 
L 50.59375 64.59375 
L 5.609375 64.59375 
z
" id="DejaVuSans-5a"/>
     </defs>
     <g transform="translate(387.430888 336.896565)scale(0.08 -0.08)">
      <use xlink:href="#DejaVuSans-45"/>
      <use x="63.183594" xlink:href="#DejaVuSans-77"/>
      <use x="144.970703" xlink:href="#DejaVuSans-61"/>
      <use x="206.25" xlink:href="#DejaVuSans-20"/>
      <use x="238.037109" xlink:href="#DejaVuSans-5a"/>
     </g>
    </g>
   </g>
   <g id="text_3">
    <g clip-path="url(#p62f2a0992b)">
     <!-- Tanguy D -->
     <defs>
      <path d="M -0.296875 72.90625 
L 61.375 72.90625 
L 61.375 64.59375 
L 35.5 64.59375 
L 35.5 0 
L 25.59375 0 
L 25.59375 64.59375 
L -0.296875 64.59375 
z
" id="DejaVuSans-54"/>
      <path d="M 45.40625 27.984375 
Q 45.40625 37.75 41.375 43.109375 
Q 37.359375 48.484375 30.078125 48.484375 
Q 22.859375 48.484375 18.828125 43.109375 
Q 14.796875 37.75 14.796875 27.984375 
Q 14.796875 18.265625 18.828125 12.890625 
Q 22.859375 7.515625 30.078125 7.515625 
Q 37.359375 7.515625 41.375 12.890625 
Q 45.40625 18.265625 45.40625 27.984375 
z
M 54.390625 6.78125 
Q 54.390625 -7.171875 48.1875 -13.984375 
Q 42 -20.796875 29.203125 -20.796875 
Q 24.46875 -20.796875 20.265625 -20.09375 
Q 16.0625 -19.390625 12.109375 -17.921875 
L 12.109375 -9.1875 
Q 16.0625 -11.328125 19.921875 -12.34375 
Q 23.78125 -13.375 27.78125 -13.375 
Q 36.625 -13.375 41.015625 -8.765625 
Q 45.40625 -4.15625 45.40625 5.171875 
L 45.40625 9.625 
Q 42.625 4.78125 38.28125 2.390625 
Q 33.9375 0 27.875 0 
Q 17.828125 0 11.671875 7.65625 
Q 5.515625 15.328125 5.515625 27.984375 
Q 5.515625 40.671875 11.671875 48.328125 
Q 17.828125 56 27.875 56 
Q 33.9375 56 38.28125 53.609375 
Q 42.625 51.21875 45.40625 46.390625 
L 45.40625 54.6875 
L 54.390625 54.6875 
z
" id="DejaVuSans-67"/>
      <path d="M 8.5 21.578125 
L 8.5 54.6875 
L 17.484375 54.6875 
L 17.484375 21.921875 
Q 17.484375 14.15625 20.5 10.265625 
Q 23.53125 6.390625 29.59375 6.390625 
Q 36.859375 6.390625 41.078125 11.03125 
Q 45.3125 15.671875 45.3125 23.6875 
L 45.3125 54.6875 
L 54.296875 54.6875 
L 54.296875 0 
L 45.3125 0 
L 45.3125 8.40625 
Q 42.046875 3.421875 37.71875 1 
Q 33.40625 -1.421875 27.6875 -1.421875 
Q 18.265625 -1.421875 13.375 4.4375 
Q 8.5 10.296875 8.5 21.578125 
z
M 31.109375 56 
z
" id="DejaVuSans-75"/>
      <path d="M 32.171875 -5.078125 
Q 28.375 -14.84375 24.75 -17.8125 
Q 21.140625 -20.796875 15.09375 -20.796875 
L 7.90625 -20.796875 
L 7.90625 -13.28125 
L 13.1875 -13.28125 
Q 16.890625 -13.28125 18.9375 -11.515625 
Q 21 -9.765625 23.484375 -3.21875 
L 25.09375 0.875 
L 2.984375 54.6875 
L 12.5 54.6875 
L 29.59375 11.921875 
L 46.6875 54.6875 
L 56.203125 54.6875 
z
" id="DejaVuSans-79"/>
      <path d="M 19.671875 64.796875 
L 19.671875 8.109375 
L 31.59375 8.109375 
Q 46.6875 8.109375 53.6875 14.9375 
Q 60.6875 21.78125 60.6875 36.53125 
Q 60.6875 51.171875 53.6875 57.984375 
Q 46.6875 64.796875 31.59375 64.796875 
z
M 9.8125 72.90625 
L 30.078125 72.90625 
Q 51.265625 72.90625 61.171875 64.09375 
Q 71.09375 55.28125 71.09375 36.53125 
Q 71.09375 17.671875 61.125 8.828125 
Q 51.171875 0 30.078125 0 
L 9.8125 0 
z
" id="DejaVuSans-44"/>
     </defs>
     <g transform="translate(460.45031 193.024522)scale(0.08 -0.08)">
      <use xlink:href="#DejaVuSans-54"/>
      <use x="60.833984" xlink:href="#DejaVuSans-61"/>
      <use x="122.113281" xlink:href="#DejaVuSans-6e"/>
      <use x="185.492188" xlink:href="#DejaVuSans-67"/>
      <use x="248.96875" xlink:href="#DejaVuSans-75"/>
      <use x="312.347656" xlink:href="#DejaVuSans-79"/>
      <use x="371.527344" xlink:href="#DejaVuSans-20"/>
      <use x="403.314453" xlink:href="#DejaVuSans-44"/>
     </g>
    </g>
   </g>
   <g id="text_4">
    <g clip-path="url(#p62f2a0992b)">
     <!-- Donna R -->
     <defs>
      <path d="M 44.390625 34.1875 
Q 47.5625 33.109375 50.5625 29.59375 
Q 53.5625 26.078125 56.59375 19.921875 
L 66.609375 0 
L 56 0 
L 46.6875 18.703125 
Q 43.0625 26.03125 39.671875 28.421875 
Q 36.28125 30.8125 30.421875 30.8125 
L 19.671875 30.8125 
L 19.671875 0 
L 9.8125 0 
L 9.8125 72.90625 
L 32.078125 72.90625 
Q 44.578125 72.90625 50.734375 67.671875 
Q 56.890625 62.453125 56.890625 51.90625 
Q 56.890625 45.015625 53.6875 40.46875 
Q 50.484375 35.9375 44.390625 34.1875 
z
M 19.671875 64.796875 
L 19.671875 38.921875 
L 32.078125 38.921875 
Q 39.203125 38.921875 42.84375 42.21875 
Q 46.484375 45.515625 46.484375 51.90625 
Q 46.484375 58.296875 42.84375 61.546875 
Q 39.203125 64.796875 32.078125 64.796875 
z
" id="DejaVuSans-52"/>
     </defs>
     <g transform="translate(121.719628 142.504004)scale(0.08 -0.08)">
      <use xlink:href="#DejaVuSans-44"/>
      <use x="77.001953" xlink:href="#DejaVuSans-6f"/>
      <use x="138.183594" xlink:href="#DejaVuSans-6e"/>
      <use x="201.5625" xlink:href="#DejaVuSans-6e"/>
      <use x="264.941406" xlink:href="#DejaVuSans-61"/>
      <use x="326.220703" xlink:href="#DejaVuSans-20"/>
      <use x="358.007812" xlink:href="#DejaVuSans-52"/>
     </g>
    </g>
   </g>
   <g id="text_5">
    <g clip-path="url(#p62f2a0992b)">
     <!-- Denis X -->
     <defs>
      <path d="M 56.203125 29.59375 
L 56.203125 25.203125 
L 14.890625 25.203125 
Q 15.484375 15.921875 20.484375 11.0625 
Q 25.484375 6.203125 34.421875 6.203125 
Q 39.59375 6.203125 44.453125 7.46875 
Q 49.3125 8.734375 54.109375 11.28125 
L 54.109375 2.78125 
Q 49.265625 0.734375 44.1875 -0.34375 
Q 39.109375 -1.421875 33.890625 -1.421875 
Q 20.796875 -1.421875 13.15625 6.1875 
Q 5.515625 13.8125 5.515625 26.8125 
Q 5.515625 40.234375 12.765625 48.109375 
Q 20.015625 56 32.328125 56 
Q 43.359375 56 49.78125 48.890625 
Q 56.203125 41.796875 56.203125 29.59375 
z
M 47.21875 32.234375 
Q 47.125 39.59375 43.09375 43.984375 
Q 39.0625 48.390625 32.421875 48.390625 
Q 24.90625 48.390625 20.390625 44.140625 
Q 15.875 39.890625 15.1875 32.171875 
z
" id="DejaVuSans-65"/>
      <path d="M 9.421875 54.6875 
L 18.40625 54.6875 
L 18.40625 0 
L 9.421875 0 
z
M 9.421875 75.984375 
L 18.40625 75.984375 
L 18.40625 64.59375 
L 9.421875 64.59375 
z
" id="DejaVuSans-69"/>
      <path d="M 44.28125 53.078125 
L 44.28125 44.578125 
Q 40.484375 46.53125 36.375 47.5 
Q 32.28125 48.484375 27.875 48.484375 
Q 21.1875 48.484375 17.84375 46.4375 
Q 14.5 44.390625 14.5 40.28125 
Q 14.5 37.15625 16.890625 35.375 
Q 19.28125 33.59375 26.515625 31.984375 
L 29.59375 31.296875 
Q 39.15625 29.25 43.1875 25.515625 
Q 47.21875 21.78125 47.21875 15.09375 
Q 47.21875 7.46875 41.1875 3.015625 
Q 35.15625 -1.421875 24.609375 -1.421875 
Q 20.21875 -1.421875 15.453125 -0.5625 
Q 10.6875 0.296875 5.421875 2 
L 5.421875 11.28125 
Q 10.40625 8.6875 15.234375 7.390625 
Q 20.0625 6.109375 24.8125 6.109375 
Q 31.15625 6.109375 34.5625 8.28125 
Q 37.984375 10.453125 37.984375 14.40625 
Q 37.984375 18.0625 35.515625 20.015625 
Q 33.0625 21.96875 24.703125 23.78125 
L 21.578125 24.515625 
Q 13.234375 26.265625 9.515625 29.90625 
Q 5.8125 33.546875 5.8125 39.890625 
Q 5.8125 47.609375 11.28125 51.796875 
Q 16.75 56 26.8125 56 
Q 31.78125 56 36.171875 55.265625 
Q 40.578125 54.546875 44.28125 53.078125 
z
" id="DejaVuSans-73"/>
      <path d="M 6.296875 72.90625 
L 16.890625 72.90625 
L 35.015625 45.796875 
L 53.21875 72.90625 
L 63.8125 72.90625 
L 40.375 37.890625 
L 65.375 0 
L 54.78125 0 
L 34.28125 31 
L 13.625 0 
L 2.984375 0 
L 29 38.921875 
z
" id="DejaVuSans-58"/>
     </defs>
     <g transform="translate(243.223461 82.912955)scale(0.08 -0.08)">
      <use xlink:href="#DejaVuSans-44"/>
      <use x="77.001953" xlink:href="#DejaVuSans-65"/>
      <use x="138.525391" xlink:href="#DejaVuSans-6e"/>
      <use x="201.904297" xlink:href="#DejaVuSans-69"/>
      <use x="229.6875" xlink:href="#DejaVuSans-73"/>
      <use x="281.787109" xlink:href="#DejaVuSans-20"/>
      <use x="313.574219" xlink:href="#DejaVuSans-58"/>
     </g>
    </g>
   </g>
   <g id="text_6">
    <g clip-path="url(#p62f2a0992b)">
     <!-- Katarzyna K -->
     <defs>
      <path d="M 9.8125 72.90625 
L 19.671875 72.90625 
L 19.671875 42.09375 
L 52.390625 72.90625 
L 65.09375 72.90625 
L 28.90625 38.921875 
L 67.671875 0 
L 54.6875 0 
L 19.671875 35.109375 
L 19.671875 0 
L 9.8125 0 
z
" id="DejaVuSans-4b"/>
      <path d="M 41.109375 46.296875 
Q 39.59375 47.171875 37.8125 47.578125 
Q 36.03125 48 33.890625 48 
Q 26.265625 48 22.1875 43.046875 
Q 18.109375 38.09375 18.109375 28.8125 
L 18.109375 0 
L 9.078125 0 
L 9.078125 54.6875 
L 18.109375 54.6875 
L 18.109375 46.1875 
Q 20.953125 51.171875 25.484375 53.578125 
Q 30.03125 56 36.53125 56 
Q 37.453125 56 38.578125 55.875 
Q 39.703125 55.765625 41.0625 55.515625 
z
" id="DejaVuSans-72"/>
      <path d="M 5.515625 54.6875 
L 48.1875 54.6875 
L 48.1875 46.484375 
L 14.40625 7.171875 
L 48.1875 7.171875 
L 48.1875 0 
L 4.296875 0 
L 4.296875 8.203125 
L 38.09375 47.515625 
L 5.515625 47.515625 
z
" id="DejaVuSans-7a"/>
     </defs>
     <g transform="translate(252.771246 289.095259)scale(0.08 -0.08)">
      <use xlink:href="#DejaVuSans-4b"/>
      <use x="65.560547" xlink:href="#DejaVuSans-61"/>
      <use x="126.839844" xlink:href="#DejaVuSans-74"/>
      <use x="166.048828" xlink:href="#DejaVuSans-61"/>
      <use x="227.328125" xlink:href="#DejaVuSans-72"/>
      <use x="268.441406" xlink:href="#DejaVuSans-7a"/>
      <use x="320.931641" xlink:href="#DejaVuSans-79"/>
      <use x="380.111328" xlink:href="#DejaVuSans-6e"/>
      <use x="443.490234" xlink:href="#DejaVuSans-61"/>
      <use x="504.769531" xlink:href="#DejaVuSans-20"/>
      <use x="536.556641" xlink:href="#DejaVuSans-4b"/>
     </g>
    </g>
   </g>
   <g id="text_7">
    <g clip-path="url(#p62f2a0992b)">
     <!-- Rami B -->
     <defs>
      <path d="M 52 44.1875 
Q 55.375 50.25 60.0625 53.125 
Q 64.75 56 71.09375 56 
Q 79.640625 56 84.28125 50.015625 
Q 88.921875 44.046875 88.921875 33.015625 
L 88.921875 0 
L 79.890625 0 
L 79.890625 32.71875 
Q 79.890625 40.578125 77.09375 44.375 
Q 74.3125 48.1875 68.609375 48.1875 
Q 61.625 48.1875 57.5625 43.546875 
Q 53.515625 38.921875 53.515625 30.90625 
L 53.515625 0 
L 44.484375 0 
L 44.484375 32.71875 
Q 44.484375 40.625 41.703125 44.40625 
Q 38.921875 48.1875 33.109375 48.1875 
Q 26.21875 48.1875 22.15625 43.53125 
Q 18.109375 38.875 18.109375 30.90625 
L 18.109375 0 
L 9.078125 0 
L 9.078125 54.6875 
L 18.109375 54.6875 
L 18.109375 46.1875 
Q 21.1875 51.21875 25.484375 53.609375 
Q 29.78125 56 35.6875 56 
Q 41.65625 56 45.828125 52.96875 
Q 50 49.953125 52 44.1875 
z
" id="DejaVuSans-6d"/>
      <path d="M 19.671875 34.8125 
L 19.671875 8.109375 
L 35.5 8.109375 
Q 43.453125 8.109375 47.28125 11.40625 
Q 51.125 14.703125 51.125 21.484375 
Q 51.125 28.328125 47.28125 31.5625 
Q 43.453125 34.8125 35.5 34.8125 
z
M 19.671875 64.796875 
L 19.671875 42.828125 
L 34.28125 42.828125 
Q 41.5 42.828125 45.03125 45.53125 
Q 48.578125 48.25 48.578125 53.8125 
Q 48.578125 59.328125 45.03125 62.0625 
Q 41.5 64.796875 34.28125 64.796875 
z
M 9.8125 72.90625 
L 35.015625 72.90625 
Q 46.296875 72.90625 52.390625 68.21875 
Q 58.5 63.53125 58.5 54.890625 
Q 58.5 48.1875 55.375 44.234375 
Q 52.25 40.28125 46.1875 39.3125 
Q 53.46875 37.75 57.5 32.78125 
Q 61.53125 27.828125 61.53125 20.40625 
Q 61.53125 10.640625 54.890625 5.3125 
Q 48.25 0 35.984375 0 
L 9.8125 0 
z
" id="DejaVuSans-42"/>
     </defs>
     <g transform="translate(373.17564 206.698444)scale(0.08 -0.08)">
      <use xlink:href="#DejaVuSans-52"/>
      <use x="69.451172" xlink:href="#DejaVuSans-61"/>
      <use x="130.730469" xlink:href="#DejaVuSans-6d"/>
      <use x="228.142578" xlink:href="#DejaVuSans-69"/>
      <use x="255.925781" xlink:href="#DejaVuSans-20"/>
      <use x="287.712891" xlink:href="#DejaVuSans-42"/>
     </g>
    </g>
   </g>
   <g id="text_8">
    <g clip-path="url(#p62f2a0992b)">
     <!-- Jacek K -->
     <defs>
      <path d="M 48.78125 52.59375 
L 48.78125 44.1875 
Q 44.96875 46.296875 41.140625 47.34375 
Q 37.3125 48.390625 33.40625 48.390625 
Q 24.65625 48.390625 19.8125 42.84375 
Q 14.984375 37.3125 14.984375 27.296875 
Q 14.984375 17.28125 19.8125 11.734375 
Q 24.65625 6.203125 33.40625 6.203125 
Q 37.3125 6.203125 41.140625 7.25 
Q 44.96875 8.296875 48.78125 10.40625 
L 48.78125 2.09375 
Q 45.015625 0.34375 40.984375 -0.53125 
Q 36.96875 -1.421875 32.421875 -1.421875 
Q 20.0625 -1.421875 12.78125 6.34375 
Q 5.515625 14.109375 5.515625 27.296875 
Q 5.515625 40.671875 12.859375 48.328125 
Q 20.21875 56 33.015625 56 
Q 37.15625 56 41.109375 55.140625 
Q 45.0625 54.296875 48.78125 52.59375 
z
" id="DejaVuSans-63"/>
      <path d="M 9.078125 75.984375 
L 18.109375 75.984375 
L 18.109375 31.109375 
L 44.921875 54.6875 
L 56.390625 54.6875 
L 27.390625 29.109375 
L 57.625 0 
L 45.90625 0 
L 18.109375 26.703125 
L 18.109375 0 
L 9.078125 0 
z
" id="DejaVuSans-6b"/>
     </defs>
     <g transform="translate(96.23469 193.024522)scale(0.08 -0.08)">
      <use xlink:href="#DejaVuSans-4a"/>
      <use x="29.492188" xlink:href="#DejaVuSans-61"/>
      <use x="90.771484" xlink:href="#DejaVuSans-63"/>
      <use x="145.751953" xlink:href="#DejaVuSans-65"/>
      <use x="207.275391" xlink:href="#DejaVuSans-6b"/>
      <use x="265.185547" xlink:href="#DejaVuSans-20"/>
      <use x="296.972656" xlink:href="#DejaVuSans-4b"/>
     </g>
    </g>
   </g>
   <g id="text_9">
    <g clip-path="url(#p62f2a0992b)">
     <!-- Sebastien K -->
     <defs>
      <path d="M 48.6875 27.296875 
Q 48.6875 37.203125 44.609375 42.84375 
Q 40.53125 48.484375 33.40625 48.484375 
Q 26.265625 48.484375 22.1875 42.84375 
Q 18.109375 37.203125 18.109375 27.296875 
Q 18.109375 17.390625 22.1875 11.75 
Q 26.265625 6.109375 33.40625 6.109375 
Q 40.53125 6.109375 44.609375 11.75 
Q 48.6875 17.390625 48.6875 27.296875 
z
M 18.109375 46.390625 
Q 20.953125 51.265625 25.265625 53.625 
Q 29.59375 56 35.59375 56 
Q 45.5625 56 51.78125 48.09375 
Q 58.015625 40.1875 58.015625 27.296875 
Q 58.015625 14.40625 51.78125 6.484375 
Q 45.5625 -1.421875 35.59375 -1.421875 
Q 29.59375 -1.421875 25.265625 0.953125 
Q 20.953125 3.328125 18.109375 8.203125 
L 18.109375 0 
L 9.078125 0 
L 9.078125 75.984375 
L 18.109375 75.984375 
z
" id="DejaVuSans-62"/>
     </defs>
     <g transform="translate(87.09219 247.710478)scale(0.08 -0.08)">
      <use xlink:href="#DejaVuSans-53"/>
      <use x="63.476562" xlink:href="#DejaVuSans-65"/>
      <use x="125" xlink:href="#DejaVuSans-62"/>
      <use x="188.476562" xlink:href="#DejaVuSans-61"/>
      <use x="249.755859" xlink:href="#DejaVuSans-73"/>
      <use x="301.855469" xlink:href="#DejaVuSans-74"/>
      <use x="341.064453" xlink:href="#DejaVuSans-69"/>
      <use x="368.847656" xlink:href="#DejaVuSans-65"/>
      <use x="430.371094" xlink:href="#DejaVuSans-6e"/>
      <use x="493.75" xlink:href="#DejaVuSans-20"/>
      <use x="525.537109" xlink:href="#DejaVuSans-4b"/>
     </g>
    </g>
   </g>
   <g id="text_10">
    <g clip-path="url(#p62f2a0992b)">
     <!-- Tarcek O -->
     <defs>
      <path d="M 39.40625 66.21875 
Q 28.65625 66.21875 22.328125 58.203125 
Q 16.015625 50.203125 16.015625 36.375 
Q 16.015625 22.609375 22.328125 14.59375 
Q 28.65625 6.59375 39.40625 6.59375 
Q 50.140625 6.59375 56.421875 14.59375 
Q 62.703125 22.609375 62.703125 36.375 
Q 62.703125 50.203125 56.421875 58.203125 
Q 50.140625 66.21875 39.40625 66.21875 
z
M 39.40625 74.21875 
Q 54.734375 74.21875 63.90625 63.9375 
Q 73.09375 53.65625 73.09375 36.375 
Q 73.09375 19.140625 63.90625 8.859375 
Q 54.734375 -1.421875 39.40625 -1.421875 
Q 24.03125 -1.421875 14.8125 8.828125 
Q 5.609375 19.09375 5.609375 36.375 
Q 5.609375 53.65625 14.8125 63.9375 
Q 24.03125 74.21875 39.40625 74.21875 
z
" id="DejaVuSans-4f"/>
     </defs>
     <g transform="translate(277.269095 220.372366)scale(0.08 -0.08)">
      <use xlink:href="#DejaVuSans-54"/>
      <use x="60.833984" xlink:href="#DejaVuSans-61"/>
      <use x="122.113281" xlink:href="#DejaVuSans-72"/>
      <use x="163.195312" xlink:href="#DejaVuSans-63"/>
      <use x="218.175781" xlink:href="#DejaVuSans-65"/>
      <use x="279.699219" xlink:href="#DejaVuSans-6b"/>
      <use x="337.609375" xlink:href="#DejaVuSans-20"/>
      <use x="369.396484" xlink:href="#DejaVuSans-4f"/>
     </g>
    </g>
   </g>
   <g id="text_11">
    <g clip-path="url(#p62f2a0992b)">
     <!-- Sebastian K -->
     <g transform="translate(289.908754 151.64266)scale(0.08 -0.08)">
      <use xlink:href="#DejaVuSans-53"/>
      <use x="63.476562" xlink:href="#DejaVuSans-65"/>
      <use x="125" xlink:href="#DejaVuSans-62"/>
      <use x="188.476562" xlink:href="#DejaVuSans-61"/>
      <use x="249.755859" xlink:href="#DejaVuSans-73"/>
      <use x="301.855469" xlink:href="#DejaVuSans-74"/>
      <use x="341.064453" xlink:href="#DejaVuSans-69"/>
      <use x="368.847656" xlink:href="#DejaVuSans-61"/>
      <use x="430.126953" xlink:href="#DejaVuSans-6e"/>
      <use x="493.505859" xlink:href="#DejaVuSans-20"/>
      <use x="525.292969" xlink:href="#DejaVuSans-4b"/>
     </g>
    </g>
   </g>
   <g id="text_12">
    <g clip-path="url(#p62f2a0992b)">
     <!-- Craig W -->
     <defs>
      <path d="M 64.40625 67.28125 
L 64.40625 56.890625 
Q 59.421875 61.53125 53.78125 63.8125 
Q 48.140625 66.109375 41.796875 66.109375 
Q 29.296875 66.109375 22.65625 58.46875 
Q 16.015625 50.828125 16.015625 36.375 
Q 16.015625 21.96875 22.65625 14.328125 
Q 29.296875 6.6875 41.796875 6.6875 
Q 48.140625 6.6875 53.78125 8.984375 
Q 59.421875 11.28125 64.40625 15.921875 
L 64.40625 5.609375 
Q 59.234375 2.09375 53.4375 0.328125 
Q 47.65625 -1.421875 41.21875 -1.421875 
Q 24.65625 -1.421875 15.125 8.703125 
Q 5.609375 18.84375 5.609375 36.375 
Q 5.609375 53.953125 15.125 64.078125 
Q 24.65625 74.21875 41.21875 74.21875 
Q 47.75 74.21875 53.53125 72.484375 
Q 59.328125 70.75 64.40625 67.28125 
z
" id="DejaVuSans-43"/>
      <path d="M 3.328125 72.90625 
L 13.28125 72.90625 
L 28.609375 11.28125 
L 43.890625 72.90625 
L 54.984375 72.90625 
L 70.3125 11.28125 
L 85.59375 72.90625 
L 95.609375 72.90625 
L 77.296875 0 
L 64.890625 0 
L 49.515625 63.28125 
L 33.984375 0 
L 21.578125 0 
z
" id="DejaVuSans-57"/>
     </defs>
     <g transform="translate(123.053378 298.230023)scale(0.08 -0.08)">
      <use xlink:href="#DejaVuSans-43"/>
      <use x="69.824219" xlink:href="#DejaVuSans-72"/>
      <use x="110.9375" xlink:href="#DejaVuSans-61"/>
      <use x="172.216797" xlink:href="#DejaVuSans-69"/>
      <use x="200" xlink:href="#DejaVuSans-67"/>
      <use x="263.476562" xlink:href="#DejaVuSans-20"/>
      <use x="295.263672" xlink:href="#DejaVuSans-57"/>
     </g>
    </g>
   </g>
   <g id="text_13">
    <g clip-path="url(#p62f2a0992b)">
     <!-- Agnieszka C -->
     <defs>
      <path d="M 34.1875 63.1875 
L 20.796875 26.90625 
L 47.609375 26.90625 
z
M 28.609375 72.90625 
L 39.796875 72.90625 
L 67.578125 0 
L 57.328125 0 
L 50.6875 18.703125 
L 17.828125 18.703125 
L 11.1875 0 
L 0.78125 0 
z
" id="DejaVuSans-41"/>
     </defs>
     <g transform="translate(166.311668 336.896565)scale(0.08 -0.08)">
      <use xlink:href="#DejaVuSans-41"/>
      <use x="68.408203" xlink:href="#DejaVuSans-67"/>
      <use x="131.884766" xlink:href="#DejaVuSans-6e"/>
      <use x="195.263672" xlink:href="#DejaVuSans-69"/>
      <use x="223.046875" xlink:href="#DejaVuSans-65"/>
      <use x="284.570312" xlink:href="#DejaVuSans-73"/>
      <use x="336.669922" xlink:href="#DejaVuSans-7a"/>
      <use x="389.160156" xlink:href="#DejaVuSans-6b"/>
      <use x="447.054688" xlink:href="#DejaVuSans-61"/>
      <use x="508.333984" xlink:href="#DejaVuSans-20"/>
      <use x="540.121094" xlink:href="#DejaVuSans-43"/>
     </g>
    </g>
   </g>
   <g id="text_14">
    <g clip-path="url(#p62f2a0992b)">
     <!-- Renata J -->
     <g transform="translate(462.96781 247.710478)scale(0.08 -0.08)">
      <use xlink:href="#DejaVuSans-52"/>
      <use x="69.419922" xlink:href="#DejaVuSans-65"/>
      <use x="130.943359" xlink:href="#DejaVuSans-6e"/>
      <use x="194.322266" xlink:href="#DejaVuSans-61"/>
      <use x="255.601562" xlink:href="#DejaVuSans-74"/>
      <use x="294.810547" xlink:href="#DejaVuSans-61"/>
      <use x="356.089844" xlink:href="#DejaVuSans-20"/>
      <use x="387.876953" xlink:href="#DejaVuSans-4a"/>
     </g>
    </g>
   </g>
   <g id="text_15">
    <g clip-path="url(#p62f2a0992b)">
     <!-- Jerzy Z -->
     <g transform="translate(176.945418 103.847194)scale(0.08 -0.08)">
      <use xlink:href="#DejaVuSans-4a"/>
      <use x="29.492188" xlink:href="#DejaVuSans-65"/>
      <use x="91.015625" xlink:href="#DejaVuSans-72"/>
      <use x="132.128906" xlink:href="#DejaVuSans-7a"/>
      <use x="184.619141" xlink:href="#DejaVuSans-79"/>
      <use x="243.798828" xlink:href="#DejaVuSans-20"/>
      <use x="275.585938" xlink:href="#DejaVuSans-5a"/>
     </g>
    </g>
   </g>
   <g id="text_16">
    <g clip-path="url(#p62f2a0992b)">
     <!-- Jesper L -->
     <defs>
      <path d="M 18.109375 8.203125 
L 18.109375 -20.796875 
L 9.078125 -20.796875 
L 9.078125 54.6875 
L 18.109375 54.6875 
L 18.109375 46.390625 
Q 20.953125 51.265625 25.265625 53.625 
Q 29.59375 56 35.59375 56 
Q 45.5625 56 51.78125 48.09375 
Q 58.015625 40.1875 58.015625 27.296875 
Q 58.015625 14.40625 51.78125 6.484375 
Q 45.5625 -1.421875 35.59375 -1.421875 
Q 29.59375 -1.421875 25.265625 0.953125 
Q 20.953125 3.328125 18.109375 8.203125 
z
M 48.6875 27.296875 
Q 48.6875 37.203125 44.609375 42.84375 
Q 40.53125 48.484375 33.40625 48.484375 
Q 26.265625 48.484375 22.1875 42.84375 
Q 18.109375 37.203125 18.109375 27.296875 
Q 18.109375 17.390625 22.1875 11.75 
Q 26.265625 6.109375 33.40625 6.109375 
Q 40.53125 6.109375 44.609375 11.75 
Q 48.6875 17.390625 48.6875 27.296875 
z
" id="DejaVuSans-70"/>
      <path d="M 9.8125 72.90625 
L 19.671875 72.90625 
L 19.671875 8.296875 
L 55.171875 8.296875 
L 55.171875 0 
L 9.8125 0 
z
" id="DejaVuSans-4c"/>
     </defs>
     <g transform="translate(383.822138 103.847194)scale(0.08 -0.08)">
      <use xlink:href="#DejaVuSans-4a"/>
      <use x="29.492188" xlink:href="#DejaVuSans-65"/>
      <use x="91.015625" xlink:href="#DejaVuSans-73"/>
      <use x="143.115234" xlink:href="#DejaVuSans-70"/>
      <use x="206.591797" xlink:href="#DejaVuSans-65"/>
      <use x="268.115234" xlink:href="#DejaVuSans-72"/>
      <use x="309.228516" xlink:href="#DejaVuSans-20"/>
      <use x="341.015625" xlink:href="#DejaVuSans-4c"/>
     </g>
    </g>
   </g>
   <g id="text_17">
    <g clip-path="url(#p62f2a0992b)">
     <!-- Liz B -->
     <g transform="translate(249.050961 357.822045)scale(0.08 -0.08)">
      <use xlink:href="#DejaVuSans-4c"/>
      <use x="55.712891" xlink:href="#DejaVuSans-69"/>
      <use x="83.496094" xlink:href="#DejaVuSans-7a"/>
      <use x="135.986328" xlink:href="#DejaVuSans-20"/>
      <use x="167.773438" xlink:href="#DejaVuSans-42"/>
     </g>
    </g>
   </g>
   <g id="text_18">
    <g clip-path="url(#p62f2a0992b)">
     <!-- Guillaume S -->
     <defs>
      <path d="M 59.515625 10.40625 
L 59.515625 29.984375 
L 43.40625 29.984375 
L 43.40625 38.09375 
L 69.28125 38.09375 
L 69.28125 6.78125 
Q 63.578125 2.734375 56.6875 0.65625 
Q 49.8125 -1.421875 42 -1.421875 
Q 24.90625 -1.421875 15.25 8.5625 
Q 5.609375 18.5625 5.609375 36.375 
Q 5.609375 54.25 15.25 64.234375 
Q 24.90625 74.21875 42 74.21875 
Q 49.125 74.21875 55.546875 72.453125 
Q 61.96875 70.703125 67.390625 67.28125 
L 67.390625 56.78125 
Q 61.921875 61.421875 55.765625 63.765625 
Q 49.609375 66.109375 42.828125 66.109375 
Q 29.4375 66.109375 22.71875 58.640625 
Q 16.015625 51.171875 16.015625 36.375 
Q 16.015625 21.625 22.71875 14.15625 
Q 29.4375 6.6875 42.828125 6.6875 
Q 48.046875 6.6875 52.140625 7.59375 
Q 56.25 8.5 59.515625 10.40625 
z
" id="DejaVuSans-47"/>
     </defs>
     <g transform="translate(349.265386 181.443051)scale(0.08 -0.08)">
      <use xlink:href="#DejaVuSans-47"/>
      <use x="77.490234" xlink:href="#DejaVuSans-75"/>
      <use x="140.869141" xlink:href="#DejaVuSans-69"/>
      <use x="168.652344" xlink:href="#DejaVuSans-6c"/>
      <use x="196.435547" xlink:href="#DejaVuSans-6c"/>
      <use x="224.21875" xlink:href="#DejaVuSans-61"/>
      <use x="285.498047" xlink:href="#DejaVuSans-75"/>
      <use x="348.876953" xlink:href="#DejaVuSans-6d"/>
      <use x="446.289062" xlink:href="#DejaVuSans-65"/>
      <use x="507.8125" xlink:href="#DejaVuSans-20"/>
      <use x="539.599609" xlink:href="#DejaVuSans-53"/>
     </g>
    </g>
   </g>
   <g id="text_19">
    <g clip-path="url(#p62f2a0992b)">
     <!-- Liliana S -->
     <g transform="translate(315.083414 357.822045)scale(0.08 -0.08)">
      <use xlink:href="#DejaVuSans-4c"/>
      <use x="55.712891" xlink:href="#DejaVuSans-69"/>
      <use x="83.496094" xlink:href="#DejaVuSans-6c"/>
      <use x="111.279297" xlink:href="#DejaVuSans-69"/>
      <use x="139.0625" xlink:href="#DejaVuSans-61"/>
      <use x="200.341797" xlink:href="#DejaVuSans-6e"/>
      <use x="263.720703" xlink:href="#DejaVuSans-61"/>
      <use x="325" xlink:href="#DejaVuSans-20"/>
      <use x="356.787109" xlink:href="#DejaVuSans-53"/>
     </g>
    </g>
   </g>
   <g id="text_20">
    <g clip-path="url(#p62f2a0992b)">
     <!-- Helena F -->
     <defs>
      <path d="M 9.8125 72.90625 
L 19.671875 72.90625 
L 19.671875 43.015625 
L 55.515625 43.015625 
L 55.515625 72.90625 
L 65.375 72.90625 
L 65.375 0 
L 55.515625 0 
L 55.515625 34.71875 
L 19.671875 34.71875 
L 19.671875 0 
L 9.8125 0 
z
" id="DejaVuSans-48"/>
      <path d="M 9.8125 72.90625 
L 51.703125 72.90625 
L 51.703125 64.59375 
L 19.671875 64.59375 
L 19.671875 43.109375 
L 48.578125 43.109375 
L 48.578125 34.8125 
L 19.671875 34.8125 
L 19.671875 0 
L 9.8125 0 
z
" id="DejaVuSans-46"/>
     </defs>
     <g transform="translate(314.294039 82.912955)scale(0.08 -0.08)">
      <use xlink:href="#DejaVuSans-48"/>
      <use x="75.195312" xlink:href="#DejaVuSans-65"/>
      <use x="136.71875" xlink:href="#DejaVuSans-6c"/>
      <use x="164.501953" xlink:href="#DejaVuSans-65"/>
      <use x="226.025391" xlink:href="#DejaVuSans-6e"/>
      <use x="289.404297" xlink:href="#DejaVuSans-61"/>
      <use x="350.683594" xlink:href="#DejaVuSans-20"/>
      <use x="382.470703" xlink:href="#DejaVuSans-46"/>
     </g>
    </g>
   </g>
   <g id="text_21">
    <g clip-path="url(#p62f2a0992b)">
     <!-- Alain S -->
     <g transform="translate(214.945816 170.82508)scale(0.08 -0.08)">
      <use xlink:href="#DejaVuSans-41"/>
      <use x="68.408203" xlink:href="#DejaVuSans-6c"/>
      <use x="96.191406" xlink:href="#DejaVuSans-61"/>
      <use x="157.470703" xlink:href="#DejaVuSans-69"/>
      <use x="185.253906" xlink:href="#DejaVuSans-6e"/>
      <use x="248.632812" xlink:href="#DejaVuSans-20"/>
      <use x="280.419922" xlink:href="#DejaVuSans-53"/>
     </g>
    </g>
   </g>
  </g>
 </g>
 <defs>
  <clipPath id="p62f2a0992b">
   <rect height="332.64" width="446.4" x="72" y="51.84"/>
  </clipPath>
 </defs>
</svg>
