<?xml version="1.0" encoding="utf-8" standalone="no"?>
<!DOCTYPE svg PUBLIC "-//W3C//DTD SVG 1.1//EN"
  "http://www.w3.org/Graphics/SVG/1.1/DTD/svg11.dtd">
<!-- Created with matplotlib (http://matplotlib.org/) -->
<svg height="432pt" version="1.1" viewBox="0 0 576 432" width="576pt" xmlns="http://www.w3.org/2000/svg" xmlns:xlink="http://www.w3.org/1999/xlink">
 <defs>
  <style type="text/css">
*{stroke-linecap:butt;stroke-linejoin:round;}
  </style>
 </defs>
 <g id="figure_1">
  <g id="patch_1">
   <path d="
M0 432
L576 432
L576 0
L0 0
z
" style="fill:#ffffff;"/>
  </g>
  <g id="axes_1">
   <g id="LineCollection_1">
    <defs>
     <path d="
M318.636 -180.36
L394.145 -204.674" id="C0_0_87b2ee50f8"/>
     <path d="
M318.636 -180.36
L358.812 -241.93" id="C0_1_3fbeaff579"/>
     <path d="
M318.636 -180.36
L394.145 -156.044" id="C0_2_6af71d98b0"/>
     <path d="
M318.636 -180.36
L257.077 -134.661" id="C0_3_b6e40d319b"/>
     <path d="
M318.636 -180.36
L304.686 -110.345" id="C0_4_c84cda9c99"/>
     <path d="
M318.636 -180.36
L358.812 -118.79" id="C0_5_b6b4dafb11"/>
     <path d="
M318.636 -180.36
L257.077 -226.062" id="C0_6_4e57e1e62a"/>
     <path d="
M394.145 -204.674
L469.653 -228.995" id="C0_7_4beefaebd2"/>
     <path d="
M394.145 -204.674
L394.145 -156.044" id="C0_8_9eb7f6bec3"/>
     <path d="
M394.145 -204.674
L257.077 -226.062" id="C0_9_e2189240e3"/>
     <path d="
M358.812 -241.93
L394.145 -156.044" id="C0_a_38dc21701d"/>
     <path d="
M358.812 -241.93
L257.077 -134.661" id="C0_b_22433c7a69"/>
     <path d="
M358.812 -241.93
L304.686 -110.345" id="C0_c_fe9d7d5651"/>
     <path d="
M358.812 -241.93
L358.812 -118.79" id="C0_d_f215656fc7"/>
     <path d="
M358.812 -241.93
L257.077 -226.062" id="C0_e_3e8f231102"/>
     <path d="
M257.077 -226.062
L394.145 -156.044" id="C0_f_df3ffa2d88"/>
     <path d="
M257.077 -226.062
L290.725 -320.391" id="C0_10_e77074b7c0"/>
     <path d="
M257.077 -226.062
L257.077 -134.661" id="C0_11_ec53fcc720"/>
     <path d="
M257.077 -226.062
L195.53 -271.76" id="C0_12_62872f446d"/>
     <path d="
M257.077 -226.062
L304.686 -110.345" id="C0_13_3cff374f89"/>
     <path d="
M257.077 -226.062
L358.812 -118.79" id="C0_14_53866efab6"/>
     <path d="
M257.077 -226.062
L157.932 -180.36" id="C0_15_772468f121"/>
     <path d="
M257.077 -226.062
L469.653 -228.995" id="C0_16_55c7f0c389"/>
     <path d="
M290.725 -320.391
L469.653 -228.995" id="C0_17_b9f3ffb7b8"/>
     <path d="
M257.077 -134.661
L394.145 -156.044" id="C0_18_2559bc7f13"/>
     <path d="
M257.077 -134.661
L304.686 -110.345" id="C0_19_105a2fd384"/>
     <path d="
M257.077 -134.661
L358.812 -118.79" id="C0_1a_eecaf739fb"/>
     <path d="
M257.077 -134.661
L157.932 -180.36" id="C0_1b_7673cf216b"/>
     <path d="
M195.53 -271.76
L469.653 -228.995" id="C0_1c_5c1fdc9aa7"/>
     <path d="
M195.53 -271.76
L394.145 -156.044" id="C0_1d_066c9321d0"/>
     <path d="
M195.53 -271.76
L304.686 -110.345" id="C0_1e_b18f345276"/>
     <path d="
M358.812 -118.79
L394.145 -156.044" id="C0_1f_0ca3abcf98"/>
     <path d="
M358.812 -118.79
L157.932 -180.36" id="C0_20_b8d467a10b"/>
     <path d="
M157.932 -180.36
L394.145 -156.044" id="C0_21_c5c8f6e98a"/>
     <path d="
M394.145 -156.044
L469.653 -228.995" id="C0_22_9c097114ae"/>
    </defs>
    <g clip-path="url(#p7ff5b81e1d)">
     <use style="fill:none;stroke:#808080;stroke-opacity:0.7;" x="0.0" xlink:href="#C0_0_87b2ee50f8" y="432.0"/>
    </g>
    <g clip-path="url(#p7ff5b81e1d)">
     <use style="fill:none;stroke:#808080;stroke-opacity:0.7;" x="0.0" xlink:href="#C0_1_3fbeaff579" y="432.0"/>
    </g>
    <g clip-path="url(#p7ff5b81e1d)">
     <use style="fill:none;stroke:#808080;stroke-opacity:0.7;" x="0.0" xlink:href="#C0_2_6af71d98b0" y="432.0"/>
    </g>
    <g clip-path="url(#p7ff5b81e1d)">
     <use style="fill:none;stroke:#808080;stroke-opacity:0.7;" x="0.0" xlink:href="#C0_3_b6e40d319b" y="432.0"/>
    </g>
    <g clip-path="url(#p7ff5b81e1d)">
     <use style="fill:none;stroke:#808080;stroke-opacity:0.7;" x="0.0" xlink:href="#C0_4_c84cda9c99" y="432.0"/>
    </g>
    <g clip-path="url(#p7ff5b81e1d)">
     <use style="fill:none;stroke:#808080;stroke-opacity:0.7;" x="0.0" xlink:href="#C0_5_b6b4dafb11" y="432.0"/>
    </g>
    <g clip-path="url(#p7ff5b81e1d)">
     <use style="fill:none;stroke:#808080;stroke-opacity:0.7;" x="0.0" xlink:href="#C0_6_4e57e1e62a" y="432.0"/>
    </g>
    <g clip-path="url(#p7ff5b81e1d)">
     <use style="fill:none;stroke:#808080;stroke-opacity:0.7;" x="0.0" xlink:href="#C0_7_4beefaebd2" y="432.0"/>
    </g>
    <g clip-path="url(#p7ff5b81e1d)">
     <use style="fill:none;stroke:#808080;stroke-opacity:0.7;" x="0.0" xlink:href="#C0_8_9eb7f6bec3" y="432.0"/>
    </g>
    <g clip-path="url(#p7ff5b81e1d)">
     <use style="fill:none;stroke:#808080;stroke-opacity:0.7;" x="0.0" xlink:href="#C0_9_e2189240e3" y="432.0"/>
    </g>
    <g clip-path="url(#p7ff5b81e1d)">
     <use style="fill:none;stroke:#808080;stroke-opacity:0.7;" x="0.0" xlink:href="#C0_a_38dc21701d" y="432.0"/>
    </g>
    <g clip-path="url(#p7ff5b81e1d)">
     <use style="fill:none;stroke:#808080;stroke-opacity:0.7;" x="0.0" xlink:href="#C0_b_22433c7a69" y="432.0"/>
    </g>
    <g clip-path="url(#p7ff5b81e1d)">
     <use style="fill:none;stroke:#808080;stroke-opacity:0.7;" x="0.0" xlink:href="#C0_c_fe9d7d5651" y="432.0"/>
    </g>
    <g clip-path="url(#p7ff5b81e1d)">
     <use style="fill:none;stroke:#808080;stroke-opacity:0.7;" x="0.0" xlink:href="#C0_d_f215656fc7" y="432.0"/>
    </g>
    <g clip-path="url(#p7ff5b81e1d)">
     <use style="fill:none;stroke:#808080;stroke-opacity:0.7;" x="0.0" xlink:href="#C0_e_3e8f231102" y="432.0"/>
    </g>
    <g clip-path="url(#p7ff5b81e1d)">
     <use style="fill:none;stroke:#808080;stroke-opacity:0.7;" x="0.0" xlink:href="#C0_f_df3ffa2d88" y="432.0"/>
    </g>
    <g clip-path="url(#p7ff5b81e1d)">
     <use style="fill:none;stroke:#808080;stroke-opacity:0.7;" x="0.0" xlink:href="#C0_10_e77074b7c0" y="432.0"/>
    </g>
    <g clip-path="url(#p7ff5b81e1d)">
     <use style="fill:none;stroke:#808080;stroke-opacity:0.7;" x="0.0" xlink:href="#C0_11_ec53fcc720" y="432.0"/>
    </g>
    <g clip-path="url(#p7ff5b81e1d)">
     <use style="fill:none;stroke:#808080;stroke-opacity:0.7;" x="0.0" xlink:href="#C0_12_62872f446d" y="432.0"/>
    </g>
    <g clip-path="url(#p7ff5b81e1d)">
     <use style="fill:none;stroke:#808080;stroke-opacity:0.7;" x="0.0" xlink:href="#C0_13_3cff374f89" y="432.0"/>
    </g>
    <g clip-path="url(#p7ff5b81e1d)">
     <use style="fill:none;stroke:#808080;stroke-opacity:0.7;" x="0.0" xlink:href="#C0_14_53866efab6" y="432.0"/>
    </g>
    <g clip-path="url(#p7ff5b81e1d)">
     <use style="fill:none;stroke:#808080;stroke-opacity:0.7;" x="0.0" xlink:href="#C0_15_772468f121" y="432.0"/>
    </g>
    <g clip-path="url(#p7ff5b81e1d)">
     <use style="fill:none;stroke:#808080;stroke-opacity:0.7;" x="0.0" xlink:href="#C0_16_55c7f0c389" y="432.0"/>
    </g>
    <g clip-path="url(#p7ff5b81e1d)">
     <use style="fill:none;stroke:#808080;stroke-opacity:0.7;" x="0.0" xlink:href="#C0_17_b9f3ffb7b8" y="432.0"/>
    </g>
    <g clip-path="url(#p7ff5b81e1d)">
     <use style="fill:none;stroke:#808080;stroke-opacity:0.7;" x="0.0" xlink:href="#C0_18_2559bc7f13" y="432.0"/>
    </g>
    <g clip-path="url(#p7ff5b81e1d)">
     <use style="fill:none;stroke:#808080;stroke-opacity:0.7;" x="0.0" xlink:href="#C0_19_105a2fd384" y="432.0"/>
    </g>
    <g clip-path="url(#p7ff5b81e1d)">
     <use style="fill:none;stroke:#808080;stroke-opacity:0.7;" x="0.0" xlink:href="#C0_1a_eecaf739fb" y="432.0"/>
    </g>
    <g clip-path="url(#p7ff5b81e1d)">
     <use style="fill:none;stroke:#808080;stroke-opacity:0.7;" x="0.0" xlink:href="#C0_1b_7673cf216b" y="432.0"/>
    </g>
    <g clip-path="url(#p7ff5b81e1d)">
     <use style="fill:none;stroke:#808080;stroke-opacity:0.7;" x="0.0" xlink:href="#C0_1c_5c1fdc9aa7" y="432.0"/>
    </g>
    <g clip-path="url(#p7ff5b81e1d)">
     <use style="fill:none;stroke:#808080;stroke-opacity:0.7;" x="0.0" xlink:href="#C0_1d_066c9321d0" y="432.0"/>
    </g>
    <g clip-path="url(#p7ff5b81e1d)">
     <use style="fill:none;stroke:#808080;stroke-opacity:0.7;" x="0.0" xlink:href="#C0_1e_b18f345276" y="432.0"/>
    </g>
    <g clip-path="url(#p7ff5b81e1d)">
     <use style="fill:none;stroke:#808080;stroke-opacity:0.7;" x="0.0" xlink:href="#C0_1f_0ca3abcf98" y="432.0"/>
    </g>
    <g clip-path="url(#p7ff5b81e1d)">
     <use style="fill:none;stroke:#808080;stroke-opacity:0.7;" x="0.0" xlink:href="#C0_20_b8d467a10b" y="432.0"/>
    </g>
    <g clip-path="url(#p7ff5b81e1d)">
     <use style="fill:none;stroke:#808080;stroke-opacity:0.7;" x="0.0" xlink:href="#C0_21_c5c8f6e98a" y="432.0"/>
    </g>
    <g clip-path="url(#p7ff5b81e1d)">
     <use style="fill:none;stroke:#808080;stroke-opacity:0.7;" x="0.0" xlink:href="#C0_22_9c097114ae" y="432.0"/>
    </g>
   </g>
   <g id="LineCollection_2">
    <defs>
     <path d="
M318.636 -180.36
L257.077 -226.062" id="C1_0_4e57e1e62a"/>
     <path d="
M394.145 -204.674
L257.077 -226.062" id="C1_1_e2189240e3"/>
     <path d="
M358.812 -241.93
L257.077 -226.062" id="C1_2_3e8f231102"/>
     <path d="
M257.077 -226.062
L394.145 -156.044" id="C1_3_df3ffa2d88"/>
     <path d="
M257.077 -226.062
L290.725 -320.391" id="C1_4_e77074b7c0"/>
     <path d="
M257.077 -226.062
L195.53 -271.76" id="C1_5_62872f446d"/>
     <path d="
M257.077 -226.062
L304.686 -110.345" id="C1_6_3cff374f89"/>
     <path d="
M257.077 -226.062
L157.932 -180.36" id="C1_7_772468f121"/>
     <path d="
M257.077 -226.062
L469.653 -228.995" id="C1_8_55c7f0c389"/>
     <path d="
M157.932 -180.36
L394.145 -156.044" id="C1_9_c5c8f6e98a"/>
    </defs>
    <g clip-path="url(#p7ff5b81e1d)">
     <use style="fill:none;stroke:#000000;stroke-opacity:0.6;stroke-width:4;" x="0.0" xlink:href="#C1_0_4e57e1e62a" y="432.0"/>
    </g>
    <g clip-path="url(#p7ff5b81e1d)">
     <use style="fill:none;stroke:#000000;stroke-opacity:0.6;stroke-width:4;" x="0.0" xlink:href="#C1_1_e2189240e3" y="432.0"/>
    </g>
    <g clip-path="url(#p7ff5b81e1d)">
     <use style="fill:none;stroke:#000000;stroke-opacity:0.6;stroke-width:4;" x="0.0" xlink:href="#C1_2_3e8f231102" y="432.0"/>
    </g>
    <g clip-path="url(#p7ff5b81e1d)">
     <use style="fill:none;stroke:#000000;stroke-opacity:0.6;stroke-width:4;" x="0.0" xlink:href="#C1_3_df3ffa2d88" y="432.0"/>
    </g>
    <g clip-path="url(#p7ff5b81e1d)">
     <use style="fill:none;stroke:#000000;stroke-opacity:0.6;stroke-width:4;" x="0.0" xlink:href="#C1_4_e77074b7c0" y="432.0"/>
    </g>
    <g clip-path="url(#p7ff5b81e1d)">
     <use style="fill:none;stroke:#000000;stroke-opacity:0.6;stroke-width:4;" x="0.0" xlink:href="#C1_5_62872f446d" y="432.0"/>
    </g>
    <g clip-path="url(#p7ff5b81e1d)">
     <use style="fill:none;stroke:#000000;stroke-opacity:0.6;stroke-width:4;" x="0.0" xlink:href="#C1_6_3cff374f89" y="432.0"/>
    </g>
    <g clip-path="url(#p7ff5b81e1d)">
     <use style="fill:none;stroke:#000000;stroke-opacity:0.6;stroke-width:4;" x="0.0" xlink:href="#C1_7_772468f121" y="432.0"/>
    </g>
    <g clip-path="url(#p7ff5b81e1d)">
     <use style="fill:none;stroke:#000000;stroke-opacity:0.6;stroke-width:4;" x="0.0" xlink:href="#C1_8_55c7f0c389" y="432.0"/>
    </g>
    <g clip-path="url(#p7ff5b81e1d)">
     <use style="fill:none;stroke:#000000;stroke-opacity:0.6;stroke-width:4;" x="0.0" xlink:href="#C1_9_c5c8f6e98a" y="432.0"/>
    </g>
   </g>
   <g id="LineCollection_3">
    <defs>
     <path d="
M318.636 -180.36
L358.812 -241.93" id="C2_0_3fbeaff579"/>
     <path d="
M318.636 -180.36
L304.686 -110.345" id="C2_1_c84cda9c99"/>
     <path d="
M318.636 -180.36
L358.812 -118.79" id="C2_2_b6b4dafb11"/>
     <path d="
M358.812 -241.93
L304.686 -110.345" id="C2_3_fe9d7d5651"/>
     <path d="
M290.725 -320.391
L469.653 -228.995" id="C2_4_b9f3ffb7b8"/>
     <path d="
M257.077 -134.661
L358.812 -118.79" id="C2_5_eecaf739fb"/>
     <path d="
M195.53 -271.76
L394.145 -156.044" id="C2_6_066c9321d0"/>
     <path d="
M394.145 -156.044
L469.653 -228.995" id="C2_7_9c097114ae"/>
    </defs>
    <g clip-path="url(#p7ff5b81e1d)">
     <use style="fill:none;stroke:#000000;stroke-opacity:0.5;stroke-width:3;" x="0.0" xlink:href="#C2_0_3fbeaff579" y="432.0"/>
    </g>
    <g clip-path="url(#p7ff5b81e1d)">
     <use style="fill:none;stroke:#000000;stroke-opacity:0.5;stroke-width:3;" x="0.0" xlink:href="#C2_1_c84cda9c99" y="432.0"/>
    </g>
    <g clip-path="url(#p7ff5b81e1d)">
     <use style="fill:none;stroke:#000000;stroke-opacity:0.5;stroke-width:3;" x="0.0" xlink:href="#C2_2_b6b4dafb11" y="432.0"/>
    </g>
    <g clip-path="url(#p7ff5b81e1d)">
     <use style="fill:none;stroke:#000000;stroke-opacity:0.5;stroke-width:3;" x="0.0" xlink:href="#C2_3_fe9d7d5651" y="432.0"/>
    </g>
    <g clip-path="url(#p7ff5b81e1d)">
     <use style="fill:none;stroke:#000000;stroke-opacity:0.5;stroke-width:3;" x="0.0" xlink:href="#C2_4_b9f3ffb7b8" y="432.0"/>
    </g>
    <g clip-path="url(#p7ff5b81e1d)">
     <use style="fill:none;stroke:#000000;stroke-opacity:0.5;stroke-width:3;" x="0.0" xlink:href="#C2_5_eecaf739fb" y="432.0"/>
    </g>
    <g clip-path="url(#p7ff5b81e1d)">
     <use style="fill:none;stroke:#000000;stroke-opacity:0.5;stroke-width:3;" x="0.0" xlink:href="#C2_6_066c9321d0" y="432.0"/>
    </g>
    <g clip-path="url(#p7ff5b81e1d)">
     <use style="fill:none;stroke:#000000;stroke-opacity:0.5;stroke-width:3;" x="0.0" xlink:href="#C2_7_9c097114ae" y="432.0"/>
    </g>
   </g>
   <g id="LineCollection_4">
    <defs>
     <path d="
M318.636 -180.36
L394.145 -204.674" id="C3_0_87b2ee50f8"/>
     <path d="
M318.636 -180.36
L394.145 -156.044" id="C3_1_6af71d98b0"/>
     <path d="
M318.636 -180.36
L257.077 -134.661" id="C3_2_b6e40d319b"/>
     <path d="
M394.145 -204.674
L469.653 -228.995" id="C3_3_4beefaebd2"/>
     <path d="
M394.145 -204.674
L394.145 -156.044" id="C3_4_9eb7f6bec3"/>
     <path d="
M358.812 -241.93
L394.145 -156.044" id="C3_5_38dc21701d"/>
     <path d="
M358.812 -241.93
L257.077 -134.661" id="C3_6_22433c7a69"/>
     <path d="
M358.812 -241.93
L358.812 -118.79" id="C3_7_f215656fc7"/>
     <path d="
M257.077 -226.062
L257.077 -134.661" id="C3_8_ec53fcc720"/>
     <path d="
M257.077 -226.062
L358.812 -118.79" id="C3_9_53866efab6"/>
     <path d="
M257.077 -134.661
L394.145 -156.044" id="C3_a_2559bc7f13"/>
     <path d="
M257.077 -134.661
L304.686 -110.345" id="C3_b_105a2fd384"/>
     <path d="
M257.077 -134.661
L157.932 -180.36" id="C3_c_7673cf216b"/>
     <path d="
M195.53 -271.76
L469.653 -228.995" id="C3_d_5c1fdc9aa7"/>
     <path d="
M195.53 -271.76
L304.686 -110.345" id="C3_e_b18f345276"/>
     <path d="
M358.812 -118.79
L394.145 -156.044" id="C3_f_0ca3abcf98"/>
     <path d="
M358.812 -118.79
L157.932 -180.36" id="C3_10_b8d467a10b"/>
    </defs>
    <g clip-path="url(#p7ff5b81e1d)">
     <use style="fill:none;stroke:#000000;stroke-opacity:0.4;stroke-width:2;" x="0.0" xlink:href="#C3_0_87b2ee50f8" y="432.0"/>
    </g>
    <g clip-path="url(#p7ff5b81e1d)">
     <use style="fill:none;stroke:#000000;stroke-opacity:0.4;stroke-width:2;" x="0.0" xlink:href="#C3_1_6af71d98b0" y="432.0"/>
    </g>
    <g clip-path="url(#p7ff5b81e1d)">
     <use style="fill:none;stroke:#000000;stroke-opacity:0.4;stroke-width:2;" x="0.0" xlink:href="#C3_2_b6e40d319b" y="432.0"/>
    </g>
    <g clip-path="url(#p7ff5b81e1d)">
     <use style="fill:none;stroke:#000000;stroke-opacity:0.4;stroke-width:2;" x="0.0" xlink:href="#C3_3_4beefaebd2" y="432.0"/>
    </g>
    <g clip-path="url(#p7ff5b81e1d)">
     <use style="fill:none;stroke:#000000;stroke-opacity:0.4;stroke-width:2;" x="0.0" xlink:href="#C3_4_9eb7f6bec3" y="432.0"/>
    </g>
    <g clip-path="url(#p7ff5b81e1d)">
     <use style="fill:none;stroke:#000000;stroke-opacity:0.4;stroke-width:2;" x="0.0" xlink:href="#C3_5_38dc21701d" y="432.0"/>
    </g>
    <g clip-path="url(#p7ff5b81e1d)">
     <use style="fill:none;stroke:#000000;stroke-opacity:0.4;stroke-width:2;" x="0.0" xlink:href="#C3_6_22433c7a69" y="432.0"/>
    </g>
    <g clip-path="url(#p7ff5b81e1d)">
     <use style="fill:none;stroke:#000000;stroke-opacity:0.4;stroke-width:2;" x="0.0" xlink:href="#C3_7_f215656fc7" y="432.0"/>
    </g>
    <g clip-path="url(#p7ff5b81e1d)">
     <use style="fill:none;stroke:#000000;stroke-opacity:0.4;stroke-width:2;" x="0.0" xlink:href="#C3_8_ec53fcc720" y="432.0"/>
    </g>
    <g clip-path="url(#p7ff5b81e1d)">
     <use style="fill:none;stroke:#000000;stroke-opacity:0.4;stroke-width:2;" x="0.0" xlink:href="#C3_9_53866efab6" y="432.0"/>
    </g>
    <g clip-path="url(#p7ff5b81e1d)">
     <use style="fill:none;stroke:#000000;stroke-opacity:0.4;stroke-width:2;" x="0.0" xlink:href="#C3_a_2559bc7f13" y="432.0"/>
    </g>
    <g clip-path="url(#p7ff5b81e1d)">
     <use style="fill:none;stroke:#000000;stroke-opacity:0.4;stroke-width:2;" x="0.0" xlink:href="#C3_b_105a2fd384" y="432.0"/>
    </g>
    <g clip-path="url(#p7ff5b81e1d)">
     <use style="fill:none;stroke:#000000;stroke-opacity:0.4;stroke-width:2;" x="0.0" xlink:href="#C3_c_7673cf216b" y="432.0"/>
    </g>
    <g clip-path="url(#p7ff5b81e1d)">
     <use style="fill:none;stroke:#000000;stroke-opacity:0.4;stroke-width:2;" x="0.0" xlink:href="#C3_d_5c1fdc9aa7" y="432.0"/>
    </g>
    <g clip-path="url(#p7ff5b81e1d)">
     <use style="fill:none;stroke:#000000;stroke-opacity:0.4;stroke-width:2;" x="0.0" xlink:href="#C3_e_b18f345276" y="432.0"/>
    </g>
    <g clip-path="url(#p7ff5b81e1d)">
     <use style="fill:none;stroke:#000000;stroke-opacity:0.4;stroke-width:2;" x="0.0" xlink:href="#C3_f_0ca3abcf98" y="432.0"/>
    </g>
    <g clip-path="url(#p7ff5b81e1d)">
     <use style="fill:none;stroke:#000000;stroke-opacity:0.4;stroke-width:2;" x="0.0" xlink:href="#C3_10_b8d467a10b" y="432.0"/>
    </g>
   </g>
   <g id="LineCollection_5">
    <defs>
     <path d="
M257.077 -226.062
L257.077 -134.661" id="C4_0_ec53fcc720"/>
     <path d="
M257.077 -226.062
L358.812 -118.79" id="C4_1_53866efab6"/>
    </defs>
    <g clip-path="url(#p7ff5b81e1d)">
     <use style="fill:none;stroke:#cd5c5c;stroke-dasharray:6.000000,6.000000;stroke-dashoffset:0.0;stroke-opacity:0.6;stroke-width:5;" x="0.0" xlink:href="#C4_0_ec53fcc720" y="432.0"/>
    </g>
    <g clip-path="url(#p7ff5b81e1d)">
     <use style="fill:none;stroke:#cd5c5c;stroke-dasharray:6.000000,6.000000;stroke-dashoffset:0.0;stroke-opacity:0.6;stroke-width:5;" x="0.0" xlink:href="#C4_1_53866efab6" y="432.0"/>
    </g>
   </g>
   <g id="LineCollection_6">
    <defs>
     <path d="
M257.077 -226.062
L318.636 -180.36" id="C5_0_45e1efc635"/>
     <path d="
M257.077 -226.062
L394.145 -204.674" id="C5_1_d6fb00e643"/>
     <path d="
M257.077 -226.062
L358.812 -241.93" id="C5_2_a57cdfe2db"/>
     <path d="
M257.077 -226.062
L394.145 -156.044" id="C5_3_df3ffa2d88"/>
     <path d="
M257.077 -226.062
L195.53 -271.76" id="C5_4_62872f446d"/>
     <path d="
M257.077 -226.062
L304.686 -110.345" id="C5_5_3cff374f89"/>
     <path d="
M257.077 -226.062
L157.932 -180.36" id="C5_6_772468f121"/>
     <path d="
M257.077 -226.062
L469.653 -228.995" id="C5_7_55c7f0c389"/>
    </defs>
    <g clip-path="url(#p7ff5b81e1d)">
     <use style="fill:none;stroke:#33a02c;stroke-dasharray:6.000000,6.000000;stroke-dashoffset:0.0;stroke-opacity:0.6;stroke-width:5;" x="0.0" xlink:href="#C5_0_45e1efc635" y="432.0"/>
    </g>
    <g clip-path="url(#p7ff5b81e1d)">
     <use style="fill:none;stroke:#33a02c;stroke-dasharray:6.000000,6.000000;stroke-dashoffset:0.0;stroke-opacity:0.6;stroke-width:5;" x="0.0" xlink:href="#C5_1_d6fb00e643" y="432.0"/>
    </g>
    <g clip-path="url(#p7ff5b81e1d)">
     <use style="fill:none;stroke:#33a02c;stroke-dasharray:6.000000,6.000000;stroke-dashoffset:0.0;stroke-opacity:0.6;stroke-width:5;" x="0.0" xlink:href="#C5_2_a57cdfe2db" y="432.0"/>
    </g>
    <g clip-path="url(#p7ff5b81e1d)">
     <use style="fill:none;stroke:#33a02c;stroke-dasharray:6.000000,6.000000;stroke-dashoffset:0.0;stroke-opacity:0.6;stroke-width:5;" x="0.0" xlink:href="#C5_3_df3ffa2d88" y="432.0"/>
    </g>
    <g clip-path="url(#p7ff5b81e1d)">
     <use style="fill:none;stroke:#33a02c;stroke-dasharray:6.000000,6.000000;stroke-dashoffset:0.0;stroke-opacity:0.6;stroke-width:5;" x="0.0" xlink:href="#C5_4_62872f446d" y="432.0"/>
    </g>
    <g clip-path="url(#p7ff5b81e1d)">
     <use style="fill:none;stroke:#33a02c;stroke-dasharray:6.000000,6.000000;stroke-dashoffset:0.0;stroke-opacity:0.6;stroke-width:5;" x="0.0" xlink:href="#C5_5_3cff374f89" y="432.0"/>
    </g>
    <g clip-path="url(#p7ff5b81e1d)">
     <use style="fill:none;stroke:#33a02c;stroke-dasharray:6.000000,6.000000;stroke-dashoffset:0.0;stroke-opacity:0.6;stroke-width:5;" x="0.0" xlink:href="#C5_6_772468f121" y="432.0"/>
    </g>
    <g clip-path="url(#p7ff5b81e1d)">
     <use style="fill:none;stroke:#33a02c;stroke-dasharray:6.000000,6.000000;stroke-dashoffset:0.0;stroke-opacity:0.6;stroke-width:5;" x="0.0" xlink:href="#C5_7_55c7f0c389" y="432.0"/>
    </g>
   </g>
   <g id="PathCollection_1">
    <defs>
     <path d="
M0 26.4575
C7.01661 26.4575 13.7468 23.6698 18.7083 18.7083
C23.6698 13.7468 26.4575 7.01661 26.4575 0
C26.4575 -7.01661 23.6698 -13.7468 18.7083 -18.7083
C13.7468 -23.6698 7.01661 -26.4575 0 -26.4575
C-7.01661 -26.4575 -13.7468 -23.6698 -18.7083 -18.7083
C-23.6698 -13.7468 -26.4575 -7.01661 -26.4575 0
C-26.4575 7.01661 -23.6698 13.7468 -18.7083 18.7083
C-13.7468 23.6698 -7.01661 26.4575 0 26.4575
z
" id="m7b51eb38a4" style="stroke:#ffffff;"/>
    </defs>
    <g clip-path="url(#p7ff5b81e1d)">
     <use style="fill:#cab2d6;stroke:#ffffff;" x="257.07744" xlink:href="#m7b51eb38a4" y="205.938102857"/>
    </g>
   </g>
   <g id="PathCollection_2">
    <defs>
     <path d="
M0 23.9792
C6.35935 23.9792 12.4591 21.4526 16.9558 16.9558
C21.4526 12.4591 23.9792 6.35935 23.9792 0
C23.9792 -6.35935 21.4526 -12.4591 16.9558 -16.9558
C12.4591 -21.4526 6.35935 -23.9792 0 -23.9792
C-6.35935 -23.9792 -12.4591 -21.4526 -16.9558 -16.9558
C-21.4526 -12.4591 -23.9792 -6.35935 -23.9792 0
C-23.9792 6.35935 -21.4526 12.4591 -16.9558 16.9558
C-12.4591 21.4526 -6.35935 23.9792 0 23.9792
z
" id="m40ee9afd51" style="stroke:#ffffff;stroke-opacity:0.6;"/>
    </defs>
    <g clip-path="url(#p7ff5b81e1d)">
     <use style="fill:#33a02c;fill-opacity:0.6;stroke:#ffffff;stroke-opacity:0.6;" x="318.636" xlink:href="#m40ee9afd51" y="251.640246857"/>
     <use style="fill:#33a02c;fill-opacity:0.6;stroke:#ffffff;stroke-opacity:0.6;" x="394.14456" xlink:href="#m40ee9afd51" y="227.325805714"/>
     <use style="fill:#33a02c;fill-opacity:0.6;stroke:#ffffff;stroke-opacity:0.6;" x="358.812" xlink:href="#m40ee9afd51" y="190.070125714"/>
     <use style="fill:#33a02c;fill-opacity:0.6;stroke:#ffffff;stroke-opacity:0.6;" x="394.14456" xlink:href="#m40ee9afd51" y="275.955675429"/>
     <use style="fill:#33a02c;fill-opacity:0.6;stroke:#ffffff;stroke-opacity:0.6;" x="290.72484" xlink:href="#m40ee9afd51" y="111.609051429"/>
     <use style="fill:#33a02c;fill-opacity:0.6;stroke:#ffffff;stroke-opacity:0.6;" x="195.53004" xlink:href="#m40ee9afd51" y="160.239908571"/>
     <use style="fill:#33a02c;fill-opacity:0.6;stroke:#ffffff;stroke-opacity:0.6;" x="304.686" xlink:href="#m40ee9afd51" y="321.654857143"/>
     <use style="fill:#33a02c;fill-opacity:0.6;stroke:#ffffff;stroke-opacity:0.6;" x="157.932" xlink:href="#m40ee9afd51" y="251.640246857"/>
     <use style="fill:#33a02c;fill-opacity:0.6;stroke:#ffffff;stroke-opacity:0.6;" x="469.65312" xlink:href="#m40ee9afd51" y="203.00544"/>
    </g>
   </g>
   <g id="PathCollection_3">
    <defs>
     <path d="
M0 23.9792
C6.35935 23.9792 12.4591 21.4526 16.9558 16.9558
C21.4526 12.4591 23.9792 6.35935 23.9792 0
C23.9792 -6.35935 21.4526 -12.4591 16.9558 -16.9558
C12.4591 -21.4526 6.35935 -23.9792 0 -23.9792
C-6.35935 -23.9792 -12.4591 -21.4526 -16.9558 -16.9558
C-21.4526 -12.4591 -23.9792 -6.35935 -23.9792 0
C-23.9792 6.35935 -21.4526 12.4591 -16.9558 16.9558
C-12.4591 21.4526 -6.35935 23.9792 0 23.9792
z
" id="mf124c272a1" style="stroke:#ffffff;"/>
    </defs>
    <g clip-path="url(#p7ff5b81e1d)">
     <use style="fill:#cd5c5c;stroke:#ffffff;" x="358.812" xlink:href="#mf124c272a1" y="313.210368"/>
     <use style="fill:#cd5c5c;stroke:#ffffff;" x="257.07744" xlink:href="#mf124c272a1" y="297.339428571"/>
    </g>
   </g>
   <g id="PathCollection_4">
    <defs>
     <path d="
M0 20.6155
C5.4673 20.6155 10.7114 18.4433 14.5774 14.5774
C18.4433 10.7114 20.6155 5.4673 20.6155 0
C20.6155 -5.4673 18.4433 -10.7114 14.5774 -14.5774
C10.7114 -18.4433 5.4673 -20.6155 0 -20.6155
C-5.4673 -20.6155 -10.7114 -18.4433 -14.5774 -14.5774
C-18.4433 -10.7114 -20.6155 -5.4673 -20.6155 0
C-20.6155 5.4673 -18.4433 10.7114 -14.5774 14.5774
C-10.7114 18.4433 -5.4673 20.6155 0 20.6155
z
" id="mb3f8d1181c" style="stroke:#ffffff;"/>
    </defs>
    <g clip-path="url(#p7ff5b81e1d)">
     <use style="fill:#a6cee3;stroke:#ffffff;" x="358.812" xlink:href="#mb3f8d1181c" y="313.210368"/>
    </g>
   </g>
   <g id="PathCollection_5">
    <defs>
     <path d="
M0 21.7945
C5.77997 21.7945 11.324 19.4981 15.411 15.411
C19.4981 11.324 21.7945 5.77997 21.7945 0
C21.7945 -5.77997 19.4981 -11.324 15.411 -15.411
C11.324 -19.4981 5.77997 -21.7945 0 -21.7945
C-5.77997 -21.7945 -11.324 -19.4981 -15.411 -15.411
C-19.4981 -11.324 -21.7945 -5.77997 -21.7945 0
C-21.7945 5.77997 -19.4981 11.324 -15.411 15.411
C-11.324 19.4981 -5.77997 21.7945 0 21.7945
z
" id="m10f713e06b" style="stroke:#ffffff;"/>
    </defs>
    <g clip-path="url(#p7ff5b81e1d)">
     <use style="fill:#ff7f00;stroke:#ffffff;" x="290.72484" xlink:href="#m10f713e06b" y="111.609051429"/>
    </g>
   </g>
   <g id="PathCollection_6">
    <defs>
     <path d="
M0 19.3649
C5.13564 19.3649 10.0616 17.3245 13.6931 13.6931
C17.3245 10.0616 19.3649 5.13564 19.3649 0
C19.3649 -5.13564 17.3245 -10.0616 13.6931 -13.6931
C10.0616 -17.3245 5.13564 -19.3649 0 -19.3649
C-5.13564 -19.3649 -10.0616 -17.3245 -13.6931 -13.6931
C-17.3245 -10.0616 -19.3649 -5.13564 -19.3649 0
C-19.3649 5.13564 -17.3245 10.0616 -13.6931 13.6931
C-10.0616 17.3245 -5.13564 19.3649 0 19.3649
z
" id="mf7d5ae399e" style="stroke:#ffffff;"/>
    </defs>
    <g clip-path="url(#p7ff5b81e1d)">
     <use style="fill:#b2df8a;stroke:#ffffff;" x="318.636" xlink:href="#mf7d5ae399e" y="251.640246857"/>
     <use style="fill:#b2df8a;stroke:#ffffff;" x="394.14456" xlink:href="#mf7d5ae399e" y="227.325805714"/>
     <use style="fill:#b2df8a;stroke:#ffffff;" x="358.812" xlink:href="#mf7d5ae399e" y="190.070125714"/>
     <use style="fill:#b2df8a;stroke:#ffffff;" x="394.14456" xlink:href="#mf7d5ae399e" y="275.955675429"/>
     <use style="fill:#b2df8a;stroke:#ffffff;" x="195.53004" xlink:href="#mf7d5ae399e" y="160.239908571"/>
     <use style="fill:#b2df8a;stroke:#ffffff;" x="304.686" xlink:href="#mf7d5ae399e" y="321.654857143"/>
     <use style="fill:#b2df8a;stroke:#ffffff;" x="157.932" xlink:href="#mf7d5ae399e" y="251.640246857"/>
     <use style="fill:#b2df8a;stroke:#ffffff;" x="469.65312" xlink:href="#mf7d5ae399e" y="203.00544"/>
    </g>
   </g>
   <g id="text_1">
    <g clip-path="url(#p7ff5b81e1d)">
     <!-- Kumar -->
     <defs>
      <path d="
M41.1094 46.2969
Q39.5938 47.1719 37.8125 47.5781
Q36.0312 48 33.8906 48
Q26.2656 48 22.1875 43.0469
Q18.1094 38.0938 18.1094 28.8125
L18.1094 0
L9.07812 0
L9.07812 54.6875
L18.1094 54.6875
L18.1094 46.1875
Q20.9531 51.1719 25.4844 53.5781
Q30.0312 56 36.5312 56
Q37.4531 56 38.5781 55.875
Q39.7031 55.7656 41.0625 55.5156
z
" id="BitstreamVeraSans-Roman-72"/>
      <path d="
M52 44.1875
Q55.375 50.25 60.0625 53.125
Q64.75 56 71.0938 56
Q79.6406 56 84.2812 50.0156
Q88.9219 44.0469 88.9219 33.0156
L88.9219 0
L79.8906 0
L79.8906 32.7188
Q79.8906 40.5781 77.0938 44.375
Q74.3125 48.1875 68.6094 48.1875
Q61.625 48.1875 57.5625 43.5469
Q53.5156 38.9219 53.5156 30.9062
L53.5156 0
L44.4844 0
L44.4844 32.7188
Q44.4844 40.625 41.7031 44.4062
Q38.9219 48.1875 33.1094 48.1875
Q26.2188 48.1875 22.1562 43.5312
Q18.1094 38.875 18.1094 30.9062
L18.1094 0
L9.07812 0
L9.07812 54.6875
L18.1094 54.6875
L18.1094 46.1875
Q21.1875 51.2188 25.4844 53.6094
Q29.7812 56 35.6875 56
Q41.6562 56 45.8281 52.9688
Q50 49.9531 52 44.1875" id="BitstreamVeraSans-Roman-6d"/>
      <path d="
M8.5 21.5781
L8.5 54.6875
L17.4844 54.6875
L17.4844 21.9219
Q17.4844 14.1562 20.5 10.2656
Q23.5312 6.39062 29.5938 6.39062
Q36.8594 6.39062 41.0781 11.0312
Q45.3125 15.6719 45.3125 23.6875
L45.3125 54.6875
L54.2969 54.6875
L54.2969 0
L45.3125 0
L45.3125 8.40625
Q42.0469 3.42188 37.7188 1
Q33.4062 -1.42188 27.6875 -1.42188
Q18.2656 -1.42188 13.375 4.4375
Q8.5 10.2969 8.5 21.5781" id="BitstreamVeraSans-Roman-75"/>
      <path d="
M34.2812 27.4844
Q23.3906 27.4844 19.1875 25
Q14.9844 22.5156 14.9844 16.5
Q14.9844 11.7188 18.1406 8.90625
Q21.2969 6.10938 26.7031 6.10938
Q34.1875 6.10938 38.7031 11.4062
Q43.2188 16.7031 43.2188 25.4844
L43.2188 27.4844
z

M52.2031 31.2031
L52.2031 0
L43.2188 0
L43.2188 8.29688
Q40.1406 3.32812 35.5469 0.953125
Q30.9531 -1.42188 24.3125 -1.42188
Q15.9219 -1.42188 10.9531 3.29688
Q6 8.01562 6 15.9219
Q6 25.1406 12.1719 29.8281
Q18.3594 34.5156 30.6094 34.5156
L43.2188 34.5156
L43.2188 35.4062
Q43.2188 41.6094 39.1406 45
Q35.0625 48.3906 27.6875 48.3906
Q23 48.3906 18.5469 47.2656
Q14.1094 46.1406 10.0156 43.8906
L10.0156 52.2031
Q14.9375 54.1094 19.5781 55.0469
Q24.2188 56 28.6094 56
Q40.4844 56 46.3438 49.8438
Q52.2031 43.7031 52.2031 31.2031" id="BitstreamVeraSans-Roman-61"/>
      <path d="
M9.8125 72.9062
L19.6719 72.9062
L19.6719 42.0938
L52.3906 72.9062
L65.0938 72.9062
L28.9062 38.9219
L67.6719 0
L54.6875 0
L19.6719 35.1094
L19.6719 0
L9.8125 0
z
" id="BitstreamVeraSans-Roman-4b"/>
     </defs>
     <g transform="translate(306.0785 253.847746857)scale(0.08 -0.08)">
      <use xlink:href="#BitstreamVeraSans-Roman-4b"/>
      <use x="60.576171875" xlink:href="#BitstreamVeraSans-Roman-75"/>
      <use x="123.955078125" xlink:href="#BitstreamVeraSans-Roman-6d"/>
      <use x="221.3671875" xlink:href="#BitstreamVeraSans-Roman-61"/>
      <use x="282.646484375" xlink:href="#BitstreamVeraSans-Roman-72"/>
     </g>
    </g>
   </g>
   <g id="text_2">
    <g clip-path="url(#p7ff5b81e1d)">
     <!-- Khaled k -->
     <defs>
      <path id="BitstreamVeraSans-Roman-20"/>
      <path d="
M9.42188 75.9844
L18.4062 75.9844
L18.4062 0
L9.42188 0
z
" id="BitstreamVeraSans-Roman-6c"/>
      <path d="
M9.07812 75.9844
L18.1094 75.9844
L18.1094 31.1094
L44.9219 54.6875
L56.3906 54.6875
L27.3906 29.1094
L57.625 0
L45.9062 0
L18.1094 26.7031
L18.1094 0
L9.07812 0
z
" id="BitstreamVeraSans-Roman-6b"/>
      <path d="
M54.8906 33.0156
L54.8906 0
L45.9062 0
L45.9062 32.7188
Q45.9062 40.4844 42.875 44.3281
Q39.8438 48.1875 33.7969 48.1875
Q26.5156 48.1875 22.3125 43.5469
Q18.1094 38.9219 18.1094 30.9062
L18.1094 0
L9.07812 0
L9.07812 75.9844
L18.1094 75.9844
L18.1094 46.1875
Q21.3438 51.125 25.7031 53.5625
Q30.0781 56 35.7969 56
Q45.2188 56 50.0469 50.1719
Q54.8906 44.3438 54.8906 33.0156" id="BitstreamVeraSans-Roman-68"/>
      <path d="
M56.2031 29.5938
L56.2031 25.2031
L14.8906 25.2031
Q15.4844 15.9219 20.4844 11.0625
Q25.4844 6.20312 34.4219 6.20312
Q39.5938 6.20312 44.4531 7.46875
Q49.3125 8.73438 54.1094 11.2812
L54.1094 2.78125
Q49.2656 0.734375 44.1875 -0.34375
Q39.1094 -1.42188 33.8906 -1.42188
Q20.7969 -1.42188 13.1562 6.1875
Q5.51562 13.8125 5.51562 26.8125
Q5.51562 40.2344 12.7656 48.1094
Q20.0156 56 32.3281 56
Q43.3594 56 49.7812 48.8906
Q56.2031 41.7969 56.2031 29.5938
M47.2188 32.2344
Q47.125 39.5938 43.0938 43.9844
Q39.0625 48.3906 32.4219 48.3906
Q24.9062 48.3906 20.3906 44.1406
Q15.875 39.8906 15.1875 32.1719
z
" id="BitstreamVeraSans-Roman-65"/>
      <path d="
M45.4062 46.3906
L45.4062 75.9844
L54.3906 75.9844
L54.3906 0
L45.4062 0
L45.4062 8.20312
Q42.5781 3.32812 38.25 0.953125
Q33.9375 -1.42188 27.875 -1.42188
Q17.9688 -1.42188 11.7344 6.48438
Q5.51562 14.4062 5.51562 27.2969
Q5.51562 40.1875 11.7344 48.0938
Q17.9688 56 27.875 56
Q33.9375 56 38.25 53.625
Q42.5781 51.2656 45.4062 46.3906
M14.7969 27.2969
Q14.7969 17.3906 18.875 11.75
Q22.9531 6.10938 30.0781 6.10938
Q37.2031 6.10938 41.2969 11.75
Q45.4062 17.3906 45.4062 27.2969
Q45.4062 37.2031 41.2969 42.8438
Q37.2031 48.4844 30.0781 48.4844
Q22.9531 48.4844 18.875 42.8438
Q14.7969 37.2031 14.7969 27.2969" id="BitstreamVeraSans-Roman-64"/>
     </defs>
     <g transform="translate(376.84706 229.533305714)scale(0.08 -0.08)">
      <use xlink:href="#BitstreamVeraSans-Roman-4b"/>
      <use x="65.576171875" xlink:href="#BitstreamVeraSans-Roman-68"/>
      <use x="128.955078125" xlink:href="#BitstreamVeraSans-Roman-61"/>
      <use x="190.234375" xlink:href="#BitstreamVeraSans-Roman-6c"/>
      <use x="218.017578125" xlink:href="#BitstreamVeraSans-Roman-65"/>
      <use x="279.541015625" xlink:href="#BitstreamVeraSans-Roman-64"/>
      <use x="343.017578125" xlink:href="#BitstreamVeraSans-Roman-20"/>
      <use x="374.8046875" xlink:href="#BitstreamVeraSans-Roman-6b"/>
     </g>
    </g>
   </g>
   <g id="text_3">
    <g clip-path="url(#p7ff5b81e1d)">
     <!-- Mamoon -->
     <defs>
      <path d="
M54.8906 33.0156
L54.8906 0
L45.9062 0
L45.9062 32.7188
Q45.9062 40.4844 42.875 44.3281
Q39.8438 48.1875 33.7969 48.1875
Q26.5156 48.1875 22.3125 43.5469
Q18.1094 38.9219 18.1094 30.9062
L18.1094 0
L9.07812 0
L9.07812 54.6875
L18.1094 54.6875
L18.1094 46.1875
Q21.3438 51.125 25.7031 53.5625
Q30.0781 56 35.7969 56
Q45.2188 56 50.0469 50.1719
Q54.8906 44.3438 54.8906 33.0156" id="BitstreamVeraSans-Roman-6e"/>
      <path d="
M9.8125 72.9062
L24.5156 72.9062
L43.1094 23.2969
L61.8125 72.9062
L76.5156 72.9062
L76.5156 0
L66.8906 0
L66.8906 64.0156
L48.0938 14.0156
L38.1875 14.0156
L19.3906 64.0156
L19.3906 0
L9.8125 0
z
" id="BitstreamVeraSans-Roman-4d"/>
      <path d="
M30.6094 48.3906
Q23.3906 48.3906 19.1875 42.75
Q14.9844 37.1094 14.9844 27.2969
Q14.9844 17.4844 19.1562 11.8438
Q23.3438 6.20312 30.6094 6.20312
Q37.7969 6.20312 41.9844 11.8594
Q46.1875 17.5312 46.1875 27.2969
Q46.1875 37.0156 41.9844 42.7031
Q37.7969 48.3906 30.6094 48.3906
M30.6094 56
Q42.3281 56 49.0156 48.375
Q55.7188 40.7656 55.7188 27.2969
Q55.7188 13.875 49.0156 6.21875
Q42.3281 -1.42188 30.6094 -1.42188
Q18.8438 -1.42188 12.1719 6.21875
Q5.51562 13.875 5.51562 27.2969
Q5.51562 40.7656 12.1719 48.375
Q18.8438 56 30.6094 56" id="BitstreamVeraSans-Roman-6f"/>
     </defs>
     <g transform="translate(342.315125 192.277625714)scale(0.08 -0.08)">
      <use xlink:href="#BitstreamVeraSans-Roman-4d"/>
      <use x="86.279296875" xlink:href="#BitstreamVeraSans-Roman-61"/>
      <use x="147.55859375" xlink:href="#BitstreamVeraSans-Roman-6d"/>
      <use x="244.970703125" xlink:href="#BitstreamVeraSans-Roman-6f"/>
      <use x="306.15234375" xlink:href="#BitstreamVeraSans-Roman-6f"/>
      <use x="367.333984375" xlink:href="#BitstreamVeraSans-Roman-6e"/>
     </g>
    </g>
   </g>
   <g id="text_4">
    <g clip-path="url(#p7ff5b81e1d)">
     <!-- Ali R -->
     <defs>
      <path d="
M44.3906 34.1875
Q47.5625 33.1094 50.5625 29.5938
Q53.5625 26.0781 56.5938 19.9219
L66.6094 0
L56 0
L46.6875 18.7031
Q43.0625 26.0312 39.6719 28.4219
Q36.2812 30.8125 30.4219 30.8125
L19.6719 30.8125
L19.6719 0
L9.8125 0
L9.8125 72.9062
L32.0781 72.9062
Q44.5781 72.9062 50.7344 67.6719
Q56.8906 62.4531 56.8906 51.9062
Q56.8906 45.0156 53.6875 40.4688
Q50.4844 35.9375 44.3906 34.1875
M19.6719 64.7969
L19.6719 38.9219
L32.0781 38.9219
Q39.2031 38.9219 42.8438 42.2188
Q46.4844 45.5156 46.4844 51.9062
Q46.4844 58.2969 42.8438 61.5469
Q39.2031 64.7969 32.0781 64.7969
z
" id="BitstreamVeraSans-Roman-52"/>
      <path d="
M9.42188 54.6875
L18.4062 54.6875
L18.4062 0
L9.42188 0
z

M9.42188 75.9844
L18.4062 75.9844
L18.4062 64.5938
L9.42188 64.5938
z
" id="BitstreamVeraSans-Roman-69"/>
      <path d="
M34.1875 63.1875
L20.7969 26.9062
L47.6094 26.9062
z

M28.6094 72.9062
L39.7969 72.9062
L67.5781 0
L57.3281 0
L50.6875 18.7031
L17.8281 18.7031
L11.1875 0
L0.78125 0
z
" id="BitstreamVeraSans-Roman-41"/>
     </defs>
     <g transform="translate(248.183065 208.145602857)scale(0.08 -0.08)">
      <use xlink:href="#BitstreamVeraSans-Roman-41"/>
      <use x="68.408203125" xlink:href="#BitstreamVeraSans-Roman-6c"/>
      <use x="96.19140625" xlink:href="#BitstreamVeraSans-Roman-69"/>
      <use x="123.974609375" xlink:href="#BitstreamVeraSans-Roman-20"/>
      <use x="155.76171875" xlink:href="#BitstreamVeraSans-Roman-52"/>
     </g>
    </g>
   </g>
   <g id="text_5">
    <g clip-path="url(#p7ff5b81e1d)">
     <!-- Dina -->
     <defs>
      <path d="
M19.6719 64.7969
L19.6719 8.10938
L31.5938 8.10938
Q46.6875 8.10938 53.6875 14.9375
Q60.6875 21.7812 60.6875 36.5312
Q60.6875 51.1719 53.6875 57.9844
Q46.6875 64.7969 31.5938 64.7969
z

M9.8125 72.9062
L30.0781 72.9062
Q51.2656 72.9062 61.1719 64.0938
Q71.0938 55.2812 71.0938 36.5312
Q71.0938 17.6719 61.125 8.82812
Q51.1719 0 30.0781 0
L9.8125 0
z
" id="BitstreamVeraSans-Roman-44"/>
     </defs>
     <g transform="translate(282.302965 113.816551429)scale(0.08 -0.08)">
      <use xlink:href="#BitstreamVeraSans-Roman-44"/>
      <use x="77.001953125" xlink:href="#BitstreamVeraSans-Roman-69"/>
      <use x="104.78515625" xlink:href="#BitstreamVeraSans-Roman-6e"/>
      <use x="168.1640625" xlink:href="#BitstreamVeraSans-Roman-61"/>
     </g>
    </g>
   </g>
   <g id="text_6">
    <g clip-path="url(#p7ff5b81e1d)">
     <!-- Marc -->
     <defs>
      <path d="
M48.7812 52.5938
L48.7812 44.1875
Q44.9688 46.2969 41.1406 47.3438
Q37.3125 48.3906 33.4062 48.3906
Q24.6562 48.3906 19.8125 42.8438
Q14.9844 37.3125 14.9844 27.2969
Q14.9844 17.2812 19.8125 11.7344
Q24.6562 6.20312 33.4062 6.20312
Q37.3125 6.20312 41.1406 7.25
Q44.9688 8.29688 48.7812 10.4062
L48.7812 2.09375
Q45.0156 0.34375 40.9844 -0.53125
Q36.9688 -1.42188 32.4219 -1.42188
Q20.0625 -1.42188 12.7812 6.34375
Q5.51562 14.1094 5.51562 27.2969
Q5.51562 40.6719 12.8594 48.3281
Q20.2188 56 33.0156 56
Q37.1562 56 41.1094 55.1406
Q45.0625 54.2969 48.7812 52.5938" id="BitstreamVeraSans-Roman-63"/>
     </defs>
     <g transform="translate(248.061815 299.546928571)scale(0.08 -0.08)">
      <use xlink:href="#BitstreamVeraSans-Roman-4d"/>
      <use x="86.279296875" xlink:href="#BitstreamVeraSans-Roman-61"/>
      <use x="147.55859375" xlink:href="#BitstreamVeraSans-Roman-72"/>
      <use x="186.421875" xlink:href="#BitstreamVeraSans-Roman-63"/>
     </g>
    </g>
   </g>
   <g id="text_7">
    <g clip-path="url(#p7ff5b81e1d)">
     <!-- Alaa j -->
     <defs>
      <path d="
M9.42188 54.6875
L18.4062 54.6875
L18.4062 -0.984375
Q18.4062 -11.4219 14.4219 -16.1094
Q10.4531 -20.7969 1.60938 -20.7969
L-1.8125 -20.7969
L-1.8125 -13.1875
L0.59375 -13.1875
Q5.71875 -13.1875 7.5625 -10.8125
Q9.42188 -8.45312 9.42188 -0.984375
z

M9.42188 75.9844
L18.4062 75.9844
L18.4062 64.5938
L9.42188 64.5938
z
" id="BitstreamVeraSans-Roman-6a"/>
     </defs>
     <g transform="translate(184.77254 162.447408571)scale(0.08 -0.08)">
      <use xlink:href="#BitstreamVeraSans-Roman-41"/>
      <use x="68.408203125" xlink:href="#BitstreamVeraSans-Roman-6c"/>
      <use x="96.19140625" xlink:href="#BitstreamVeraSans-Roman-61"/>
      <use x="157.470703125" xlink:href="#BitstreamVeraSans-Roman-61"/>
      <use x="218.75" xlink:href="#BitstreamVeraSans-Roman-20"/>
      <use x="250.537109375" xlink:href="#BitstreamVeraSans-Roman-6a"/>
     </g>
    </g>
   </g>
   <g id="text_8">
    <g clip-path="url(#p7ff5b81e1d)">
     <!-- Himasha -->
     <defs>
      <path d="
M44.2812 53.0781
L44.2812 44.5781
Q40.4844 46.5312 36.375 47.5
Q32.2812 48.4844 27.875 48.4844
Q21.1875 48.4844 17.8438 46.4375
Q14.5 44.3906 14.5 40.2812
Q14.5 37.1562 16.8906 35.375
Q19.2812 33.5938 26.5156 31.9844
L29.5938 31.2969
Q39.1562 29.25 43.1875 25.5156
Q47.2188 21.7812 47.2188 15.0938
Q47.2188 7.46875 41.1875 3.01562
Q35.1562 -1.42188 24.6094 -1.42188
Q20.2188 -1.42188 15.4531 -0.5625
Q10.6875 0.296875 5.42188 2
L5.42188 11.2812
Q10.4062 8.6875 15.2344 7.39062
Q20.0625 6.10938 24.8125 6.10938
Q31.1562 6.10938 34.5625 8.28125
Q37.9844 10.4531 37.9844 14.4062
Q37.9844 18.0625 35.5156 20.0156
Q33.0625 21.9688 24.7031 23.7812
L21.5781 24.5156
Q13.2344 26.2656 9.51562 29.9062
Q5.8125 33.5469 5.8125 39.8906
Q5.8125 47.6094 11.2812 51.7969
Q16.75 56 26.8125 56
Q31.7812 56 36.1719 55.2656
Q40.5781 54.5469 44.2812 53.0781" id="BitstreamVeraSans-Roman-73"/>
      <path d="
M9.8125 72.9062
L19.6719 72.9062
L19.6719 43.0156
L55.5156 43.0156
L55.5156 72.9062
L65.375 72.9062
L65.375 0
L55.5156 0
L55.5156 34.7188
L19.6719 34.7188
L19.6719 0
L9.8125 0
z
" id="BitstreamVeraSans-Roman-48"/>
     </defs>
     <g transform="translate(287.90475 323.862357143)scale(0.08 -0.08)">
      <use xlink:href="#BitstreamVeraSans-Roman-48"/>
      <use x="75.1953125" xlink:href="#BitstreamVeraSans-Roman-69"/>
      <use x="102.978515625" xlink:href="#BitstreamVeraSans-Roman-6d"/>
      <use x="200.390625" xlink:href="#BitstreamVeraSans-Roman-61"/>
      <use x="261.669921875" xlink:href="#BitstreamVeraSans-Roman-73"/>
      <use x="313.76953125" xlink:href="#BitstreamVeraSans-Roman-68"/>
      <use x="377.1484375" xlink:href="#BitstreamVeraSans-Roman-61"/>
     </g>
    </g>
   </g>
   <g id="text_9">
    <g clip-path="url(#p7ff5b81e1d)">
     <!-- Mark -->
     <g transform="translate(349.352625 315.417868)scale(0.08 -0.08)">
      <use xlink:href="#BitstreamVeraSans-Roman-4d"/>
      <use x="86.279296875" xlink:href="#BitstreamVeraSans-Roman-61"/>
      <use x="147.55859375" xlink:href="#BitstreamVeraSans-Roman-72"/>
      <use x="188.671875" xlink:href="#BitstreamVeraSans-Roman-6b"/>
     </g>
    </g>
   </g>
   <g id="text_10">
    <g clip-path="url(#p7ff5b81e1d)">
     <!-- Mubarak b -->
     <defs>
      <path d="
M48.6875 27.2969
Q48.6875 37.2031 44.6094 42.8438
Q40.5312 48.4844 33.4062 48.4844
Q26.2656 48.4844 22.1875 42.8438
Q18.1094 37.2031 18.1094 27.2969
Q18.1094 17.3906 22.1875 11.75
Q26.2656 6.10938 33.4062 6.10938
Q40.5312 6.10938 44.6094 11.75
Q48.6875 17.3906 48.6875 27.2969
M18.1094 46.3906
Q20.9531 51.2656 25.2656 53.625
Q29.5938 56 35.5938 56
Q45.5625 56 51.7812 48.0938
Q58.0156 40.1875 58.0156 27.2969
Q58.0156 14.4062 51.7812 6.48438
Q45.5625 -1.42188 35.5938 -1.42188
Q29.5938 -1.42188 25.2656 0.953125
Q20.9531 3.32812 18.1094 8.20312
L18.1094 0
L9.07812 0
L9.07812 75.9844
L18.1094 75.9844
z
" id="BitstreamVeraSans-Roman-62"/>
     </defs>
     <g transform="translate(136.951375 253.847746857)scale(0.08 -0.08)">
      <use xlink:href="#BitstreamVeraSans-Roman-4d"/>
      <use x="86.279296875" xlink:href="#BitstreamVeraSans-Roman-75"/>
      <use x="149.658203125" xlink:href="#BitstreamVeraSans-Roman-62"/>
      <use x="213.134765625" xlink:href="#BitstreamVeraSans-Roman-61"/>
      <use x="274.4140625" xlink:href="#BitstreamVeraSans-Roman-72"/>
      <use x="315.52734375" xlink:href="#BitstreamVeraSans-Roman-61"/>
      <use x="376.806640625" xlink:href="#BitstreamVeraSans-Roman-6b"/>
      <use x="434.716796875" xlink:href="#BitstreamVeraSans-Roman-20"/>
      <use x="466.50390625" xlink:href="#BitstreamVeraSans-Roman-62"/>
     </g>
    </g>
   </g>
   <g id="text_11">
    <g clip-path="url(#p7ff5b81e1d)">
     <!-- Mohammed n -->
     <g transform="translate(366.99956 278.163175429)scale(0.08 -0.08)">
      <use xlink:href="#BitstreamVeraSans-Roman-4d"/>
      <use x="86.279296875" xlink:href="#BitstreamVeraSans-Roman-6f"/>
      <use x="147.4609375" xlink:href="#BitstreamVeraSans-Roman-68"/>
      <use x="210.83984375" xlink:href="#BitstreamVeraSans-Roman-61"/>
      <use x="272.119140625" xlink:href="#BitstreamVeraSans-Roman-6d"/>
      <use x="369.53125" xlink:href="#BitstreamVeraSans-Roman-6d"/>
      <use x="466.943359375" xlink:href="#BitstreamVeraSans-Roman-65"/>
      <use x="528.466796875" xlink:href="#BitstreamVeraSans-Roman-64"/>
      <use x="591.943359375" xlink:href="#BitstreamVeraSans-Roman-20"/>
      <use x="623.73046875" xlink:href="#BitstreamVeraSans-Roman-6e"/>
     </g>
    </g>
   </g>
   <g id="text_12">
    <g clip-path="url(#p7ff5b81e1d)">
     <!-- Sultan R -->
     <defs>
      <path d="
M18.3125 70.2188
L18.3125 54.6875
L36.8125 54.6875
L36.8125 47.7031
L18.3125 47.7031
L18.3125 18.0156
Q18.3125 11.3281 20.1406 9.42188
Q21.9688 7.51562 27.5938 7.51562
L36.8125 7.51562
L36.8125 0
L27.5938 0
Q17.1875 0 13.2344 3.875
Q9.28125 7.76562 9.28125 18.0156
L9.28125 47.7031
L2.6875 47.7031
L2.6875 54.6875
L9.28125 54.6875
L9.28125 70.2188
z
" id="BitstreamVeraSans-Roman-74"/>
      <path d="
M53.5156 70.5156
L53.5156 60.8906
Q47.9062 63.5781 42.9219 64.8906
Q37.9375 66.2188 33.2969 66.2188
Q25.25 66.2188 20.875 63.0938
Q16.5 59.9688 16.5 54.2031
Q16.5 49.3594 19.4062 46.8906
Q22.3125 44.4375 30.4219 42.9219
L36.375 41.7031
Q47.4062 39.5938 52.6562 34.2969
Q57.9062 29 57.9062 20.125
Q57.9062 9.51562 50.7969 4.04688
Q43.7031 -1.42188 29.9844 -1.42188
Q24.8125 -1.42188 18.9688 -0.25
Q13.1406 0.921875 6.89062 3.21875
L6.89062 13.375
Q12.8906 10.0156 18.6562 8.29688
Q24.4219 6.59375 29.9844 6.59375
Q38.4219 6.59375 43.0156 9.90625
Q47.6094 13.2344 47.6094 19.3906
Q47.6094 24.75 44.3125 27.7812
Q41.0156 30.8125 33.5 32.3281
L27.4844 33.5
Q16.4531 35.6875 11.5156 40.375
Q6.59375 45.0625 6.59375 53.4219
Q6.59375 63.0938 13.4062 68.6562
Q20.2188 74.2188 32.1719 74.2188
Q37.3125 74.2188 42.625 73.2812
Q47.9531 72.3594 53.5156 70.5156" id="BitstreamVeraSans-Roman-53"/>
     </defs>
     <g transform="translate(452.977495 205.21294)scale(0.08 -0.08)">
      <use xlink:href="#BitstreamVeraSans-Roman-53"/>
      <use x="63.4765625" xlink:href="#BitstreamVeraSans-Roman-75"/>
      <use x="126.85546875" xlink:href="#BitstreamVeraSans-Roman-6c"/>
      <use x="154.638671875" xlink:href="#BitstreamVeraSans-Roman-74"/>
      <use x="193.84765625" xlink:href="#BitstreamVeraSans-Roman-61"/>
      <use x="255.126953125" xlink:href="#BitstreamVeraSans-Roman-6e"/>
      <use x="318.505859375" xlink:href="#BitstreamVeraSans-Roman-20"/>
      <use x="350.29296875" xlink:href="#BitstreamVeraSans-Roman-52"/>
     </g>
    </g>
   </g>
  </g>
 </g>
 <defs>
  <clipPath id="p7ff5b81e1d">
   <rect height="345.6" width="446.4" x="72.0" y="43.2"/>
  </clipPath>
 </defs>
</svg>
