<?xml version="1.0" encoding="utf-8" standalone="no"?>
<!DOCTYPE svg PUBLIC "-//W3C//DTD SVG 1.1//EN"
  "http://www.w3.org/Graphics/SVG/1.1/DTD/svg11.dtd">
<!-- Created with matplotlib (http://matplotlib.org/) -->
<svg height="432pt" version="1.1" viewBox="0 0 576 432" width="576pt" xmlns="http://www.w3.org/2000/svg" xmlns:xlink="http://www.w3.org/1999/xlink">
 <defs>
  <style type="text/css">
*{stroke-linecap:butt;stroke-linejoin:round;}
  </style>
 </defs>
 <g id="figure_1">
  <g id="patch_1">
   <path d="M 0 432 
L 576 432 
L 576 0 
L 0 0 
z
" style="fill:#ffffff;"/>
  </g>
  <g id="axes_1">
   <g id="LineCollection_1">
    <path clip-path="url(#p7a6d4d66f7)" d="M 295.202694 218.16 
L 295.202694 80.705455 
" style="fill:none;stroke:#808080;stroke-opacity:0.7;"/>
    <path clip-path="url(#p7a6d4d66f7)" d="M 295.202694 218.16 
L 479.66281 175.682727 
" style="fill:none;stroke:#808080;stroke-opacity:0.7;"/>
    <path clip-path="url(#p7a6d4d66f7)" d="M 295.202694 218.16 
L 479.66281 260.635364 
" style="fill:none;stroke:#808080;stroke-opacity:0.7;"/>
    <path clip-path="url(#p7a6d4d66f7)" d="M 295.202694 218.16 
L 181.198077 106.955455 
" style="fill:none;stroke:#808080;stroke-opacity:0.7;"/>
    <path clip-path="url(#p7a6d4d66f7)" d="M 295.202694 218.16 
L 110.73719 175.682727 
" style="fill:none;stroke:#808080;stroke-opacity:0.7;"/>
    <path clip-path="url(#p7a6d4d66f7)" d="M 295.202694 218.16 
L 110.73719 260.635364 
" style="fill:none;stroke:#808080;stroke-opacity:0.7;"/>
    <path clip-path="url(#p7a6d4d66f7)" d="M 295.202694 218.16 
L 181.198077 329.362636 
" style="fill:none;stroke:#808080;stroke-opacity:0.7;"/>
    <path clip-path="url(#p7a6d4d66f7)" d="M 295.202694 218.16 
L 409.218086 106.955455 
" style="fill:none;stroke:#808080;stroke-opacity:0.7;"/>
    <path clip-path="url(#p7a6d4d66f7)" d="M 295.202694 218.16 
L 409.218086 329.362636 
" style="fill:none;stroke:#808080;stroke-opacity:0.7;"/>
    <path clip-path="url(#p7a6d4d66f7)" d="M 295.202694 218.16 
L 295.202694 355.614545 
" style="fill:none;stroke:#808080;stroke-opacity:0.7;"/>
    <path clip-path="url(#p7a6d4d66f7)" d="M 479.66281 175.682727 
L 295.202694 355.614545 
" style="fill:none;stroke:#808080;stroke-opacity:0.7;"/>
    <path clip-path="url(#p7a6d4d66f7)" d="M 479.66281 175.682727 
L 479.66281 260.635364 
" style="fill:none;stroke:#808080;stroke-opacity:0.7;"/>
    <path clip-path="url(#p7a6d4d66f7)" d="M 409.218086 106.955455 
L 181.198077 106.955455 
" style="fill:none;stroke:#808080;stroke-opacity:0.7;"/>
    <path clip-path="url(#p7a6d4d66f7)" d="M 409.218086 106.955455 
L 110.73719 175.682727 
" style="fill:none;stroke:#808080;stroke-opacity:0.7;"/>
    <path clip-path="url(#p7a6d4d66f7)" d="M 295.202694 80.705455 
L 181.198077 106.955455 
" style="fill:none;stroke:#808080;stroke-opacity:0.7;"/>
    <path clip-path="url(#p7a6d4d66f7)" d="M 181.198077 106.955455 
L 110.73719 175.682727 
" style="fill:none;stroke:#808080;stroke-opacity:0.7;"/>
    <path clip-path="url(#p7a6d4d66f7)" d="M 110.73719 260.635364 
L 409.218086 329.362636 
" style="fill:none;stroke:#808080;stroke-opacity:0.7;"/>
    <path clip-path="url(#p7a6d4d66f7)" d="M 110.73719 260.635364 
L 479.66281 260.635364 
" style="fill:none;stroke:#808080;stroke-opacity:0.7;"/>
    <path clip-path="url(#p7a6d4d66f7)" d="M 181.198077 329.362636 
L 409.218086 329.362636 
" style="fill:none;stroke:#808080;stroke-opacity:0.7;"/>
    <path clip-path="url(#p7a6d4d66f7)" d="M 181.198077 329.362636 
L 479.66281 260.635364 
" style="fill:none;stroke:#808080;stroke-opacity:0.7;"/>
    <path clip-path="url(#p7a6d4d66f7)" d="M 295.202694 355.614545 
L 409.218086 329.362636 
" style="fill:none;stroke:#808080;stroke-opacity:0.7;"/>
    <path clip-path="url(#p7a6d4d66f7)" d="M 295.202694 355.614545 
L 479.66281 260.635364 
" style="fill:none;stroke:#808080;stroke-opacity:0.7;"/>
    <path clip-path="url(#p7a6d4d66f7)" d="M 409.218086 329.362636 
L 479.66281 260.635364 
" style="fill:none;stroke:#808080;stroke-opacity:0.7;"/>
   </g>
   <g id="LineCollection_2">
    <path clip-path="url(#p7a6d4d66f7)" d="M 295.202694 218.16 
L 181.198077 106.955455 
" style="fill:none;stroke:#000000;stroke-opacity:0.6;stroke-width:4;"/>
    <path clip-path="url(#p7a6d4d66f7)" d="M 295.202694 218.16 
L 110.73719 175.682727 
" style="fill:none;stroke:#000000;stroke-opacity:0.6;stroke-width:4;"/>
    <path clip-path="url(#p7a6d4d66f7)" d="M 295.202694 218.16 
L 409.218086 106.955455 
" style="fill:none;stroke:#000000;stroke-opacity:0.6;stroke-width:4;"/>
    <path clip-path="url(#p7a6d4d66f7)" d="M 409.218086 106.955455 
L 110.73719 175.682727 
" style="fill:none;stroke:#000000;stroke-opacity:0.6;stroke-width:4;"/>
    <path clip-path="url(#p7a6d4d66f7)" d="M 181.198077 106.955455 
L 110.73719 175.682727 
" style="fill:none;stroke:#000000;stroke-opacity:0.6;stroke-width:4;"/>
   </g>
   <g id="LineCollection_3">
    <path clip-path="url(#p7a6d4d66f7)" d="M 295.202694 218.16 
L 295.202694 80.705455 
" style="fill:none;stroke:#000000;stroke-opacity:0.5;stroke-width:3;"/>
    <path clip-path="url(#p7a6d4d66f7)" d="M 295.202694 218.16 
L 181.198077 329.362636 
" style="fill:none;stroke:#000000;stroke-opacity:0.5;stroke-width:3;"/>
    <path clip-path="url(#p7a6d4d66f7)" d="M 295.202694 218.16 
L 409.218086 329.362636 
" style="fill:none;stroke:#000000;stroke-opacity:0.5;stroke-width:3;"/>
    <path clip-path="url(#p7a6d4d66f7)" d="M 479.66281 175.682727 
L 295.202694 355.614545 
" style="fill:none;stroke:#000000;stroke-opacity:0.5;stroke-width:3;"/>
    <path clip-path="url(#p7a6d4d66f7)" d="M 409.218086 106.955455 
L 181.198077 106.955455 
" style="fill:none;stroke:#000000;stroke-opacity:0.5;stroke-width:3;"/>
    <path clip-path="url(#p7a6d4d66f7)" d="M 295.202694 80.705455 
L 181.198077 106.955455 
" style="fill:none;stroke:#000000;stroke-opacity:0.5;stroke-width:3;"/>
    <path clip-path="url(#p7a6d4d66f7)" d="M 110.73719 260.635364 
L 479.66281 260.635364 
" style="fill:none;stroke:#000000;stroke-opacity:0.5;stroke-width:3;"/>
    <path clip-path="url(#p7a6d4d66f7)" d="M 181.198077 329.362636 
L 409.218086 329.362636 
" style="fill:none;stroke:#000000;stroke-opacity:0.5;stroke-width:3;"/>
    <path clip-path="url(#p7a6d4d66f7)" d="M 409.218086 329.362636 
L 479.66281 260.635364 
" style="fill:none;stroke:#000000;stroke-opacity:0.5;stroke-width:3;"/>
   </g>
   <g id="LineCollection_4">
    <path clip-path="url(#p7a6d4d66f7)" d="M 295.202694 218.16 
L 479.66281 175.682727 
" style="fill:none;stroke:#000000;stroke-opacity:0.4;stroke-width:2;"/>
    <path clip-path="url(#p7a6d4d66f7)" d="M 295.202694 218.16 
L 479.66281 260.635364 
" style="fill:none;stroke:#000000;stroke-opacity:0.4;stroke-width:2;"/>
    <path clip-path="url(#p7a6d4d66f7)" d="M 295.202694 218.16 
L 110.73719 260.635364 
" style="fill:none;stroke:#000000;stroke-opacity:0.4;stroke-width:2;"/>
    <path clip-path="url(#p7a6d4d66f7)" d="M 295.202694 218.16 
L 295.202694 355.614545 
" style="fill:none;stroke:#000000;stroke-opacity:0.4;stroke-width:2;"/>
    <path clip-path="url(#p7a6d4d66f7)" d="M 479.66281 175.682727 
L 479.66281 260.635364 
" style="fill:none;stroke:#000000;stroke-opacity:0.4;stroke-width:2;"/>
    <path clip-path="url(#p7a6d4d66f7)" d="M 110.73719 260.635364 
L 409.218086 329.362636 
" style="fill:none;stroke:#000000;stroke-opacity:0.4;stroke-width:2;"/>
    <path clip-path="url(#p7a6d4d66f7)" d="M 181.198077 329.362636 
L 479.66281 260.635364 
" style="fill:none;stroke:#000000;stroke-opacity:0.4;stroke-width:2;"/>
    <path clip-path="url(#p7a6d4d66f7)" d="M 295.202694 355.614545 
L 409.218086 329.362636 
" style="fill:none;stroke:#000000;stroke-opacity:0.4;stroke-width:2;"/>
    <path clip-path="url(#p7a6d4d66f7)" d="M 295.202694 355.614545 
L 479.66281 260.635364 
" style="fill:none;stroke:#000000;stroke-opacity:0.4;stroke-width:2;"/>
   </g>
   <g id="LineCollection_5">
    <path clip-path="url(#p7a6d4d66f7)" d="M 295.202694 218.16 
L 110.73719 260.635364 
" style="fill:none;stroke:#33a02c;stroke-dasharray:18.5,8;stroke-dashoffset:0;stroke-opacity:0.6;stroke-width:5;"/>
   </g>
   <g id="PathCollection_1">
    <defs>
     <path d="M 0 26.457513 
C 7.016614 26.457513 13.746791 23.669783 18.708287 18.708287 
C 23.669783 13.746791 26.457513 7.016614 26.457513 0 
C 26.457513 -7.016614 23.669783 -13.746791 18.708287 -18.708287 
C 13.746791 -23.669783 7.016614 -26.457513 0 -26.457513 
C -7.016614 -26.457513 -13.746791 -23.669783 -18.708287 -18.708287 
C -23.669783 -13.746791 -26.457513 -7.016614 -26.457513 0 
C -26.457513 7.016614 -23.669783 13.746791 -18.708287 18.708287 
C -13.746791 23.669783 -7.016614 26.457513 0 26.457513 
z
" id="m4f355a6ec8" style="stroke:#cab2d6;"/>
    </defs>
    <g clip-path="url(#p7a6d4d66f7)">
     <use style="fill:#cab2d6;stroke:#cab2d6;" x="295.202694" xlink:href="#m4f355a6ec8" y="218.16"/>
    </g>
   </g>
   <g id="PathCollection_2">
    <defs>
     <path d="M 0 23.979158 
C 6.359347 23.979158 12.459088 21.452562 16.955825 16.955825 
C 21.452562 12.459088 23.979158 6.359347 23.979158 0 
C 23.979158 -6.359347 21.452562 -12.459088 16.955825 -16.955825 
C 12.459088 -21.452562 6.359347 -23.979158 0 -23.979158 
C -6.359347 -23.979158 -12.459088 -21.452562 -16.955825 -16.955825 
C -21.452562 -12.459088 -23.979158 -6.359347 -23.979158 0 
C -23.979158 6.359347 -21.452562 12.459088 -16.955825 16.955825 
C -12.459088 21.452562 -6.359347 23.979158 0 23.979158 
z
" id="ma33d99e6c3" style="stroke:#33a02c;stroke-opacity:0.6;"/>
    </defs>
    <g clip-path="url(#p7a6d4d66f7)">
     <use style="fill:#33a02c;fill-opacity:0.6;stroke:#33a02c;stroke-opacity:0.6;" x="295.202694" xlink:href="#ma33d99e6c3" y="80.705455"/>
     <use style="fill:#33a02c;fill-opacity:0.6;stroke:#33a02c;stroke-opacity:0.6;" x="181.198077" xlink:href="#ma33d99e6c3" y="106.955455"/>
     <use style="fill:#33a02c;fill-opacity:0.6;stroke:#33a02c;stroke-opacity:0.6;" x="110.73719" xlink:href="#ma33d99e6c3" y="175.682727"/>
    </g>
   </g>
   <g id="PathCollection_3">
    <defs>
     <path d="M 0 20.615528 
C 5.467302 20.615528 10.711413 18.443346 14.57738 14.57738 
C 18.443346 10.711413 20.615528 5.467302 20.615528 0 
C 20.615528 -5.467302 18.443346 -10.711413 14.57738 -14.57738 
C 10.711413 -18.443346 5.467302 -20.615528 0 -20.615528 
C -5.467302 -20.615528 -10.711413 -18.443346 -14.57738 -14.57738 
C -18.443346 -10.711413 -20.615528 -5.467302 -20.615528 0 
C -20.615528 5.467302 -18.443346 10.711413 -14.57738 14.57738 
C -10.711413 18.443346 -5.467302 20.615528 0 20.615528 
z
" id="mbae30a3092" style="stroke:#a6cee3;"/>
    </defs>
    <g clip-path="url(#p7a6d4d66f7)">
     <use style="fill:#a6cee3;stroke:#a6cee3;" x="479.66281" xlink:href="#mbae30a3092" y="260.635364"/>
     <use style="fill:#a6cee3;stroke:#a6cee3;" x="409.218086" xlink:href="#mbae30a3092" y="329.362636"/>
    </g>
   </g>
   <g id="PathCollection_4">
    <defs>
     <path d="M 0 21.794495 
C 5.779968 21.794495 11.323981 19.498089 15.411035 15.411035 
C 19.498089 11.323981 21.794495 5.779968 21.794495 0 
C 21.794495 -5.779968 19.498089 -11.323981 15.411035 -15.411035 
C 11.323981 -19.498089 5.779968 -21.794495 0 -21.794495 
C -5.779968 -21.794495 -11.323981 -19.498089 -15.411035 -15.411035 
C -19.498089 -11.323981 -21.794495 -5.779968 -21.794495 0 
C -21.794495 5.779968 -19.498089 11.323981 -15.411035 15.411035 
C -11.323981 19.498089 -5.779968 21.794495 0 21.794495 
z
" id="m6cfa608275" style="stroke:#ff7f00;"/>
    </defs>
    <g clip-path="url(#p7a6d4d66f7)">
     <use style="fill:#ff7f00;stroke:#ff7f00;" x="181.198077" xlink:href="#m6cfa608275" y="106.955455"/>
    </g>
   </g>
   <g id="PathCollection_5">
    <defs>
     <path d="M 0 19.364917 
C 5.135636 19.364917 10.061621 17.324507 13.693064 13.693064 
C 17.324507 10.061621 19.364917 5.135636 19.364917 0 
C 19.364917 -5.135636 17.324507 -10.061621 13.693064 -13.693064 
C 10.061621 -17.324507 5.135636 -19.364917 0 -19.364917 
C -5.135636 -19.364917 -10.061621 -17.324507 -13.693064 -13.693064 
C -17.324507 -10.061621 -19.364917 -5.135636 -19.364917 0 
C -19.364917 5.135636 -17.324507 10.061621 -13.693064 13.693064 
C -10.061621 17.324507 -5.135636 19.364917 0 19.364917 
z
" id="mb7bddbcf9a" style="stroke:#b2df8a;"/>
    </defs>
    <g clip-path="url(#p7a6d4d66f7)">
     <use style="fill:#b2df8a;stroke:#b2df8a;" x="295.202694" xlink:href="#mb7bddbcf9a" y="80.705455"/>
     <use style="fill:#b2df8a;stroke:#b2df8a;" x="479.66281" xlink:href="#mb7bddbcf9a" y="175.682727"/>
     <use style="fill:#b2df8a;stroke:#b2df8a;" x="409.218086" xlink:href="#mb7bddbcf9a" y="106.955455"/>
     <use style="fill:#b2df8a;stroke:#b2df8a;" x="110.73719" xlink:href="#mb7bddbcf9a" y="175.682727"/>
     <use style="fill:#b2df8a;stroke:#b2df8a;" x="110.73719" xlink:href="#mb7bddbcf9a" y="260.635364"/>
     <use style="fill:#b2df8a;stroke:#b2df8a;" x="181.198077" xlink:href="#mb7bddbcf9a" y="329.362636"/>
     <use style="fill:#b2df8a;stroke:#b2df8a;" x="295.202694" xlink:href="#mb7bddbcf9a" y="355.614545"/>
    </g>
   </g>
   <g id="text_1">
    <g clip-path="url(#p7a6d4d66f7)">
     <!-- Bartosz S -->
     <defs>
      <path d="M 19.671875 34.8125 
L 19.671875 8.109375 
L 35.5 8.109375 
Q 43.453125 8.109375 47.28125 11.40625 
Q 51.125 14.703125 51.125 21.484375 
Q 51.125 28.328125 47.28125 31.5625 
Q 43.453125 34.8125 35.5 34.8125 
z
M 19.671875 64.796875 
L 19.671875 42.828125 
L 34.28125 42.828125 
Q 41.5 42.828125 45.03125 45.53125 
Q 48.578125 48.25 48.578125 53.8125 
Q 48.578125 59.328125 45.03125 62.0625 
Q 41.5 64.796875 34.28125 64.796875 
z
M 9.8125 72.90625 
L 35.015625 72.90625 
Q 46.296875 72.90625 52.390625 68.21875 
Q 58.5 63.53125 58.5 54.890625 
Q 58.5 48.1875 55.375 44.234375 
Q 52.25 40.28125 46.1875 39.3125 
Q 53.46875 37.75 57.5 32.78125 
Q 61.53125 27.828125 61.53125 20.40625 
Q 61.53125 10.640625 54.890625 5.3125 
Q 48.25 0 35.984375 0 
L 9.8125 0 
z
" id="DejaVuSans-42"/>
      <path d="M 34.28125 27.484375 
Q 23.390625 27.484375 19.1875 25 
Q 14.984375 22.515625 14.984375 16.5 
Q 14.984375 11.71875 18.140625 8.90625 
Q 21.296875 6.109375 26.703125 6.109375 
Q 34.1875 6.109375 38.703125 11.40625 
Q 43.21875 16.703125 43.21875 25.484375 
L 43.21875 27.484375 
z
M 52.203125 31.203125 
L 52.203125 0 
L 43.21875 0 
L 43.21875 8.296875 
Q 40.140625 3.328125 35.546875 0.953125 
Q 30.953125 -1.421875 24.3125 -1.421875 
Q 15.921875 -1.421875 10.953125 3.296875 
Q 6 8.015625 6 15.921875 
Q 6 25.140625 12.171875 29.828125 
Q 18.359375 34.515625 30.609375 34.515625 
L 43.21875 34.515625 
L 43.21875 35.40625 
Q 43.21875 41.609375 39.140625 45 
Q 35.0625 48.390625 27.6875 48.390625 
Q 23 48.390625 18.546875 47.265625 
Q 14.109375 46.140625 10.015625 43.890625 
L 10.015625 52.203125 
Q 14.9375 54.109375 19.578125 55.046875 
Q 24.21875 56 28.609375 56 
Q 40.484375 56 46.34375 49.84375 
Q 52.203125 43.703125 52.203125 31.203125 
z
" id="DejaVuSans-61"/>
      <path d="M 41.109375 46.296875 
Q 39.59375 47.171875 37.8125 47.578125 
Q 36.03125 48 33.890625 48 
Q 26.265625 48 22.1875 43.046875 
Q 18.109375 38.09375 18.109375 28.8125 
L 18.109375 0 
L 9.078125 0 
L 9.078125 54.6875 
L 18.109375 54.6875 
L 18.109375 46.1875 
Q 20.953125 51.171875 25.484375 53.578125 
Q 30.03125 56 36.53125 56 
Q 37.453125 56 38.578125 55.875 
Q 39.703125 55.765625 41.0625 55.515625 
z
" id="DejaVuSans-72"/>
      <path d="M 18.3125 70.21875 
L 18.3125 54.6875 
L 36.8125 54.6875 
L 36.8125 47.703125 
L 18.3125 47.703125 
L 18.3125 18.015625 
Q 18.3125 11.328125 20.140625 9.421875 
Q 21.96875 7.515625 27.59375 7.515625 
L 36.8125 7.515625 
L 36.8125 0 
L 27.59375 0 
Q 17.1875 0 13.234375 3.875 
Q 9.28125 7.765625 9.28125 18.015625 
L 9.28125 47.703125 
L 2.6875 47.703125 
L 2.6875 54.6875 
L 9.28125 54.6875 
L 9.28125 70.21875 
z
" id="DejaVuSans-74"/>
      <path d="M 30.609375 48.390625 
Q 23.390625 48.390625 19.1875 42.75 
Q 14.984375 37.109375 14.984375 27.296875 
Q 14.984375 17.484375 19.15625 11.84375 
Q 23.34375 6.203125 30.609375 6.203125 
Q 37.796875 6.203125 41.984375 11.859375 
Q 46.1875 17.53125 46.1875 27.296875 
Q 46.1875 37.015625 41.984375 42.703125 
Q 37.796875 48.390625 30.609375 48.390625 
z
M 30.609375 56 
Q 42.328125 56 49.015625 48.375 
Q 55.71875 40.765625 55.71875 27.296875 
Q 55.71875 13.875 49.015625 6.21875 
Q 42.328125 -1.421875 30.609375 -1.421875 
Q 18.84375 -1.421875 12.171875 6.21875 
Q 5.515625 13.875 5.515625 27.296875 
Q 5.515625 40.765625 12.171875 48.375 
Q 18.84375 56 30.609375 56 
z
" id="DejaVuSans-6f"/>
      <path d="M 44.28125 53.078125 
L 44.28125 44.578125 
Q 40.484375 46.53125 36.375 47.5 
Q 32.28125 48.484375 27.875 48.484375 
Q 21.1875 48.484375 17.84375 46.4375 
Q 14.5 44.390625 14.5 40.28125 
Q 14.5 37.15625 16.890625 35.375 
Q 19.28125 33.59375 26.515625 31.984375 
L 29.59375 31.296875 
Q 39.15625 29.25 43.1875 25.515625 
Q 47.21875 21.78125 47.21875 15.09375 
Q 47.21875 7.46875 41.1875 3.015625 
Q 35.15625 -1.421875 24.609375 -1.421875 
Q 20.21875 -1.421875 15.453125 -0.5625 
Q 10.6875 0.296875 5.421875 2 
L 5.421875 11.28125 
Q 10.40625 8.6875 15.234375 7.390625 
Q 20.0625 6.109375 24.8125 6.109375 
Q 31.15625 6.109375 34.5625 8.28125 
Q 37.984375 10.453125 37.984375 14.40625 
Q 37.984375 18.0625 35.515625 20.015625 
Q 33.0625 21.96875 24.703125 23.78125 
L 21.578125 24.515625 
Q 13.234375 26.265625 9.515625 29.90625 
Q 5.8125 33.546875 5.8125 39.890625 
Q 5.8125 47.609375 11.28125 51.796875 
Q 16.75 56 26.8125 56 
Q 31.78125 56 36.171875 55.265625 
Q 40.578125 54.546875 44.28125 53.078125 
z
" id="DejaVuSans-73"/>
      <path d="M 5.515625 54.6875 
L 48.1875 54.6875 
L 48.1875 46.484375 
L 14.40625 7.171875 
L 48.1875 7.171875 
L 48.1875 0 
L 4.296875 0 
L 4.296875 8.203125 
L 38.09375 47.515625 
L 5.515625 47.515625 
z
" id="DejaVuSans-7a"/>
      <path id="DejaVuSans-20"/>
      <path d="M 53.515625 70.515625 
L 53.515625 60.890625 
Q 47.90625 63.578125 42.921875 64.890625 
Q 37.9375 66.21875 33.296875 66.21875 
Q 25.25 66.21875 20.875 63.09375 
Q 16.5 59.96875 16.5 54.203125 
Q 16.5 49.359375 19.40625 46.890625 
Q 22.3125 44.4375 30.421875 42.921875 
L 36.375 41.703125 
Q 47.40625 39.59375 52.65625 34.296875 
Q 57.90625 29 57.90625 20.125 
Q 57.90625 9.515625 50.796875 4.046875 
Q 43.703125 -1.421875 29.984375 -1.421875 
Q 24.8125 -1.421875 18.96875 -0.25 
Q 13.140625 0.921875 6.890625 3.21875 
L 6.890625 13.375 
Q 12.890625 10.015625 18.65625 8.296875 
Q 24.421875 6.59375 29.984375 6.59375 
Q 38.421875 6.59375 43.015625 9.90625 
Q 47.609375 13.234375 47.609375 19.390625 
Q 47.609375 24.75 44.3125 27.78125 
Q 41.015625 30.8125 33.5 32.328125 
L 27.484375 33.5 
Q 16.453125 35.6875 11.515625 40.375 
Q 6.59375 45.0625 6.59375 53.421875 
Q 6.59375 63.09375 13.40625 68.65625 
Q 20.21875 74.21875 32.171875 74.21875 
Q 37.3125 74.21875 42.625 73.28125 
Q 47.953125 72.359375 53.515625 70.515625 
z
" id="DejaVuSans-53"/>
     </defs>
     <g transform="translate(276.353319 220.3675)scale(0.08 -0.08)">
      <use xlink:href="#DejaVuSans-42"/>
      <use x="68.603516" xlink:href="#DejaVuSans-61"/>
      <use x="129.882812" xlink:href="#DejaVuSans-72"/>
      <use x="170.996094" xlink:href="#DejaVuSans-74"/>
      <use x="210.205078" xlink:href="#DejaVuSans-6f"/>
      <use x="271.386719" xlink:href="#DejaVuSans-73"/>
      <use x="323.486328" xlink:href="#DejaVuSans-7a"/>
      <use x="375.976562" xlink:href="#DejaVuSans-20"/>
      <use x="407.763672" xlink:href="#DejaVuSans-53"/>
     </g>
    </g>
   </g>
   <g id="text_2">
    <g clip-path="url(#p7a6d4d66f7)">
     <!-- Jarek M -->
     <defs>
      <path d="M 9.8125 72.90625 
L 19.671875 72.90625 
L 19.671875 5.078125 
Q 19.671875 -8.109375 14.671875 -14.0625 
Q 9.671875 -20.015625 -1.421875 -20.015625 
L -5.171875 -20.015625 
L -5.171875 -11.71875 
L -2.09375 -11.71875 
Q 4.4375 -11.71875 7.125 -8.046875 
Q 9.8125 -4.390625 9.8125 5.078125 
z
" id="DejaVuSans-4a"/>
      <path d="M 56.203125 29.59375 
L 56.203125 25.203125 
L 14.890625 25.203125 
Q 15.484375 15.921875 20.484375 11.0625 
Q 25.484375 6.203125 34.421875 6.203125 
Q 39.59375 6.203125 44.453125 7.46875 
Q 49.3125 8.734375 54.109375 11.28125 
L 54.109375 2.78125 
Q 49.265625 0.734375 44.1875 -0.34375 
Q 39.109375 -1.421875 33.890625 -1.421875 
Q 20.796875 -1.421875 13.15625 6.1875 
Q 5.515625 13.8125 5.515625 26.8125 
Q 5.515625 40.234375 12.765625 48.109375 
Q 20.015625 56 32.328125 56 
Q 43.359375 56 49.78125 48.890625 
Q 56.203125 41.796875 56.203125 29.59375 
z
M 47.21875 32.234375 
Q 47.125 39.59375 43.09375 43.984375 
Q 39.0625 48.390625 32.421875 48.390625 
Q 24.90625 48.390625 20.390625 44.140625 
Q 15.875 39.890625 15.1875 32.171875 
z
" id="DejaVuSans-65"/>
      <path d="M 9.078125 75.984375 
L 18.109375 75.984375 
L 18.109375 31.109375 
L 44.921875 54.6875 
L 56.390625 54.6875 
L 27.390625 29.109375 
L 57.625 0 
L 45.90625 0 
L 18.109375 26.703125 
L 18.109375 0 
L 9.078125 0 
z
" id="DejaVuSans-6b"/>
      <path d="M 9.8125 72.90625 
L 24.515625 72.90625 
L 43.109375 23.296875 
L 61.8125 72.90625 
L 76.515625 72.90625 
L 76.515625 0 
L 66.890625 0 
L 66.890625 64.015625 
L 48.09375 14.015625 
L 38.1875 14.015625 
L 19.390625 64.015625 
L 19.390625 0 
L 9.8125 0 
z
" id="DejaVuSans-4d"/>
     </defs>
     <g transform="translate(280.428319 82.912955)scale(0.08 -0.08)">
      <use xlink:href="#DejaVuSans-4a"/>
      <use x="29.492188" xlink:href="#DejaVuSans-61"/>
      <use x="90.771484" xlink:href="#DejaVuSans-72"/>
      <use x="131.853516" xlink:href="#DejaVuSans-65"/>
      <use x="193.376953" xlink:href="#DejaVuSans-6b"/>
      <use x="251.287109" xlink:href="#DejaVuSans-20"/>
      <use x="283.074219" xlink:href="#DejaVuSans-4d"/>
     </g>
    </g>
   </g>
   <g id="text_3">
    <g clip-path="url(#p7a6d4d66f7)">
     <!-- Bednarz -->
     <defs>
      <path d="M 45.40625 46.390625 
L 45.40625 75.984375 
L 54.390625 75.984375 
L 54.390625 0 
L 45.40625 0 
L 45.40625 8.203125 
Q 42.578125 3.328125 38.25 0.953125 
Q 33.9375 -1.421875 27.875 -1.421875 
Q 17.96875 -1.421875 11.734375 6.484375 
Q 5.515625 14.40625 5.515625 27.296875 
Q 5.515625 40.1875 11.734375 48.09375 
Q 17.96875 56 27.875 56 
Q 33.9375 56 38.25 53.625 
Q 42.578125 51.265625 45.40625 46.390625 
z
M 14.796875 27.296875 
Q 14.796875 17.390625 18.875 11.75 
Q 22.953125 6.109375 30.078125 6.109375 
Q 37.203125 6.109375 41.296875 11.75 
Q 45.40625 17.390625 45.40625 27.296875 
Q 45.40625 37.203125 41.296875 42.84375 
Q 37.203125 48.484375 30.078125 48.484375 
Q 22.953125 48.484375 18.875 42.84375 
Q 14.796875 37.203125 14.796875 27.296875 
z
" id="DejaVuSans-64"/>
      <path d="M 54.890625 33.015625 
L 54.890625 0 
L 45.90625 0 
L 45.90625 32.71875 
Q 45.90625 40.484375 42.875 44.328125 
Q 39.84375 48.1875 33.796875 48.1875 
Q 26.515625 48.1875 22.3125 43.546875 
Q 18.109375 38.921875 18.109375 30.90625 
L 18.109375 0 
L 9.078125 0 
L 9.078125 54.6875 
L 18.109375 54.6875 
L 18.109375 46.1875 
Q 21.34375 51.125 25.703125 53.5625 
Q 30.078125 56 35.796875 56 
Q 45.21875 56 50.046875 50.171875 
Q 54.890625 44.34375 54.890625 33.015625 
z
" id="DejaVuSans-6e"/>
     </defs>
     <g transform="translate(392.743086 109.162955)scale(0.08 -0.08)">
      <use xlink:href="#DejaVuSans-42"/>
      <use x="68.603516" xlink:href="#DejaVuSans-65"/>
      <use x="130.126953" xlink:href="#DejaVuSans-64"/>
      <use x="193.603516" xlink:href="#DejaVuSans-6e"/>
      <use x="256.982422" xlink:href="#DejaVuSans-61"/>
      <use x="318.261719" xlink:href="#DejaVuSans-72"/>
      <use x="359.375" xlink:href="#DejaVuSans-7a"/>
     </g>
    </g>
   </g>
   <g id="text_4">
    <g clip-path="url(#p7a6d4d66f7)">
     <!-- Tom V -->
     <defs>
      <path d="M -0.296875 72.90625 
L 61.375 72.90625 
L 61.375 64.59375 
L 35.5 64.59375 
L 35.5 0 
L 25.59375 0 
L 25.59375 64.59375 
L -0.296875 64.59375 
z
" id="DejaVuSans-54"/>
      <path d="M 52 44.1875 
Q 55.375 50.25 60.0625 53.125 
Q 64.75 56 71.09375 56 
Q 79.640625 56 84.28125 50.015625 
Q 88.921875 44.046875 88.921875 33.015625 
L 88.921875 0 
L 79.890625 0 
L 79.890625 32.71875 
Q 79.890625 40.578125 77.09375 44.375 
Q 74.3125 48.1875 68.609375 48.1875 
Q 61.625 48.1875 57.5625 43.546875 
Q 53.515625 38.921875 53.515625 30.90625 
L 53.515625 0 
L 44.484375 0 
L 44.484375 32.71875 
Q 44.484375 40.625 41.703125 44.40625 
Q 38.921875 48.1875 33.109375 48.1875 
Q 26.21875 48.1875 22.15625 43.53125 
Q 18.109375 38.875 18.109375 30.90625 
L 18.109375 0 
L 9.078125 0 
L 9.078125 54.6875 
L 18.109375 54.6875 
L 18.109375 46.1875 
Q 21.1875 51.21875 25.484375 53.609375 
Q 29.78125 56 35.6875 56 
Q 41.65625 56 45.828125 52.96875 
Q 50 49.953125 52 44.1875 
z
" id="DejaVuSans-6d"/>
      <path d="M 28.609375 0 
L 0.78125 72.90625 
L 11.078125 72.90625 
L 34.1875 11.53125 
L 57.328125 72.90625 
L 67.578125 72.90625 
L 39.796875 0 
z
" id="DejaVuSans-56"/>
     </defs>
     <g transform="translate(466.87906 177.890227)scale(0.08 -0.08)">
      <use xlink:href="#DejaVuSans-54"/>
      <use x="60.818359" xlink:href="#DejaVuSans-6f"/>
      <use x="122" xlink:href="#DejaVuSans-6d"/>
      <use x="219.412109" xlink:href="#DejaVuSans-20"/>
      <use x="251.199219" xlink:href="#DejaVuSans-56"/>
     </g>
    </g>
   </g>
   <g id="text_5">
    <g clip-path="url(#p7a6d4d66f7)">
     <!-- Asia -->
     <defs>
      <path d="M 34.1875 63.1875 
L 20.796875 26.90625 
L 47.609375 26.90625 
z
M 28.609375 72.90625 
L 39.796875 72.90625 
L 67.578125 0 
L 57.328125 0 
L 50.6875 18.703125 
L 17.828125 18.703125 
L 11.1875 0 
L 0.78125 0 
z
" id="DejaVuSans-41"/>
      <path d="M 9.421875 54.6875 
L 18.40625 54.6875 
L 18.40625 0 
L 9.421875 0 
z
M 9.421875 75.984375 
L 18.40625 75.984375 
L 18.40625 64.59375 
L 9.421875 64.59375 
z
" id="DejaVuSans-69"/>
     </defs>
     <g transform="translate(172.815577 109.162955)scale(0.08 -0.08)">
      <use xlink:href="#DejaVuSans-41"/>
      <use x="68.408203" xlink:href="#DejaVuSans-73"/>
      <use x="120.507812" xlink:href="#DejaVuSans-69"/>
      <use x="148.291016" xlink:href="#DejaVuSans-61"/>
     </g>
    </g>
   </g>
   <g id="text_6">
    <g clip-path="url(#p7a6d4d66f7)">
     <!-- Kopek -->
     <defs>
      <path d="M 9.8125 72.90625 
L 19.671875 72.90625 
L 19.671875 42.09375 
L 52.390625 72.90625 
L 65.09375 72.90625 
L 28.90625 38.921875 
L 67.671875 0 
L 54.6875 0 
L 19.671875 35.109375 
L 19.671875 0 
L 9.8125 0 
z
" id="DejaVuSans-4b"/>
      <path d="M 18.109375 8.203125 
L 18.109375 -20.796875 
L 9.078125 -20.796875 
L 9.078125 54.6875 
L 18.109375 54.6875 
L 18.109375 46.390625 
Q 20.953125 51.265625 25.265625 53.625 
Q 29.59375 56 35.59375 56 
Q 45.5625 56 51.78125 48.09375 
Q 58.015625 40.1875 58.015625 27.296875 
Q 58.015625 14.40625 51.78125 6.484375 
Q 45.5625 -1.421875 35.59375 -1.421875 
Q 29.59375 -1.421875 25.265625 0.953125 
Q 20.953125 3.328125 18.109375 8.203125 
z
M 48.6875 27.296875 
Q 48.6875 37.203125 44.609375 42.84375 
Q 40.53125 48.484375 33.40625 48.484375 
Q 26.265625 48.484375 22.1875 42.84375 
Q 18.109375 37.203125 18.109375 27.296875 
Q 18.109375 17.390625 22.1875 11.75 
Q 26.265625 6.109375 33.40625 6.109375 
Q 40.53125 6.109375 44.609375 11.75 
Q 48.6875 17.390625 48.6875 27.296875 
z
" id="DejaVuSans-70"/>
     </defs>
     <g transform="translate(98.352815 177.890227)scale(0.08 -0.08)">
      <use xlink:href="#DejaVuSans-4b"/>
      <use x="65.498047" xlink:href="#DejaVuSans-6f"/>
      <use x="126.679688" xlink:href="#DejaVuSans-70"/>
      <use x="190.15625" xlink:href="#DejaVuSans-65"/>
      <use x="251.679688" xlink:href="#DejaVuSans-6b"/>
     </g>
    </g>
   </g>
   <g id="text_7">
    <g clip-path="url(#p7a6d4d66f7)">
     <!-- Pawel -->
     <defs>
      <path d="M 19.671875 64.796875 
L 19.671875 37.40625 
L 32.078125 37.40625 
Q 38.96875 37.40625 42.71875 40.96875 
Q 46.484375 44.53125 46.484375 51.125 
Q 46.484375 57.671875 42.71875 61.234375 
Q 38.96875 64.796875 32.078125 64.796875 
z
M 9.8125 72.90625 
L 32.078125 72.90625 
Q 44.34375 72.90625 50.609375 67.359375 
Q 56.890625 61.8125 56.890625 51.125 
Q 56.890625 40.328125 50.609375 34.8125 
Q 44.34375 29.296875 32.078125 29.296875 
L 19.671875 29.296875 
L 19.671875 0 
L 9.8125 0 
z
" id="DejaVuSans-50"/>
      <path d="M 4.203125 54.6875 
L 13.1875 54.6875 
L 24.421875 12.015625 
L 35.59375 54.6875 
L 46.1875 54.6875 
L 57.421875 12.015625 
L 68.609375 54.6875 
L 77.59375 54.6875 
L 63.28125 0 
L 52.6875 0 
L 40.921875 44.828125 
L 29.109375 0 
L 18.5 0 
z
" id="DejaVuSans-77"/>
      <path d="M 9.421875 75.984375 
L 18.40625 75.984375 
L 18.40625 0 
L 9.421875 0 
z
" id="DejaVuSans-6c"/>
     </defs>
     <g transform="translate(99.032815 262.842864)scale(0.08 -0.08)">
      <use xlink:href="#DejaVuSans-50"/>
      <use x="60.240234" xlink:href="#DejaVuSans-61"/>
      <use x="121.519531" xlink:href="#DejaVuSans-77"/>
      <use x="203.306641" xlink:href="#DejaVuSans-65"/>
      <use x="264.830078" xlink:href="#DejaVuSans-6c"/>
     </g>
    </g>
   </g>
   <g id="text_8">
    <g clip-path="url(#p7a6d4d66f7)">
     <!-- PG -->
     <defs>
      <path d="M 59.515625 10.40625 
L 59.515625 29.984375 
L 43.40625 29.984375 
L 43.40625 38.09375 
L 69.28125 38.09375 
L 69.28125 6.78125 
Q 63.578125 2.734375 56.6875 0.65625 
Q 49.8125 -1.421875 42 -1.421875 
Q 24.90625 -1.421875 15.25 8.5625 
Q 5.609375 18.5625 5.609375 36.375 
Q 5.609375 54.25 15.25 64.234375 
Q 24.90625 74.21875 42 74.21875 
Q 49.125 74.21875 55.546875 72.453125 
Q 61.96875 70.703125 67.390625 67.28125 
L 67.390625 56.78125 
Q 61.921875 61.421875 55.765625 63.765625 
Q 49.609375 66.109375 42.828125 66.109375 
Q 29.4375 66.109375 22.71875 58.640625 
Q 16.015625 51.171875 16.015625 36.375 
Q 16.015625 21.625 22.71875 14.15625 
Q 29.4375 6.6875 42.828125 6.6875 
Q 48.046875 6.6875 52.140625 7.59375 
Q 56.25 8.5 59.515625 10.40625 
z
" id="DejaVuSans-47"/>
     </defs>
     <g transform="translate(175.686827 331.570136)scale(0.08 -0.08)">
      <use xlink:href="#DejaVuSans-50"/>
      <use x="60.302734" xlink:href="#DejaVuSans-47"/>
     </g>
    </g>
   </g>
   <g id="text_9">
    <g clip-path="url(#p7a6d4d66f7)">
     <!-- Markus -->
     <defs>
      <path d="M 8.5 21.578125 
L 8.5 54.6875 
L 17.484375 54.6875 
L 17.484375 21.921875 
Q 17.484375 14.15625 20.5 10.265625 
Q 23.53125 6.390625 29.59375 6.390625 
Q 36.859375 6.390625 41.078125 11.03125 
Q 45.3125 15.671875 45.3125 23.6875 
L 45.3125 54.6875 
L 54.296875 54.6875 
L 54.296875 0 
L 45.3125 0 
L 45.3125 8.40625 
Q 42.046875 3.421875 37.71875 1 
Q 33.40625 -1.421875 27.6875 -1.421875 
Q 18.265625 -1.421875 13.375 4.4375 
Q 8.5 10.296875 8.5 21.578125 
z
M 31.109375 56 
z
" id="DejaVuSans-75"/>
     </defs>
     <g transform="translate(280.722694 357.822045)scale(0.08 -0.08)">
      <use xlink:href="#DejaVuSans-4d"/>
      <use x="86.279297" xlink:href="#DejaVuSans-61"/>
      <use x="147.558594" xlink:href="#DejaVuSans-72"/>
      <use x="188.671875" xlink:href="#DejaVuSans-6b"/>
      <use x="246.535156" xlink:href="#DejaVuSans-75"/>
      <use x="309.914062" xlink:href="#DejaVuSans-73"/>
     </g>
    </g>
   </g>
   <g id="text_10">
    <g clip-path="url(#p7a6d4d66f7)">
     <!-- Kazik -->
     <g transform="translate(398.617461 331.570136)scale(0.08 -0.08)">
      <use xlink:href="#DejaVuSans-4b"/>
      <use x="65.560547" xlink:href="#DejaVuSans-61"/>
      <use x="126.839844" xlink:href="#DejaVuSans-7a"/>
      <use x="179.330078" xlink:href="#DejaVuSans-69"/>
      <use x="207.113281" xlink:href="#DejaVuSans-6b"/>
     </g>
    </g>
   </g>
   <g id="text_11">
    <g clip-path="url(#p7a6d4d66f7)">
     <!-- Iwona -->
     <defs>
      <path d="M 9.8125 72.90625 
L 19.671875 72.90625 
L 19.671875 0 
L 9.8125 0 
z
" id="DejaVuSans-49"/>
     </defs>
     <g transform="translate(467.77781 262.842864)scale(0.08 -0.08)">
      <use xlink:href="#DejaVuSans-49"/>
      <use x="29.492188" xlink:href="#DejaVuSans-77"/>
      <use x="111.279297" xlink:href="#DejaVuSans-6f"/>
      <use x="172.460938" xlink:href="#DejaVuSans-6e"/>
      <use x="235.839844" xlink:href="#DejaVuSans-61"/>
     </g>
    </g>
   </g>
  </g>
 </g>
 <defs>
  <clipPath id="p7a6d4d66f7">
   <rect height="332.64" width="446.4" x="72" y="51.84"/>
  </clipPath>
 </defs>
</svg>
